<?xml version="1.0" encoding="UTF-8"?>
<svg id="Layer_1" data-name="Layer 1" xmlns="http://www.w3.org/2000/svg" viewBox="0 0 99.17 4.31">
  <path d="M1.77.55c.16,0,.38-.04.44-.07v.46h-.04v-.07c0-.12-.09-.21-.21-.22h-.7v2.21c0,.13.11.23.24.23h.05v.04s-.81,0-.81,0v-.04h.05c.13,0,.23-.1.24-.23V.66H.32c-.12,0-.21.1-.21.22v.07h-.04S.07.48.07.48c.07.03.29.07.44.07h1.25Z" style="fill: #4c3a25; stroke-width: 0px;"/>
  <path d="M5.73,3.14v-.04h.05c.13,0,.23-.1.24-.23v-.96h-1.51v.95c0,.13.11.23.24.23h.05v.04s-.81,0-.81,0v-.04h.05c.13,0,.23-.1.24-.23V.82c0-.13-.11-.23-.24-.23h-.05v-.04s.81,0,.81,0v.04h-.05c-.13,0-.23.1-.24.23v.99h1.51v-.99c0-.13-.11-.23-.24-.23h-.05v-.04s.81,0,.81,0v.04h-.05c-.13,0-.23.1-.24.23v2.05c0,.13.11.23.24.23h.05v.04s-.81,0-.81,0Z" style="fill: #4c3a25; stroke-width: 0px;"/>
  <path d="M9.99,3.14h-1.53v-.04h.05c.13,0,.23-.1.24-.23V.8c-.01-.12-.11-.21-.24-.21h-.05v-.04s1.08,0,1.08,0c.16,0,.37-.04.44-.07v.47h-.04v-.07c0-.12-.09-.21-.21-.22h-.75v1.14h.62c.1,0,.18-.08.18-.18v-.05h.04s0,.58,0,.58h-.04v-.05c0-.1-.08-.18-.17-.18h-.63v1.11h.53c.39,0,.54-.2.66-.48h.04l-.22.6Z" style="fill: #4c3a25; stroke-width: 0px;"/>
  <path d="M17.19.55v.04h-.07c-.12,0-.22.1-.23.22v1.91c0,.24.03.47.03.47h-.03l-2.01-2.15v1.84c0,.12.1.22.23.22h.07v.04s-.76,0-.76,0v-.04h.07c.12,0,.23-.1.23-.22V.96c0-.25-.03-.46-.03-.46h.04l2.01,2.15V.82c0-.12-.1-.22-.23-.22h-.07v-.04s.76,0,.76,0Z" style="fill: #4c3a25; stroke-width: 0px;"/>
  <path d="M21.67,1.85c0,.81-.54,1.34-1.33,1.34s-1.33-.54-1.33-1.34.54-1.34,1.33-1.34,1.33.54,1.33,1.34ZM21.39,1.85c0-.74-.42-1.23-1.04-1.23s-1.04.49-1.04,1.23.42,1.23,1.04,1.23,1.04-.49,1.04-1.23Z" style="fill: #4c3a25; stroke-width: 0px;"/>
  <path d="M24.47.55c.45,0,.72.26.72.69,0,.36-.27.7-.63.7.08.04.19.16.26.26,0,0,.32.45.46.61.15.16.29.28.5.28v.04h-.2c-.34,0-.53-.19-.64-.32-.04-.05-.46-.66-.49-.69-.1-.12-.2-.25-.34-.25v-.03s.08,0,.2,0c.19,0,.47-.05.58-.38.02-.05.03-.14.02-.22,0-.33-.18-.55-.46-.56-.19-.01-.41,0-.46,0v2.2c0,.13.11.23.24.23h.05v.04s-.81,0-.81,0v-.04h.05c.13,0,.23-.1.24-.23V.82c0-.13-.11-.23-.24-.23h-.05v-.04s1,0,1,0Z" style="fill: #4c3a25; stroke-width: 0px;"/>
  <path d="M28.8.55c.16,0,.38-.04.44-.07v.46h-.04v-.07c0-.12-.09-.21-.21-.22h-.7v2.21c0,.13.11.23.24.23h.05v.04s-.81,0-.81,0v-.04h.05c.13,0,.23-.1.24-.23V.66h-.7c-.12,0-.21.1-.21.22v.07h-.04s0-.46,0-.46c.07.03.29.07.44.07h1.25Z" style="fill: #4c3a25; stroke-width: 0px;"/>
  <path d="M32.76,3.14v-.04h.05c.13,0,.23-.1.24-.23v-.96h-1.51v.95c0,.13.11.23.24.23h.05v.04s-.81,0-.81,0v-.04h.05c.13,0,.23-.1.24-.23V.82c0-.13-.11-.23-.24-.23h-.05v-.04s.81,0,.81,0v.04h-.05c-.13,0-.23.1-.24.23v.99h1.51v-.99c0-.13-.11-.23-.24-.23h-.05v-.04s.81,0,.81,0v.04h-.05c-.13,0-.23.1-.24.23v2.05c0,.13.11.23.24.23h.05v.04s-.81,0-.81,0Z" style="fill: #4c3a25; stroke-width: 0px;"/>
  <path d="M38.86.55c.47,0,.76.27.76.71,0,.56-.61.86-1.07.62v-.04s.61.13.77-.4c.02-.05.03-.14.02-.22,0-.34-.18-.56-.5-.56h-.43v2.21c0,.13.11.23.24.23h.05v.04s-.81,0-.81,0v-.04h.05c.13,0,.23-.1.24-.23V.8c-.01-.12-.11-.21-.24-.21h-.05v-.04s.96,0,.96,0Z" style="fill: #4c3a25; stroke-width: 0px;"/>
  <path d="M44.21,1.85c0,.81-.54,1.34-1.33,1.34s-1.33-.54-1.33-1.34.54-1.34,1.33-1.34,1.33.54,1.33,1.34ZM43.93,1.85c0-.74-.42-1.23-1.04-1.23s-1.04.49-1.04,1.23.42,1.23,1.04,1.23,1.04-.49,1.04-1.23Z" style="fill: #4c3a25; stroke-width: 0px;"/>
  <path d="M47.76,2.54l-.22.6h-1.53v-.04h.05c.13,0,.23-.1.24-.23V.82c0-.13-.11-.23-.24-.23h-.05v-.04s.81,0,.81,0v.04h-.05c-.13,0-.23.1-.24.23v2.2h.53c.39,0,.54-.2.66-.48h.04Z" style="fill: #4c3a25; stroke-width: 0px;"/>
  <path d="M51.05,3.14h-1.53v-.04h.05c.13,0,.23-.1.24-.23V.8c-.01-.12-.11-.21-.24-.21h-.05v-.04s1.08,0,1.08,0c.16,0,.37-.04.44-.07v.47h-.04v-.07c0-.12-.09-.21-.21-.22h-.75v1.14h.62c.1,0,.18-.08.18-.18v-.05h.04s0,.58,0,.58h-.04v-.05c0-.1-.08-.18-.17-.18h-.63v1.11h.53c.39,0,.54-.2.66-.48h.04l-.22.6Z" style="fill: #4c3a25; stroke-width: 0px;"/>
  <path d="M53.07,3.44c.22-.07.18-.25.12-.33-.05-.06-.12-.12-.08-.21.04-.1.22-.11.28.03.12.28-.08.53-.31.53v-.03Z" style="fill: #4c3a25; stroke-width: 0px;"/>
  <path d="M59.78,2.87c.07.16.21.23.32.23h.03v.04h-.83v-.04h.03c.1,0,.19-.08.14-.23l-.24-.63h-.99l-.25.63c-.05.15.05.23.14.23h.03v.04h-.74v-.04h.03c.11,0,.25-.07.32-.23l.84-1.99s.14-.3.14-.38h.03l.99,2.37ZM59.2,2.13l-.45-1.19-.46,1.19h.91Z" style="fill: #4c3a25; stroke-width: 0px;"/>
  <path d="M62.79.55c.45,0,.72.26.72.69,0,.36-.27.7-.63.7.08.04.19.16.26.26,0,0,.32.45.46.61.15.16.29.28.5.28v.04h-.2c-.34,0-.53-.19-.64-.32-.04-.05-.46-.66-.49-.69-.1-.12-.2-.25-.34-.25v-.03s.08,0,.2,0c.19,0,.47-.05.58-.38.02-.05.03-.14.02-.22,0-.33-.18-.55-.46-.56-.19-.01-.41,0-.46,0v2.2c0,.13.11.23.24.23h.05v.04s-.81,0-.81,0v-.04h.05c.13,0,.23-.1.24-.23V.82c0-.13-.11-.23-.24-.23h-.05v-.04h1Z" style="fill: #4c3a25; stroke-width: 0px;"/>
  <path d="M67.11.55c.16,0,.38-.04.45-.07v.46h-.04v-.07c0-.12-.09-.21-.21-.22h-.7v2.21c0,.13.11.23.24.23h.05v.04s-.81,0-.81,0v-.04h.05c.13,0,.23-.1.24-.23V.66h-.7c-.12,0-.21.1-.21.22v.07h-.04s0-.46,0-.46c.07.03.29.07.44.07h1.25Z" style="fill: #4c3a25; stroke-width: 0px;"/>
  <path d="M70.13,3.14h-.81v-.04h.05c.13,0,.23-.1.24-.23V.82c0-.13-.11-.23-.24-.23h-.05v-.04s.81,0,.81,0v.04h-.05c-.13,0-.23.1-.24.23v2.05c0,.13.11.23.24.23h.05v.04Z" style="fill: #4c3a25; stroke-width: 0px;"/>
  <path d="M74.38,2.06l-.04.58c-.19.32-.53.55-1.04.55-.77,0-1.32-.53-1.32-1.35s.53-1.34,1.34-1.34c.36,0,.66.11.87.25l.07.52h-.03c-.11-.43-.47-.66-.92-.66-.65,0-1.06.49-1.06,1.23s.42,1.23,1.04,1.24c.52,0,.97-.26,1.05-1.02h.03Z" style="fill: #4c3a25; stroke-width: 0px;"/>
  <path d="M81.06,2.06l-.04.58c-.19.32-.53.55-1.04.55-.77,0-1.32-.53-1.32-1.35s.53-1.34,1.34-1.34c.36,0,.66.11.87.25l.07.52h-.03c-.11-.43-.47-.66-.92-.66-.65,0-1.06.49-1.06,1.23s.42,1.23,1.04,1.24c.52,0,.97-.26,1.05-1.02h.03Z" style="fill: #4c3a25; stroke-width: 0px;"/>
  <path d="M83.75,3.14h-.81v-.04h.05c.13,0,.23-.1.24-.23V.82c0-.13-.11-.23-.24-.23h-.05v-.04s.81,0,.81,0v.04h-.05c-.13,0-.23.1-.24.23v2.05c0,.13.11.23.24.23h.05v.04Z" style="fill: #4c3a25; stroke-width: 0px;"/>
  <path d="M86.67.55c.45,0,.72.26.72.69,0,.36-.27.7-.63.7.08.04.19.16.26.26,0,0,.32.45.46.61.15.16.29.28.5.28v.04h-.2c-.34,0-.53-.19-.64-.32-.04-.05-.46-.66-.49-.69-.1-.12-.2-.25-.34-.25v-.03s.08,0,.2,0c.19,0,.47-.05.58-.38.02-.05.03-.14.02-.22,0-.33-.18-.55-.46-.56-.19-.01-.41,0-.46,0v2.2c0,.13.11.23.24.23h.05v.04s-.81,0-.81,0v-.04h.05c.13,0,.23-.1.24-.23V.82c0-.13-.11-.23-.24-.23h-.05v-.04h1Z" style="fill: #4c3a25; stroke-width: 0px;"/>
  <path d="M91.89,2.06l-.04.58c-.19.32-.53.55-1.04.55-.77,0-1.32-.53-1.32-1.35s.53-1.34,1.34-1.34c.36,0,.66.11.87.25l.07.52h-.03c-.11-.43-.47-.66-.92-.66-.65,0-1.06.49-1.06,1.23s.42,1.23,1.04,1.24c.52,0,.97-.26,1.05-1.02h.03Z" style="fill: #4c3a25; stroke-width: 0px;"/>
  <path d="M95.51,2.54l-.21.6h-1.53v-.04h.05c.13,0,.23-.1.24-.23V.82c0-.13-.11-.23-.24-.23h-.05v-.04s.81,0,.81,0v.04h-.05c-.13,0-.23.1-.24.23v2.2h.53c.39,0,.54-.2.66-.48h.04Z" style="fill: #4c3a25; stroke-width: 0px;"/>
  <path d="M98.8,3.14h-1.53v-.04h.05c.13,0,.23-.1.24-.23V.8c-.01-.12-.11-.21-.24-.21h-.05v-.04s1.08,0,1.08,0c.16,0,.37-.04.44-.07v.47h-.04v-.07c0-.12-.09-.21-.21-.22h-.75v1.14h.62c.1,0,.18-.08.18-.18v-.05h.04s0,.58,0,.58h-.04v-.05c0-.1-.08-.18-.17-.18h-.63v1.11h.53c.39,0,.54-.2.66-.48h.04l-.21.6Z" style="fill: #4c3a25; stroke-width: 0px;"/>
</svg>