<?xml version="1.0" encoding="utf-8"?>
<!-- Generator: Adobe Illustrator 28.2.0, SVG Export Plug-In . SVG Version: 6.00 Build 0)  -->
<svg version="1.1" id="Layer_1" xmlns="http://www.w3.org/2000/svg" xmlns:xlink="http://www.w3.org/1999/xlink" x="0px" y="0px"
	 viewBox="0 0 1502 621.5" style="enable-background:new 0 0 1502 621.5;" xml:space="preserve">
<style type="text/css">
	.st0{fill:#323256;}
</style>
<path class="st0" d="M959.7,621.5H847.1c-0.6,0.4-1.3,0.8-1.9,1.2c-2,1.2-4.2,1.8-6.6,1.7c-2.6-0.1-4.7-1.2-6.1-2.9H598.6
	c0.7-0.7,1.4-1.3,2.2-1.9c1.8-1.4,3.7-2.6,5.6-4c2.6-1.9,5.3-3.9,7.9-5.8c0.4-0.3,0.7-0.6,1.2-1.2c-0.7,0.1-1,0-1.3,0.1
	c-5.5,1.6-10.7,0.6-15.8-1.6c-2.7-1.2-5.1-2.7-7.4-4.6c-2.5-2-4.2-4.6-5.3-7.6c-0.9-2.5-0.8-5.2,0.2-7.7c0.9-2.6,2.4-4.8,4.4-6.7
	c4.1-3.9,8.8-6.4,14.4-7.3c4.3-0.7,8.6-1.5,12.8-2.4c5.6-1.3,11.2-2.9,16.6-4.9c2.3-0.8,4.6-1.8,6.9-2.8c8.4-3.7,16.1-8.6,23.2-14.4
	c4.4-3.6,8.5-7.3,12.4-11.4c2.2-2.4,4.2-5,6-7.7c1.3-2,2.2-4.1,3.1-6.3c0.1-0.3,0.1-0.6,0.2-0.9c-2.1-0.7-4.1-1.2-6-2
	c-2.6-1-5.1-2.2-7.6-3.4c-1.9-1-3.6-2.3-5.1-3.9c-0.3-0.3-0.6-0.6-0.8-0.9c-1.7-2.2-2.5-4.6-2.4-7.2c0-0.9,0.2-1.9,0.4-2.8
	c0.4-1.8,1.1-3.4,2.1-5c0.2-0.3,0.4-0.6,0.5-0.8c-0.3-0.4-0.5-0.1-0.8-0.1c-1.7,0.4-3.3,0.9-5,1.3c-0.9,0.2-1.8,0.2-2.6,0.5
	c-2.8,0.9-5.5,0.5-8.2-0.1c-2.9-0.6-5.5-1.9-7.8-3.7c-0.3-0.2-0.6-0.4-0.8-0.7c-2-2.3-4-4.6-5.1-7.5c-1.6-4.1-1.5-8.3,0.3-12.3
	c0.9-2.1,2.3-3.7,4.2-5c2.5-1.8,5.2-2.9,8.2-3.3c3.2-0.4,6.2-1.4,9.3-2.1c0.2,0,0.3-0.2,0.6-0.4c-0.3-0.1-0.5-0.2-0.6-0.2
	c-2.2,0-4.2-0.7-6.2-1.7c-2.4-1.2-4.6-2.4-6.5-4.4c0,0,0,0,0-0.1c-3-3.1-4.2-6.8-3.9-10.3c0.2-2.6,1.2-5.1,2.9-7.2
	c3.2-4.2,7.5-6.5,12.8-6.9c2.4-0.2,4.7-0.2,7.1-0.2c2.9,0,5.7-0.5,8.4-1.3c5.2-1.5,10-3.8,14.4-6.9c6.1-4.4,12-8.9,17.5-14.1
	c1.8-1.7,3.4-3.5,4.8-5.4c1.3-1.9,2.3-3.9,3.3-6.2c-0.6-0.1-1-0.2-1.5-0.2c-3.3,0-6.4-0.8-9.5-2c-1.4-0.6-2.6-1.5-3.7-2.6
	c-2.1-2.3-2.6-5-1.6-7.9c0.3-1,0.8-1.9,1.3-3c-0.5,0-0.9,0-1.2,0.1c-3.6,1.1-7.3,1.5-11.1,1.4c-4.2-0.1-7.6-1.9-10-5.5
	c-1-1.5-1.5-3.3-1.5-5.1c0-3.9,1.5-7.3,4.3-10c1.6-1.5,3.5-2.5,5.7-2.7c1.5-0.1,3-0.2,4.6-0.2c2.6,0,5.1-0.5,7.6-1
	c0.2-0.1,0.5-0.2,1-0.5c-0.6-0.1-0.8-0.2-1-0.2c-3.5-0.5-6.6-1.9-9.6-3.8c-5.2-3.4-5.4-10.4-1.7-14.8c1.2-1.4,2.7-2.4,4.4-3.1
	c2-0.9,4.1-1.6,6.3-2c4.2-0.7,8.2-2,12.3-3c6.4-1.6,12.2-4.6,17.1-9c2.2-2,4.5-3.9,6.6-6c3.1-3,5.8-6.3,7.9-10.1
	c0.7-1.3,1.6-2.6,2.3-3.9c2.2-4.2,3.7-8.8,5.4-13.3c1.4-3.7,2.7-7.4,4-11.1c1.8-4.9,3.8-9.7,6.2-14.3c1.4-2.6,3.1-4.9,5-7.1
	c2.3-2.6,5.1-4.7,8.6-5.6c3.2-0.8,6.3-0.5,9,1.8c2.7,2.2,5,4.8,6.4,8.1c1.1,2.5,2,5,3,7.5c1.7,4.4,3.3,8.8,5,13.2
	c0.7,1.7,1.6,3.2,2.4,4.8c1.3,2.4,2.7,4.8,4.1,7.2c2.4,4.4,5.1,8.7,8,12.9c2.2,3.1,4.7,6,7.3,8.8c5.6,5.8,12.3,9.5,19.9,12
	c4.1,1.3,8.3,2,12.6,2.6c3,0.4,6,0.8,9.1,1.2c1.1,0.2,2.2,0.5,3.2,0.8c2.2,0.6,3.6,2,4.5,4c0.7,1.8,1.1,3.6,1.2,5.5
	c0.1,2.3-0.6,4.4-2,6.2c-2,2.6-4.5,4.4-7.8,5.2c-2,0.5-3.9,0.9-6,0.8c-0.2,0-0.5,0.1-0.7,0.1c-0.1,0.5,0.2,0.6,0.5,0.7
	c2.2,1.2,4.5,1.8,6.9,2.1c2.1,0.3,4.3,0.4,6.4,0.6c0.9,0.1,1.8,0.1,2.7,0.2c1.5,0.2,2.8,0.7,4,1.4c0.3,0.2,0.6,0.4,0.9,0.7
	c1.8,1.4,2.7,3.3,2.8,5.6c0.1,3.6-1.3,6.4-4.1,8.4c-0.2,0.1-0.3,0.2-0.5,0.4c-2.9,1.9-6.2,2.7-9.7,2.6c-0.5,0-1.1,0-1.8,0
	c0.1,0.4,0.2,0.8,0.3,1.2c1,3.2-0.4,6-3.6,7.2c-1.9,0.7-3.9,0.8-5.9,0.7c-1.2-0.1-2.4-0.1-3.5-0.2c-1.1-0.1-2.2-0.4-3.2-0.6
	c-0.4,0.4,0,0.8,0,1.1c1.3,4.6,0.1,8.5-3.1,11.8c-1.2,1.2-2.6,2.2-4.2,3c-0.3,0.1-0.6,0.3-1,0.5c0.4,1.3,0.9,2.6,1.5,3.7
	c1.4,2.9,2.8,5.7,4.4,8.5c1.7,2.8,3.7,5.4,6,7.6c2.9,2.8,6.2,5,10,6.8c5.1,2.5,10.5,4.1,16.1,4.7c4,0.4,8,0.8,12,1.2
	c2.5,0.3,5,0.6,7.4,1.3c1.5,0.4,2.9,1.1,4.2,1.8c3,1.6,4.4,4.4,4.9,7.5c0.4,2,0,4-0.8,5.9c-0.6,1.4-1.4,2.6-2.6,3.5
	c-1.8,1.4-3.7,2.4-5.9,2.9c-4.5,1.2-9.1,1-13.6,0.2c-1.7-0.3-3.4-0.8-5-1.2c-0.6-0.2-1.3-0.4-2-0.4c0.4,0.3,0.7,0.6,1.1,0.8
	c4,2.3,8.3,3.7,12.9,4.4c3.4,0.5,6.8,1.2,10.2,2.1c2.7,0.7,5.1,2.1,7.3,3.8c2.6,2,3.9,4.6,3.9,7.9c0.1,2.5-0.4,5-1.6,7.2
	c-1.5,3.1-3.7,5.6-6.7,7.5c-3.2,2.1-6.8,3.4-10.6,4.1c-3.3,0.6-6.6,0.9-9.9,1c-4.8,0.1-9.4-0.8-13.9-2.4c0,0,0,0,0,0
	c-0.3-0.1-0.6-0.2-0.9-0.3c-0.7-0.3-1.4-0.5-2.2-0.5c0.6,0.4,1.2,0.9,1.8,1.3c2.1,1.5,4.2,3,6.2,4.6c1.8,1.4,3.4,3.1,4.9,4.8
	c0.8,0.9,1.3,1.8,1.6,2.8c1.2,3.6-0.1,7.5-2.5,9.6c-2.8,2.4-6,3.8-9.6,4c-0.1,0-0.2,0-0.3,0h0c-1.8,0.1-3.7,0-5.5,0
	c-0.4,0-0.8,0-1.3,0c0,1.7,0.4,3.2,0.9,4.7c0,0,0,0.1,0.1,0.2c3.5,10,9.9,17.7,18.4,23.9c8,5.8,16.9,9.9,26.4,12.9
	c7.8,2.5,15.8,4.3,23.8,5.8c5.3,1,10.6,2.1,15.8,3.8c1.9,0.6,3.6,1.4,5.2,2.4c1.9,1.2,3.5,2.7,5,4.5c2,2.6,3.3,5.5,3.7,8.6
	c0.1,0.8,0.1,1.6,0.1,2.4c0,1.3-0.3,2.5-0.8,3.6c-2.4,5.9-6.7,9.3-13.1,10.1c-3.5,0.5-6.9,0.3-10.3-0.4c-0.3,0-0.7,0-1.2-0.1
	c0.3,0.5,0.5,0.8,0.7,1c1.2,1.5,2.5,2.7,4,3.9c4.2,3.4,8.8,6.3,13.6,8.8c2.3,1.2,4.6,2.5,7,3.7c1.2,0.6,2.3,1.4,3.2,2.3
	C958.9,620.6,959.3,621.1,959.7,621.5L959.7,621.5z"/>
<path class="st0" d="M706,613.7c0,0.9-0.2,1.8-0.5,2.7c-0.9,2.2-2.2,4-3.9,5.2H437.3c-0.4-0.7-0.7-1.4-1-2.1
	c-0.7-1.9-0.5-3.8,0.1-5.7c0.7-1.9,1.8-3.5,3.2-4.9c3-2.8,6.4-4.7,10.5-5.3c3.1-0.5,6.3-1.1,9.4-1.8c5.9-1.3,11.6-3.1,17.1-5.6
	c6.1-2.7,11.8-6.3,17-10.5c1.9-1.5,3.7-3.1,5.4-4.7c1.2-1.2,2.4-2.3,3.6-3.6c1.6-1.7,3.1-3.6,4.4-5.6c0.9-1.4,1.6-3,2.3-4.6
	c0.1-0.2,0.1-0.5,0.1-0.7c-1.5-0.5-3-0.9-4.4-1.4c-1.9-0.8-3.7-1.6-5.5-2.5c-1.4-0.7-2.6-1.7-3.7-2.8c-2.2-2.3-2.7-5-2-8
	c0.3-1.3,0.8-2.5,1.5-3.6c0.1-0.2,0.3-0.4,0.4-0.6c-0.2-0.3-0.4-0.1-0.5-0.1c-1.2,0.3-2.4,0.7-3.7,1c-0.6,0.2-1.3,0.1-1.9,0.4
	c-2,0.7-4,0.3-6,0c-2.1-0.4-4-1.4-5.7-2.7c-0.2-0.2-0.4-0.3-0.6-0.5c-1.5-1.7-2.9-3.4-3.8-5.5c-1.1-3-1.1-6,0.2-9
	c0.7-1.5,1.7-2.7,3.1-3.7c1.8-1.3,3.8-2.1,6-2.4c2.3-0.3,4.5-1,6.8-1.6c0.1,0,0.2-0.2,0.4-0.3c-0.2-0.1-0.3-0.1-0.5-0.1
	c-1.6,0-3.1-0.5-4.5-1.2c-1.7-0.9-3.4-1.8-4.8-3.2c-3.9-3.9-3.6-9.2-0.8-12.8c2.4-3.1,5.5-4.7,9.3-5c1.7-0.1,3.4-0.2,5.1-0.1
	c2.1,0,4.1-0.3,6.1-0.9c3.8-1.1,7.3-2.7,10.5-5c4.4-3.2,8.8-6.5,12.7-10.3c1.3-1.2,2.5-2.5,3.5-4c1-1.4,1.7-2.9,2.4-4.5
	c-0.4,0-0.8-0.1-1.1-0.1c-2.4,0-4.7-0.6-6.9-1.5c-1-0.4-1.9-1.1-2.7-1.9c-1.6-1.7-1.9-3.6-1.2-5.8c0.3-0.7,0.6-1.4,0.9-2.2
	c-0.4,0-0.6,0-0.9,0.1c-2.6,0.8-5.3,1.1-8.1,1c-3.1-0.1-5.5-1.4-7.3-4c-0.8-1.1-1.1-2.4-1.1-3.7c0-2.9,1.1-5.3,3.1-7.3
	c1.2-1.1,2.5-1.8,4.2-2c1.1-0.1,2.2-0.2,3.3-0.2c1.9,0,3.7-0.3,5.5-0.7c0.2,0,0.3-0.2,0.7-0.4c-0.4-0.1-0.6-0.1-0.7-0.2
	c-2.5-0.4-4.8-1.3-7-2.8c-3.8-2.5-4-7.6-1.2-10.8c0.9-1,2-1.7,3.2-2.3c1.5-0.6,3-1.2,4.6-1.4c3-0.5,6-1.5,9-2.2
	c4.7-1.2,8.9-3.4,12.5-6.5c1.6-1.4,3.3-2.9,4.8-4.4c2.3-2.2,4.2-4.6,5.8-7.4c0.5-1,1.2-1.9,1.7-2.9c1.6-3.1,2.7-6.4,3.9-9.7
	c1-2.7,1.9-5.4,2.9-8.1c1.3-3.6,2.8-7.1,4.5-10.4c1-1.9,2.2-3.6,3.7-5.2c1.7-1.9,3.7-3.4,6.3-4.1c2.4-0.6,4.6-0.4,6.6,1.3
	c2,1.6,3.7,3.5,4.7,5.9c0.8,1.8,1.5,3.6,2.2,5.5c1.2,3.2,2.4,6.4,3.7,9.6c0.5,1.2,1.2,2.4,1.8,3.5c1,1.8,2,3.5,3,5.3
	c1.8,3.2,3.8,6.4,5.9,9.4c1.6,2.3,3.4,4.4,5.3,6.4c4.1,4.2,9,7,14.5,8.7c3,1,6.1,1.5,9.2,1.9c2.2,0.3,4.4,0.5,6.6,0.9
	c0.8,0.1,1.6,0.4,2.4,0.6c1.6,0.4,2.6,1.4,3.3,2.9c0.5,1.3,0.8,2.6,0.9,4c0,1.7-0.4,3.2-1.4,4.5c-1.5,1.9-3.3,3.2-5.7,3.8
	c-1.4,0.3-2.9,0.7-4.3,0.6c-0.2,0-0.4,0-0.5,0.1c-0.1,0.4,0.2,0.4,0.3,0.5c1.6,0.9,3.3,1.3,5,1.6c1.5,0.2,3.1,0.3,4.7,0.4
	c0.6,0.1,1.3,0.1,2,0.1c0.1,0,0.2,0,0.2,0c1.3,0.2,2.4,0.7,3.3,1.5c1.3,1,2,2.4,2,4.1c0.1,1.9-0.5,3.5-1.5,4.7
	c-0.5,0.6-1.1,1.1-1.9,1.6c-2.1,1.4-4.5,1.9-7.1,1.9c-0.4,0-0.8,0-1.3,0c0.1,0.3,0.2,0.6,0.2,0.9c0.7,2.4-0.3,4.4-2.6,5.2
	c-1.4,0.5-2.9,0.6-4.3,0.5c-0.9-0.1-1.7-0.1-2.6-0.2c-0.8-0.1-1.6-0.3-2.4-0.4c-0.3,0.3,0,0.6,0,0.8c1,3.3,0.1,6.2-2.3,8.6
	c-0.9,0.9-1.9,1.6-3.1,2.2c-0.2,0.1-0.4,0.2-0.7,0.4c0.3,1,0.7,1.9,1.1,2.7c1,2.1,2,4.2,3.2,6.2c2.8,4.7,6.8,8.1,11.7,10.5
	c3.7,1.8,7.6,3,11.7,3.4c2.9,0.3,5.8,0.6,8.8,0.9c1.8,0.2,3.6,0.5,5.4,1c1.1,0.3,2.1,0.8,3.1,1.3c0.4,0.2,0.8,0.5,1.2,0.8
	c1.4,1.2,2.1,2.8,2.4,4.7c0.1,0.9,0.1,1.7,0,2.5c-0.1,0.6-0.3,1.2-0.5,1.8c-0.4,1-1,1.9-1.9,2.5c-1.3,1-2.7,1.7-4.3,2.2
	c-3.3,0.9-6.6,0.7-9.9,0.1c-1.2-0.2-2.5-0.6-3.7-0.9c-0.5-0.1-1-0.3-1.5-0.2c0.3,0.2,0.5,0.4,0.8,0.6c2.9,1.7,6.1,2.7,9.4,3.2
	c2.5,0.4,5,0.9,7.4,1.5c2,0.5,3.7,1.5,5.3,2.8c1.9,1.5,2.8,3.4,2.9,5.7c0,1.8-0.3,3.6-1.1,5.3c-1.1,2.3-2.7,4.1-4.8,5.5
	c-2.4,1.5-5,2.5-7.7,3c-2.4,0.4-4.8,0.7-7.2,0.7c-3.8,0.1-7.3-0.7-10.8-2c-0.5-0.2-1-0.4-1.6-0.4c0.4,0.3,0.9,0.6,1.3,1
	c1.5,1.1,3,2.2,4.5,3.3c1.3,1,2.5,2.2,3.6,3.5c2.6,2.9,1.5,7.1-0.6,9c-2,1.8-4.4,2.7-7,2.9c-1.4,0.1-2.8,0-4.2,0h-1
	c0,1,0.2,1.9,0.4,2.8c0.1,0.2,0.1,0.5,0.2,0.7c2.5,7.3,7.2,13,13.4,17.5c5.9,4.2,12.4,7.2,19.2,9.4c5.7,1.8,11.5,3.1,17.4,4.2
	c3.9,0.8,7.7,1.6,11.5,2.8c3,1,5.5,2.6,7.4,5C705.1,608,706.1,610.7,706,613.7z"/>
<path class="st0" d="M266,621.5H61.6c0,0,0,0,0,0c0.8-1.9,2.1-3.5,3.8-4.7c1-0.8,2.1-1.5,3.1-2.2c1.5-1.1,2.9-2.1,4.4-3.2
	c0.2-0.2,0.4-0.4,0.7-0.7c-0.4,0-0.6,0-0.7,0.1c-3,0.9-5.9,0.3-8.8-0.9c-1.5-0.6-2.9-1.5-4.1-2.5c-1.4-1.1-2.3-2.6-2.9-4.2
	c-0.5-1.4-0.4-2.9,0.1-4.3c0.5-1.4,1.4-2.7,2.5-3.7c2.3-2.1,4.9-3.6,8-4c2.4-0.4,4.8-0.8,7.1-1.3c4.5-1,8.8-2.4,13-4.2
	c4.7-2.1,9-4.8,12.9-8c2.4-2,4.7-4,6.9-6.3c1.2-1.3,2.4-2.7,3.3-4.3c0.1-0.1,0.1-0.2,0.2-0.3c0.6-1,1.1-2.1,1.5-3.2
	c0.1-0.2,0.1-0.4,0.1-0.5c-1.2-0.4-2.3-0.7-3.3-1.1c-1.4-0.6-2.8-1.2-4.2-1.9c-1.1-0.5-2-1.3-2.8-2.1c-1.7-1.7-2.1-3.8-1.6-6.1
	c0.2-1,0.6-1.9,1.2-2.7c0.1-0.2,0.2-0.3,0.3-0.5c-0.2-0.2-0.3-0.1-0.4,0c-0.9,0.2-1.8,0.5-2.8,0.7c-0.5,0.1-1,0.1-1.5,0.3
	c-1.5,0.5-3,0.3-4.5,0c-1.6-0.3-3-1.1-4.3-2c-0.2-0.1-0.3-0.2-0.4-0.4c-1.1-1.3-2.2-2.6-2.8-4.2c-0.9-2.3-0.8-4.6,0.2-6.8
	c0.5-1.2,1.3-2.1,2.3-2.8c1.4-1,2.9-1.6,4.6-1.8c1.8-0.2,3.4-0.8,5.2-1.2c0.1,0,0.2-0.1,0.3-0.2c-0.2,0-0.3-0.1-0.3-0.1
	c-1.2,0-2.3-0.4-3.4-0.9c-1.3-0.7-2.6-1.4-3.6-2.4c-0.3-0.3-0.6-0.6-0.8-0.9c-1.9-2.6-1.8-5.8-0.2-8.2c0.1-0.2,0.3-0.4,0.4-0.6
	c1.8-2.3,4.2-3.6,7.1-3.8c1.3-0.1,2.6-0.1,3.9-0.1c1.6,0,3.1-0.3,4.7-0.7c2.9-0.8,5.5-2.1,8-3.8c3.4-2.4,6.7-5,9.7-7.8
	c1-0.9,1.9-1.9,2.7-3c0.8-1,1.3-2.2,1.8-3.4c-0.3,0-0.6-0.1-0.8-0.1c-1.8,0-3.6-0.4-5.3-1.1c-0.8-0.3-1.5-0.8-2-1.5
	c-1.2-1.3-1.5-2.8-0.9-4.4c0.2-0.5,0.4-1.1,0.7-1.7c-0.3,0-0.5,0-0.7,0.1c-1.4,0.5-2.8,0.7-4.3,0.8c-0.6,0-1.2,0-1.8,0
	c-2.3-0.1-4.2-1-5.5-3c-0.2-0.2-0.3-0.5-0.4-0.8c-0.3-0.6-0.4-1.3-0.4-2.1c0-1.4,0.3-2.6,0.9-3.7c0.4-0.7,0.9-1.3,1.5-1.9
	c0.8-0.8,1.8-1.3,2.9-1.5c0.1,0,0.2,0,0.3,0c0.8-0.1,1.7-0.1,2.5-0.1c1.4,0,2.8-0.3,4.2-0.5c0.1,0,0.2-0.1,0.6-0.3
	c-0.3-0.1-0.4-0.1-0.6-0.1c-1.9-0.3-3.7-1-5.3-2.1c-0.1-0.1-0.2-0.2-0.4-0.3c-2.2-1.7-2.5-4.6-1.3-6.8c0.2-0.4,0.4-0.8,0.7-1.1
	c0.7-0.8,1.5-1.3,2.4-1.7c1.1-0.5,2.3-0.9,3.5-1.1c2.3-0.4,4.6-1.1,6.8-1.7c3.6-0.9,6.7-2.6,9.5-5c1.2-1.1,2.5-2.2,3.7-3.3
	c1.7-1.7,3.2-3.5,4.4-5.6c0.4-0.7,0.9-1.4,1.3-2.2c1.2-2.4,2.1-4.9,3-7.4c0.8-2.1,1.5-4.1,2.2-6.2c1-2.7,2.1-5.4,3.5-7.9
	c0.8-1.4,1.7-2.8,2.8-3.9c1.3-1.5,2.8-2.6,4.8-3.1c1.8-0.4,3.5-0.3,5,1c1.5,1.2,2.8,2.7,3.5,4.5c0.6,1.4,1.1,2.8,1.7,4.2
	c0.9,2.4,1.8,4.9,2.8,7.3c0.4,0.9,0.9,1.8,1.4,2.7c0.7,1.4,1.5,2.7,2.3,4c1.4,2.5,2.9,4.8,4.5,7.1c1.2,1.7,2.6,3.4,4.1,4.9
	c3.1,3.2,6.9,5.3,11.1,6.6c2.3,0.7,4.6,1.1,7,1.4c1.7,0.2,3.4,0.4,5,0.7c0.6,0.1,1.2,0.3,1.8,0.4c1.2,0.3,2,1.1,2.5,2.2
	c0.4,1,0.6,2,0.7,3c0,1.3-0.3,2.4-1.1,3.4c-1.1,1.5-2.5,2.5-4.3,2.9c-1.1,0.3-2.2,0.5-3.3,0.4c-0.1,0-0.3,0-0.4,0
	c-0.1,0.3,0.1,0.3,0.2,0.4c1.2,0.7,2.5,1,3.8,1.2c1.2,0.2,2.4,0.2,3.6,0.3c0.5,0,1,0.1,1.5,0.1c1,0.1,1.9,0.5,2.7,1.2
	c1,0.8,1.5,1.8,1.6,3.1c0.1,2.1-0.8,3.7-2.6,4.9c-1.6,1.1-3.4,1.5-5.4,1.5c-0.3,0-0.6,0-1,0c0.1,0.2,0.1,0.5,0.2,0.7
	c0.5,1.8-0.2,3.3-2,4c-1.1,0.4-2.2,0.5-3.3,0.4c-0.7,0-1.3-0.1-2-0.1c-0.6-0.1-1.2-0.2-1.8-0.3c-0.2,0.2,0,0.4,0,0.6
	c0.7,2.5,0.1,4.7-1.8,6.6c-0.7,0.7-1.5,1.2-2.3,1.6c-0.2,0.1-0.3,0.2-0.5,0.3c0.2,0.7,0.5,1.4,0.8,2.1c0.8,1.6,1.5,3.2,2.4,4.7
	c2.1,3.6,5.2,6.2,8.9,8c2.8,1.4,5.8,2.3,8.9,2.6c2.2,0.2,4.4,0.5,6.6,0.7c1.4,0.2,2.8,0.3,4.1,0.7c0.8,0.2,1.6,0.6,2.3,1
	c1.7,0.9,2.4,2.4,2.7,4.2c0.2,1.1,0,2.2-0.4,3.3c-0.3,0.8-0.8,1.4-1.5,1.9c-1,0.8-2.1,1.3-3.3,1.6c-2.5,0.7-5,0.5-7.5,0.1
	c-0.9-0.2-1.9-0.5-2.8-0.7c-0.4-0.1-0.7-0.2-1.1-0.2c0.2,0.2,0.4,0.3,0.6,0.4c2.2,1.3,4.6,2,7.2,2.4c1.9,0.3,3.8,0.7,5.6,1.2
	c1.5,0.4,2.8,1.2,4.1,2.1c1.5,1.1,2.1,2.6,2.2,4.4c0,1.4-0.2,2.8-0.9,4c-0.9,1.7-2.1,3.1-3.7,4.2c-1.8,1.2-3.8,1.9-5.9,2.2
	c-1.8,0.3-3.7,0.5-5.5,0.6c-2.9,0.1-5.6-0.5-8.2-1.5c-0.4-0.1-0.8-0.3-1.2-0.3c0.3,0.2,0.7,0.5,1,0.7c1.2,0.8,2.3,1.7,3.4,2.5
	c1,0.8,1.9,1.7,2.7,2.7c1.9,2.2,1.2,5.4-0.5,6.9c-1.5,1.3-3.3,2.1-5.3,2.2c-1.1,0.1-2.2,0-3.2,0h-0.7c0,1,0.2,1.8,0.5,2.6
	c1.7,4.8,4.6,8.7,8.4,11.9c0.6,0.5,1.2,1,1.9,1.4c4.5,3.2,9.4,5.5,14.6,7.2c4.3,1.4,8.8,2.4,13.2,3.2c2.9,0.6,5.9,1.2,8.7,2.1
	c2.3,0.7,4.2,1.9,5.6,3.8c1.4,1.8,2.2,3.8,2.1,6.1c0,0.7-0.1,1.4-0.4,2c-1.4,3.3-3.7,5.2-7.3,5.6c-1.9,0.2-3.8,0.1-5.7-0.2
	c-0.2,0-0.4,0-0.7,0c0.2,0.3,0.2,0.4,0.4,0.6c0.7,0.8,1.4,1.5,2.2,2.2c2.4,1.9,4.9,3.5,7.5,4.9c1.3,0.7,2.6,1.4,3.9,2.1
	c1,0.5,1.9,1.2,2.6,2.1c0.6,0.7,0.9,1.4,1.2,2.2C266,620.6,266,621.1,266,621.5z"/>
<path class="st0" d="M506.9,621.5H190.6c0.6-0.6,1.2-1.1,1.9-1.6c1.6-1.2,3.3-2.3,4.9-3.5c2.3-1.7,4.6-3.4,6.9-5.1
	c0.3-0.2,0.6-0.6,1-1c-0.6,0.1-0.9,0-1.2,0.1c-4.8,1.4-9.4,0.5-13.8-1.4c-2.4-1-4.5-2.4-6.5-4c-2.2-1.8-3.7-4.1-4.6-6.7
	c-0.8-2.2-0.7-4.5,0.2-6.8c0.8-2.3,2.1-4.2,3.9-5.9c3.6-3.4,7.7-5.6,12.6-6.4c3.8-0.6,7.5-1.3,11.3-2.1c3-0.7,5.9-1.4,8.8-2.3
	c4-1.2,7.9-2.7,11.7-4.4c7.4-3.2,14.1-7.5,20.4-12.6c3.8-3.1,7.5-6.4,10.9-10c2-2.1,3.7-4.3,5.3-6.7c1.1-1.8,2-3.6,2.7-5.6
	c0.1-0.3,0.1-0.6,0.2-0.8c-1.8-0.6-3.6-1-5.3-1.7c-2.2-0.9-4.4-2-6.6-3c-1.7-0.8-3.2-2-4.5-3.4c-2.6-2.7-3.3-6-2.5-9.6
	c0.3-1.5,1-3,1.9-4.3c0.2-0.3,0.3-0.5,0.4-0.7c-0.2-0.4-0.5-0.1-0.6-0.1c-1.5,0.4-2.9,0.8-4.4,1.2c-0.8,0.2-1.6,0.2-2.3,0.4
	c-2.4,0.8-4.8,0.4-7.2-0.1c-2.5-0.5-4.8-1.7-6.9-3.2c-0.2-0.2-0.5-0.4-0.7-0.6c-1.8-2-3.5-4.1-4.5-6.6c-1.4-3.6-1.3-7.2,0.3-10.8
	c0.8-1.8,2.1-3.2,3.7-4.4c2.2-1.6,4.5-2.5,7.2-2.9c2.8-0.4,5.4-1.2,8.1-1.9c0.1,0,0.3-0.2,0.5-0.4c-0.2-0.1-0.4-0.1-0.5-0.1
	c-1.9,0-3.7-0.6-5.4-1.5c-2.1-1-4.1-2.1-5.7-3.8c-4.7-4.7-4.3-11-0.9-15.4c2.8-3.7,6.6-5.7,11.2-6c2.1-0.2,4.1-0.2,6.2-0.2
	c2.5,0,5-0.4,7.4-1.1c4.5-1.3,8.7-3.3,12.6-6.1c5.3-3.8,10.5-7.8,15.3-12.4c1.6-1.5,3-3,4.2-4.8c1.2-1.6,2-3.4,2.9-5.4
	c-0.5-0.1-0.9-0.2-1.3-0.2c-2.9,0-5.6-0.7-8.3-1.8c-1.3-0.5-2.3-1.3-3.2-2.3c-1.9-2-2.3-4.3-1.4-6.9c0.3-0.9,0.7-1.7,1.1-2.6
	c-0.4,0-0.8,0-1.1,0.1c-3.2,1-6.4,1.4-9.7,1.2c-3.7-0.1-6.7-1.6-8.7-4.8c-0.9-1.4-1.3-2.9-1.3-4.5c0-3.5,1.3-6.4,3.8-8.8
	c1.4-1.4,3-2.2,5-2.4c1.3-0.1,2.7-0.2,4-0.2c2.3,0,4.5-0.4,6.7-0.9c0.2-0.1,0.4-0.2,0.9-0.4c-0.5-0.1-0.7-0.2-0.9-0.2
	c-3.1-0.4-5.8-1.6-8.4-3.3c-4.5-3-4.8-9.1-1.5-12.9c1.1-1.2,2.4-2.1,3.8-2.7c1.8-0.8,3.6-1.4,5.6-1.7c3.6-0.6,7.2-1.7,10.8-2.6
	c5.6-1.4,10.6-4,15-7.9c2-1.7,4-3.4,5.8-5.2c2.7-2.6,5.1-5.5,6.9-8.9c0.6-1.2,1.4-2.3,2-3.5c1.9-3.7,3.2-7.7,4.7-11.6
	c1.2-3.2,2.3-6.5,3.5-9.8c1.6-4.3,3.3-8.5,5.5-12.5c1.2-2.3,2.7-4.3,4.4-6.2c2-2.3,4.5-4.1,7.5-4.9c2.8-0.7,5.5-0.4,7.9,1.5
	c2.4,2,4.4,4.2,5.6,7.1c0.9,2.2,1.8,4.4,2.6,6.6c1.5,3.9,2.9,7.7,4.4,11.6c0.6,1.5,1.4,2.8,2.1,4.2c1.2,2.1,2.4,4.2,3.6,6.3
	c2.1,3.9,4.5,7.6,7.1,11.3c1.9,2.7,4.1,5.3,6.4,7.7c4.9,5.1,10.8,8.4,17.5,10.5c3.6,1.2,7.3,1.8,11,2.2c2.6,0.4,5.3,0.7,7.9,1
	c1,0.1,1.9,0.4,2.8,0.7c1.9,0.5,3.2,1.7,3.9,3.5c0.6,1.5,1,3.1,1,4.8c0.1,2-0.5,3.8-1.7,5.5c-1.8,2.3-4,3.9-6.8,4.6
	c-1.7,0.4-3.4,0.8-5.2,0.7c-0.2,0-0.4,0-0.6,0.1c-0.1,0.4,0.2,0.5,0.4,0.6c1.9,1,4,1.6,6.1,1.9c1.9,0.3,3.7,0.4,5.6,0.5
	c0.8,0.1,1.6,0.1,2.4,0.2c1.6,0.2,3,0.8,4.3,1.8c1.5,1.2,2.4,2.9,2.4,4.9c0.1,3.3-1.3,5.9-4.1,7.7c-2.6,1.7-5.4,2.3-8.5,2.3
	c-0.5,0-0.9,0-1.5,0c0.1,0.4,0.2,0.7,0.3,1c0.8,2.8-0.4,5.3-3.1,6.3c-1.7,0.6-3.4,0.7-5.2,0.6c-1-0.1-2.1-0.1-3.1-0.2
	c-1-0.1-1.9-0.3-2.8-0.5c-0.4,0.4,0,0.7,0.1,1c1.2,4,0.1,7.4-2.8,10.4c-1.1,1.1-2.3,2-3.7,2.6c-0.3,0.1-0.5,0.3-0.9,0.4
	c0.4,1.2,0.8,2.2,1.3,3.3c1.2,2.5,2.4,5,3.9,7.4c3.4,5.6,8.2,9.7,14,12.6c4.5,2.2,9.2,3.6,14.1,4.1c3.5,0.4,7,0.7,10.5,1.1
	c2.2,0.2,4.3,0.5,6.4,1.1c1.3,0.4,2.5,0.9,3.7,1.5c2.6,1.4,3.8,3.8,4.3,6.6c0.3,1.8,0,3.5-0.7,5.2c-0.5,1.2-1.2,2.2-2.3,3
	c-1.6,1.2-3.3,2.1-5.2,2.6c-4,1.1-7.9,0.9-11.9,0.2c-1.5-0.2-2.9-0.7-4.4-1.1c-0.6-0.2-1.1-0.3-1.8-0.3c0.3,0.2,0.6,0.5,1,0.7
	c3.5,2,7.3,3.2,11.3,3.8c3,0.4,6,1.1,8.9,1.8c2.4,0.6,4.5,1.9,6.4,3.3c2.3,1.8,3.4,4.1,3.5,6.9c0,2.2-0.4,4.3-1.4,6.3
	c-1.3,2.7-3.3,4.9-5.8,6.6c-2.8,1.9-6,3-9.3,3.5c-2.9,0.5-5.8,0.8-8.7,0.9c-4.5,0.1-8.8-0.9-13-2.4c-0.6-0.2-1.2-0.5-1.9-0.5
	c0.5,0.4,1,0.8,1.6,1.1c1.8,1.3,3.7,2.6,5.4,4c1.6,1.2,3,2.7,4.3,4.2c3.1,3.5,1.9,8.5-0.8,10.8c-2.4,2.1-5.2,3.3-8.4,3.5
	c-1.7,0.1-3.4,0-5.1,0h-1.2c0,1.5,0.3,2.8,0.8,4.2c3,8.8,8.7,15.6,16.1,21c7,5.1,14.8,8.7,23.1,11.3c6.9,2.2,13.8,3.7,20.9,5.1
	c4.6,0.9,9.3,1.9,13.8,3.3c3.2,1,6,2.7,8.2,5.2c0.2,0.2,0.4,0.5,0.6,0.8c2.2,2.8,3.4,6,3.3,9.6c0,1.1-0.2,2.2-0.7,3.2
	c-2.1,5.1-5.9,8.2-11.5,8.9c-3.1,0.4-6.1,0.2-9.1-0.3c-0.3-0.1-0.6-0.1-1.1-0.1c0.3,0.4,0.4,0.7,0.6,0.9c1.1,1.3,2.2,2.4,3.5,3.4
	c3.7,2.9,7.7,5.5,11.9,7.8c2,1.1,4.1,2.2,6.1,3.3C504.4,619.2,505.8,620.3,506.9,621.5z"/>
<path class="st0" d="M164.1,621.5H0V297.3c2.5-0.5,4.9-0.1,7.1,1.7c2.4,2,4.4,4.2,5.6,7.1c0.9,2.2,1.8,4.4,2.6,6.6
	c1.5,3.9,2.9,7.7,4.4,11.6c0.6,1.5,1.4,2.8,2.1,4.2c1.2,2.1,2.4,4.2,3.6,6.3c2.1,3.9,4.5,7.6,7,11.3c1.9,2.7,4.1,5.3,6.4,7.7
	c4.9,5.1,10.8,8.4,17.5,10.5c3.6,1.2,7.3,1.8,11,2.2c2.7,0.4,5.3,0.7,7.9,1c1,0.1,1.9,0.4,2.8,0.7c1.9,0.5,3.2,1.7,3.9,3.5
	c0.6,1.5,1,3.1,1,4.8c0.1,2-0.5,3.8-1.7,5.5c-1.8,2.3-4,3.9-6.8,4.6c-1.7,0.4-3.4,0.8-5.2,0.7c-0.2,0-0.4,0-0.6,0.1
	c-0.1,0.4,0.2,0.5,0.4,0.6c1.9,1,3.9,1.6,6.1,1.9c1.9,0.3,3.7,0.4,5.6,0.5c0.8,0.1,1.6,0.1,2.4,0.2c1.6,0.2,3,0.8,4.3,1.8
	c1.6,1.2,2.4,2.9,2.5,4.9c0.1,3.3-1.3,5.9-4.1,7.7c-2.6,1.7-5.4,2.3-8.5,2.3c-0.5,0-1,0-1.6,0c0.1,0.4,0.2,0.7,0.3,1
	c0.8,2.8-0.4,5.3-3.1,6.3c-1.7,0.6-3.4,0.7-5.2,0.6c-1-0.1-2.1-0.1-3.1-0.2c-1-0.1-1.9-0.3-2.8-0.5c-0.4,0.4,0,0.7,0,1
	c1.2,4,0.1,7.4-2.8,10.4c-1.1,1.1-2.3,2-3.7,2.6c-0.3,0.1-0.5,0.3-0.8,0.4c0.4,1.2,0.8,2.2,1.3,3.3c1.2,2.5,2.4,5,3.9,7.4
	c3.4,5.6,8.2,9.7,14,12.6c4.5,2.2,9.2,3.6,14.1,4.1c3.5,0.4,7,0.7,10.5,1.1c2.2,0.2,4.3,0.5,6.4,1.1c1.3,0.4,2.5,0.9,3.7,1.5
	c1.3,0.7,2.3,1.7,3,2.8c0.7,1.1,1.1,2.4,1.4,3.8c0.2,1,0.2,2,0,3c-0.1,0.7-0.4,1.4-0.7,2.1c-0.2,0.5-0.4,0.9-0.7,1.3
	c-0.4,0.6-0.9,1.2-1.6,1.7c-0.9,0.7-1.8,1.2-2.8,1.7c-0.8,0.4-1.6,0.7-2.4,0.9c-4,1.1-7.9,0.9-11.9,0.2c-1.5-0.2-2.9-0.7-4.4-1.1
	c-0.6-0.2-1.1-0.3-1.8-0.3c0.3,0.2,0.6,0.5,1,0.7c3.5,2,7.3,3.2,11.3,3.8c2.6,0.4,5.2,0.9,7.7,1.5c0.4,0.1,0.8,0.2,1.2,0.3
	c2.4,0.6,4.5,1.9,6.4,3.3c0.1,0.1,0.1,0.1,0.2,0.2c2.2,1.7,3.2,4,3.2,6.7c0.1,2.2-0.4,4.3-1.4,6.3c-1.3,2.7-3.3,4.9-5.8,6.6
	c-2.8,1.9-6,3-9.3,3.5c-2.9,0.5-5.8,0.8-8.7,0.9c-4.5,0.1-8.8-0.9-13-2.4c-0.6-0.2-1.2-0.5-1.9-0.5c0.5,0.4,1,0.8,1.6,1.1
	c1.8,1.3,3.6,2.6,5.4,4c1.6,1.2,3,2.7,4.3,4.2c0.2,0.2,0.4,0.5,0.6,0.7c1.8,2.6,1.5,5.9,0.2,8.2c-0.4,0.8-0.9,1.4-1.5,1.9
	c-2.4,2.1-5.2,3.3-8.4,3.5c-1.7,0.1-3.4,0-5.1,0h-1.2c0,1.5,0.3,2.8,0.8,4.2c3,8.8,8.7,15.6,16.2,21c6.3,4.6,13.3,8,20.6,10.5
	c0.8,0.3,1.7,0.6,2.5,0.8c6.8,2.2,13.8,3.7,20.8,5.1c4.6,0.9,9.3,1.9,13.8,3.3c3.6,1.1,6.6,3.1,8.9,6c2.2,2.8,3.4,6,3.3,9.6
	c0,1.1-0.2,2.2-0.7,3.2c-2.1,5.1-5.9,8.2-11.5,8.9c-3.1,0.4-6.1,0.2-9.1-0.3c-0.3-0.1-0.6-0.1-1.1-0.1c0.3,0.4,0.4,0.7,0.6,0.9
	c1.1,1.3,2.2,2.4,3.5,3.4c3.7,2.9,7.7,5.5,11.9,7.8c2,1.1,4.1,2.2,6.1,3.3C161.7,619.2,163,620.3,164.1,621.5z"/>
<path class="st0" d="M1502,297.3v324.2h-152.2c0.6-0.6,1.2-1.1,1.9-1.6c1.6-1.2,3.3-2.3,4.9-3.5c2.3-1.7,4.6-3.4,6.9-5.1
	c0.3-0.2,0.6-0.6,1-1c-0.6,0.1-0.9,0-1.2,0.1c-4.8,1.4-9.4,0.5-13.8-1.4c-2.4-1-4.5-2.4-6.5-4c-2.2-1.8-3.7-4.1-4.6-6.7
	c-0.8-2.2-0.7-4.5,0.2-6.8c0.8-2.3,2.1-4.2,3.9-5.9c3.6-3.4,7.7-5.6,12.6-6.4c3.8-0.6,7.5-1.3,11.3-2.1c7.1-1.6,13.9-3.8,20.6-6.7
	c7.4-3.2,14.1-7.5,20.4-12.6c3.8-3.1,7.5-6.4,10.9-10c2-2.1,3.7-4.3,5.3-6.7c1.1-1.8,2-3.6,2.7-5.6c0.1-0.3,0.1-0.6,0.2-0.8
	c-0.9-0.3-1.8-0.5-2.6-0.8c0,0,0,0,0,0c-0.9-0.3-1.7-0.5-2.6-0.9c-2.2-0.9-4.4-2-6.6-3c-1.7-0.8-3.2-2-4.5-3.4
	c-2.6-2.7-3.3-6-2.5-9.6c0.3-1.5,1-3,1.8-4.3c0.2-0.3,0.3-0.5,0.5-0.7c-0.2-0.4-0.5-0.1-0.7-0.1c-1.5,0.4-2.9,0.8-4.4,1.2
	c-0.8,0.2-1.6,0.2-2.3,0.4c-2.4,0.8-4.8,0.4-7.2-0.1c-2.5-0.5-4.8-1.7-6.9-3.2c-0.2-0.2-0.5-0.4-0.7-0.6c-1.8-2-3.5-4-4.5-6.6
	c-1.4-3.6-1.3-7.2,0.3-10.8c0.8-1.8,2-3.2,3.7-4.4c2.2-1.6,4.5-2.5,7.2-2.9c2.8-0.3,5.4-1.2,8.2-1.9c0.2,0,0.3-0.2,0.5-0.4
	c-0.2-0.1-0.4-0.1-0.6-0.1c-1.9,0-3.7-0.6-5.4-1.5c-2.1-1-4.1-2.1-5.7-3.8c-4.7-4.7-4.3-11-0.9-15.4c2.8-3.7,6.6-5.7,11.2-6
	c2.1-0.2,4.1-0.2,6.2-0.2c2.5,0,5-0.4,7.4-1.1c4.5-1.3,8.7-3.3,12.6-6.1c5.3-3.8,10.5-7.8,15.3-12.4c1.5-1.5,3-3,4.2-4.8
	c1.2-1.6,2-3.5,2.9-5.4c-0.5-0.1-0.9-0.2-1.3-0.2c-2.9-0.1-5.7-0.7-8.3-1.8c-1.3-0.5-2.3-1.3-3.2-2.3c-1.9-2-2.3-4.3-1.4-6.9
	c0.3-0.8,0.7-1.7,1.1-2.6c-0.4,0-0.8,0-1.1,0.1c-3.2,1-6.4,1.4-9.7,1.2c-3.7-0.1-6.7-1.6-8.7-4.8c-0.9-1.4-1.3-2.9-1.3-4.5
	c0-3.5,1.3-6.4,3.8-8.8c1.4-1.4,3.1-2.2,5-2.4c1.3-0.1,2.7-0.2,4-0.2c2.3,0,4.5-0.4,6.7-0.9c0.2,0,0.4-0.2,0.9-0.4
	c-0.5-0.1-0.7-0.2-0.9-0.2c-3.1-0.4-5.8-1.6-8.4-3.3c-4.5-3-4.8-9.1-1.5-12.9c1.1-1.2,2.4-2.1,3.8-2.7c1.8-0.8,3.6-1.4,5.5-1.7
	c3.7-0.6,7.2-1.7,10.8-2.6c5.6-1.4,10.7-4,15-7.9c2-1.7,4-3.4,5.8-5.2c2.7-2.6,5.1-5.5,6.9-8.9c0.6-1.2,1.4-2.3,2-3.5
	c2-3.7,3.2-7.7,4.7-11.6c1.2-3.2,2.3-6.5,3.5-9.8c1.6-4.3,3.3-8.5,5.5-12.5c1.2-2.3,2.7-4.3,4.4-6.2c2-2.3,4.5-4.1,7.5-4.9
	C1501.5,297.4,1501.8,297.4,1502,297.3L1502,297.3z"/>
<path class="st0" d="M1120.4,591.2c-0.6,4.9-2.9,8.8-6.8,11.8c-3.3,2.6-7,4.3-11.2,5c-2.6,0.5-5.2,0.4-7.8,0.1
	c-3.1-0.4-6.2-1.2-9.1-2.4c-3.3-1.3-6.6-2.7-9.8-4.4c-0.3-0.2-0.6-0.5-1.1-0.2c0.3,0.3,0.7,0.7,1,1c1.2,1.1,2.4,2.2,3.7,3.2
	c2,1.8,3.8,3.8,5.4,5.9c1.4,1.9,2.4,3.9,2.9,6.2c0.3,1.4,0.4,2.7,0.1,4H1044c0,0,0,0,0,0c-0.2-0.2-0.4-0.4-0.6-0.7
	c0,0-0.1,0-0.2-0.1c0,0.3,0,0.5,0.2,0.7h-22.8c-0.1-0.1-0.1-0.2-0.2-0.4c-0.2-0.4-0.4-0.7-0.7-1.1c0.1,0.5,0.2,1,0.3,1.4H850
	c0.2-0.7,0.5-1.5,0.8-2.2c0.1-0.3,0.2-0.5,0.4-1.2c-0.6,0.5-0.9,0.7-1.1,0.9c-0.9,0.9-2,1.8-3.1,2.5c-0.6,0.4-1.3,0.8-1.9,1.2
	c-2,1.2-2.8-5.8-5.2-5.9c-2.6-0.1-6.6,2.2-8,0.5c-1.5-1.8-1.8,0.1-1.7-2.1c0.1-0.9,0.5-1.8,0.7-2.6c0.1-0.6,0.6-1,0.4-1.8
	c-0.6,0.3-1.1,0.6-1.6,1c-2.5,1.7-5.2,2.6-8.1,3c-1.6,0.2-3.2,0.1-4.7,0.1c-2,0.1-3.9-0.2-5.8-0.8c-4.1-1.3-7.8-3.4-10.8-6.6
	c-1-1.1-1.8-2.3-2.4-3.6c-0.6-1.4-1.1-2.8-1.5-4.3c-0.7-3.1-0.2-6,1-8.9c1.3-3,3.4-5.5,6-7.5c1.6-1.2,3.3-2.3,4.9-3.5
	c2.3-1.7,4.6-3.4,6.9-5.1c0.3-0.2,0.6-0.6,1-1c-0.6,0.1-0.9,0-1.1,0.1c-4.8,1.4-9.4,0.5-13.8-1.4c-2.4-1-4.5-2.4-6.5-4
	c-2.2-1.8-3.7-4.1-4.6-6.7c-0.8-2.2-0.6-4.5,0.2-6.8c0.8-2.3,2.1-4.2,3.9-5.9c3.6-3.4,7.7-5.6,12.6-6.4c3.8-0.6,7.5-1.3,11.3-2.1
	c7.1-1.6,13.9-3.8,20.6-6.7c6.5-2.9,12.6-6.6,18.2-10.9c0.7-0.5,1.4-1.1,2.1-1.7c1.3-1,2.5-2.1,3.7-3.2h0c2.5-2.2,4.9-4.4,7.1-6.8
	c2-2.1,3.7-4.3,5.3-6.7c0,0,0,0,0,0c1.1-1.7,2-3.6,2.7-5.5c0.1-0.3,0.1-0.6,0.2-0.8c-1.8-0.6-3.6-1-5.3-1.7c-2.2-0.9-4.4-2-6.6-3
	c-0.8-0.4-1.6-0.9-2.3-1.5c0,0,0,0,0,0c-0.8-0.6-1.5-1.2-2.1-1.9c-2.6-2.7-3.3-6-2.5-9.6c0.3-1.6,1-3,1.8-4.3
	c0.2-0.2,0.3-0.5,0.5-0.7c-0.2-0.4-0.5-0.1-0.7-0.1c-1.5,0.4-2.9,0.8-4.4,1.2c-0.8,0.2-1.6,0.2-2.3,0.4c-2.4,0.8-4.8,0.4-7.2-0.1
	c-2.5-0.5-4.8-1.7-6.9-3.2c-0.2-0.2-0.5-0.4-0.7-0.6c-1.8-2-3.5-4-4.5-6.6c-1.4-3.6-1.3-7.2,0.3-10.8c0.8-1.8,2-3.2,3.7-4.4
	c2.2-1.6,4.5-2.5,7.2-2.9c2.8-0.3,5.4-1.2,8.1-1.9c0.2,0,0.3-0.2,0.5-0.4c-0.2-0.1-0.4-0.1-0.5-0.1c-1.9,0-3.7-0.6-5.4-1.5
	c-2.1-1-4.1-2.1-5.7-3.8c-4.7-4.7-4.3-11-0.9-15.4c1.2-1.6,2.7-2.9,4.3-3.9c2-1.2,4.3-1.9,6.9-2.1c2.1-0.2,4.1-0.2,6.2-0.2
	c2.5,0,5-0.4,7.4-1.1c4.5-1.3,8.7-3.3,12.6-6c5.3-3.9,10.5-7.8,15.3-12.4c1.5-1.5,3-3,4.2-4.8c1.2-1.6,2-3.5,2.9-5.4
	c-0.5-0.1-0.9-0.1-1.3-0.2c-2.9,0-5.7-0.7-8.3-1.8c-1.3-0.5-2.3-1.3-3.2-2.3c-1.9-2-2.3-4.4-1.4-6.9c0.3-0.9,0.7-1.7,1.1-2.7
	c-0.4,0-0.8,0-1.1,0.1c-3.2,1-6.4,1.4-9.7,1.2c-2.9-0.1-5.3-1-7.2-2.9c-0.5-0.5-1.1-1.2-1.5-1.9c-0.9-1.4-1.3-2.9-1.3-4.5
	c0-3.2,1.1-6,3.3-8.3c0.2-0.2,0.3-0.4,0.5-0.5c1.4-1.3,3.1-2.2,5-2.4c1.3-0.1,2.7-0.2,4-0.2c2.3,0,4.5-0.4,6.7-0.9
	c0.2,0,0.4-0.2,0.9-0.4c-0.5-0.1-0.7-0.2-0.9-0.2c-3.1-0.4-5.8-1.6-8.4-3.3c-4.5-3-4.8-9.1-1.5-12.9c1.1-1.2,2.4-2.1,3.8-2.7
	c1.8-0.8,3.6-1.4,5.5-1.8c3.7-0.6,7.2-1.7,10.8-2.6c5.6-1.4,10.6-4,15-7.9c2-1.7,4-3.4,5.8-5.2c2.7-2.6,5.1-5.5,6.9-8.9
	c0.7-1.2,1.4-2.3,2-3.5c2-3.7,3.2-7.7,4.7-11.6c1.2-3.2,2.3-6.5,3.5-9.8c1.6-4.3,3.3-8.5,5.5-12.5c1.2-2.3,2.7-4.3,4.4-6.2
	c2-2.3,4.5-4.1,7.5-4.9c2.8-0.7,5.5-0.4,7.9,1.6c2.4,2,4.4,4.2,5.6,7.1c0.9,2.2,1.8,4.4,2.6,6.6c1.5,3.9,2.9,7.7,4.4,11.6
	c0.6,1.5,1.4,2.8,2.1,4.2c1.2,2.1,2.4,4.2,3.6,6.4c2.1,3.9,4.5,7.6,7.1,11.3c1.9,2.7,4.1,5.3,6.4,7.7c4.9,5.1,10.8,8.4,17.5,10.5
	c3.6,1.1,7.3,1.8,11,2.2c2.7,0.3,5.3,0.7,7.9,1c1,0.1,1.9,0.4,2.8,0.7c1.9,0.5,3.2,1.7,3.9,3.5c0.6,1.5,1,3.1,1,4.8
	c0,2-0.5,3.8-1.7,5.5c-1.8,2.3-4,3.9-6.8,4.6c-1.7,0.4-3.4,0.8-5.2,0.7c-0.2,0-0.4,0.1-0.6,0.1c-0.1,0.4,0.2,0.5,0.4,0.6
	c1.9,1,3.9,1.6,6.1,1.9c1.4,0.2,2.9,0.3,4.3,0.4c0.4,0,0.8,0.1,1.3,0.1c0.8,0.1,1.6,0.1,2.4,0.2c1.6,0.2,3,0.8,4.3,1.8
	c1.6,1.2,2.4,2.9,2.4,4.9c0.1,3.3-1.3,5.9-4.1,7.6c-2.6,1.7-5.4,2.3-8.5,2.3c-0.5,0-1,0-1.6,0c0.1,0.4,0.2,0.7,0.3,1
	c0.8,2.8-0.3,5.2-3,6.2c-0.1,0-0.1,0-0.2,0.1c-1.7,0.6-3.4,0.7-5.2,0.6c-1-0.1-2.1-0.1-3.1-0.2c-1-0.1-1.9-0.3-2.8-0.5
	c-0.4,0.4,0,0.7,0,1c1.2,4,0.1,7.4-2.8,10.4c-1.1,1.1-2.3,2-3.7,2.6c-0.3,0.1-0.5,0.3-0.9,0.4c0.4,1.2,0.8,2.2,1.3,3.3
	c1.2,2.5,2.4,5,3.9,7.4c1.1,1.8,2.4,3.5,3.8,5.1c2.8,3.1,6.3,5.6,10.3,7.5c4.5,2.2,9.2,3.6,14.1,4.1c3.5,0.4,7,0.7,10.5,1.1
	c2.2,0.2,4.3,0.5,6.4,1.1c1.3,0.4,2.5,0.9,3.7,1.6c2.6,1.4,3.8,3.8,4.3,6.6c0.3,1.8,0,3.5-0.7,5.2c-0.5,1.2-1.2,2.2-2.3,3
	c-1.6,1.2-3.2,2.1-5.2,2.6c-0.3,0.1-0.7,0.2-1,0.2c-3.6,0.8-7.3,0.6-10.9-0.1c-0.8-0.1-1.5-0.3-2.3-0.5h0c-0.7-0.2-1.4-0.4-2.1-0.6
	c-0.6-0.1-1.1-0.3-1.8-0.3c0.3,0.2,0.6,0.5,1,0.7c0.1,0.1,0.2,0.1,0.3,0.2h0c3.4,1.9,7.1,3.1,11,3.7c1.2,0.2,2.3,0.4,3.5,0.6
	c1.8,0.4,3.6,0.8,5.4,1.2c2.4,0.6,4.4,1.9,6.4,3.4c2.3,1.7,3.4,4.1,3.5,6.9c0,2.2-0.4,4.4-1.4,6.4c-0.7,1.4-1.5,2.6-2.5,3.7
	c-1,1.1-2.1,2.1-3.4,2.9c-2.8,1.9-6,3-9.3,3.5c-2.9,0.5-5.8,0.8-8.7,0.9c-4.5,0.1-8.8-0.8-13-2.4c-0.6-0.2-1.2-0.4-1.9-0.5
	c0.5,0.4,1.1,0.8,1.6,1.2c1.8,1.3,3.6,2.6,5.4,4c1.6,1.2,3,2.7,4.3,4.2c3.1,3.5,1.8,8.5-0.8,10.9c-2.4,2.1-5.2,3.3-8.4,3.5
	c-1.7,0.1-3.4,0-5.1,0c-0.3,0-0.7,0-1.2,0c0,1.5,0.3,2.8,0.8,4.1c2.9,8.5,8.3,15.2,15.4,20.5c0.3,0.2,0.5,0.4,0.8,0.6
	c7,5.1,14.8,8.7,23.1,11.3c6.8,2.2,13.8,3.7,20.8,5.1c4.6,0.9,9.3,1.9,13.8,3.3c3.6,1.2,6.6,3.1,8.9,6c2.2,2.8,3.4,6,3.3,9.6
	c0,1.1-0.2,2.2-0.7,3.2c-2.1,5.1-5.9,8.2-11.5,8.9c-3.1,0.4-6.1,0.2-9.1-0.3c-0.3,0-0.6,0-1.1-0.1c0.3,0.4,0.4,0.7,0.6,0.9
	c1.1,1.3,2.2,2.4,3.5,3.4c3.7,3,7.7,5.5,11.9,7.8c2,1.1,4.1,2.2,6.1,3.3c1.6,0.8,2.9,1.9,4.1,3.3c0.9,1,1.5,2.2,1.9,3.5
	C1120.4,589.4,1120.5,590.3,1120.4,591.2z"/>
<path class="st0" d="M1468.1,620.3c-0.1,0.4-0.1,0.8-0.2,1.3h-510c0.2-0.4,0.3-0.9,0.5-1.3c0.1-0.3,0.2-0.5,0.3-0.8
	c2.1-4.8,5.3-8.6,9.4-11.8c2.5-1.9,5.2-3.7,7.7-5.5c3.6-2.7,7.3-5.3,10.9-8c0.5-0.4,0.9-0.9,1.6-1.7c-0.9,0.1-1.4,0.1-1.8,0.2
	c-7.6,2.2-14.8,0.8-21.9-2.2c-3.4-1.5-6.5-3.4-9.5-5.7c-0.3-0.2-0.5-0.4-0.8-0.6c-3.4-2.8-5.8-6.4-7.3-10.5c-0.2-0.7-0.4-1.3-0.6-2
	c-0.6-2.9-0.2-5.8,0.8-8.7c1.3-3.6,3.3-6.7,6.1-9.3c5.7-5.3,12.2-8.9,19.9-10.1c6-0.9,11.9-2,17.8-3.4c11.2-2.5,22-6,32.5-10.6
	c6.9-3.1,13.5-6.7,19.8-10.8c4.2-2.8,8.4-5.8,12.3-9.1c6-4.9,11.8-10.1,17.1-15.8c3.1-3.3,5.9-6.8,8.3-10.6c1.8-2.8,3.1-5.7,4.3-8.8
	c0.2-0.4,0.2-0.9,0.2-1.3c-2.9-0.9-5.7-1.6-8.3-2.7c-3.3-1.4-6.5-2.9-9.8-4.4c-0.2-0.1-0.4-0.2-0.7-0.3c-2.7-1.3-5-3.2-7.1-5.4
	c-4.2-4.3-5.2-9.5-3.9-15.2c0-0.2,0.1-0.4,0.2-0.7c0.3-1.3,0.8-2.5,1.4-3.7c0.4-0.9,0.9-1.7,1.4-2.5c0.2-0.4,0.5-0.8,0.7-1.1
	c-0.4-0.6-0.7-0.2-1-0.1c-2.3,0.6-4.6,1.3-6.9,1.8c-1.2,0.3-2.5,0.3-3.7,0.7c-1.2,0.4-2.4,0.6-3.7,0.7h0c-0.9,0.1-1.8,0-2.6,0h0
	c-1.7-0.1-3.3-0.4-5-0.8c-4-0.8-7.6-2.7-10.8-5.1c-0.4-0.3-0.8-0.6-1.1-0.9c-2.8-3.2-5.6-6.4-7.1-10.4c-2-5.1-2-10.2-0.2-15.3
	c0.2-0.6,0.4-1.2,0.7-1.8c1.3-2.9,3.2-5.1,5.8-7c3.4-2.5,7.2-4,11.3-4.5c4.4-0.5,8.6-1.9,12.9-3c0.2-0.1,0.4-0.3,0.8-0.6
	c-0.4-0.1-0.6-0.2-0.9-0.2c-3,0-5.8-1-8.5-2.4c-3.3-1.6-6.4-3.4-9.1-6c-1.4-1.5-2.6-3-3.4-4.6c-3.5-6.6-2.2-14.1,2-19.7
	c1.3-1.8,2.8-3.2,4.4-4.5c3.7-2.9,8.1-4.6,13.2-5c3.3-0.2,6.5-0.3,9.8-0.3c3.9,0.1,7.8-0.6,11.6-1.8c7.1-2.1,13.8-5.2,19.8-9.6
	c8.4-6.1,16.6-12.4,24.1-19.5c2.5-2.3,4.7-4.8,6.7-7.5c1.9-2.6,3.1-5.4,4.5-8.5c-0.8-0.1-1.4-0.2-2.1-0.3c-4.6-0.1-8.9-1.1-13.1-2.8
	c-2-0.8-3.7-2.1-5.1-3.6c-3-3.2-3.6-6.9-2.2-10.9c0.5-1.4,1.1-2.6,1.8-4.2c-0.7,0.1-1.2,0-1.7,0.1c-5,1.6-10.1,2.1-15.3,2
	c-5.8-0.2-10.5-2.6-13.8-7.6c-1.4-2.1-2.1-4.5-2.1-7.1c0-5.4,2.1-10.1,6-13.9c2.2-2.1,4.8-3.5,7.9-3.8c2.1-0.2,4.2-0.3,6.3-0.3
	c3.6,0,7.1-0.7,10.5-1.4c0.3-0.1,0.6-0.3,1.4-0.7c-0.8-0.2-1.1-0.3-1.4-0.3c-4.8-0.7-9.2-2.5-13.2-5.2c-7.2-4.8-7.5-14.4-2.3-20.4
	c1.7-1.9,3.7-3.3,6-4.3c2.8-1.2,5.7-2.2,8.8-2.8c5.8-1,11.4-2.7,17-4.1c8.9-2.2,16.8-6.4,23.7-12.4c3.1-2.7,6.2-5.4,9.2-8.3
	c4.3-4.2,8-8.7,10.9-14c1-1.8,2.2-3.6,3.2-5.5c3.1-5.9,5.1-12.2,7.5-18.4c1.9-5.1,3.7-10.3,5.5-15.4c2.5-6.8,5.2-13.4,8.6-19.8
	c1.9-3.6,4.3-6.8,6.9-9.9c3.2-3.6,7.1-6.5,11.9-7.7c4.5-1.1,8.7-0.7,12.5,2.4c3.8,3.1,6.9,6.7,8.9,11.2c1.5,3.4,2.8,6.9,4.1,10.4
	c2.3,6.1,4.6,12.2,7,18.3c0.9,2.3,2.2,4.5,3.4,6.7c1.8,3.4,3.8,6.7,5.6,10c3.4,6.1,7.1,12,11.1,17.8c3,4.3,6.5,8.3,10.1,12.1
	c7.7,8,17.1,13.2,27.6,16.5c5.7,1.8,11.5,2.8,17.4,3.6c4.2,0.5,8.4,1,12.5,1.6c1.5,0.2,3,0.7,4.5,1.1c3,0.8,5,2.7,6.2,5.5
	c1,2.4,1.6,5,1.6,7.6c0.1,3.2-0.8,6-2.7,8.6c-2.8,3.6-6.3,6.1-10.7,7.2c-2.7,0.7-5.4,1.3-8.2,1.1c-0.3,0-0.7,0.1-1,0.1
	c-0.1,0.7,0.3,0.8,0.6,0.9c3,1.7,6.2,2.5,9.6,3c2.9,0.4,5.9,0.6,8.9,0.8c1.2,0.1,2.5,0.2,3.7,0.3c2.6,0.3,4.8,1.3,6.8,2.9
	c2.5,2,3.8,4.5,3.9,7.7c0.2,5.3-2.1,9.2-6.4,12.1c-4.1,2.6-8.6,3.7-13.4,3.6c-0.8,0-1.5,0-2.5,0c0.2,0.6,0.3,1.1,0.5,1.6
	c1.3,4.5-0.6,8.3-5,9.9c-2.6,1-5.4,1.1-8.2,1c-1.6-0.1-3.3-0.1-4.9-0.3c-1.5-0.2-3-0.5-4.5-0.8c-0.6,0.6-0.1,1.1,0.1,1.6
	c1.8,6.3,0.1,11.7-4.4,16.4c-1.7,1.7-3.6,3.1-5.8,4.1c-0.4,0.2-0.8,0.4-1.3,0.7c0.6,1.8,1.2,3.5,2,5.1c2,3.9,3.9,7.9,6.1,11.7
	c5.3,8.9,12.9,15.4,22.1,19.9c7,3.4,14.5,5.6,22.2,6.5c5.5,0.6,11.1,1.1,16.6,1.7c3.4,0.3,6.8,0.8,10.2,1.8c2,0.6,3.9,1.5,5.8,2.5
	c4.2,2.3,6,6,6.8,10.4c0.5,2.8,0,5.5-1.1,8.2c-0.8,1.9-2,3.5-3.6,4.8c-2.5,1.9-5.1,3.2-8.2,4.1c-6.3,1.7-12.5,1.4-18.8,0.3
	c-2.3-0.4-4.6-1.1-7-1.7c-0.9-0.2-1.8-0.5-2.8-0.5c0.5,0.4,1,0.8,1.5,1.1c5.5,3.2,11.5,5.1,17.8,6c4.7,0.7,9.4,1.7,14.1,2.9
	c3.8,0.9,7,3,10.1,5.3c3.7,2.8,5.4,6.4,5.5,10.9c0.1,3.5-0.6,6.9-2.2,10c-2.1,4.3-5.2,7.8-9.2,10.4c-4.5,2.9-9.4,4.7-14.7,5.6
	c-4.5,0.8-9.1,1.3-13.7,1.4c-7.1,0.2-13.9-1.3-20.5-3.8c-1-0.4-1.9-0.7-3-0.8c0.8,0.6,1.6,1.2,2.5,1.8c2.9,2.1,5.8,4.1,8.6,6.3
	c2.5,1.9,4.7,4.2,6.8,6.6c4.9,5.5,2.9,13.5-1.2,17.1c-3.8,3.3-8.3,5.2-13.3,5.5c-2.7,0.2-5.4,0-8.1,0c-0.5,0-1.1,0-1.8,0
	c0,2.4,0.5,4.5,1.2,6.6c4.8,13.9,13.7,24.7,25.5,33.2c11.1,8.1,23.4,13.7,36.5,17.8c10.8,3.4,21.8,5.9,32.9,8.1
	c7.3,1.4,14.6,3,21.8,5.2c5.6,1.8,10.4,4.8,14,9.5c3.5,4.5,5.4,9.5,5.2,15.2c0,1.7-0.4,3.4-1,5c-3.4,8.1-9.3,12.9-18.1,14
	c-4.8,0.6-9.6,0.4-14.3-0.5c-0.4-0.1-0.9-0.1-1.7-0.1c0.4,0.6,0.6,1.1,0.9,1.4c1.7,2,3.5,3.8,5.6,5.4c5.9,4.7,12.1,8.7,18.8,12.2
	c3.2,1.7,6.4,3.4,9.6,5.2c2.5,1.3,4.6,3,6.4,5.2c1.4,1.6,2.3,3.5,3,5.5C1468.2,617.4,1468.3,618.8,1468.1,620.3z"/>
<path class="st0" d="M208.6,141.4c-0.5,1.4-1.1,2.8-1.9,4c-3,4.5-6.5,8.6-11.2,11.5c-1.9,1.2-3.7,2.4-5.7,3.6
	c0.1,2.1,0.2,4.2,0.3,6.2c0.4,6.7,0,13.4-1.3,20c-0.4,1.8-0.9,3.6-1.6,5.3c-0.9,2-2.5,2.5-4.6,1.7c-5.6-2.2-10.7-5.1-15-9.4
	c-2.3-2.4-4.5-4.9-7-7.6c-1.4,0.6-2.2,1.8-3.1,2.9c-4,4.5-8.8,8-14,11c-1.9,1.1-4,1.9-6.2,2.5c-2.1,0.6-3.8-0.2-4.5-2.3
	c-0.9-2.6-1.8-5.3-2.1-8c-0.5-5.4-0.3-10.8,1.3-16c0.3-1,0.6-2.1,0.9-3.2c-4.6-2.7-8.6-4.9-12.5-7.5c-2-1.3-3.8-3-5.3-4.8
	c-2.3-2.8-1.9-5,1-7.1c4.2-3.1,9-5.2,14.1-6.5c4.3-1.1,8.7-1.7,13.5-2.6c0.4-1.1,1-2.4,1.4-3.8c1.8-6.3,4.7-12.1,8.2-17.6
	c1.1-1.7,2.4-3.3,3.9-4.7c1.9-1.8,3.4-1.9,5.5-0.3c1.7,1.3,3.4,2.9,4.7,4.7c2.8,3.7,4.7,8,6.2,12.4c0.6,1.7,1.2,3.5,1.9,5.3
	c1.9,0,3.5,0,5.2,0c6-0.1,11.9,0.5,17.6,2.1c3,0.8,5.9,2.2,8.7,3.6C208.9,137.7,209.4,139.2,208.6,141.4z"/>
<path class="st0" d="M88.4,33c-3.4,4.4-5.1,4.2-7.8-0.6c-0.9-1.6-1.6-3.2-2.5-5c-1-0.1-2-0.2-3.1-0.3c-1.5-0.2-3-0.3-4.5-0.5
	c-3.6-0.4-4.6-2.4-2.5-5.7c1.7-2.8,3.8-5.4,6-8.3c-0.3-1.8-0.7-4.1-1-6.3c-0.1-0.9-0.2-1.8-0.2-2.7c0-3.3,1.4-4.3,4.6-3.5
	c1,0.3,2,0.7,2.9,1.2c2,1.1,3.9,2.2,6.1,3.4c2.3-0.7,4.7-1.5,7.1-2.3c1.5-0.4,2.9-0.8,4.4-1c2-0.3,3.1,0.7,3.2,2.8
	c0,0.7-0.1,1.5-0.2,2.2c-0.4,2.4-0.8,4.8-1.2,7.4c2.3,2.4,3.9,5.4,4.8,8.8c0.9,3.5,0.2,4.6-3.3,4.5c-2.8,0-5.7-0.4-8.7-0.6
	C91,29,89.9,31.1,88.4,33L88.4,33z"/>
<path class="st0" d="M33.6,168c-1.3,0.8-2.7,1.4-4,2.1c-1.4,0.6-2.7,1.2-4.2,1.9c-0.1,0.9-0.1,1.8-0.2,2.7c-0.2,1.8-0.3,3.6-0.9,5.3
	c-1.3,3.9-4.8,5.1-8.3,3c-1.3-0.8-2.4-1.8-3.5-2.8c-0.8-0.7-1.4-1.5-2.2-2.3c-1.8,0.4-3.4,0.8-5,1.1c-2.1,0.5-4.2,0.5-6.2-0.3
	c-1.9-0.7-2.8-1.8-2.3-3.8c0.4-1.9,1-3.8,1.9-5.5c1-2,2.5-3.8,3.8-5.6c-0.5-3-1.1-5.9-1.3-8.9c-0.4-4.4,0.5-5.1,4.8-4.4
	c2.4,0.4,4.6,1.2,7.1,1.9c1-0.7,2.1-1.5,3.3-2.2c2-1.1,4-2.1,6.1-2.9c2.5-0.9,4-0.2,4.8,2.5c0.5,1.7,0.7,3.5,0.9,5.3
	c0.1,1.2,0,2.4,0,3.8c1.9,0.9,3.8,1.7,5.6,2.7C37,163.7,37,165.8,33.6,168L33.6,168z"/>
<path class="st0" d="M265.2,278c-0.6,1.2-1.5,2.3-2.4,3.2c-3.9,4-8.4,7.4-13.3,10c-0.8,0.4-1.6,0.9-2.5,1.4
	c1.8,4.9,3.7,9.7,3.8,14.9c0.1,3.2,0.2,6.3,0.2,9.5c0,0.6-0.3,1.1-0.4,1.6c-8.1,2-15.7-0.7-26.8-9.4c-1.4,0.7-2,2.1-2.9,3.3
	c-2.8,3.6-5.6,7.2-9.3,9.8c-1.8,1.3-3.8,2.5-5.8,3.4c-3.9,1.7-6.1,0.7-7.1-3.4c-1.9-7.6-2.3-15.2,0.1-22.8c0.3-1,0.6-2,1-3.5
	c-5.6-1.3-10-3.8-14.1-6.9c-2-1.5-3.9-3.4-5.4-5.4c-2.4-3.2-2.1-5.2,1.1-7.7c4.5-3.5,9.7-5.5,15.2-6.7c2.9-0.6,5.9-1,9.3-1.6
	c0.3-0.9,0.8-2,1.1-3.1c1.7-6.5,4.7-12.4,8.6-17.8c1.1-1.6,2.6-2.9,4.1-4.2c0.9-0.8,2.1-0.8,2.9,0c1.4,1.3,2.9,2.6,4.1,4.2
	c4.2,5.5,6.8,11.7,8.8,18.5c0.9,0.1,1.9,0.3,2.9,0.4c7.1,0.5,14.2,1.1,20.6,4.4c1.9,1,3.7,2,5.4,3.3
	C266,274.9,266.3,276.1,265.2,278L265.2,278z"/>
<path class="st0" d="M339,116.2c0.8,1.8,0.4,3.4-1.3,4.2c-1.6,0.7-3.4,1.3-5.1,1.6c-2.5,0.5-5.1,0.7-7.8,1c-0.2,1-0.4,2-0.6,3
	c-0.5,2.3-0.9,4.8-1.7,7c-0.7,1.9-1.8,3.8-3.1,5.4c-2.5,3.1-4.3,3.1-7.1,0.4c-2.3-2.2-4.2-4.8-5.5-7.7c-0.5-1.1-1-2.2-1.5-3.4
	c-1.6-0.6-3.3-0.1-4.9-0.1c-2.9,0-5.7,0.1-8.6-0.3c-1.6-0.2-3.1-1-4.6-1.7c-0.9-0.4-1.2-1.4-0.8-2.3c0.5-1.2,1.1-2.5,1.9-3.6
	c1.8-2.2,3.8-4.3,5.7-6.4c0.8-0.9,1.8-1.5,2.8-2.4c-1.5-2.1-2.8-3.7-3.9-5.5c-1.2-1.9-2.5-3.8-3.4-5.8c-1-2.2,0.1-3.8,2.6-4
	c5.3-0.4,10.5,0,15.6,1.9c0.7,0.3,1.4,0.6,2.4,1c2-1.7,3.7-3.2,5.5-4.6c2.4-1.9,5-3.4,7.9-4.4c1.9-0.6,3.3-0.1,4.1,1.8
	c0.6,1.5,1.1,3.2,1.1,4.8c0.1,3.1-0.1,6.3-0.1,9.9c0.7,0.5,1.8,1.3,2.9,2c2.4,1.5,4.6,3.4,6.4,5.7
	C338.1,114.6,338.6,115.3,339,116.2L339,116.2z"/>
<path class="st0" d="M155.2,266.3c-2.9,3.6-4.5,4.4-11.8,6.2c-0.2,0.7-0.4,1.5-0.6,2.4c-0.6,2.8-1,5.7-1.9,8.4
	c-2.4,6.5-4.2,6.2-8.6,2.4c-2.8-2.4-4.9-5.3-6.8-8.7c-5.1,1.3-10.2,3.9-15.6,1.5c-1.4-4.9-0.9-6.7,3.7-14c-0.9-1.7-2.7-2.6-4-3.9
	c-1.4-1.4-2.9-2.7-3.9-4.3c-1.5-2.3-0.9-4,1.6-5.1c3.4-1.5,7-1.9,10.6-1.5c1.5,0.1,3,0.4,4.5,0.6c0.9-1.3,1.7-2.6,2.6-3.8
	c1.8-2.5,3.9-4.6,6.4-6.3c0.7-0.5,1.5-1,2.4-1.3c1.4-0.6,2.8-0.2,3.5,1.2c0.8,1.9,1.6,3.9,2,5.9c0.6,2.5,0.8,5.1,1.2,7.9
	C146.5,256.4,151.9,259.9,155.2,266.3L155.2,266.3z"/>
<path class="st0" d="M1455.5,98.1c-0.4,1.1-0.9,2.3-1.5,3.3c-2.4,3.7-5.3,7-9.1,9.3c-1.5,0.9-3,1.9-4.7,3c0.1,1.7,0.2,3.4,0.3,5
	c0.3,5.5,0,10.9-1,16.2c-0.3,1.5-0.7,2.9-1.3,4.3c-0.7,1.6-2,2.1-3.7,1.4c-4.5-1.8-8.7-4.2-12.2-7.7c-1.9-1.9-3.7-4-5.7-6.1
	c-1.1,0.5-1.8,1.5-2.5,2.3c-3.3,3.6-7.2,6.5-11.4,8.9c-1.5,0.9-3.3,1.5-5,2c-1.7,0.5-3.1-0.2-3.7-1.8c-0.8-2.1-1.5-4.3-1.7-6.5
	c-0.4-4.4-0.2-8.8,1-13c0.2-0.8,0.5-1.7,0.7-2.6c-3.7-2.2-7-4-10.2-6.1c-1.6-1.1-3.1-2.4-4.3-3.9c-1.9-2.2-1.5-4,0.8-5.8
	c3.4-2.5,7.3-4.2,11.4-5.3c3.5-0.9,7.1-1.4,11-2.1c0.3-0.9,0.8-2,1.1-3.1c1.4-5.1,3.8-9.8,6.6-14.3c0.9-1.4,2-2.7,3.2-3.8
	c1.5-1.4,2.8-1.5,4.5-0.2c1.4,1.1,2.7,2.4,3.8,3.8c2.3,3,3.8,6.5,5,10.1c0.4,1.4,1,2.8,1.5,4.3c1.5,0,2.8,0,4.2,0
	c4.9-0.1,9.7,0.4,14.3,1.7c2.4,0.7,4.8,1.8,7.1,2.9C1455.7,95.1,1456.1,96.3,1455.5,98.1L1455.5,98.1z"/>
<path class="st0" d="M435.7,232.2c5.4,1.1,10.7,2.3,14.8,6.3c-0.4,2.9-2.2,4.7-4.4,6.1c-2.1,1.4-4.4,2.5-6.9,3.9
	c-0.3,1.8-0.4,3.9-1,5.9c-0.6,2.2-1.3,4.4-2.4,6.3c-1.7,3.1-3.6,3.4-6.1,0.9c-1.6-1.6-2.8-3.5-4.1-5.4c-0.6-0.8-1-1.8-1.6-3
	c-1.1,0.5-2,0.9-2.9,1.3c-2.4,0.9-4.8,1.8-7.2,2.7c-0.7,0.2-1.5,0.3-2.2,0.3c-3-0.1-4-1.2-3.9-4.2c0.1-2.4,0.8-4.8,1.9-6.9
	c0.6-1.2,1.2-2.4,2-4c-3.2-2.1-5.3-4.7-7-7.5c-3.1-5-0.8-6.9,3.6-7.1c3.8-0.1,7.5-0.2,11,1.1c1.8-1,2.3-2.7,3.3-3.9
	c1.4-1.8,2.8-3.6,4.4-5.1c2-1.8,4-1.4,5.2,0.9c0.9,1.9,1.5,3.9,2.1,5.9C435,228.6,435.3,230.4,435.7,232.2L435.7,232.2z"/>
<path class="st0" d="M742.5,82.3c-2.2,6-8.2,6.3-13,8.8c1.3,4.5,1.6,8.9,1.1,13.3c-0.4,4.3-2,5.5-5.8,3.5c-3.4-1.8-6.6-4.1-9.8-6.3
	c-1.1-0.7-1.9-1.7-3-2.7c-2.1,1.3-4.1,2.7-6.1,3.9c-2.9,1.7-5.9,3.1-9.4,3.3c-3,0.2-4-0.8-4-3.9c0-3.6,0.8-7,2.1-10.3
	c0.5-1.3,1.1-2.7,1.7-4c-2.8-2.1-5.6-3.9-8.2-6c-1.1-0.9-2.1-2.1-3-3.3c-0.9-1.3-0.6-3.1,0.8-3.9s3-1.4,4.6-1.9
	c4.7-1.5,9.5-1.7,14.7-1.3c1.9-2.8,3.4-5.3,5.2-7.7c1.5-2.1,3.3-4,5-5.9c1-1.1,2.5-0.9,3.4,0.2c2,2.3,3,5.1,3.6,8
	c0.4,2.2,0.8,4.3,1.2,6.7C730.8,74.6,737.5,76.4,742.5,82.3z"/>
<path class="st0" d="M914.4,185.2c-2,2.8-5,4.4-8,5.9c-1.7,0.8-3.4,1.4-5.3,2.2c0.3,1.5,0.5,2.7,0.7,3.9c0.5,3.7,1.3,7.3,1.5,11
	c0.1,2.2-0.5,4.4-1,6.6c-0.6,2.2-2,2.9-4.3,2.3c-1.4-0.4-2.8-0.9-4.2-1.6c-3.6-1.9-7-4.2-9.9-7.2c-0.8-0.8-1.5-1.6-2.5-2.7
	c-1,1-2,1.9-2.8,2.8c-2.5,2.9-5.4,5.1-8.6,7c-0.6,0.4-1.3,0.7-2,1c-4.4,1.9-6.8,0.9-7.7-3.8c-1.1-5.7-0.8-11.4,0.3-17.1
	c0.1-0.5,0.2-1.1,0.3-1.9c-0.8-0.5-1.7-1.2-2.6-1.6c-3.9-1.9-7.3-4.4-10.4-7.4c-0.9-0.9-1.8-1.9-2.5-3c-1.7-2.6-1.3-4.3,1.2-6.2
	c5.1-3.7,10.9-5.5,17.1-6.1c1.7-0.2,3.3-0.3,5.1-0.4c0.8-1.9,1.6-3.8,2.5-5.7c1.8-3.9,3.9-7.6,7.1-10.6c2.4-2.3,4.2-2.4,6,0.3
	c2.6,3.8,5,7.8,7.3,11.8c0.9,1.6,1.6,3.3,2.5,5.2c1.7,0.5,3.5,1,5.3,1.5c5.1,1.4,9.7,3.7,13.9,6.9
	C916.4,180.4,916.6,182.1,914.4,185.2z"/>
<path class="st0" d="M1027.4,53.9c1.1,0,2.1,0.3,3.6,0.5c-0.3,1.1-0.2,2.2-0.7,2.7c-1.2,1.2-2.6,2.2-3.9,3.1
	c-7.9,5.8-15.6,12-22.8,18.8c-5.3,5-9.8,10.7-13.8,16.8c-0.8,1.2-1.3,2.5-2.2,4.2c1.7,0.3,2.9,0.5,4.1,0.7
	c8.1,1.1,16.1,2.8,23.8,5.6c1.2,0.5,2.5,0.9,3.5,1.6c0.7,0.4,1.1,1.3,1.9,2.3c-1.4,0.5-2.4,1.2-3.4,1.3
	c-21.7,3.1-42.3,9.9-62.5,17.9c-13,5.1-25.5,11.1-37.7,18c-4,2.3-7.8,5.1-11.7,7.6c-1.4,0.9-2.7,1.7-5.1,3.3c0-2.7-0.2-4.2,0-5.6
	c4.9-28.6,17.6-53.4,37.1-74.9c1.7-1.9,3.7-3.7,5.8-5.2c2.8-2.1,4.8-1.3,5.6,2.2c0.5,2.2,0.7,4.4,1,6.6c0.2,1.4,0.4,2.9,0.6,4.2
	c1.6,0.5,2.2-0.6,3-1.3c16.5-14.7,35.5-24.2,57-28.8C1016.2,54.4,1021.8,53.7,1027.4,53.9z"/>
<path class="st0" d="M623.6,182c0.1,33-21.1,63.1-52.7,75.1c-8.1,3-16.4,4.7-25,5.2c-3.4,0.2-6.7-0.1-9.8-1.4
	c-5.6-2.3-7.5-9.1-3.7-13.9c2.3-2.9,5-5.6,7.5-8.2c10.4-10.8,16.6-23.6,18.3-38.5c3.4-29.7-15.8-58.6-46.3-64.9
	c-1.3-0.3-2.5-0.6-3.8-0.9c-6.8-1.8-9.3-8.5-5.2-14.4c1.9-2.8,4.5-4.9,7.6-6.4c4.8-2.5,9.9-4.3,15.2-5.5c25.2-6,48.4-1.5,69,14.3
	C613.1,136.7,623.6,158.6,623.6,182z"/>
</svg>
