<svg width="441" height="227" viewBox="0 0 441 227" fill="none" xmlns="http://www.w3.org/2000/svg">
<g clip-path="url(#clip0_579_176)">
<path d="M413.21 180.123C413.14 180.229 413.08 180.352 413.043 180.479C413.029 180.532 413.015 180.584 413.002 180.632C412.892 181.285 413.173 181.833 413.762 182.163C413.981 182.287 414.206 182.38 414.437 182.448L414.451 182.452C414.82 182.562 415.205 182.609 415.603 182.609C418.603 182.61 420.707 181.143 422.077 178.578C422.423 177.931 422.68 177.269 422.855 176.597C423.281 174.983 423.241 173.305 422.87 171.596C422.322 169.064 421.174 166.852 419.431 164.942C419.197 164.686 418.968 164.429 418.738 164.168C418.725 164.15 418.721 164.122 418.705 164.07C418.716 164.052 418.723 164.025 418.734 163.998C418.747 163.96 418.767 163.917 418.796 163.887C419.553 163.044 420.041 162.135 420.293 161.169C420.566 160.107 420.559 158.98 420.312 157.797C420.096 156.782 419.756 155.803 419.274 154.898C419.286 154.875 419.298 154.852 419.307 154.827C419.461 154.476 419.553 154.266 419.597 154.079C419.664 153.809 419.632 153.584 419.557 153.053C419.568 153.056 419.581 153.053 419.593 153.053C419.799 153.058 419.987 153.079 420.179 153.127C420.185 153.126 420.191 153.127 420.195 153.132C420.417 153.179 420.644 153.264 420.9 153.386C421.449 153.652 421.983 153.955 422.544 154.2C422.828 154.324 423.119 154.447 423.416 154.538L423.421 154.54C423.579 154.585 423.737 154.624 423.897 154.649C424.555 154.754 425.071 154.37 425.188 153.831C425.239 153.598 425.218 153.334 425.095 153.069C424.884 152.618 424.554 152.22 424.265 151.81C424.024 151.46 423.735 151.142 423.517 150.778C423.292 150.4 423.221 150.134 423.306 149.872C423.364 149.686 423.499 149.505 423.711 149.288C423.842 149.157 423.991 149.043 424.122 148.908C424.27 148.755 424.416 148.601 424.542 148.43C424.75 148.15 424.877 147.875 424.937 147.609C425.139 146.745 424.637 145.999 423.936 145.567C423.564 145.337 423.166 145.183 422.748 145.08C422.545 145.028 422.338 144.991 422.129 144.961C421.761 144.916 421.39 144.894 421.017 144.854C420.779 144.825 420.543 144.783 420.309 144.747C420.127 144.719 419.95 144.68 419.786 144.628C419.089 144.414 418.543 143.98 418.179 143.264C417.936 142.795 417.612 142.364 417.321 141.921C417.251 141.807 417.165 141.704 417.091 141.592C416.627 140.93 416.052 140.55 415.394 140.4C414.949 140.296 414.465 140.297 413.949 140.384C413.899 140.392 413.846 140.378 413.791 140.375C413.783 140.358 413.768 140.336 413.756 140.315C413.74 140.287 413.726 140.262 413.731 140.255C413.744 140.237 413.76 140.224 413.767 140.208C413.828 140.123 413.865 140.041 413.878 139.959C413.905 139.793 413.845 139.629 413.727 139.46C413.288 138.838 412.762 138.329 412.036 138.054C411.866 137.991 411.705 137.903 411.494 137.805C411.527 137.528 411.538 137.264 411.585 137.009C411.789 135.929 411.821 134.845 411.733 133.755C411.579 131.866 411.295 130.002 410.575 128.232C410.365 127.718 410.137 127.205 409.898 126.702C409.038 124.888 407.76 123.417 406.213 122.15C404.568 120.806 402.727 119.82 400.764 119.041C399.561 118.564 398.363 118.071 397.104 117.746C397.043 117.729 396.982 117.713 396.923 117.7C395.494 117.347 394.047 117.173 392.573 117.298C392.226 117.327 391.893 117.306 391.552 117.214C390.981 117.061 390.4 117.048 389.812 117.048C389.419 117.05 389.017 117.189 388.625 117.033C388.582 117.016 388.534 116.994 388.491 116.967C388.45 116.942 388.397 116.939 388.337 116.944C388.239 116.953 388.119 116.99 388.024 117.015C386.393 117.391 385.202 118.344 384.458 119.834C384.371 120.013 384.296 120.195 384.246 120.383C384.131 120.778 384.102 121.195 384.185 121.618C384.212 121.762 384.239 121.905 384.261 122.033C384.261 122.045 384.267 122.056 384.267 122.067C384.184 122.232 384.095 122.366 384.04 122.515C383.969 122.703 383.835 122.804 383.663 122.901C383.388 123.053 383.102 123.211 382.87 123.422C382.635 123.632 382.487 123.833 382.42 124.059C382.33 124.35 382.373 124.667 382.532 125.081C382.536 125.088 382.537 125.097 382.539 125.101C382.26 125.688 381.966 126.308 381.646 126.97C380.385 127.443 379.62 128.456 379.128 129.75C378.585 129.89 378.34 130.317 378.177 130.817C378.111 131.016 378.056 131.221 377.996 131.425C377.983 131.463 377.972 131.505 377.961 131.543L377.943 131.61C377.881 131.852 377.82 132.091 377.653 132.305C377.615 132.357 377.589 132.412 377.565 132.477C377.565 132.477 377.565 132.48 377.563 132.485C377.516 132.618 377.499 132.78 377.462 132.94C377.458 132.965 377.45 132.996 377.442 133.026C375.872 133.886 374.56 135.07 373.528 136.591C373.515 136.608 373.504 136.626 373.493 136.644C373.543 136.802 373.593 136.958 373.643 137.126C373.649 137.14 373.656 137.156 373.658 137.172C372.971 137.917 372.379 138.73 371.942 139.653C371.725 140.105 371.534 140.577 371.359 141.05C371.331 141.123 371.305 141.196 371.285 141.274L371.282 141.282C371.234 141.438 371.209 141.601 371.237 141.751C371.314 142.184 371.223 142.591 371.17 143.01C371.072 143.762 371.15 144.493 371.42 145.204C371.627 145.759 371.812 146.322 372.011 146.889C372.017 146.909 372.025 146.925 372.029 146.942C371.145 147.694 370.256 148.448 369.336 149.235C368.089 149.209 366.792 149.183 365.472 149.153C365.46 149.132 365.447 149.114 365.433 149.098C365.389 149.03 365.345 148.964 365.303 148.897C364.908 148.241 364.336 147.883 363.727 147.75C362.985 147.583 362.186 147.759 361.593 148.134C361.137 148.425 360.779 148.819 360.524 149.295C360.505 149.334 360.485 149.373 360.473 149.408C360.417 149.563 360.427 149.714 360.58 149.874C360.697 149.991 360.74 150.05 360.732 150.137L360.731 150.143C360.723 150.215 360.675 150.306 360.601 150.462C360.283 150.462 359.904 150.4 359.522 150.285C359.505 150.281 359.492 150.277 359.475 150.273C359.129 150.168 358.785 150.032 358.487 149.869C358.138 149.677 357.788 149.485 357.425 149.322C357.253 149.244 357.068 149.167 356.884 149.136C356.836 149.123 356.79 149.12 356.743 149.116C356.467 149.104 356.206 149.049 355.949 148.975C355.699 148.899 355.454 148.806 355.208 148.714C354.915 148.602 354.619 148.508 354.316 148.43C354.003 148.346 353.68 148.289 353.353 148.255C352.923 148.208 352.506 148.236 352.085 148.319C351.006 148.532 350.244 149.151 349.87 150.179C349.706 150.637 349.449 150.94 349.04 151.181C347.506 152.097 345.925 152.919 344.306 153.664C343.925 153.841 343.557 153.885 343.149 153.8C341.887 153.533 340.617 153.528 339.346 153.749C338.243 153.94 337.143 154.133 336.088 154.522C334.675 155.043 333.393 155.801 332.284 156.814C331.666 157.379 330.99 157.697 330.161 157.766C329.553 157.817 328.949 157.931 328.344 158.016C328.19 158.037 328.031 158.033 327.837 158.046C327.828 158.023 327.823 157.998 327.814 157.975C327.751 157.789 327.688 157.617 327.644 157.436C327.158 155.393 325.938 153.86 324.287 152.639C323.598 152.128 322.819 151.819 322.002 151.609C322.002 151.609 322 151.608 321.997 151.607C321.786 151.551 321.567 151.504 321.347 151.46C319.635 151.12 317.967 151.181 316.347 151.905C315.585 152.247 314.882 152.674 314.299 153.266C314.005 153.565 313.752 153.919 313.537 154.28C313.27 154.734 313.083 155.222 312.944 155.728C312.863 156.018 312.803 156.311 312.747 156.608C312.637 157.184 312.774 157.738 312.879 158.289C312.883 158.305 312.884 158.323 312.89 158.336C312.748 158.533 312.553 158.472 312.378 158.461C309.832 158.274 307.294 158.001 304.768 157.63C300.862 157.065 297.008 156.249 293.199 155.243C292.968 155.185 292.738 155.123 292.508 155.061L292.45 155.046C289.387 154.216 286.366 153.24 283.379 152.161C283.209 152.097 283.049 152.007 282.836 151.905C282.85 151.876 282.86 151.847 282.87 151.822C282.926 151.692 282.969 151.576 283.025 151.466C283.476 150.615 284.096 149.884 284.706 149.148C285.203 148.556 285.709 147.976 286.209 147.388C287.174 146.248 287.993 145.006 288.72 143.703C288.95 143.287 289.111 142.831 289.308 142.396C289.355 142.296 289.41 142.192 289.477 142.065C289.5 142.02 289.524 141.976 289.549 141.927C289.823 142.267 290.046 142.556 290.285 142.828C290.528 143.107 290.78 143.388 291.051 143.639C291.322 143.89 291.616 144.123 291.921 144.338C292.223 144.553 292.537 144.756 292.867 144.931C293.013 145.008 293.168 145.082 293.328 145.14L293.333 145.142C293.522 145.204 293.72 145.239 293.938 145.214C294.038 145.063 294.095 144.903 294.139 144.74L294.142 144.729C294.171 144.611 294.19 144.495 294.212 144.379C294.526 142.574 294.96 140.789 295.159 138.959C295.458 136.206 294.818 133.738 292.989 131.617C292.644 131.219 292.278 130.824 291.888 130.47C291.036 129.692 290.251 129.241 289.279 128.99C289.273 128.988 289.268 128.987 289.262 128.985C288.876 128.885 288.455 128.816 287.988 128.774C287.98 128.76 287.971 128.749 287.963 128.735C287.839 128.544 287.707 128.337 287.569 128.133C286.561 126.675 285.403 125.364 283.822 124.501C282.837 123.963 281.803 123.547 280.727 123.27C280.264 123.146 279.793 123.055 279.311 122.989C278.836 122.921 278.362 122.85 277.896 122.752C277.009 122.556 276.111 122.485 275.211 122.407C273.566 122.26 271.93 122.08 270.29 121.914C269.365 121.821 268.439 121.73 267.515 121.631C267.358 121.616 267.202 121.577 267.024 121.544C267.023 121.538 267.019 121.531 267.017 121.525C266.734 120.697 266.088 120.28 265.311 120.01C265.159 119.957 265.011 119.891 264.857 119.855C264.821 119.846 264.779 119.835 264.739 119.83C263.356 119.492 261.969 119.18 260.539 119.108C259.665 119.064 259.458 119.151 258.792 119.775C258.723 119.745 258.656 119.718 258.589 119.688C257.505 119.21 256.504 118.58 255.552 117.843C255.591 117.699 255.604 117.572 255.639 117.463L255.641 117.457C255.656 117.42 255.67 117.379 255.694 117.347C255.776 117.217 255.83 117.092 255.859 116.963C255.915 116.687 255.85 116.408 255.731 116.133C255.635 115.914 255.516 115.704 255.374 115.515C254.206 113.942 252.821 112.594 251.2 111.491C250.872 111.266 250.606 111.139 250.315 111.082L250.307 111.079C250.006 111.026 249.677 111.045 249.222 111.115C249.197 111.088 249.171 111.06 249.149 111.031C247.855 109.52 247.008 107.793 246.766 105.758C246.779 105.756 246.788 105.752 246.8 105.753C246.977 105.714 247.158 105.682 247.378 105.637C247.371 105.608 247.366 105.581 247.361 105.555C247.321 105.372 247.298 105.215 247.252 105.066C246.792 103.502 246.514 101.91 246.439 100.283C246.363 98.5719 246.592 96.8867 246.95 95.2182C246.958 95.1877 246.966 95.1572 246.973 95.1295C247.012 94.9854 247.075 94.8507 247.114 94.7366C247.214 94.6979 247.262 94.6632 247.311 94.6584C250.031 94.5706 252.432 92.6595 253.103 90.056L253.114 90.0172C253.289 89.3186 253.067 88.9265 252.414 88.8021C252.356 88.7865 252.295 88.782 252.232 88.774C252.047 88.7542 251.859 88.7573 251.677 88.7619C251.035 88.7859 250.408 88.6953 249.799 88.5201C249.642 88.475 249.483 88.4236 249.325 88.3694C249.057 88.2738 248.802 88.1282 248.364 87.9218C248.428 87.918 248.485 87.9127 248.538 87.9031C248.837 87.8761 249.023 87.8577 249.21 87.8455C250.253 87.7893 251.278 87.6451 252.233 87.1969C252.566 87.0397 252.902 86.8595 253.189 86.6305C253.431 86.4369 253.654 86.1818 253.796 85.9078C253.839 85.8244 253.868 85.7399 253.887 85.656C254.021 85.089 253.665 84.536 253.06 84.4423C253.038 84.4363 253.014 84.4359 252.988 84.4348C252.654 84.4048 252.299 84.467 251.968 84.5478C251.556 84.6452 251.161 84.8216 250.751 84.9317C250.501 85.0012 250.232 85.0183 249.968 85.0396C249.931 85.0445 249.878 85.0096 249.841 84.97C249.82 84.9494 249.808 84.9283 249.801 84.9087C249.786 84.866 249.796 84.8063 249.822 84.7539C249.829 84.7289 249.842 84.7118 249.855 84.6974C249.924 84.6178 250.012 84.5525 250.108 84.5068C250.368 84.3775 250.631 84.2399 250.908 84.1479C251.706 83.8982 252.419 83.4982 253.061 82.9634C253.244 82.8133 253.458 82.6923 253.66 82.5684C254.527 82.0373 255.466 81.8137 256.48 81.8774C257.57 81.9438 258.657 82.0212 259.746 82.0722C261.183 82.1395 262.613 82.1128 264.025 81.7753C265.989 81.3094 267.583 80.2693 268.866 78.7298C269.19 78.3413 269.399 77.9043 269.521 77.4261C269.545 77.3374 269.564 77.2445 269.58 77.1508C269.658 76.7171 269.597 76.2999 269.415 75.9036C269.207 75.4526 268.817 75.1551 268.372 75.0746C268.131 75.0309 267.873 75.0537 267.618 75.1517C267.273 75.2851 266.967 75.5061 266.642 75.6893C266.299 75.8825 265.962 76.101 265.602 76.2689C265.261 76.4302 264.891 76.4824 264.511 76.4371C264.39 76.4225 264.279 76.3956 264.173 76.3583C263.665 76.1806 263.35 75.7605 263.302 75.1744C263.254 74.6092 263.391 74.0665 263.502 73.52C263.591 73.0747 263.725 72.6413 263.806 72.1965C263.866 71.8593 263.907 71.5078 263.888 71.1699C263.844 70.4127 263.344 69.7946 262.705 69.6321C262.669 69.6225 262.626 69.6141 262.587 69.6065C261.913 69.4824 261.22 69.763 260.813 70.3519C260.447 70.8838 260.27 71.5016 260.048 72.0985C259.854 72.62 259.657 73.1463 259.434 73.6569C259.133 74.3603 258.626 74.9225 258.01 75.3457C257.263 75.8614 256.454 76.0308 255.619 75.7655C255.466 75.7184 255.307 75.6552 255.151 75.5746C254.782 75.3867 254.532 75.0791 254.314 74.7386C253.999 74.2322 253.837 73.672 253.762 73.0875C253.672 72.4012 253.604 71.7145 253.508 71.0294C253.46 70.6897 253.401 70.3442 253.279 70.0234C253.092 69.5337 252.742 69.2439 252.334 69.182C252.017 69.1329 251.666 69.223 251.337 69.4646C251.072 69.6577 250.878 69.9029 250.749 70.207C250.694 70.3376 250.647 70.4677 250.612 70.5979C250.511 70.9512 250.468 71.311 250.475 71.6841C250.495 72.5746 250.657 73.4347 251.013 74.246C251.435 75.2177 251.576 76.2327 251.603 77.2764C251.616 77.6601 251.576 78.0206 251.488 78.3567C251.298 79.1107 250.869 79.7473 250.226 80.2758C249.301 81.0321 248.213 81.4592 247.04 81.6559C246.786 81.6948 246.515 81.6548 246.257 81.6066C246.217 81.6017 246.185 81.5873 246.158 81.568C246.052 81.5071 246.004 81.3782 246.016 81.242C246.025 81.1433 246.05 81.0491 246.079 80.9529L246.105 80.8559C246.143 80.7117 246.197 80.5686 246.232 80.4265C246.241 80.3905 246.251 80.3544 246.257 80.3204C246.389 79.5835 246.058 79.1353 245.494 79.0437C245.331 79.0208 245.149 79.0254 244.953 79.059C244.652 79.1152 244.35 79.2778 244.095 79.4559C243.448 79.9064 242.99 80.5202 242.7 81.2565C242.621 81.4522 242.55 81.6528 242.472 81.8665C242.381 81.8483 242.286 81.8613 242.237 81.8215C242.23 81.8138 242.22 81.808 242.216 81.801C241.389 81.0626 240.516 80.3951 239.547 79.8888C239.543 79.3264 239.57 78.7958 239.529 78.2711C239.503 77.9345 239.398 77.5972 239.279 77.2744C239.209 77.0832 239.071 76.8979 238.926 76.7521C238.787 76.6168 238.612 76.5373 238.437 76.5142C238.126 76.4783 237.798 76.6162 237.613 76.9081C237.533 77.0411 237.498 77.2041 237.427 77.3483C237.347 77.514 237.269 77.6832 237.158 77.8317C237.014 78.0248 236.792 78.0663 236.589 77.9585C236.589 77.9585 236.586 77.9578 236.583 77.957C236.3 77.8068 236.07 77.5997 235.88 77.3321C235.347 76.5833 235.183 75.7342 235.154 74.8443C235.14 74.4216 235.186 74.0271 235.294 73.6551C235.476 72.9998 235.839 72.4199 236.381 71.9265C236.892 71.4605 237.448 71.0481 238.006 70.642C238.57 70.2318 239.08 69.7713 239.528 69.2408C239.859 68.8455 240.073 68.3919 240.2 67.8971L240.205 67.8777C240.322 67.3834 240.189 66.9406 239.903 66.5433C239.719 66.2862 239.477 66.138 239.216 66.1037C239.005 66.08 238.784 66.1306 238.567 66.2654C238.299 66.4314 238.064 66.6564 237.843 66.8824C237.397 67.3391 236.986 67.8291 236.536 68.2788C236.296 68.5204 236.019 68.7461 235.721 68.9158C235.308 69.1469 234.891 69.1837 234.527 69.0474C234.197 68.9264 233.909 68.6591 233.716 68.2717C233.464 67.7587 233.336 67.2074 233.385 66.6473C233.452 65.9079 233.575 65.1744 233.694 64.44C233.754 64.0729 233.865 63.7135 233.928 63.3471C234.029 62.7593 234.003 62.1791 233.744 61.6284C233.513 61.136 233.133 60.847 232.72 60.7809C232.277 60.7067 231.798 60.8872 231.44 61.3468C231.246 61.5948 231.089 61.8796 230.949 62.1598C230.784 62.496 230.637 62.8366 230.515 63.1902C230.214 64.0599 229.293 64.3152 228.574 64.0602C228.366 63.9836 228.171 63.869 228.02 63.7126C227.669 63.3574 227.4 62.9199 227.116 62.5052C226.966 62.2897 226.867 62.0375 226.741 61.8016C226.569 61.4883 226.311 61.2765 226.011 61.0864C225.842 60.9756 225.659 60.9057 225.472 60.8706C224.677 60.7229 223.809 61.2122 223.561 62.0606C223.53 62.1533 223.51 62.2518 223.5 62.356C223.422 63.0242 223.503 63.6874 223.665 64.334C223.933 65.4277 224.342 66.4639 224.942 67.4177C225.948 69.027 227.111 70.5088 228.564 71.7449C229.153 72.2441 229.733 72.7501 230.333 73.2376C231.05 73.819 231.474 74.5562 231.579 75.4724C231.591 75.6035 231.606 75.7353 231.618 75.8691C231.696 76.5643 231.879 77.2223 232.266 77.819C232.424 78.0604 232.594 78.311 232.578 78.6065C232.574 78.6294 232.574 78.6531 232.57 78.6788C232.445 78.8117 232.315 78.7886 232.227 78.6939C232.222 78.6924 232.218 78.6854 232.216 78.6818C231.969 78.4049 231.735 78.1135 231.504 77.8257C231.342 77.619 231.203 77.3828 231.021 77.1974C230.877 77.0489 230.696 76.917 230.505 76.8394C230.415 76.8003 230.329 76.7773 230.244 76.7633C229.906 76.7145 229.613 76.8647 229.394 77.1833C229.296 77.3292 229.221 77.4755 229.173 77.632L229.172 77.6375C229.064 77.983 229.083 78.3445 229.202 78.7119C229.415 79.378 229.767 79.9714 230.233 80.4942C230.362 80.6356 230.501 80.7708 230.635 80.9109C230.646 80.9257 230.658 80.9377 230.672 80.9505C230.543 81.0882 230.432 81.014 230.347 80.9555C230.336 80.9525 230.332 80.9455 230.324 80.9405C229.419 80.3713 228.527 79.7876 227.917 78.8844C227.709 78.5733 227.481 78.4379 227.261 78.4266C226.952 78.4061 226.656 78.6238 226.449 78.9307C226.19 79.3217 225.998 79.7367 225.877 80.1676C225.763 80.5707 225.713 80.9909 225.723 81.4184C225.75 82.8039 226.108 84.1058 226.946 85.2335C227.215 85.5936 227.283 85.9267 227.192 86.324C227.172 86.3988 227.151 86.4764 227.12 86.5601C227.111 86.5906 227.1 86.6231 227.091 86.6564C226.972 87.0462 226.974 87.4805 226.92 87.8937C226.892 88.0972 226.889 88.3073 226.843 88.5028L226.84 88.5111C226.833 88.5388 226.826 88.5665 226.818 88.5942L226.787 88.7106C226.643 89.2156 226.583 89.7254 226.627 90.2481C226.639 90.3583 226.646 90.467 226.627 90.5717L226.625 90.5773C226.612 90.6481 226.589 90.7131 226.543 90.784C225.757 92.0437 225.204 93.3985 224.819 94.825C224.788 94.9414 224.756 95.0578 224.725 95.1742L224.659 95.4209C224.242 95.7813 223.73 95.9175 223.208 96.0361C222.873 96.1125 222.537 96.1918 222.207 96.2934C221.817 96.4177 221.513 96.6659 221.276 97.0064C220.772 97.7239 220.382 98.4926 220.148 99.3329C220.13 99.3966 220.113 99.4604 220.096 99.5241C219.852 100.525 219.995 101.478 220.536 102.36C220.66 102.562 220.809 102.751 220.965 102.968C220.963 103.051 220.956 103.156 220.946 103.26C220.876 104.087 221.221 104.727 221.913 105.138C222.411 105.431 222.963 105.642 223.506 105.856C224.175 106.118 224.85 106.37 225.536 106.584C225.602 106.601 225.664 106.624 225.731 106.642C226.123 106.753 226.529 106.835 226.931 106.883C227.784 106.984 228.563 106.747 229.271 106.266C229.452 106.145 229.63 106.023 229.844 105.879C229.911 105.831 229.982 105.785 230.055 105.736C230.062 105.907 230.09 106.004 230.072 106.094C230.041 106.255 230.001 106.414 229.958 106.575C229.744 107.394 229.433 108.18 229.085 108.955C228.815 109.565 228.437 110.112 227.996 110.614C227.643 111.013 227.288 111.408 226.916 111.786C225.975 112.746 225.231 113.839 224.626 115.031C224.488 115.303 224.369 115.58 224.283 115.881C224.258 115.975 224.235 116.073 224.214 116.171C224.365 116.239 224.497 116.301 224.63 116.36C224.627 116.38 224.63 116.405 224.629 116.428C224.633 116.459 224.628 116.487 224.614 116.507C224.412 116.786 224.194 117.054 223.992 117.333C223.371 118.197 222.902 119.129 222.616 120.172C222.599 120.236 222.582 120.3 222.565 120.363C222.557 120.394 222.549 120.424 222.541 120.452C222.392 120.489 222.243 120.524 222.098 120.565C221.653 120.698 221.405 121.047 221.208 121.426C221.003 121.816 220.833 122.228 220.713 122.653C220.662 122.842 220.623 123.033 220.59 123.232C220.479 123.969 220.38 124.706 220.297 125.447C220.275 125.652 220.262 125.856 220.264 126.059C220.258 126.544 220.316 127.029 220.425 127.507C220.605 128.289 220.956 128.95 221.731 129.306C221.824 129.349 221.903 129.43 222.023 129.515C222.05 129.846 222.092 130.175 222.146 130.508C222.27 131.242 222.472 131.973 222.742 132.708C218.418 132.702 214.098 132.584 209.784 132.022C209.366 131.966 208.947 131.911 208.527 131.849C204.621 131.283 200.767 130.467 196.958 129.462C196.728 129.403 196.498 129.341 196.27 129.28L196.212 129.265C193.149 128.435 190.128 127.459 187.144 126.381C186.974 126.317 186.814 126.227 186.601 126.125C186.614 126.096 186.625 126.066 186.635 126.042C186.688 125.911 186.734 125.795 186.79 125.686C187.238 124.834 187.858 124.104 188.471 123.368C188.968 122.776 189.474 122.196 189.973 121.608C190.938 120.467 191.758 119.226 192.482 117.922C192.712 117.506 192.873 117.05 193.072 116.616C193.117 116.515 193.172 116.411 193.241 116.284C193.264 116.243 193.289 116.196 193.314 116.146C193.591 116.488 193.811 116.776 194.05 117.048C194.296 117.327 194.544 117.608 194.819 117.859C195.09 118.11 195.384 118.344 195.686 118.558C195.988 118.773 196.302 118.976 196.632 119.15C196.778 119.228 196.933 119.302 197.093 119.36L197.098 119.361C197.287 119.424 197.485 119.459 197.705 119.435C197.805 119.284 197.863 119.124 197.904 118.959L197.907 118.948C197.938 118.832 197.955 118.715 197.977 118.599C198.291 116.794 198.725 115.009 198.921 113.178C199.222 110.425 198.58 107.957 196.751 105.836C196.403 105.437 196.04 105.043 195.648 104.688C194.796 103.91 194.011 103.459 193.038 103.208C193.033 103.206 193.027 103.205 193.022 103.203C192.636 103.103 192.217 103.035 191.75 102.993C191.739 102.979 191.733 102.968 191.725 102.954C191.601 102.763 191.467 102.555 191.328 102.352C190.32 100.893 189.162 99.5821 187.582 98.7189C186.597 98.1818 185.565 97.7656 184.486 97.4886C184.024 97.3646 183.552 97.2738 183.071 97.2073C182.596 97.1394 182.124 97.0695 181.655 96.9705C180.771 96.7754 179.87 96.7031 178.97 96.6253C177.328 96.4794 175.689 96.2987 174.049 96.1326C173.121 96.0384 172.195 95.9476 171.271 95.8486C171.115 95.8334 170.962 95.7954 170.783 95.7624C170.779 95.7554 170.778 95.7491 170.774 95.7421C170.493 94.9154 169.845 94.4981 169.068 94.2275C168.916 94.1748 168.767 94.1083 168.613 94.073C168.574 94.0626 168.536 94.0522 168.495 94.0473C167.112 93.7095 165.723 93.3966 164.295 93.3287C163.421 93.2848 163.215 93.369 162.548 93.9953C162.479 93.9649 162.409 93.9373 162.342 93.9077C161.261 93.4308 160.257 92.7994 159.308 92.0638C159.346 91.9197 159.36 91.7898 159.395 91.6832L159.396 91.6776C159.412 91.6403 159.426 91.5995 159.45 91.5672C159.532 91.4377 159.586 91.3126 159.615 91.1837C159.671 90.9076 159.603 90.6281 159.484 90.3526C159.388 90.1338 159.269 89.9237 159.127 89.7341C157.959 88.1618 156.574 86.8133 154.953 85.7108C154.625 85.486 154.359 85.3584 154.068 85.3013L154.06 85.2991C153.759 85.2453 153.43 85.2641 152.972 85.3343C152.947 85.3068 152.921 85.2792 152.9 85.2496C151.606 83.7385 150.758 82.0114 150.516 79.9772C150.529 79.9746 150.539 79.9713 150.55 79.9715C150.73 79.9335 150.911 79.9017 151.128 79.856C151.124 79.8281 151.116 79.7994 151.111 79.7743C151.074 79.592 151.048 79.4336 151.002 79.2845C150.545 77.7214 150.265 76.1257 150.19 74.4986C150.114 72.788 150.343 71.1028 150.701 69.4343C150.709 69.4038 150.717 69.3733 150.725 69.3428C150.766 69.2022 150.829 69.0676 150.865 68.9527C150.965 68.914 151.013 68.8793 151.062 68.8745C153.782 68.7867 156.183 66.8756 156.857 64.2728L156.867 64.234C157.04 63.5347 156.818 63.1426 156.168 63.0189C156.11 63.0033 156.046 62.9981 155.983 62.9901C155.798 62.9703 155.61 62.9734 155.428 62.9779C154.786 63.0019 154.159 62.9114 153.55 62.7362C153.393 62.6911 153.234 62.6397 153.079 62.5863C152.811 62.4906 152.556 62.345 152.118 62.1386C152.178 62.1341 152.239 62.1295 152.292 62.12C152.593 62.0937 152.779 62.0753 152.967 62.0631C154.01 62.0069 155.034 61.8626 155.986 61.4138C156.322 61.2572 156.656 61.0763 156.943 60.8473C157.185 60.6537 157.411 60.3993 157.55 60.1247C157.593 60.0412 157.621 59.9568 157.644 59.8708C157.775 59.3058 157.418 58.7528 156.816 58.6598C156.794 58.6539 156.771 58.6535 156.744 58.6524C156.411 58.6224 156.055 58.6846 155.725 58.7654C155.312 58.8628 154.92 59.04 154.511 59.15C154.258 59.2188 153.989 59.2359 153.727 59.2579C153.69 59.2629 153.637 59.2279 153.6 59.1883C153.579 59.1677 153.567 59.1467 153.56 59.1271C153.548 59.0851 153.555 59.0247 153.581 58.9722C153.591 58.948 153.601 58.9301 153.614 58.9157C153.683 58.8361 153.775 58.7715 153.867 58.7251C154.128 58.5958 154.39 58.4583 154.667 58.3662C155.465 58.1165 156.178 57.7165 156.82 57.1817C157.003 57.0316 157.217 56.9107 157.419 56.7867C158.286 56.2556 159.226 56.032 160.239 56.0957C161.329 56.1621 162.417 56.2395 163.505 56.2905C164.942 56.3579 166.37 56.3304 167.785 55.9937C169.748 55.5277 171.34 54.4868 172.623 52.9474C172.947 52.5589 173.158 52.1226 173.278 51.6437C173.302 51.555 173.321 51.4621 173.34 51.3691C173.417 50.9355 173.357 50.5182 173.172 50.1212C172.963 49.6702 172.574 49.3727 172.129 49.2922C171.888 49.2485 171.629 49.2712 171.374 49.3693C171.03 49.5027 170.724 49.7237 170.399 49.9068C170.056 50.1001 169.718 50.3185 169.361 50.4872C169.018 50.6478 168.65 50.7008 168.27 50.6554C168.147 50.6401 168.035 50.6132 167.932 50.5766C167.424 50.399 167.109 49.9789 167.061 49.3927C167.014 48.8275 167.153 48.2856 167.261 47.7383C167.35 47.293 167.484 46.8596 167.565 46.4148C167.626 46.0776 167.666 45.7261 167.647 45.3882C167.603 44.631 167.104 44.0129 166.464 43.8504C166.428 43.8408 166.386 43.8324 166.346 43.8248C165.672 43.7007 164.979 43.9814 164.572 44.5703C164.207 45.1021 164.032 45.7207 163.807 46.3168C163.614 46.8383 163.416 47.3646 163.193 47.8752C162.892 48.5786 162.385 49.1408 161.77 49.564C161.022 50.0797 160.211 50.2484 159.376 49.9831C159.222 49.936 159.064 49.8728 158.907 49.7922C158.542 49.6051 158.289 49.2967 158.071 48.9562C157.752 48.449 157.593 47.8896 157.518 47.3051C157.429 46.6187 157.36 45.932 157.265 45.247C157.216 44.9072 157.157 44.5617 157.035 44.2409C156.849 43.7513 156.499 43.4615 156.09 43.3996C155.774 43.3505 155.423 43.4406 155.094 43.6821C154.828 43.8753 154.635 44.1205 154.506 44.4246C154.45 44.5552 154.403 44.6852 154.366 44.8147C154.265 45.168 154.222 45.5278 154.229 45.9009C154.249 46.7914 154.413 47.6523 154.766 48.4628C155.189 49.4345 155.33 50.4495 155.359 51.494C155.369 51.8769 155.332 52.2382 155.242 52.5736C155.055 53.3283 154.626 53.9649 153.979 54.4927C153.052 55.2482 151.966 55.6761 150.794 55.8728C150.54 55.9117 150.268 55.8716 150.011 55.8234C149.973 55.8193 149.939 55.8041 149.911 55.7849C149.806 55.7239 149.757 55.5951 149.77 55.4589C149.779 55.3602 149.804 55.2659 149.833 55.1697L149.859 55.0727C149.897 54.9286 149.95 54.7854 149.986 54.6433C149.995 54.6073 150.005 54.5713 150.014 54.538C150.146 53.8011 149.812 53.3522 149.251 53.2613C149.088 53.2384 148.905 53.243 148.706 53.2758C148.406 53.332 148.104 53.4946 147.849 53.6727C147.202 54.1232 146.744 54.737 146.454 55.4734C146.378 55.6697 146.303 55.8696 146.225 56.0834C146.138 56.0659 146.04 56.0782 145.991 56.0384C145.984 56.0306 145.976 56.0256 145.97 56.0178C145.145 55.2801 144.27 54.6119 143.301 54.1056C143.297 53.5432 143.323 53.0126 143.28 52.4872C143.254 52.1506 143.149 51.8133 143.03 51.4905C142.96 51.2993 142.822 51.114 142.677 50.9682C142.538 50.8329 142.363 50.7534 142.188 50.7303C141.877 50.6944 141.549 50.8323 141.367 51.125C141.284 51.2572 141.252 51.4209 141.18 51.5652C141.1 51.7309 141.022 51.9001 140.911 52.0485C140.767 52.2417 140.545 52.2832 140.345 52.1761L140.34 52.1746C140.054 52.0237 139.827 51.8173 139.637 51.5496C139.104 50.8009 138.939 49.9518 138.91 49.0619C138.899 48.6399 138.945 48.2454 139.051 47.8727C139.232 47.2174 139.596 46.6375 140.138 46.1441C140.649 45.6781 141.205 45.2657 141.762 44.8595C142.324 44.4486 142.836 43.9889 143.281 43.4577C143.613 43.0624 143.827 42.6087 143.953 42.1139L143.959 42.0945C144.078 41.6038 143.945 41.1582 143.657 40.7601C143.473 40.503 143.231 40.3549 142.97 40.3206C142.759 40.2968 142.538 40.3474 142.323 40.483C142.056 40.649 141.818 40.8733 141.599 41.1C141.153 41.5567 140.743 42.0467 140.292 42.4964C140.052 42.738 139.775 42.9637 139.477 43.1334C139.065 43.3645 138.645 43.4006 138.283 43.265C137.951 43.1432 137.666 42.8767 137.473 42.4893C137.221 41.9763 137.092 41.425 137.144 40.8656C137.209 40.1255 137.334 39.3927 137.453 38.6583C137.51 38.2904 137.622 37.9311 137.687 37.5654C137.788 36.9776 137.762 36.3975 137.503 35.8468C137.272 35.3543 136.892 35.0654 136.479 34.9993C136.033 34.9242 135.557 35.1055 135.196 35.5644C135.002 35.8123 134.846 36.0972 134.705 36.3774C134.541 36.7135 134.393 37.0542 134.272 37.4078C133.97 38.2775 133.049 38.5328 132.331 38.2778C132.122 38.2012 131.93 38.0873 131.776 37.9302C131.426 37.5749 131.157 37.1375 130.873 36.7228C130.723 36.5073 130.624 36.2551 130.497 36.0191C130.326 35.7058 130.067 35.4941 129.768 35.3039C129.599 35.1932 129.415 35.1233 129.229 35.0882C128.431 34.9397 127.569 35.4305 127.318 36.2781C127.287 36.3709 127.269 36.4701 127.256 36.5736C127.178 37.2418 127.259 37.905 127.421 38.5515C127.693 39.646 128.101 40.6822 128.698 41.6353C129.702 43.2438 130.867 44.7264 132.321 45.9625C132.909 46.4617 133.489 46.9677 134.087 47.4544C134.804 48.0358 135.23 48.7738 135.332 49.6893C135.345 49.8203 135.36 49.9521 135.372 50.086C135.45 50.7811 135.636 51.4399 136.022 52.0366C136.18 52.2779 136.348 52.5278 136.334 52.8241C136.334 52.8477 136.33 52.8707 136.327 52.8963C136.202 53.0293 136.071 53.0062 135.984 52.9115C135.978 52.91 135.974 52.9029 135.972 52.8994C135.726 52.6225 135.495 52.3318 135.26 52.0432C135.096 51.8359 134.96 51.6004 134.775 51.4143C134.631 51.2657 134.449 51.1339 134.259 51.0562C134.169 51.0171 134.083 50.9941 134 50.9809C133.663 50.932 133.37 51.0823 133.148 51.4001C133.05 51.546 132.978 51.693 132.927 51.8488L132.925 51.8543C132.818 52.1998 132.837 52.5613 132.955 52.9287C133.172 53.5956 133.521 54.1882 133.99 54.7118C134.118 54.8531 134.254 54.9877 134.392 55.1285C134.403 55.1433 134.414 55.1553 134.429 55.1681C134.3 55.3058 134.189 55.2315 134.104 55.173C134.093 55.1701 134.086 55.1623 134.081 55.158C133.176 54.5888 132.284 54.0052 131.673 53.102C131.466 52.7909 131.238 52.6555 131.018 52.6442C130.708 52.6237 130.412 52.8414 130.203 53.1476C129.943 53.5385 129.752 53.9536 129.633 54.3879C129.519 54.7883 129.469 55.2085 129.476 55.6381C129.503 57.0235 129.861 58.3254 130.699 59.4531C130.968 59.8132 131.036 60.1463 130.942 60.5429C130.924 60.6212 130.901 60.6953 130.87 60.779C130.862 60.8095 130.847 60.8412 130.838 60.8745C130.722 61.265 130.724 61.6994 130.667 62.1118C130.639 62.3153 130.636 62.5254 130.59 62.7209L130.588 62.7292C130.583 62.7577 130.576 62.7854 130.566 62.8123L130.534 62.9287C130.39 63.4337 130.331 63.9435 130.378 64.467C130.387 64.5764 130.396 64.6858 130.377 64.7906L130.376 64.7961C130.363 64.8669 130.336 64.9312 130.293 65.0029C129.507 66.2626 128.952 67.6166 128.569 69.0439C128.538 69.1603 128.507 69.2767 128.476 69.3931L128.409 69.6397C127.992 70.0002 127.48 70.1363 126.958 70.2549C126.623 70.3314 126.284 70.4099 125.957 70.5123C125.564 70.6358 125.259 70.8868 125.026 71.2253C124.522 71.9427 124.132 72.7115 123.898 73.5517C123.881 73.6155 123.864 73.6792 123.849 73.7437C123.605 74.7446 123.748 75.6977 124.289 76.5795C124.413 76.7821 124.562 76.9704 124.718 77.1874C124.716 77.2702 124.709 77.3751 124.702 77.4801C124.631 78.3078 124.977 78.947 125.666 79.3573C126.164 79.6511 126.716 79.8615 127.259 80.0752C127.928 80.3377 128.603 80.5899 129.289 80.8033C129.355 80.8211 129.417 80.8437 129.484 80.8615C129.876 80.9725 130.282 81.0545 130.684 81.103C131.537 81.2037 132.319 80.9677 133.024 80.4854C133.205 80.3646 133.383 80.243 133.597 80.0984C133.664 80.0507 133.735 80.0046 133.808 79.9557C133.818 80.1278 133.846 80.2243 133.825 80.3137C133.794 80.4747 133.754 80.6334 133.711 80.7941C133.497 81.6132 133.186 82.4 132.841 83.175C132.568 83.785 132.193 84.332 131.749 84.834C131.396 85.2324 131.041 85.6273 130.672 86.0066C129.731 86.9666 128.984 88.0585 128.382 89.2517C128.244 89.5236 128.125 89.8007 128.042 90.102C128.014 90.1955 127.99 90.2933 127.973 90.3925C128.124 90.4597 128.259 90.5226 128.388 90.5811C128.389 90.602 128.388 90.6257 128.388 90.6493C128.392 90.68 128.387 90.7085 128.373 90.7284C128.17 91.0069 127.956 91.2761 127.753 91.5545C127.13 92.4182 126.66 93.3498 126.375 94.3932C126.358 94.4569 126.341 94.5207 126.324 94.5844C126.315 94.6149 126.307 94.6454 126.303 94.6738C126.153 94.711 126.004 94.7454 125.86 94.7868C125.414 94.9199 125.166 95.2692 124.969 95.6473C124.764 96.0378 124.594 96.4497 124.474 96.875C124.424 97.0635 124.384 97.2549 124.352 97.4541C124.24 98.1907 124.141 98.9274 124.058 99.6686C123.981 100.358 124.03 101.048 124.183 101.731C124.365 102.513 124.714 103.174 125.492 103.531C125.584 103.574 125.664 103.654 125.783 103.74C125.852 104.593 126.018 105.436 126.281 106.282C121.227 106.309 116.18 106.258 111.139 105.602C110.721 105.547 110.302 105.491 109.882 105.429C105.976 104.863 102.122 104.048 98.3133 103.042C98.0826 102.983 97.8525 102.921 97.6253 102.86L97.5671 102.845C94.5042 102.015 91.4834 101.039 88.4991 99.9606C88.3289 99.8972 88.169 99.8068 87.9557 99.7051C87.9694 99.6761 87.9803 99.6463 87.9898 99.6221C88.0428 99.4908 88.0886 99.3753 88.1447 99.2656C88.5926 98.4143 89.2132 97.6836 89.8262 96.9478C90.3233 96.3562 90.8293 95.7759 91.3285 95.1879C92.2935 94.0474 93.1133 92.8057 93.8368 91.5025C94.0672 91.086 94.228 90.6301 94.4246 90.1956C94.4695 90.0947 94.5241 89.9906 94.5937 89.8637C94.6167 89.8223 94.6412 89.7754 94.6664 89.7257C94.9432 90.0672 95.1631 90.3549 95.4021 90.6268C95.648 90.9066 95.8966 91.1871 96.1708 91.4387C96.4421 91.6897 96.7361 91.9229 97.038 92.1375C97.3399 92.352 97.6539 92.555 97.9843 92.7297C98.1299 92.8073 98.2852 92.8816 98.445 92.9392L98.4505 92.9407C98.6388 93.003 98.8372 93.0384 99.0576 93.0143C99.1576 92.8628 99.2152 92.703 99.2563 92.5388L99.2593 92.5277C99.2904 92.4113 99.307 92.294 99.3292 92.1781C99.6435 90.3732 100.077 88.5883 100.274 86.7578C100.575 84.0047 99.932 81.5364 98.1032 79.4157C97.7557 79.0166 97.392 78.6221 96.9999 78.2675C96.1479 77.4897 95.3628 77.0388 94.3906 76.7872C94.385 76.7857 94.3795 76.7842 94.3739 76.7827C93.988 76.6823 93.5694 76.6147 93.1024 76.5727C93.0916 76.5579 93.0855 76.5474 93.0774 76.5333C92.9532 76.3426 92.8189 76.1343 92.6804 75.9309C91.6721 74.4726 90.5145 73.1614 88.9338 72.2982C87.949 71.7611 86.9169 71.3449 85.8387 71.0679C85.3758 70.9439 84.9041 70.8531 84.4229 70.7866C83.948 70.7187 83.4766 70.6488 83.0071 70.5498C82.1237 70.3547 81.2223 70.2824 80.3223 70.2046C78.6802 70.0587 77.0414 69.878 75.4017 69.7119C74.4735 69.6177 73.5473 69.5269 72.6233 69.4279C72.467 69.4127 72.3138 69.3746 72.1355 69.3417C72.1315 69.3347 72.1302 69.3284 72.1261 69.3214C71.8456 68.4947 71.197 68.0774 70.42 67.8068C70.2678 67.7541 70.1193 67.6876 69.9654 67.6523C69.9266 67.6419 69.8878 67.6315 69.8475 67.6266C68.4647 67.2888 67.0752 66.9759 65.6469 66.908C64.7735 66.8641 64.5667 66.9483 63.8999 67.5746C63.8308 67.5442 63.761 67.5166 63.6947 67.4869C62.6135 67.0101 61.6094 66.3787 60.6599 65.6431C60.6986 65.499 60.7126 65.369 60.7471 65.2625L60.7486 65.2569C60.7645 65.2196 60.7784 65.1788 60.8019 65.1465C60.8841 65.017 60.9384 64.8919 60.967 64.763C61.0232 64.4869 60.9555 64.2074 60.8363 63.9319C60.7404 63.7131 60.6215 63.503 60.4792 63.3134C59.3114 61.7411 57.9261 60.3926 56.3056 59.2901C55.9768 59.0653 55.7109 58.9377 55.4203 58.8806L55.412 58.8784C55.1115 58.8246 54.7827 58.8434 54.3243 58.9136C54.299 58.8861 54.2737 58.8585 54.2519 58.8289C52.9578 57.3178 52.1106 55.5907 51.8685 53.5565C51.8811 53.5539 51.8909 53.5506 51.9027 53.5508C52.0822 53.5128 52.263 53.481 52.4803 53.4353C52.4759 53.4074 52.4687 53.3787 52.4635 53.3536C52.4262 53.1713 52.4004 53.0129 52.3542 52.8638C51.8967 51.3006 51.6174 49.705 51.5424 48.0779C51.4661 46.3673 51.6949 44.6821 52.0529 43.0136C52.061 42.9831 52.0692 42.9526 52.0774 42.9221C52.118 42.7815 52.1808 42.6469 52.2176 42.532C52.317 42.4933 52.3649 42.4586 52.4137 42.4538C55.1344 42.366 57.5356 40.4549 58.2092 37.8521L58.2196 37.8133C58.3922 37.114 58.1705 36.7219 57.5204 36.5982C57.4622 36.5826 57.3983 36.5774 57.3351 36.5694C57.1503 36.5496 56.9623 36.5527 56.7799 36.5572C56.1378 36.5812 55.5116 36.4907 54.9021 36.3155C54.7449 36.2704 54.5864 36.219 54.4314 36.1656C54.1602 36.0691 53.9079 35.9243 53.4701 35.7179C53.5307 35.7134 53.5913 35.7088 53.6444 35.6993C53.9455 35.673 54.1316 35.6546 54.3191 35.6424C55.3619 35.5862 56.3867 35.4419 57.3387 34.9931C57.6747 34.8365 58.0083 34.6556 58.2954 34.4266C58.5374 34.233 58.763 33.9786 58.9019 33.704C58.9451 33.6205 58.9736 33.5361 58.9967 33.4501C59.1273 32.8851 58.7705 32.3321 58.1686 32.2391C58.1465 32.2332 58.1228 32.2328 58.0964 32.2317C57.7628 32.2017 57.4075 32.2639 57.077 32.3447C56.6647 32.4421 56.2727 32.6193 55.863 32.7293C55.6099 32.7981 55.341 32.8152 55.0796 32.8372C55.0426 32.8422 54.9896 32.8072 54.9527 32.7676C54.9315 32.747 54.9193 32.7259 54.9127 32.7063C54.9002 32.6644 54.9075 32.604 54.9334 32.5515C54.9429 32.5273 54.9536 32.5094 54.9664 32.495C55.0352 32.4154 55.1268 32.3508 55.2194 32.3044C55.4798 32.1751 55.7424 32.0376 56.0196 31.9455C56.8172 31.6958 57.5303 31.2958 58.1726 30.761C58.3554 30.6109 58.569 30.4899 58.7716 30.366C59.6386 29.8349 60.5778 29.6113 61.5914 29.675C62.6816 29.7414 63.7688 29.8188 64.8571 29.8698C66.2945 29.9372 67.7217 29.9097 69.1368 29.573C71.1003 29.107 72.6921 28.0661 73.9749 26.5267C74.2988 26.1382 74.5107 25.7019 74.6301 25.223C74.6539 25.1343 74.6729 25.0414 74.6918 24.9484C74.7694 24.5147 74.7089 24.0975 74.5242 23.7005C74.3154 23.2495 73.9257 22.952 73.481 22.8715C73.2402 22.8277 72.9816 22.8505 72.7266 22.9486C72.382 23.0819 72.0762 23.303 71.7509 23.4861C71.408 23.6794 71.0703 23.8978 70.7132 24.0665C70.3702 24.2271 70.0025 24.2801 69.6226 24.2347C69.4989 24.2194 69.3873 24.1925 69.2843 24.1559C68.7764 23.9783 68.4612 23.5582 68.4133 22.972C68.3658 22.4068 68.505 21.8649 68.6131 21.3176C68.7027 20.8723 68.8366 20.4389 68.9172 19.9941C68.9778 19.6569 69.0186 19.3054 68.9992 18.9675C68.9556 18.2103 68.4558 17.5922 67.8162 17.4297C67.7801 17.4201 67.7378 17.4117 67.6983 17.4041C67.0246 17.28 66.3315 17.5606 65.9242 18.1495C65.559 18.6814 65.3843 19.3 65.1592 19.8961C64.966 20.4176 64.7685 20.9439 64.5456 21.4545C64.2442 22.1579 63.7372 22.7201 63.1218 23.1433C62.3747 23.659 61.5631 23.8277 60.7282 23.5624C60.5745 23.5153 60.4162 23.452 60.2596 23.3715C59.8939 23.1844 59.6408 22.876 59.4232 22.5355C59.1046 22.0283 58.9456 21.4689 58.8705 20.8844C58.7811 20.198 58.7127 19.5113 58.617 18.8263C58.5684 18.4865 58.5095 18.141 58.3875 17.8202C58.2009 17.3306 57.8508 17.0408 57.4427 16.9789C57.1261 16.9297 56.7752 17.0199 56.4461 17.2614C56.1805 17.4546 55.9871 17.6998 55.8581 18.0039C55.8023 18.1345 55.7556 18.2645 55.7179 18.394C55.6173 18.7473 55.5744 19.1071 55.5813 19.4802C55.6011 20.3707 55.7655 21.2316 56.1187 22.0421C56.5415 23.0138 56.6824 24.0288 56.7114 25.0733C56.7217 25.4562 56.6843 25.8175 56.5944 26.1528C56.4071 26.9076 55.9781 27.5442 55.3317 28.072C54.4045 28.8275 53.3185 29.2554 52.146 29.4521C51.892 29.491 51.6205 29.4509 51.3631 29.4027C51.3256 29.3986 51.2911 29.3834 51.2636 29.3642C51.1581 29.3032 51.1095 29.1743 51.1222 29.0382C51.1308 28.9395 51.1561 28.8452 51.1848 28.749L51.2108 28.652C51.2494 28.5079 51.3027 28.3647 51.3378 28.2226C51.3474 28.1866 51.3571 28.1506 51.366 28.1173C51.4981 27.3804 51.1639 26.9315 50.6031 26.8406C50.4399 26.8177 50.2575 26.8223 50.0586 26.8551C49.7584 26.9113 49.4564 27.0739 49.2008 27.252C48.5543 27.7025 48.0957 28.3163 47.8064 29.0527C47.73 29.249 47.6556 29.4489 47.5776 29.6627C47.4902 29.6452 47.3918 29.6574 47.3431 29.6177C47.3363 29.6099 47.3287 29.6049 47.3219 29.5971C46.4977 28.8594 45.6223 28.1912 44.653 27.6849C44.6492 27.1225 44.6755 26.5919 44.6322 26.0665C44.6065 25.7299 44.5008 25.3926 44.3824 25.0698C44.3118 24.8786 44.1744 24.6933 44.0293 24.5474C43.8903 24.4122 43.7155 24.3327 43.5405 24.3096C43.2293 24.2737 42.9013 24.4115 42.7189 24.7043C42.6359 24.8365 42.604 25.0002 42.5326 25.1445C42.4526 25.3102 42.3746 25.4794 42.2635 25.6278C42.1197 25.821 41.8977 25.8625 41.6976 25.7554L41.6921 25.7539C41.4058 25.6029 41.1789 25.3966 40.9892 25.1289C40.4562 24.3802 40.2916 23.5311 40.2627 22.6412C40.251 22.2192 40.2973 21.8247 40.4031 21.452C40.5847 20.7967 40.948 20.2168 41.4901 19.7234C42.0011 19.2574 42.5572 18.845 43.1145 18.4388C43.6761 18.0279 44.1884 17.5681 44.6337 17.037C44.9654 16.6417 45.179 16.188 45.3057 15.6932L45.3109 15.6738C45.4305 15.1831 45.2974 14.7375 45.009 14.3394C44.8254 14.0823 44.5829 13.9342 44.3218 13.8998C44.1113 13.8761 43.8899 13.9267 43.6753 14.0623C43.4081 14.2283 43.1697 14.4526 42.9516 14.6792C42.5054 15.136 42.0949 15.626 41.6447 16.0757C41.4047 16.3173 41.1274 16.543 40.8295 16.7127C40.417 16.9438 39.9975 16.9798 39.6357 16.8443C39.303 16.7225 39.018 16.456 38.8248 16.0686C38.5731 15.5556 38.4446 15.0043 38.4964 14.4449C38.5611 13.7048 38.6862 12.972 38.8057 12.2376C38.8627 11.8697 38.9738 11.5104 39.0391 11.1447C39.1402 10.5569 39.1117 9.97601 38.8551 9.42606C38.6246 8.93361 38.2446 8.64465 37.8316 8.57855C37.3854 8.50353 36.9091 8.68482 36.5485 9.14366C36.3543 9.39164 36.1978 9.67645 36.0574 9.95665C35.8931 10.2928 35.7454 10.6334 35.6239 10.987C35.3225 11.8568 34.4016 12.1121 33.6828 11.8571C33.4746 11.7805 33.2823 11.6666 33.1284 11.5095C32.778 11.1542 32.5091 10.7168 32.2251 10.3021C32.075 10.0866 31.9762 9.8344 31.8493 9.59842C31.6778 9.28514 31.4197 9.07339 31.1201 8.88323C30.9508 8.7725 30.7675 8.70261 30.5809 8.66745C29.8147 8.50075 28.9525 8.99152 28.6988 9.83843C28.668 9.93117 28.6503 10.0304 28.6375 10.1339C28.5594 10.8021 28.6401 11.4653 28.8025 12.1118C29.0737 13.2063 29.4822 14.2425 30.0793 15.1956C31.0829 16.8041 32.2481 18.2867 33.7021 19.5228C34.2901 20.022 34.8704 20.528 35.4677 21.0147C36.1852 21.5961 36.6113 22.334 36.7135 23.2496C36.7259 23.3806 36.7411 23.5124 36.7527 23.6462C36.8308 24.3414 37.0167 25.0002 37.4034 25.5969C37.5615 25.8382 37.7292 26.0881 37.7151 26.3844C37.7147 26.408 37.7116 26.4309 37.7077 26.4566C37.5829 26.5895 37.4525 26.5665 37.365 26.4717C37.3595 26.4703 37.3554 26.4632 37.3534 26.4597C37.1068 26.1827 36.8757 25.8921 36.6412 25.6035C36.4769 25.3961 36.341 25.1607 36.1562 24.9746C36.0119 24.826 35.8304 24.6942 35.6403 24.6165C35.5498 24.5774 35.4638 24.5544 35.3812 24.5412C35.0438 24.4923 34.7511 24.6426 34.5293 24.9604C34.4308 25.1063 34.3587 25.2533 34.3081 25.4091L34.3066 25.4146C34.1992 25.7601 34.2181 26.1216 34.3365 26.489C34.5529 27.1559 34.9021 27.7485 35.3707 28.2721C35.4991 28.4134 35.6354 28.548 35.7729 28.6888C35.7838 28.7036 35.7954 28.7156 35.8098 28.7284C35.6808 28.8661 35.57 28.7918 35.4847 28.7333C35.4736 28.7304 35.4668 28.7226 35.462 28.7183C34.5571 28.1491 33.6649 27.5655 33.0544 26.6623C32.8467 26.3512 32.6186 26.2158 32.3989 26.2045C32.0895 26.184 31.7935 26.4017 31.5838 26.7079C31.3246 27.0988 31.1331 27.5139 31.0138 27.9482C30.9006 28.3486 30.8503 28.7688 30.857 29.1983C30.8838 30.5838 31.2419 31.8857 32.0804 33.0134C32.3493 33.3735 32.4174 33.7066 32.3231 34.1031C32.305 34.1815 32.2822 34.2556 32.2509 34.3393C32.2427 34.3697 32.2283 34.4015 32.2194 34.4348C32.1028 34.8253 32.1053 35.2597 32.0482 35.6721C32.0204 35.8756 32.0176 36.0857 31.9712 36.2812L31.9689 36.2895C31.9643 36.318 31.9568 36.3457 31.9466 36.3726L31.9155 36.489C31.7712 36.994 31.7119 37.5038 31.7587 38.0273C31.768 38.1367 31.7773 38.2461 31.7582 38.3509L31.7567 38.3564C31.7437 38.4272 31.7175 38.4915 31.6746 38.5632C30.8885 39.8229 30.3326 41.1769 29.9502 42.6042C29.919 42.7206 29.8878 42.837 29.8566 42.9534L29.7905 43.2C29.3731 43.5605 28.8614 43.6966 28.3395 43.8152C28.0042 43.8917 27.6653 43.9702 27.3379 44.0726C26.9453 44.1961 26.6432 44.4478 26.4072 44.7856C25.9031 45.503 25.5129 46.2718 25.2788 47.112C25.2618 47.1758 25.2447 47.2395 25.2304 47.304C24.986 48.3049 25.1286 49.258 25.6706 50.1398C25.7945 50.3424 25.9431 50.5307 26.0988 50.7477C26.0974 50.8305 26.0901 50.9354 26.0827 51.0404C26.0124 51.8681 26.358 52.5073 27.0471 52.9176C27.5446 53.2114 28.0972 53.4218 28.6399 53.6355C29.3092 53.898 29.9842 54.1502 30.6696 54.3636C30.7362 54.3814 30.7984 54.404 30.8649 54.4218C31.257 54.5328 31.6627 54.6148 32.0656 54.6633C32.9178 54.764 33.6999 54.528 34.4054 54.0457C34.5863 53.9249 34.7672 53.804 34.9784 53.6586C35.0446 53.611 35.1164 53.5649 35.1889 53.516C35.1992 53.6881 35.2268 53.7846 35.2059 53.874C35.1746 54.035 35.1351 54.1937 35.092 54.3544C34.8785 55.1735 34.5667 55.9602 34.2223 56.7353C33.949 57.3453 33.5737 57.8923 33.1303 58.3943C32.777 58.7927 32.4217 59.1876 32.0527 59.5669C31.1123 60.5269 30.3652 61.6188 29.7633 62.812C29.6251 63.0839 29.5063 63.361 29.4226 63.6623C29.3946 63.7558 29.3714 63.8535 29.3537 63.9528C29.505 64.02 29.6397 64.0829 29.7695 64.1414C29.7699 64.1623 29.7695 64.186 29.7691 64.2096C29.7727 64.2403 29.7681 64.2688 29.7538 64.2887C29.5515 64.5672 29.3368 64.8364 29.1344 65.1148C28.5109 65.9785 28.0415 66.9101 27.756 67.9535C27.7389 68.0172 27.7218 68.081 27.7047 68.1447C27.6966 68.1752 27.6884 68.2057 27.6837 68.2341C27.5342 68.2713 27.3854 68.3057 27.2406 68.3471C26.795 68.4802 26.547 68.8295 26.3506 69.2076C26.145 69.5981 25.9752 70.01 25.8553 70.4353C25.8048 70.6238 25.7654 70.8152 25.7328 71.0144C25.6216 71.751 25.5222 72.4877 25.4394 73.2289C25.3617 73.918 25.4113 74.6086 25.5641 75.2911C25.7465 76.0737 26.0952 76.7344 26.8729 77.0913C26.9654 77.1339 27.0448 77.2146 27.1645 77.3001C27.2548 78.4263 27.5187 79.5367 27.9479 80.6616C27.9566 80.6847 27.9653 80.7079 27.9747 80.7282C27.8016 80.7977 27.6422 80.8827 27.4765 80.9244C25.5956 81.4036 23.7193 81.8989 21.8299 82.3432C20.4597 82.6681 19.512 83.4776 18.8818 84.6989C18.7596 84.9334 18.6469 85.1765 18.5405 85.4183C18.3928 85.759 18.2527 86.1046 18.1181 86.4517C18.0425 86.6453 17.9751 86.8411 17.9224 87.0379C17.7981 87.4798 17.7306 87.9311 17.7339 88.3953C17.7357 89.076 17.8719 89.7096 18.261 90.2861C18.606 90.7944 18.9244 91.3134 19.2631 91.823C20.6075 93.8228 21.7281 95.9261 22.3862 98.2589C22.4867 98.6156 22.6221 98.9638 22.7555 99.3084C23.0356 100.037 23.521 100.598 24.224 100.923C24.9684 101.271 25.743 101.561 26.5098 101.859C27.6238 102.291 28.7457 102.705 29.7499 103.081C30.213 103.891 30.6045 104.614 31.0269 105.321C31.1752 105.566 31.3732 105.791 31.5842 105.99C31.7548 106.152 31.9199 106.267 32.0873 106.33C32.4226 106.464 32.7653 106.404 33.1792 106.168C33.3619 106.062 33.5386 105.946 33.732 105.867C33.7923 105.842 33.8599 105.833 33.9379 105.831C34.0104 105.826 34.0884 105.823 34.1776 105.812C34.1408 106.137 34.1172 106.425 34.0714 106.707C33.8886 107.81 33.7065 108.911 33.4988 110.008C33.4636 110.195 33.4194 110.382 33.3689 110.57C33.2982 110.845 33.2156 111.12 33.1358 111.396C32.5539 113.468 31.3829 115.189 29.9664 116.773C29.4167 117.383 28.7964 117.935 28.3942 118.671C28.2987 118.851 28.1339 118.922 27.9472 118.976C27.4877 119.106 27.0167 119.223 26.5766 119.402C26.0629 119.612 25.5631 119.87 25.0756 120.137C24.8712 120.246 24.6832 120.416 24.5285 120.594C24.4043 120.736 24.3139 120.896 24.2653 121.055C24.1566 121.394 24.2153 121.752 24.4482 122.058C24.7335 122.434 25.0586 122.762 25.2486 123.217C25.3897 123.554 25.7638 123.744 26.1157 123.883C26.3251 123.965 26.5394 124.053 26.7597 124.118C26.7707 124.12 26.7791 124.123 26.7901 124.126C26.867 124.149 26.9411 124.172 27.0229 124.188C28.1403 124.419 29.2633 124.64 30.3881 124.843C30.6739 124.896 30.9735 124.875 31.2657 124.882C32.2083 124.912 32.905 124.496 33.3722 123.694C33.7184 123.101 34.035 122.485 34.3667 121.878C34.4299 121.765 34.4718 121.63 34.5582 121.541C34.8645 121.207 35.1864 120.892 35.4995 120.566C35.6363 120.422 35.7859 120.34 35.95 120.348C36.0328 120.35 36.1187 120.373 36.2118 120.424C36.2822 120.461 36.3511 120.503 36.4264 120.532C36.4852 120.557 36.5447 120.579 36.5994 120.596C37.1495 120.783 37.4214 120.633 37.6801 120.022C37.7772 119.792 37.8529 119.554 37.9133 119.318C38.0343 118.866 38.1035 118.397 38.1628 117.932C38.3254 116.749 38.4887 115.563 38.652 114.377C38.7467 113.669 38.8997 112.976 39.0783 112.287L39.1392 112.06C39.2238 111.744 39.3148 111.427 39.405 111.112C39.7002 110.11 40.1432 109.177 40.7113 108.299C40.9578 107.922 41.207 107.547 41.4569 107.168C41.9883 106.36 42.3352 105.476 42.5882 104.542L42.612 104.454C42.756 103.916 42.8986 103.384 43.0455 102.847C43.2017 102.286 43.3615 101.723 43.5352 101.163C44.2581 98.8204 45.3954 96.7043 47.0587 94.8865C47.1098 94.8289 47.1717 94.7861 47.3101 94.6687C47.3172 94.6647 47.3214 94.6599 47.3284 94.6558C48.9399 95.2153 50.5424 95.7754 52.1622 96.3372C52.1865 96.5457 52.1974 96.7268 52.2279 96.9013C52.2945 97.2845 52.4719 97.6202 52.7955 97.8316C53.1735 98.0725 53.5619 98.3192 53.9783 98.4723C54.3677 98.6153 54.7623 98.7389 55.1579 98.8478C56.427 99.1998 57.7273 99.3908 59.0533 99.4639C59.7271 99.4989 60.3219 99.3077 60.8436 98.9128C61.213 98.6316 61.5769 98.5925 62.0304 98.6516C63.559 98.8444 65.0926 98.985 66.6266 99.1465C66.6906 99.1518 66.7538 99.1598 66.8232 99.1665C66.8955 99.174 66.967 99.1843 67.0448 99.1932C67.1917 99.6871 67.3458 100.165 67.4796 100.652C68.1533 103.093 69.0931 105.439 70.1162 107.751C70.4279 108.461 70.6473 109.194 70.8442 109.945C70.9141 110.216 70.919 110.464 70.8657 110.696C70.8166 110.924 70.7058 111.138 70.5435 111.356C69.614 112.619 68.6378 113.845 67.6197 115.04C65.6558 117.347 63.7187 119.677 61.774 122.001C61.4999 122.326 61.2382 122.66 60.9198 123.05C60.7107 123.109 60.4257 123.176 60.1566 123.282C59.5884 123.507 59.0276 123.749 58.47 124C58.3045 124.075 58.1495 124.188 58.0048 124.306C57.7656 124.501 57.6098 124.705 57.5408 124.919C57.4284 125.272 57.546 125.642 57.9095 126.004C58.1011 126.197 58.2396 126.401 58.3251 126.658C58.447 127.024 58.7226 127.27 59.0562 127.466C59.2919 127.607 59.5379 127.708 59.7907 127.785L59.8073 127.789C60.0026 127.848 60.2051 127.89 60.4091 127.927C61.2973 128.082 62.1915 128.214 63.0871 128.341C63.2989 128.371 63.5113 128.366 63.7227 128.375C64.3542 128.402 64.8624 128.146 65.2669 127.678C65.7985 127.069 66.1776 126.374 66.4296 125.667C66.8964 125.266 67.3293 124.892 67.7778 124.504C67.7848 124.5 67.7926 124.493 67.7969 124.488C67.8957 124.53 67.9982 124.557 68.0865 124.605C68.1541 124.641 68.2204 124.67 68.2819 124.696C68.8193 124.896 69.2744 124.694 69.4764 124.107C69.5313 123.946 69.5849 123.779 69.6259 123.615C69.6928 123.366 69.7367 123.113 69.7562 122.863C69.7786 122.524 69.8356 122.201 69.9222 121.889C70.1313 121.131 70.5082 120.444 71.0046 119.811C71.4143 119.291 71.8673 118.798 72.3297 118.325C73.7118 116.925 75.1035 115.533 76.502 114.149C76.6578 113.989 76.7933 113.794 77.0082 113.679C77.0672 113.647 77.1275 113.622 77.1974 113.605C77.4454 114.375 77.5107 115.13 77.3259 115.852C77.2384 116.212 77.0857 116.56 76.8663 116.902C76.4075 117.617 75.9135 118.308 75.4093 118.992C74.351 120.426 73.2906 121.855 72.2083 123.267C71.7379 123.881 71.2271 124.457 70.7204 125.04C69.5039 126.443 68.2983 127.86 67.2059 129.377C66.6533 129.543 66.0809 129.684 65.538 129.892C65.019 130.089 64.5151 130.34 64.0215 130.597C63.8171 130.705 63.6264 130.874 63.4744 131.053C63.365 131.184 63.2861 131.324 63.2379 131.459C63.1185 131.816 63.214 132.18 63.5389 132.475C63.8206 132.732 64.041 132.996 64.1657 133.362C64.2804 133.699 64.5414 133.944 64.8532 134.111C65.1133 134.249 65.3731 134.399 65.6503 134.473C66.066 134.584 66.4794 134.704 66.8944 134.818C67.6371 135.017 68.3816 135.199 69.1472 135.279C69.6439 135.332 70.1562 135.327 70.6577 135.307C71.1883 135.288 71.6137 135.031 71.9513 134.614C72.3415 134.133 72.6302 133.599 72.8494 133.025C73.0292 132.553 73.1998 132.094 73.7032 131.833C73.9264 131.721 74.0735 131.46 74.2495 131.258C74.4112 131.076 74.5477 130.866 74.8374 130.771C74.8605 130.762 74.8864 130.754 74.9143 130.75C75.0785 130.836 75.2796 130.961 75.4959 131.051C75.5146 131.059 75.5305 131.067 75.5526 131.073C76.0596 131.265 76.5462 131.089 76.7669 130.587C76.8611 130.369 76.9373 130.14 76.9969 129.906C77.0378 129.754 77.0683 129.595 77.0945 129.442C77.1727 128.973 77.2716 128.515 77.3974 128.068C77.4115 128.015 77.4249 127.965 77.4375 127.918C78.0485 125.771 79.1523 123.869 80.6634 122.165C81.1571 121.608 81.6817 121.08 82.2036 120.551C83.2289 119.507 84.2487 118.462 85.2904 117.434C86.0568 116.68 86.5475 115.813 86.7911 114.86C86.9389 114.308 86.9982 113.721 86.9869 113.109C86.9662 112.022 86.8501 110.937 86.7695 109.852C86.7127 109.055 86.6314 108.261 86.5765 107.468C86.5544 107.207 86.5749 106.942 86.5753 106.63C86.5808 106.632 86.5926 106.632 86.5982 106.634C86.6717 106.647 86.7384 106.653 86.7981 106.663C86.8704 106.671 86.9321 106.684 86.9908 106.709C90.0975 108.041 93.2676 109.202 96.485 110.242C97.9365 110.711 99.3998 111.148 100.872 111.551C101.033 111.594 101.199 111.639 101.365 111.684C102.576 112.011 103.797 112.317 105.023 112.598C107.979 113.286 110.962 113.836 113.967 114.237C114.467 114.303 114.969 114.366 115.47 114.426C115.776 114.461 116.082 114.495 116.385 114.526C116.38 114.623 116.374 114.722 116.377 114.821C116.379 115.502 116.515 116.135 116.904 116.712C117.249 117.22 117.568 117.739 117.907 118.248C119.251 120.248 120.372 122.352 121.03 124.684C121.13 125.041 121.266 125.389 121.399 125.734C121.682 126.463 122.164 127.023 122.867 127.348C123.612 127.696 124.386 127.987 125.153 128.284C126.267 128.717 127.389 129.13 128.393 129.506C128.856 130.316 129.248 131.039 129.67 131.746C129.819 131.991 130.017 132.216 130.228 132.416C130.398 132.577 130.563 132.693 130.731 132.755C131.066 132.89 131.409 132.83 131.823 132.593C132.005 132.488 132.182 132.372 132.375 132.293C132.436 132.268 132.503 132.259 132.581 132.256C132.654 132.252 132.732 132.249 132.821 132.237C132.784 132.563 132.761 132.851 132.715 133.132C132.532 134.236 132.35 135.337 132.142 136.434C132.107 136.62 132.063 136.807 132.012 136.996C131.942 137.271 131.859 137.546 131.779 137.821C131.197 139.893 130.026 141.614 128.61 143.198C128.06 143.808 127.44 144.361 127.038 145.097C126.942 145.276 126.777 145.348 126.591 145.402C126.131 145.531 125.66 145.648 125.22 145.828C124.706 146.037 124.207 146.296 123.719 146.563C123.515 146.672 123.327 146.841 123.172 147.019C123.048 147.161 122.957 147.321 122.909 147.481C122.8 147.82 122.859 148.177 123.092 148.483C123.377 148.859 123.702 149.187 123.892 149.642C124.033 149.98 124.407 150.169 124.759 150.308C124.969 150.391 125.183 150.478 125.403 150.543C125.414 150.546 125.423 150.548 125.434 150.551C125.511 150.575 125.585 150.598 125.666 150.614C126.784 150.845 127.907 151.065 129.032 151.269C129.317 151.322 129.617 151.301 129.909 151.308C130.852 151.338 131.548 150.921 132.016 150.12C132.362 149.526 132.678 148.91 133.01 148.304C133.073 148.19 133.115 148.056 133.202 147.966C133.508 147.632 133.83 147.318 134.143 146.992C134.28 146.847 134.429 146.765 134.594 146.774C134.676 146.775 134.762 146.798 134.855 146.85C134.926 146.887 134.995 146.929 135.07 146.958C135.129 146.982 135.188 147.004 135.243 147.022C135.793 147.208 136.065 147.058 136.324 146.447C136.421 146.218 136.496 145.98 136.557 145.743C136.678 145.292 136.747 144.823 136.806 144.358C136.969 143.174 137.132 141.989 137.296 140.803C137.39 140.094 137.543 139.402 137.722 138.713L137.783 138.485C137.867 138.17 137.958 137.852 138.048 137.538C138.344 136.536 138.787 135.603 139.355 134.724C139.601 134.348 139.85 133.972 140.1 133.594C140.632 132.785 140.979 131.901 141.232 130.968L141.255 130.879C141.4 130.342 141.542 129.809 141.689 129.273C141.845 128.711 142.005 128.148 142.179 127.589C142.902 125.246 144.039 123.13 145.702 121.312C145.753 121.254 145.815 121.212 145.954 121.094C145.961 121.09 145.965 121.085 145.972 121.081C147.583 121.641 149.186 122.201 150.806 122.763C150.83 122.971 150.841 123.152 150.871 123.327C150.938 123.71 151.115 124.046 151.439 124.257C151.817 124.498 152.205 124.745 152.622 124.898C153.011 125.041 153.406 125.164 153.801 125.273C155.07 125.625 156.371 125.816 157.697 125.889C158.371 125.924 158.965 125.733 159.487 125.338C159.856 125.057 160.22 125.018 160.674 125.077C162.203 125.27 163.736 125.411 165.27 125.572C165.334 125.577 165.397 125.585 165.467 125.592C165.539 125.6 165.611 125.61 165.688 125.619C165.835 126.113 165.989 126.591 166.123 127.078C166.797 129.519 167.737 131.865 168.76 134.177C169.071 134.887 169.291 135.62 169.488 136.371C169.558 136.642 169.562 136.89 169.509 137.122C169.46 137.349 169.349 137.563 169.187 137.781C168.257 139.044 167.281 140.271 166.263 141.465C164.299 143.773 162.362 146.102 160.418 148.427C160.143 148.751 159.882 149.085 159.563 149.475C159.354 149.535 159.069 149.601 158.8 149.707C158.232 149.932 157.671 150.174 157.114 150.426C156.948 150.5 156.793 150.613 156.648 150.732C156.409 150.926 156.253 151.131 156.187 151.345C156.075 151.698 156.192 152.068 156.556 152.43C156.747 152.624 156.886 152.827 156.971 153.085C157.093 153.45 157.369 153.696 157.702 153.893C157.938 154.033 158.184 154.134 158.437 154.211L158.454 154.216C158.649 154.274 158.851 154.316 159.055 154.353C159.944 154.508 160.838 154.641 161.733 154.768C161.945 154.798 162.158 154.792 162.369 154.801C163 154.828 163.509 154.572 163.913 154.104C164.445 153.495 164.824 152.801 165.076 152.093C165.543 151.692 165.976 151.318 166.424 150.93C166.431 150.926 166.439 150.919 166.443 150.915C166.542 150.956 166.645 150.983 166.733 151.031C166.8 151.067 166.867 151.096 166.928 151.122C167.466 151.322 167.921 151.12 168.123 150.533C168.178 150.372 168.231 150.206 168.272 150.041C168.339 149.792 168.383 149.539 168.402 149.289C168.425 148.951 168.482 148.627 168.569 148.315C168.778 147.557 169.154 146.871 169.651 146.237C170.061 145.717 170.514 145.224 170.976 144.751C172.358 143.351 173.75 141.959 175.148 140.576C175.304 140.415 175.44 140.22 175.654 140.105C175.713 140.074 175.774 140.048 175.844 140.031C176.092 140.802 176.157 141.556 175.972 142.279C175.885 142.638 175.732 142.987 175.51 143.328C175.051 144.043 174.557 144.733 174.053 145.418C172.994 146.851 171.934 148.281 170.852 149.693C170.381 150.307 169.871 150.883 169.364 151.466C168.147 152.868 166.942 154.286 165.849 155.802C165.297 155.969 164.724 156.11 164.182 156.318C163.662 156.514 163.159 156.765 162.665 157.022C162.461 157.131 162.27 157.3 162.118 157.479C162.009 157.61 161.93 157.749 161.881 157.885C161.762 158.242 161.857 158.606 162.182 158.901C162.464 159.158 162.684 159.422 162.809 159.788C162.924 160.124 163.185 160.37 163.497 160.536C163.754 160.674 164.014 160.823 164.291 160.898C164.707 161.009 165.12 161.129 165.535 161.243C166.278 161.442 167.022 161.624 167.788 161.704C168.285 161.757 168.797 161.752 169.298 161.731C169.829 161.713 170.254 161.456 170.592 161.038C170.982 160.558 171.271 160.023 171.49 159.449C171.67 158.978 171.841 158.518 172.344 158.258C172.567 158.146 172.714 157.885 172.89 157.683C173.052 157.5 173.188 157.29 173.478 157.196C173.501 157.187 173.527 157.179 173.555 157.175C173.719 157.26 173.92 157.386 174.137 157.476C174.155 157.484 174.171 157.491 174.193 157.497C174.7 157.69 175.187 157.514 175.408 157.012C175.502 156.793 175.578 156.564 175.638 156.331C175.679 156.178 175.709 156.02 175.735 155.867C175.813 155.398 175.912 154.94 176.038 154.493C176.052 154.44 176.066 154.39 176.078 154.343C176.689 152.196 177.793 150.293 179.304 148.589C179.798 148.033 180.322 147.505 180.844 146.976C181.87 145.932 182.889 144.887 183.931 143.859C184.698 143.105 185.188 142.238 185.432 141.284C185.58 140.733 185.639 140.146 185.628 139.534C185.607 138.447 185.491 137.362 185.41 136.277C185.353 135.48 185.272 134.686 185.217 133.893C185.195 133.632 185.216 133.367 185.216 133.055C185.222 133.057 185.233 133.057 185.239 133.058C185.312 133.072 185.379 133.078 185.439 133.088C185.511 133.096 185.573 133.109 185.632 133.134C188.738 134.465 191.908 135.627 195.126 136.667C196.577 137.136 198.041 137.573 199.513 137.976C199.673 138.019 199.84 138.064 200.006 138.108C201.216 138.436 202.438 138.742 203.664 139.023C206.619 139.711 209.603 140.261 212.608 140.662C212.619 141.319 212.761 141.933 213.137 142.491C213.479 142.999 213.8 143.518 214.139 144.028C215.268 145.703 216.239 147.454 216.907 149.35C217.038 149.715 217.158 150.088 217.262 150.464C217.363 150.821 217.495 151.168 217.631 151.513C217.911 152.242 218.397 152.803 219.1 153.128C219.288 153.214 219.476 153.3 219.662 153.379C220.229 153.623 220.807 153.841 221.383 154.063C222.5 154.496 223.619 154.909 224.623 155.285C225.083 156.094 225.478 156.818 225.897 157.524C226.046 157.769 226.246 157.995 226.457 158.194C226.628 158.356 226.793 158.471 226.958 158.533C227.293 158.668 227.636 158.608 228.05 158.371C228.23 158.265 228.409 158.15 228.602 158.071C228.663 158.045 228.73 158.037 228.808 158.034C228.881 158.03 228.959 158.027 229.051 158.016C229.011 158.341 228.99 158.629 228.942 158.91C228.759 160.014 228.577 161.115 228.372 162.212C228.337 162.399 228.293 162.586 228.242 162.774C228.169 163.049 228.089 163.325 228.009 163.6C227.427 165.672 226.253 167.392 224.837 168.976C224.29 169.587 223.667 170.139 223.265 170.875C223.169 171.054 223.008 171.124 222.818 171.18C222.358 171.309 221.89 171.427 221.45 171.606C220.933 171.815 220.436 172.074 219.949 172.342C219.744 172.45 219.554 172.619 219.399 172.797C219.277 172.94 219.184 173.099 219.136 173.259C219.027 173.598 219.086 173.955 219.321 174.262C219.604 174.637 219.929 174.965 220.119 175.42C220.26 175.758 220.637 175.948 220.986 176.086C221.198 176.17 221.41 176.256 221.63 176.321C221.641 176.324 221.649 176.326 221.661 176.329C221.737 176.355 221.814 176.376 221.893 176.392C223.01 176.625 224.133 176.846 225.258 177.049C225.544 177.102 225.84 177.081 226.133 177.088C227.075 177.118 227.772 176.701 228.239 175.9C228.585 175.306 228.905 174.691 229.234 174.084C229.297 173.97 229.339 173.836 229.426 173.743C229.732 173.41 230.054 173.095 230.366 172.772C230.506 172.628 230.656 172.546 230.82 172.554C230.902 172.556 230.988 172.579 231.081 172.631C231.152 172.667 231.221 172.709 231.299 172.739C231.358 172.764 231.417 172.786 231.472 172.803C232.019 172.989 232.294 172.84 232.553 172.229C232.65 171.999 232.725 171.761 232.786 171.525C232.907 171.073 232.976 170.604 233.038 170.14C233.201 168.957 233.364 167.771 233.527 166.585C233.625 165.877 233.775 165.184 233.956 164.496L234.017 164.268C234.102 163.953 234.19 163.635 234.283 163.321C234.578 162.319 235.021 161.386 235.589 160.507C235.833 160.13 236.085 159.755 236.335 159.377C236.866 158.568 237.213 157.684 237.463 156.75L237.486 156.664C237.63 156.127 237.774 155.592 237.923 155.055C238.08 154.494 238.239 153.931 238.413 153.372C239.136 151.029 240.273 148.913 241.937 147.095C241.985 147.037 242.05 146.995 242.188 146.877C242.195 146.873 242.199 146.868 242.204 146.864C243.815 147.423 245.418 147.983 247.037 148.545C247.062 148.753 247.073 148.935 247.103 149.109C247.17 149.492 247.347 149.828 247.671 150.037C248.049 150.28 248.438 150.524 248.854 150.677C249.244 150.82 249.638 150.944 250.034 151.053C251.303 151.405 252.603 151.596 253.929 151.669C254.603 151.704 255.198 151.513 255.719 151.118C256.089 150.837 256.453 150.797 256.906 150.857C258.435 151.049 259.969 151.19 261.503 151.351C261.569 151.357 261.632 151.366 261.699 151.372C261.771 151.379 261.84 151.388 261.921 151.398C262.068 151.892 262.222 152.37 262.353 152.857C263.026 155.298 263.969 157.644 264.989 159.955C265.301 160.666 265.523 161.399 265.717 162.149C265.787 162.421 265.792 162.668 265.739 162.901C265.69 163.128 265.579 163.342 265.417 163.56C264.484 164.822 263.511 166.049 262.493 167.244C260.529 169.551 258.592 171.881 256.644 174.205C256.373 174.53 256.109 174.863 255.793 175.254C255.584 175.314 255.299 175.38 255.03 175.486C254.462 175.711 253.901 175.953 253.34 176.204C253.175 176.278 253.02 176.391 252.875 176.51C252.636 176.704 252.483 176.91 252.414 177.123C252.299 177.475 252.419 177.846 252.78 178.207C252.971 178.401 253.11 178.604 253.198 178.863C253.32 179.228 253.596 179.474 253.929 179.67C254.165 179.811 254.411 179.912 254.664 179.989L254.68 179.994C254.878 180.053 255.081 180.095 255.282 180.131C256.173 180.287 257.067 180.419 257.96 180.546C258.172 180.576 258.384 180.57 258.596 180.579C259.227 180.606 259.733 180.349 260.14 179.882C260.672 179.273 261.051 178.579 261.303 177.871C261.77 177.47 262.202 177.096 262.651 176.708C262.658 176.704 262.666 176.697 262.67 176.693C262.769 176.734 262.869 176.761 262.96 176.809C263.027 176.848 263.093 176.877 263.158 176.901C263.695 177.101 264.148 176.898 264.352 176.312C264.407 176.151 264.458 175.984 264.502 175.82C264.565 175.573 264.613 175.318 264.629 175.067C264.652 174.729 264.709 174.405 264.798 174.093C265.007 173.336 265.384 172.649 265.881 172.016C266.29 171.496 266.743 171.003 267.206 170.53C268.585 169.129 269.979 167.738 271.375 166.354C271.534 166.194 271.666 165.998 271.881 165.883C271.938 165.851 272.001 165.826 272.071 165.809C272.316 166.579 272.384 167.334 272.199 168.057C272.109 168.416 271.959 168.764 271.737 169.106C271.278 169.821 270.784 170.511 270.28 171.196C269.224 172.63 268.161 174.059 267.081 175.472C266.611 176.085 266.1 176.661 265.594 177.244C264.374 178.646 263.169 180.064 262.079 181.581C261.526 181.748 260.954 181.888 260.411 182.096C259.892 182.293 259.385 182.543 258.895 182.801C258.69 182.91 258.499 183.078 258.345 183.257C258.235 183.388 258.156 183.527 258.108 183.663C257.989 184.02 258.084 184.384 258.409 184.679C258.691 184.936 258.911 185.2 259.036 185.566C259.151 185.902 259.412 186.148 259.724 186.314C259.981 186.452 260.243 186.602 260.521 186.676C260.936 186.788 261.35 186.907 261.765 187.022C262.507 187.221 263.252 187.402 264.015 187.482C264.514 187.536 265.024 187.529 265.525 187.509C266.056 187.491 266.481 187.234 266.819 186.816C267.209 186.336 267.498 185.801 267.72 185.228C267.9 184.756 268.067 184.296 268.574 184.037C268.794 183.924 268.944 183.664 269.117 183.461C269.282 183.279 269.418 183.069 269.708 182.975C269.731 182.966 269.757 182.958 269.785 182.954C269.949 183.039 270.153 183.165 270.366 183.255C270.386 183.26 270.404 183.271 270.423 183.276C270.93 183.468 271.417 183.293 271.637 182.791C271.731 182.572 271.808 182.343 271.867 182.11C271.905 181.956 271.939 181.799 271.965 181.646C272.043 181.176 272.142 180.719 272.268 180.271C272.282 180.219 272.294 180.172 272.308 180.122C272.919 177.974 274.023 176.069 275.531 174.367C276.025 173.81 276.552 173.283 277.074 172.755C278.099 171.711 279.119 170.665 280.161 169.637C280.927 168.883 281.418 168.017 281.664 167.064C281.809 166.512 281.871 165.925 281.86 165.313C281.839 164.227 281.723 163.141 281.643 162.056C281.583 161.259 281.504 160.466 281.45 159.673C281.428 159.411 281.448 159.146 281.448 158.835C281.454 158.836 281.466 158.836 281.471 158.838C281.545 158.852 281.612 158.858 281.668 158.867C281.741 158.874 281.805 158.889 281.864 158.913C284.971 160.245 288.141 161.406 291.358 162.446C292.81 162.916 294.273 163.352 295.745 163.756C295.909 163.799 296.072 163.843 296.238 163.888C297.449 164.215 298.668 164.521 299.896 164.803C303.345 165.602 306.829 166.221 310.344 166.628C313.383 166.982 316.431 167.192 319.491 167.21C319.633 167.213 319.771 167.22 319.905 167.229C319.975 167.233 320.042 167.239 320.109 167.242C320.149 167.306 320.164 167.358 320.164 167.405C320.16 167.52 320.061 167.601 319.999 167.676C319.084 168.884 318.121 170.051 317.02 171.102C316.114 171.964 315.242 172.859 314.363 173.746C313.026 175.099 311.948 176.637 311.077 178.325C310.611 179.234 310.254 180.166 309.997 181.116C309.578 182.656 309.416 184.249 309.441 185.883C309.496 189.394 310.752 192.466 312.828 195.247C313.921 196.711 315.302 197.877 316.744 198.97C318.425 200.246 320.273 201.24 322.199 202.089C322.906 202.4 323.575 202.785 324.314 203.021C324.897 203.207 325.466 203.446 326.053 203.603C333.297 205.556 340.549 207.493 347.791 209.452C359.07 212.5 370.34 215.571 381.619 218.614C384.007 219.259 386.419 219.823 388.815 220.438C392.45 221.37 396.078 222.319 399.712 223.257C400.435 223.442 401.157 223.629 401.89 223.754C405.781 224.408 408.624 222.345 409.841 219.457C409.992 219.102 410.113 218.751 410.204 218.401C410.698 216.514 410.332 214.729 409.243 212.996C408.884 212.428 408.427 211.952 407.9 211.535C407.382 211.119 406.808 210.856 406.198 210.713L406.195 210.712C405.834 210.63 405.462 210.59 405.079 210.589C404.512 210.588 403.981 210.784 403.493 211.076C403.193 211.254 402.994 211.518 402.892 211.856L402.885 211.881C402.774 212.273 402.736 212.661 402.809 213.064C402.891 213.543 403.141 213.898 403.576 214.115C403.886 214.267 404.206 214.4 404.522 214.541C405.155 214.818 405.617 215.265 405.921 215.893C406.171 216.415 406.199 217.008 406.058 217.567C405.868 218.333 405.372 219.04 404.713 219.425C404.048 219.814 403.326 219.98 402.57 219.929C402.039 219.894 401.507 219.82 400.997 219.683L400.819 219.636C399.845 219.369 398.871 219.104 397.899 218.838C394.799 217.993 391.704 217.14 388.603 216.285C388.584 216.28 388.567 216.275 388.55 216.271C388.448 216.243 388.337 216.225 388.228 216.187C388.095 216.14 387.966 216.07 387.845 215.921C388.283 213.677 388.124 211.422 387.381 209.173C387.398 209.166 387.412 209.158 387.424 209.146C387.557 209.069 387.671 208.987 387.8 208.95C389.772 208.341 391.623 207.452 393.33 206.315C395.277 205.013 397.138 203.589 398.653 201.77C400.377 199.705 401.725 197.431 402.453 194.828C402.461 194.797 402.472 194.768 402.476 194.739C402.491 194.684 402.51 194.624 402.525 194.568C403.203 192.017 403.421 189.417 403.17 186.774C403.014 185.161 402.901 183.542 402.878 181.92C402.863 180.915 402.984 179.94 403.241 179.005C403.539 177.915 404.011 176.874 404.645 175.882C405.516 174.527 406.796 173.705 408.283 173.168C409.467 172.74 410.656 172.714 411.855 173.017C411.97 173.045 412.083 173.075 412.196 173.108C413.562 173.522 414.909 175.012 414.861 176.977C414.856 177.151 414.83 177.322 414.786 177.489C414.655 178.012 414.35 178.483 414.031 178.932C413.754 179.321 413.467 179.705 413.206 180.104L413.21 180.123ZM35.2924 100.487C35.247 100.368 35.2017 100.249 35.1599 100.128C35.0588 99.8515 34.9541 99.577 34.8452 99.3072C34.5609 98.628 34.0664 98.2341 33.3994 98.0851L33.3883 98.0821C33.2843 98.0602 33.1787 98.0438 33.0682 98.035C32.7785 98.0078 32.4862 98.0454 32.193 98.0203C31.8795 97.9927 31.5608 97.9519 31.2574 97.8646C31.238 97.8594 31.2186 97.8542 31.2 97.8463L31.1944 97.8448C30.9219 97.7421 30.7965 97.5005 30.7821 97.1996C30.7769 97.0972 30.8086 96.9899 30.8195 96.8829C30.8582 96.4834 30.6645 96.2087 30.3111 96.0754C30.1782 96.0279 30.0384 95.9845 29.8956 95.9522C29.7293 95.9076 29.5585 95.8797 29.3871 95.8545C29.099 95.81 28.8058 95.8176 28.5131 95.8015C28.2878 95.7887 28.0803 95.7539 27.8948 95.6923C27.3626 95.517 26.9779 95.1347 26.7744 94.5307C26.5184 93.7789 26.2702 93.0203 26.0596 92.254C25.977 91.9526 25.9728 91.6247 25.9719 91.3067C25.9715 90.8759 26.0697 90.7863 26.4784 90.78C26.768 90.7744 27.0635 90.7912 27.3521 90.8003C28.49 90.8438 29.6308 90.9207 30.7735 90.9239C32.2837 90.9305 33.7943 90.869 35.2791 90.5599C35.307 90.5555 35.3357 90.5483 35.3608 90.5431C35.4013 90.5362 35.4513 90.5822 35.5045 90.6054C36.3539 93.8984 36.4204 97.1866 35.2931 100.485L35.2924 100.487ZM114.447 111.984C113.681 111.88 112.917 111.761 112.152 111.624C110.347 111.298 108.536 110.997 106.738 110.61C105.247 110.288 103.765 109.944 102.289 109.555C102.141 109.518 101.992 109.478 101.845 109.439C100.693 109.127 99.5418 108.789 98.4017 108.421C96.404 107.773 94.4006 107.135 92.4243 106.418C90.6983 105.799 89.0073 105.081 87.3067 104.4C87.1131 104.324 86.9404 104.203 86.7777 104.112C86.8039 103.095 86.9412 102.46 87.2664 101.912C87.2679 101.906 87.2694 101.9 87.2757 101.899C87.6888 102.043 88.1201 102.173 88.5406 102.333C90.8588 103.204 93.2146 103.957 95.5901 104.647C95.9351 104.745 96.28 104.844 96.6277 104.943C96.9326 105.024 97.2359 105.112 97.5408 105.193C102.082 106.416 106.684 107.343 111.354 107.938C113.245 108.177 115.137 108.366 117.034 108.492C117.815 108.547 118.597 108.59 119.378 108.621C119.872 108.64 120.367 108.657 120.863 108.668C120.733 108.699 120.599 108.731 120.469 108.764C119.098 109.089 118.151 109.899 117.521 111.12C117.398 111.355 117.286 111.598 117.179 111.84C117.115 111.989 117.052 112.138 116.991 112.288C116.141 112.2 115.292 112.1 114.443 111.986L114.447 111.984ZM133.932 126.918C133.886 126.799 133.841 126.68 133.799 126.558C133.698 126.282 133.593 126.007 133.484 125.737C133.2 125.058 132.706 124.664 132.039 124.515L132.028 124.512C131.924 124.49 131.818 124.474 131.707 124.465C131.418 124.438 131.125 124.476 130.832 124.451C130.519 124.423 130.2 124.382 129.897 124.295C129.877 124.29 129.858 124.285 129.839 124.277L129.834 124.275C129.561 124.172 129.436 123.931 129.421 123.63C129.416 123.528 129.448 123.42 129.459 123.313C129.497 122.914 129.304 122.639 128.95 122.506C128.817 122.458 128.678 122.415 128.535 122.382C128.369 122.338 128.198 122.31 128.026 122.285C127.738 122.24 127.445 122.248 127.155 122.233C126.93 122.22 126.722 122.185 126.537 122.123C126.005 121.948 125.62 121.566 125.416 120.962C125.16 120.21 124.912 119.451 124.702 118.685C124.619 118.384 124.615 118.056 124.614 117.738C124.613 117.307 124.712 117.217 125.12 117.211C125.41 117.205 125.705 117.222 125.994 117.231C127.132 117.275 128.273 117.352 129.416 117.355C130.926 117.362 132.436 117.3 133.921 116.991C133.949 116.987 133.978 116.979 134.003 116.974C134.043 116.967 134.093 117.013 134.147 117.036C134.996 120.329 135.062 123.618 133.935 126.916L133.932 126.918ZM205.38 137.041C203.889 136.719 202.407 136.375 200.931 135.986C200.784 135.949 200.634 135.909 200.487 135.87C199.335 135.558 198.184 135.22 197.044 134.852C195.046 134.204 193.043 133.566 191.066 132.849C189.34 132.23 187.649 131.512 185.949 130.831C185.755 130.755 185.582 130.635 185.42 130.543C185.446 129.526 185.583 128.891 185.908 128.343C185.91 128.337 185.911 128.332 185.918 128.33C186.331 128.474 186.762 128.604 187.183 128.764C189.501 129.635 191.857 130.388 194.232 131.078C194.577 131.176 194.922 131.275 195.27 131.374C195.575 131.455 195.878 131.543 196.183 131.624C200.724 132.847 205.326 133.774 209.996 134.369C211.887 134.608 213.779 134.797 215.676 134.923C214.84 135.346 214.213 136.016 213.754 136.906C213.632 137.14 213.519 137.384 213.413 137.625C213.301 137.889 213.192 138.151 213.088 138.417C212.323 138.313 211.558 138.195 210.793 138.058C208.988 137.732 207.177 137.431 205.379 137.044L205.38 137.041ZM230.163 152.7C230.118 152.581 230.073 152.462 230.031 152.341C229.93 152.064 229.825 151.789 229.713 151.519C229.432 150.841 228.935 150.446 228.267 150.3L228.256 150.297C228.152 150.275 228.043 150.258 227.933 150.249C227.646 150.222 227.351 150.259 227.061 150.232C226.748 150.204 226.429 150.164 226.126 150.076C226.106 150.071 226.087 150.066 226.069 150.055L226.061 150.053C225.788 149.95 225.663 149.709 225.647 149.411C225.642 149.308 225.674 149.201 225.688 149.095C225.726 148.695 225.533 148.42 225.179 148.287C225.044 148.239 224.907 148.196 224.764 148.164C224.597 148.122 224.426 148.094 224.258 148.067C224.226 148.064 224.195 148.059 224.163 148.056C223.906 148.026 223.647 148.031 223.387 148.015C223.162 148.002 222.954 147.967 222.769 147.903L222.766 147.902C222.237 147.728 221.852 147.348 221.643 146.74C221.45 146.174 221.262 145.601 221.092 145.027C221.038 144.84 220.982 144.652 220.931 144.464C220.849 144.162 220.844 143.834 220.844 143.516C220.846 143.086 220.941 142.996 221.351 142.987C221.64 142.981 221.936 142.998 222.224 143.01C222.439 143.017 222.656 143.028 222.87 143.038C223.738 143.077 224.611 143.124 225.482 143.132C225.535 143.134 225.589 143.133 225.645 143.134C227.155 143.14 228.663 143.078 230.151 142.77C230.176 142.764 230.207 142.761 230.232 142.753C230.273 142.746 230.323 142.792 230.376 142.815C231.228 146.112 231.291 149.399 230.165 152.694L230.163 152.7ZM328.821 160.14C328.858 160.135 328.894 160.132 328.934 160.128C328.97 160.126 329.016 160.177 329.055 160.205C329.046 160.251 329.054 160.312 329.029 160.347C328.686 160.843 328.339 161.338 327.992 161.834C327.966 161.722 327.95 161.614 327.943 161.508C327.906 161.08 327.983 160.673 328.038 160.245C328.321 160.208 328.572 160.171 328.823 160.14L328.821 160.14ZM317.073 157.556C317.36 156.795 317.917 156.378 318.7 156.183C320.111 155.83 322.115 156.685 322.601 158.366C322.509 158.419 322.462 158.463 322.417 158.462C320.643 158.501 318.868 158.539 317.089 158.571C316.97 158.571 316.853 158.522 316.718 158.492C316.854 158.142 316.965 157.848 317.074 157.553L317.073 157.556ZM313.273 164.644C311.181 164.446 309.094 164.21 307.025 163.84C305.219 163.517 303.408 163.213 301.611 162.826C300.123 162.505 298.635 162.16 297.162 161.771C297.015 161.731 296.865 161.691 296.719 161.652C295.563 161.342 294.415 161.002 293.275 160.634C291.275 159.985 289.274 159.348 287.298 158.632C285.573 158.009 283.881 157.294 282.178 156.612C281.985 156.534 281.812 156.413 281.649 156.325C281.675 155.307 281.812 154.673 282.137 154.124C282.138 154.121 282.14 154.113 282.144 154.111C282.557 154.254 282.988 154.385 283.409 154.545C285.727 155.416 288.083 156.169 290.459 156.856C290.804 156.954 291.152 157.053 291.497 157.152C291.801 157.233 292.108 157.319 292.41 157.4C296.951 158.622 301.553 159.549 306.224 160.144C308.893 160.482 311.563 160.716 314.247 160.83C317.038 160.945 319.829 160.929 322.616 160.758C322.737 160.749 322.86 160.758 322.982 160.767C323.058 160.773 323.139 160.78 323.216 160.782C323.263 161.936 322.646 163.793 321.848 164.946C321.734 164.96 321.6 164.992 321.473 164.991C318.734 165.002 315.999 164.89 313.271 164.638L313.273 164.644ZM328.779 200.205C328.643 200.201 328.561 200.218 328.487 200.195C328.426 200.178 328.362 200.161 328.302 200.142C326.962 199.756 325.611 199.409 324.318 198.849C322.128 197.9 320.125 196.671 318.349 195.075C316.91 193.781 315.712 192.301 314.827 190.582C313.784 188.556 313.426 186.408 313.812 184.161C314.18 182.023 315.087 180.11 316.449 178.431C317.167 177.548 317.967 176.723 318.772 175.914C320.529 174.145 322.383 172.47 323.951 170.52C323.969 170.495 323.99 170.474 324.009 170.449C324.027 170.425 324.105 170.443 324.201 170.439C324.182 170.567 324.17 170.689 324.141 170.809C323.764 172.282 323.57 173.783 323.452 175.297C323.265 177.727 323.466 180.124 324.037 182.493C324.464 184.259 325.102 185.945 325.881 187.585C327.198 190.371 329.029 192.751 331.483 194.635C331.648 194.759 331.801 194.901 331.961 195.033C329.821 197.368 329.737 198.124 328.775 200.207L328.779 200.205ZM362.047 162.811C363.051 162.679 363.995 162.558 364.955 162.434C365.014 162.424 365.076 162.416 365.136 162.412C365.341 162.755 365.558 163.089 365.741 163.438C365.794 163.539 365.863 163.602 365.94 163.637C366.021 163.679 366.109 163.694 366.201 163.704C366.271 163.711 366.338 163.714 366.404 163.723C366.559 163.963 366.703 164.18 366.854 164.417C366.605 164.801 366.455 165.228 366.176 165.56C366.096 165.538 366.018 165.517 365.943 165.497C365.702 165.433 365.478 165.373 365.256 165.313C365.106 165.273 364.962 165.235 364.817 165.201C363.753 164.937 362.67 164.843 361.578 164.794C361.364 164.784 361.145 164.803 360.924 164.708C360.847 164.675 360.769 164.631 360.691 164.568C361.179 163.936 361.628 163.355 362.042 162.818L362.047 162.811ZM359.62 162.603C359.424 163.1 359.044 163.399 358.541 163.538C358.255 163.616 357.961 163.617 357.688 163.514C357.612 163.488 357.536 163.45 357.465 163.407C356.735 162.947 356.328 162.282 356.198 161.416C356.2 161.41 356.196 161.4 356.195 161.394C357.35 161.805 358.468 162.199 359.621 162.609L359.62 162.603ZM348.996 153.064C349.071 153.019 349.151 152.975 349.232 152.928C349.226 153.47 349.214 153.868 349.221 154.265C349.247 155.442 349.54 156.522 350.471 157.336C350.53 157.384 350.579 157.457 350.61 157.527C350.629 157.568 350.611 157.626 350.61 157.717C350.441 157.791 350.254 157.871 350.116 157.93C350.079 157.893 350.038 157.855 350 157.821C349.397 157.256 348.856 156.704 348.257 156.22C347.606 155.692 346.892 155.239 346.159 154.719C347.096 154.171 348.004 153.639 348.997 153.061L348.996 153.064ZM343.388 170.447C343.159 169.417 343.191 168.401 343.672 167.413C344.565 165.576 346.922 164.708 348.637 165.102L348.648 165.105C348.841 165.151 349.027 165.209 349.202 165.289C349.493 165.42 349.799 165.52 350.094 165.638C350.137 165.655 350.18 165.673 350.224 165.687L350.243 165.693C350.985 165.939 351.579 165.662 351.893 164.89C352.133 164.292 352.255 163.671 352.216 163.019C352.15 162.024 351.928 161.077 351.455 160.193C351.347 159.988 351.266 159.768 351.166 159.542C351.614 159.258 352.014 158.997 352.42 158.743C352.767 158.524 353.072 158.249 353.442 158.043C353.499 158.01 353.557 157.981 353.614 157.955C353.81 158.421 353.901 158.849 353.933 159.306C354.029 160.609 354.205 161.904 354.708 163.12C354.949 163.707 355.26 164.263 355.551 164.851C355.385 165.172 355.205 165.522 355.016 165.881C354.606 165.962 354.187 166.028 353.773 166.122C353.061 166.284 352.396 166.549 351.884 167.095C351.186 167.837 350.593 168.653 350.258 169.626C349.793 170.987 349.457 172.385 349.248 173.806C349.076 174.983 348.942 176.168 348.781 177.411C348.7 177.404 348.64 177.418 348.602 177.393C348.579 177.378 348.554 177.362 348.531 177.347C348.349 177.239 348.172 177.126 347.998 177.008C346.888 176.25 345.969 175.315 345.151 174.243C344.279 173.095 343.698 171.828 343.39 170.439L343.388 170.447ZM378.577 213.572L378.367 213.515C377.128 213.183 375.888 212.842 374.648 212.507C372.655 211.973 370.663 211.427 368.671 210.888C367.266 210.502 365.862 210.12 364.456 209.737C361.746 208.997 359.033 208.261 356.314 207.544C355.515 207.33 354.716 207.122 353.916 206.913C351.805 206.366 349.687 205.848 347.572 205.305C347.158 205.198 346.746 205.093 346.336 204.983C346.044 204.908 345.753 204.83 345.462 204.752C344.955 204.616 344.452 204.478 343.947 204.331C341.75 203.695 339.561 203.031 337.371 202.37C337.227 202.329 337.103 202.239 336.975 202.175C337.543 200.685 338.218 199.562 338.902 198.961C338.906 198.956 338.911 198.951 338.918 198.947C339.1 199.011 339.303 199.071 339.494 199.158C341.319 199.974 343.194 200.669 345.101 201.234C348.7 202.293 352.315 203.3 355.934 204.282C357.164 204.614 358.395 204.941 359.626 205.268C362.459 206.015 365.299 206.746 368.132 207.491C368.973 207.713 369.818 207.919 370.658 208.141C371.234 208.295 371.804 208.454 372.371 208.632C372.788 208.762 373.206 208.886 373.624 208.998C375.285 209.452 376.969 209.764 378.688 209.942C378.896 209.965 379.099 209.996 379.299 210.025C379.373 210.036 379.447 210.047 379.522 210.058C379.75 211.067 379.7 212.509 379.39 213.754C379.084 213.687 378.826 213.641 378.574 213.574L378.577 213.572ZM407.908 144.237C407.861 144.293 407.701 144.321 407.637 144.286C407.606 144.269 407.575 144.252 407.541 144.234C407.015 143.944 406.484 143.654 405.984 143.326C405.195 142.812 404.347 142.463 403.444 142.209C403.385 142.194 403.327 142.178 403.269 142.162C401.843 141.795 400.447 141.873 399.074 142.431C397.597 143.031 396.108 143.6 394.719 144.404C394.621 144.461 394.501 144.476 394.322 144.535C394.331 144.49 394.337 144.445 394.343 144.401C394.417 143.961 394.478 143.588 394.533 143.249C395.19 142.858 395.798 142.498 396.424 142.122C396.428 142.12 396.438 142.114 396.442 142.112C396.502 142.131 396.555 142.154 396.608 142.169C396.608 142.169 396.61 142.169 396.613 142.17C396.964 142.291 397.052 142.261 397.423 142.019C397.645 141.876 397.856 141.71 398.05 141.53C398.596 141.023 399.075 140.453 399.433 139.795C399.544 139.59 399.678 139.4 399.802 139.205C400.279 139.362 400.68 139.241 401.068 139.048C401.568 138.799 401.902 138.318 402.426 138.093C402.573 138.031 402.666 137.816 402.769 137.665C402.843 137.554 402.889 137.427 402.952 137.313C403.052 137.12 403.185 136.986 403.399 136.889C404.277 136.492 405.063 135.945 405.809 135.343C405.911 135.26 406.021 135.183 406.139 135.099C406.179 135.071 406.219 135.043 406.264 135.01C406.347 135.131 406.415 135.211 406.465 135.302C406.854 136.089 407.317 136.831 407.899 137.498C407.94 137.545 407.927 137.639 407.937 137.698C407.712 137.828 407.489 137.932 407.304 138.078C406.731 138.521 406.381 139.096 406.354 139.84C406.561 140.252 406.4 140.664 406.349 141.078C406.268 141.757 406.374 142.391 406.742 142.989C406.818 143.116 406.904 143.208 407.002 143.261C407.09 143.311 407.188 143.331 407.298 143.322C407.347 143.317 407.402 143.309 407.461 143.289C407.633 143.525 407.804 143.728 407.942 143.955C407.983 144.025 407.968 144.179 407.916 144.242L407.908 144.237Z" fill="#2E375B"/>
<path d="M187.398 81.5692C185.837 82.7581 185.262 82.5445 184.781 80.6601C184.622 80.0443 184.513 79.4182 184.368 78.7316C184.033 78.6062 183.693 78.4794 183.352 78.3526C182.853 78.1653 182.357 77.976 181.858 77.7888C180.673 77.3436 180.518 76.5712 181.53 75.6216C182.375 74.8264 183.328 74.143 184.326 73.335C184.388 72.6805 184.457 71.891 184.543 71.1032C184.58 70.7893 184.644 70.4737 184.723 70.1653C185.013 69.0517 185.584 68.8038 186.6 69.3701C186.92 69.5508 187.216 69.7876 187.486 70.0413C188.069 70.5835 188.629 71.1525 189.252 71.7677C190.094 71.7262 190.989 71.6689 191.886 71.645C192.418 71.6331 192.953 71.6456 193.482 71.6983C194.198 71.7744 194.495 72.2102 194.334 72.9306C194.278 73.1858 194.175 73.4374 194.068 73.6792C193.729 74.4585 193.376 75.2314 192.986 76.101C193.54 77.1258 193.84 78.2903 193.828 79.5317C193.816 80.8058 193.492 81.108 192.293 80.7691C191.327 80.4953 190.384 80.1238 189.364 79.7733C188.653 80.4322 188.069 81.0571 187.398 81.5692Z" fill="#2E375B"/>
<path d="M98.3662 25.7107C97.8576 25.8685 97.3239 25.9423 96.8017 26.04C96.2802 26.1349 95.7549 26.211 95.177 26.3057C95.0654 26.6114 94.9713 26.907 94.8503 27.1924C94.6038 27.7798 94.4143 28.4093 94.0687 28.9345C93.2618 30.15 91.9635 30.2507 90.9532 29.1988C90.5887 28.8189 90.3013 28.3617 90.0102 27.9183C89.808 27.6087 89.662 27.2666 89.4841 26.9219C88.838 26.8943 88.2578 26.8755 87.6772 26.8476C86.9171 26.8133 86.2048 26.6224 85.5735 26.174C84.9999 25.7649 84.7983 25.298 85.1201 24.6624C85.4261 24.0523 85.814 23.4582 86.2748 22.9579C86.8135 22.3775 87.4687 21.9055 88.0824 21.3779C88.1975 20.3275 88.2536 19.2643 88.4465 18.2229C88.7256 16.6937 89.0746 16.5109 90.5045 17.1495C91.2733 17.4951 91.9741 17.9948 92.7646 18.4591C93.1734 18.3191 93.6136 18.1282 94.0762 18.0204C94.8489 17.8413 95.6302 17.6526 96.4193 17.5789C97.3729 17.4899 97.7941 17.8909 97.8179 18.8775C97.8358 19.509 97.7415 20.1491 97.6475 20.7774C97.5861 21.1946 97.436 21.5999 97.3067 22.0822C97.8562 22.5591 98.448 22.9999 98.9549 23.5248C99.9487 24.5604 99.7458 25.2843 98.3662 25.7107Z" fill="#2E375B"/>
<path d="M314.336 108.076C313.921 108.203 313.489 108.265 313.064 108.344C312.639 108.421 312.213 108.482 311.743 108.561C311.653 108.81 311.576 109.051 311.479 109.28C311.28 109.758 311.125 110.269 310.844 110.696C310.187 111.685 309.135 111.765 308.312 110.912C308.015 110.603 307.782 110.232 307.545 109.872C307.381 109.62 307.263 109.341 307.118 109.062C306.592 109.04 306.121 109.024 305.649 109.001C305.033 108.973 304.454 108.817 303.939 108.454C303.473 108.121 303.31 107.742 303.57 107.226C303.818 106.731 304.135 106.249 304.509 105.841C304.947 105.37 305.477 104.987 305.978 104.557C306.074 103.703 306.118 102.838 306.273 101.995C306.499 100.751 306.782 100.604 307.944 101.124C308.57 101.404 309.138 101.809 309.779 102.189C310.112 102.076 310.469 101.919 310.846 101.833C311.473 101.686 312.108 101.535 312.748 101.475C313.522 101.403 313.865 101.73 313.885 102.531C313.899 103.043 313.822 103.563 313.747 104.075C313.698 104.415 313.575 104.741 313.469 105.135C313.915 105.522 314.396 105.879 314.807 106.307C315.615 107.148 315.449 107.736 314.331 108.084L314.336 108.076Z" fill="#2E375B"/>
<path d="M351.526 101.796C350.731 102.07 349.875 102.183 349.045 102.355C348.739 102.419 348.426 102.445 348.05 102.499C348.012 102.895 347.974 103.257 347.94 103.616C347.828 104.845 347.583 106.048 347.015 107.146C346.317 108.489 345.671 108.583 344.535 107.578C343.728 106.865 343.048 106.056 342.557 105.096C342.391 104.772 342.208 104.459 342.004 104.089C341.252 104.387 340.584 104.719 339.881 104.917C339.017 105.158 338.129 105.359 337.238 105.447C336.362 105.533 335.932 105.056 336.019 104.188C336.145 102.962 336.453 101.779 337.155 100.735C337.389 100.382 337.625 100.032 337.971 99.5159C336.883 98.5886 336.121 97.52 335.491 96.3471C334.547 94.5823 334.859 93.9473 336.849 93.7706C338.34 93.6411 339.826 93.671 341.283 94.0734C341.535 94.141 341.797 94.1844 342.078 94.2448C342.856 93.4818 343.582 92.7111 344.373 92.011C344.926 91.5206 345.536 91.0841 346.167 90.7008C346.664 90.3973 347.118 90.5664 347.357 91.082C347.531 91.4642 347.693 91.879 347.738 92.289C347.853 93.3446 347.904 94.4068 347.971 95.4644C347.992 95.8295 347.982 96.1982 347.986 96.5824C348.465 96.8918 348.908 97.177 349.352 97.4621C350.388 98.1289 351.308 98.928 352.073 99.8992C352.815 100.844 352.685 101.394 351.526 101.796Z" fill="#2E375B"/>
</g>
<defs>
<clipPath id="clip0_579_176">
<rect width="423.891" height="121.07" fill="white" transform="translate(31.335) rotate(15)"/>
</clipPath>
</defs>
</svg>
