<?xml version="1.0" encoding="UTF-8"?>
<svg id="Layer_1" data-name="Layer 1" xmlns="http://www.w3.org/2000/svg" viewBox="0 0 60.68 58.36">
  <g style="opacity: .7;">
    <g>
      <g>
        <g>
          <g>
            <path d="M10.56,39.92v.12s-.05.1-.05.1l-.81.6-.08.07-.16.12-.1.05-.07.08-.08.05-.09.08-.08.06-.17.11-.21.19-.1.05-.08.08-.07.04-.09.08-.5.34-.08.05-.26.18v.02s.21-.07.21-.07l.1-.05.08-.03.11-.03.8-.27.15-.03.09-.05.29-.09.11-.02.47-.16.09-.02.09-.04.1-.02.1-.04h.09s.1-.04.1-.04l.1-.04.48-.15h.11s.09.08.09.08l.06.09.02.09v.12s-.04.1-.04.1l-.3.23-.09.06-.15.13-.08.05-.11.1-.12.09-.09.05-.07.07-.08.05-.15.12-.1.07-.46.36-.25.17-.07.06-.06.07-.1.06-.15.12-.05.07-.1.06-.07.07-.49.36-.07.06-.09.07h-.08s-.1-.05-.1-.05l-.04-.11v-.12s.05-.1.05-.1l.25-.18.07-.07.08-.04.07-.07.1-.05.11-.09.11-.11.26-.17.13-.12.11-.05.16-.14.24-.18.09-.05.08-.06.06-.06.17-.13.08-.05.39-.29.08-.04.08-.05.09-.07.24-.16h-.01s-.09.02-.09.02l-.18.06-.11.05-.09.02-.06.04-.16.05-.14.04-.09.04-.19.05-.09.04-.09.03-.12.02-.07.03-.3.09-.1.04-.19.03-.18.08-.11.02-.2.06-.08.03-.4.12-.09.04-.09.02-.11.03h-.08s-.09.05-.09.05l-.09.03h-.14s-.11-.11-.11-.11l-.04-.11v-.12s.04-.1.04-.1l.08-.06.17-.11.14-.14.18-.11.15-.12.08-.04.08-.06.08-.07.09-.07.07-.04.09-.07.33-.24.07-.07.06-.05.09-.06.31-.24.1-.06.71-.5.1-.04.08-.05v-.03s-.11.03-.11.03l-.09.03-.08.04-.09.02-.46.18-.39.11-.1.05-.27.06-.09.04-.22.05-.17.08h-.11s-.09.05-.09.05l-.3.08-.08.04-.13.03-.14.05-.11.02-.2.08-.19.04-.18.07-.13-.03-.1-.06-.04-.1v-.1s.06-.07.06-.07l.09-.04h.11s.1-.05.1-.05l.09-.02.08-.03.21-.05.09-.04.18-.06h.08s.2-.08.2-.08l.1-.02.11-.05h.09s.08-.04.08-.04l.1-.02.11-.04.07-.03.12-.03.09-.04h.1s.68-.21.68-.21l.08-.04.68-.19.18-.06.1-.02.09-.03h.12s.1.08.1.08l.08.18Z" style="fill: #4c3a25; stroke-width: 0px;"/>
            <path d="M9.2,36.08l.05.19.02.1.04.09v.09s.08.19.08.19v.1s.05.08.05.08v.09s.09.19.09.19l.05.19-.02.11-.08.08-.69.18-.29.1-.1.02h-.09s-.11.05-.11.05h-.08s-.1.03-.1.03l-.1.05-.11.04-.17.04-.1.02-.11.04h-.11s-.1.05-.1.05l-.28.06-.12.04-.08.02-.19.06-.11.03-.14.05-.25.05-.07.04-.1.03h-.07s-.11.05-.11.05l-.1.03-.08.03h-.12s-.07-.09-.07-.09v-.11s-.05-.08-.05-.08v-.1s-.11-.28-.11-.28l-.12-.5-.09-.29-.02-.1.02-.1.05-.08.09-.03.1.04.1.14.03.14.02.1.04.11.04.09v.11s.07.2.07.2l.08.19.08.09.16.02.35-.09.2-.07h.09s.29-.11.29-.11l.11-.02.08-.04.1-.02.11-.08v-.11s0-.09,0-.09l-.04-.09-.04-.15-.06-.18-.03-.16-.04-.18-.04-.09.02-.12.09-.07h.14s.08.09.08.09l.07.18v.1s.06.2.06.2v.09s.05.1.05.1l.06.18.02.11.09.07.1.02.09-.04.11-.03.1-.04.1-.03h.08s.11-.05.11-.05l.62-.16.11-.04.13-.09.02-.12-.06-.19v-.11s-.05-.1-.05-.1l-.06-.21v-.11s-.05-.09-.05-.09l-.02-.1-.03-.09v-.11s.08-.08.08-.08l.09-.02.1.02.08.08v.1Z" style="fill: #4c3a25; stroke-width: 0px;"/>
            <path d="M8.66,29.96l-.05.11-.09.06-1,.15-.11.02-.2.03h-.11s-.1.03-.1.03h-.09s-.11.03-.11.03l-.09.02h-.2s-.28.08-.28.08h-.11s-.11.03-.11.03h-.08s-.12.03-.12.03l-.6.06h-.09s-.31.04-.31.04v.03s.21.04.21.04h.11s.09.02.09.02l.11.03.83.14.15.04h.1s.3.07.3.07l.11.03.49.08.09.03h.1s.09.04.09.04h.11s.09.04.09.04l.1.03h.11s.49.11.49.11l.09.06.05.1v.11s-.01.09-.01.09l-.05.11-.09.07-.37.06h-.11s-.19.06-.19.06h-.09s-.15.04-.15.04l-.15.02h-.11s-.09.03-.09.03h-.09s-.19.05-.19.05l-.12.02-.57.1-.3.03-.09.02-.09.03h-.11s-.19.04-.19.04l-.08.04h-.11s-.09.03-.09.03l-.6.09-.09.02-.11.02-.08-.03-.06-.11v-.12s.06-.11.06-.11l.1-.06.3-.04.1-.03h.09s.1-.03.1-.03h.11s.14-.03.14-.03l.15-.04.31-.03.18-.05h.12s.21-.04.21-.04l.3-.04h.11s.1-.02.1-.02l.08-.03.21-.03h.09s.48-.08.48-.08h.09s.09,0,.09,0l.11-.02.29-.03v-.02s-.1,0-.1,0l-.19-.04h-.12s-.09-.02-.09-.02h-.08s-.16-.02-.16-.02l-.14-.03h-.1s-.19-.05-.19-.05h-.1s-.09-.03-.09-.03l-.12-.04h-.08s-.3-.07-.3-.07h-.11s-.18-.07-.18-.07l-.2-.02-.11-.03-.2-.04h-.08s-.41-.09-.41-.09h-.1s-.09-.03-.09-.03l-.11-.03-.08-.03h-.09s-.09-.03-.09-.03l-.12-.08-.05-.14.02-.12.05-.11.09-.06.1-.02.2-.02.19-.05h.21s.19-.05.19-.05h.09s.1-.02.1-.02l.11-.02.11-.02h.08s.11-.03.11-.03l.4-.05.1-.03.08-.02h.11s.39-.08.39-.08h.11s.86-.11.86-.11h.11s.09,0,.09,0v-.03s-.1-.02-.1-.02h-.09s-.09-.02-.09-.02l-.09-.02-.49-.06-.39-.09h-.11s-.27-.08-.27-.08h-.09s-.22-.06-.22-.06h-.18s-.11-.05-.11-.05h-.1s-.31-.08-.31-.08h-.09s-.13-.04-.13-.04l-.15-.03-.11-.03-.21-.02-.19-.05-.19-.03-.1-.08-.05-.1v-.11s.07-.09.07-.09l.08-.04h.09s.1.05.1.05h.11s.09.04.09.04h.09s.21.06.21.06h.1s.19.04.19.04l.07.03.21.03.09.03h.13s.08.04.08.04l.09.02.09.03.11.02h.08s.12.04.12.04h.09s.09.04.09.04l.69.15h.09s.69.15.69.15l.19.03.1.03h.09s.11.08.11.08l.05.11-.02.2Z" style="fill: #4c3a25; stroke-width: 0px;"/>
            <path d="M9.01,27.19l-.05.11-.11.05h-.18s-.1-.03-.1-.03l-.09-.03h-.09s-.12-.05-.12-.05h-.08s-.15-.04-.15-.04l-.14-.02-.1-.04-.69-.12-.09-.03-.21-.03-.09-.03h-.11s-.43-.1-.43-.1l-.16-.03-.08-.03-.48-.09h-.11s-.09-.03-.09-.03l-.1-.04h-.09s-.09-.02-.09-.02l-.11-.02h-.08s-.09-.06-.09-.06l-.04-.11.03-.09.06-.1.09-.05.08.02.29.04.1.03h.11s.22.05.22.05l.2.06.62.1.1.03.99.18.19.06h.09s.11.01.11.01l.14.05.13.02.1.03.38.05.1.03h.08s.1.07.1.07l.02.11-.02.09Z" style="fill: #4c3a25; stroke-width: 0px;"/>
            <path d="M9.74,24.58l-.03.1-.07.1-.03.08-.06.09-.08.09-.14.13-.1.06-.11.02-.11-.06-.03-.12.05-.08.08-.06.2-.23.05-.09.04-.09.08-.15.02-.14v-.2s-.05-.2-.05-.2l-.05-.09-.05-.08-.07-.06-.09-.07-.08-.05-.08-.05-.14-.05-.14-.05-.12-.03h-.08s-.12,0-.12,0h-.08s-.18.08-.18.08l-.27.14-.08.07-.09.06-.3.26-.16.11-.07.08-.11.03-.18.1-.26.06h-.21s-.19-.03-.19-.03l-.14-.03-.22-.1-.25-.2-.05-.07-.02-.09-.05-.1v-.1s-.06-.08-.06-.08v-.1s0-.16,0-.16l.04-.13.04-.15.04-.15.05-.11.11-.17.07-.07.17-.15h.11s.11.05.11.05l.04.14-.07.11-.08.05-.08.08-.03.1-.06.08-.06.14-.02.14v.18s.05.1.05.1l.04.08.07.08.05.08.1.05.37.12.1-.02h.1l.09-.03.1-.03.27-.18.3-.26.32-.24.34-.18.11-.02.1-.02.09-.02h.21s.08.03.08.03h.11s.15.06.15.06l.14.06.1.05.08.05.08.05.08.06.08.07.07.06.07.09.03.1.05.08.04.09.06.19v.1s-.02.21-.02.21l-.06.25-.06.13Z" style="fill: #4c3a25; stroke-width: 0px;"/>
            <path d="M10.72,21.86h-.1s-.33-.21-.33-.21l-.11-.04-.1-.06-.08-.06-.35-.18-.07-.05-.32-.17-.08-.03-.32-.19-.09-.04-.16-.11-.27-.14-.21-.13-.59-.31-.16-.09-.08-.04-.09-.05-.07-.02-.1-.05-.06-.09v-.1s.05-.1.05-.1l.1-.07.07-.02.1.03.09.06.11.04.14.09.09.04.95.54h.1s.1-.06.1-.06l.07-.08.05-.09.04-.08.08-.12.06-.13.05-.08.04-.09.05-.07.04-.09.05-.1v-.11s-.05-.08-.05-.08l-.18-.11-.13-.06-.22-.14-.73-.39-.18-.12-.06-.07v-.13s.05-.08.05-.08l.1-.07h.11s.08.04.08.04l.08.06.36.2.08.04.28.16.06.05.15.07.08.05.15.07.08.05.08.06.1.05.08.05.08.04.18.09.08.06.1.05.07.05.1.04.09.05.1.07.17.08.21.12.13.06.16.11.17.1.08.03.11.06.09.04.04.08v.09s-.04.1-.04.1l-.1.07h-.09s-.06-.02-.06-.02l-.19-.07-.18-.12-.09-.04-.07-.06-.14-.08-.13-.05-.72-.42h-.12l-.1.06-.05.08-.08.17-.1.13-.24.47-.04.09v.12s.07.09.07.09l.07.04.17.11.1.05.08.06.16.09.11.05.15.09.1.04.17.12.1.03.33.21.05.09.02.11-.05.09-.12.07Z" style="fill: #4c3a25; stroke-width: 0px;"/>
            <path d="M14.57,16.57l-.1.04-.1-.03-.29-.27-.14-.15-.08-.07-.09-.11-.11-.09-.21-.22-.33-.29-.22-.12-.09-.04-.1-.03-.12-.05-.22-.12-.1-.04-.2-.07-.08-.04-.1-.04-.18-.1-.08-.03-.08-.03-.19-.06-.28-.14-.18-.07-.09-.04-.05-.08.03-.11.09-.08.11-.07.13.02.18.08.08.02.12.09.67.28.22.12.26.11.08.05.1.03h.03s-.09-.18-.09-.18l-.02-.08-.17-.35-.12-.19-.04-.11-.1-.18-.09-.2-.04-.07-.04-.11-.1-.18-.04-.09v-.12s.03-.14.03-.14l.08-.08h.11s.08.04.08.04l.23.45.03.09.05.08.15.36.14.26.03.1.05.1.05.08.08.17.1.19.03.08.09.2.08.12.52.54.13.11.07.08.07.07.14.16.08.06.07.07.07.09.06.06.04.11-.04.11-.08.06Z" style="fill: #4c3a25; stroke-width: 0px;"/>
            <path d="M17,14.54l-.1.03-.09.04h-.08s-.19.01-.19.01l-.18-.03-.09-.03-.08-.03-.17-.11-.09-.04-.16-.12-.5-.53-.06-.1-.08-.07-.05-.07-.04-.08-.37-.51-.04-.07-.07-.08-.06-.09-.06-.08-.04-.1-.15-.27-.11-.29v-.08s-.04-.11-.04-.11v-.08s-.02-.11-.02-.11v-.11s.04-.09.04-.09l.02-.09.04-.1.04-.08.05-.09.06-.07.07-.06.11-.1.12-.07.1-.05.08-.03.08-.03.1-.02.19-.02h.08s.2.05.2.05l.17.09.15.11.09.05.08.07.51.53.06.08.05.09.37.48.1.17.12.17.04.1.17.26.09.17.08.2.08.3v.18s.01.12.01.12l-.02.1-.06.18-.04.07-.07.06-.06.08-.08.07-.12.09-.11.09-.08.05ZM17.16,13.96l.06-.08v-.09s.04-.09.04-.09v-.18s-.06-.19-.06-.19l-.02-.1-.05-.09-.06-.11-.09-.18-.15-.25-.07-.09-.04-.08-.33-.44-.04-.07-.13-.15-.06-.09-.25-.29-.14-.13-.07-.09-.08-.04-.08-.05-.09-.08-.09-.05-.09-.03-.19-.02-.09.03-.1.04-.1.08-.12.08-.05.08-.05.07-.02.08-.02.19.02.17.12.31.13.27.12.18.05.08.17.25.17.22.08.13.05.08.07.08.25.33.06.05.12.15.25.22.15.11.09.05.2.04h.09s.09-.01.09-.01l.09-.03.23-.16.05-.07Z" style="fill: #4c3a25; stroke-width: 0px;"/>
            <path d="M20.21,12.55l-.09.04-.19.02h-.11s-.08-.03-.08-.03l-.1-.04-.09-.03-.08-.07-.09-.06-.12-.16-.06-.05-.05-.1-.05-.07-.1-.19-.04-.09-.07-.12-.07-.14-.04-.09-.23-.45-.04-.11-.1-.19-.03-.09-.15-.27-.15-.36-.14-.25-.04-.12-.13-.24-.04-.09-.06-.08-.03-.07v-.11s.05-.08.05-.08l.1-.04h.11s.1.04.1.04l.05.07.04.07.04.1.1.18.35.73.05.08.26.54.03.1.05.07.05.11.07.18.06.08.05.09.12.29.1.19.06.07.04.08.14.17.14.13.09.05.1.02.09-.03.1-.02.14-.05.13-.06.09-.06.11-.15.02-.11v-.08s-.03-.21-.03-.21l-.04-.11-.02-.1-.05-.1-.05-.09-.03-.08-.26-.53-.04-.1-.05-.09-.17-.38-.05-.07-.12-.26-.05-.09-.08-.19-.09-.16-.04-.12-.05-.07-.25-.55-.06-.09.03-.1.07-.09.08-.06h.11s.11.08.11.08l.04.09.02.08.09.18.04.07.27.6.07.13.03.08.15.28.02.09.06.09.04.1.08.16.07.18.05.09.04.09.06.11.07.11.05.14.04.09.03.1.05.1.08.28.04.31v.09s-.02.09-.02.09l-.04.1-.03.09-.07.08-.13.13-.16.11-.26.13-.11.03Z" style="fill: #4c3a25; stroke-width: 0px;"/>
            <path d="M24.41,10.85l-.04-.09.02-.49.02-.09v-.1s0-.09,0-.09v-.62s.05-.29.05-.29v-.1s.02-.43.02-.43v-.09s.02-.2.02-.2v-.09s.03-.52.03-.52v-.09s.01-.11.01-.11v-.2s.01-.21.01-.21l.02-.08v-.2s.02-.21.02-.21l.04-.1.1-.08.1-.03h.09s.11.03.11.03l.08.08.06.1.04.11.13.27.07.19.18.34.11.29.05.08.03.11.17.35.03.1.17.37.04.11.04.07.03.1.15.27.06.18.06.11.02.07.18.36.12.29v.1s-.09.05-.09.05l-.11.02-.13-.04-.09-.07-.07-.19-.04-.09-.05-.08-.08-.21-.05-.09-.04-.1-.08-.17-.09-.1-.11-.03-.28.05h-.15s-.13.03-.13.03l-.09.03-.21.04-.1.07-.04.12-.03.94-.02.09-.06.11-.09.09-.12.02-.1-.05ZM25.5,9.01l.19-.04.07-.04v-.1s-.09-.19-.09-.19l-.03-.1-.04-.09-.03-.07-.05-.08-.03-.11-.04-.09-.06-.08-.06-.19-.08-.16-.04-.14-.11-.26-.06-.2-.09-.19-.02-.02v.21s.01.44.01.44l-.02.07v.33s0,.09,0,.09v.1s-.02.09-.02.09l-.02.19.02.12v.1s-.04.18-.04.18l.02.12v.08s.03.11.03.11l.09.02.1-.02.09-.02.2-.02.11-.03Z" style="fill: #4c3a25; stroke-width: 0px;"/>
            <path d="M30.15,10.25l-.04-.11.09-.7v-.1s.04-.3.04-.3v-.1s.05-.4.05-.4v-.11s.02-.09.02-.09v-.09s.1-.81.1-.81v-.1s.01-.11.01-.11l.02-.29.02-.1v-.1s.02-.1.02-.1v-.18s.03-.11.03-.11l.02-.24.07-.15.11-.04.1.02h.11s.1.03.1.03l.11.06.07.1.2,1.18.02.2.03.12v.09s.06.19.06.19v.1s.03.11.03.11l.13.99v.18s.03.16.03.16l.04.05.36-1.05.09-.19.02-.07.05-.09.04-.1.02-.11.18-.45.05-.08.2-.58.1-.18.04-.11.03-.08.04-.09.07-.09.18-.05.15.02.09.03.09.05.06.1-.09.71v.11s-.03.19-.03.19v.11s-.08.58-.08.58v.11l-.02.1v.2s-.05.31-.05.31l-.03.49-.03.12v.11s-.07.47-.07.47v.1s0,.1,0,.1v.08s-.02.08-.02.08v.11s-.04.08-.04.08l-.09.04h-.1s-.1-.07-.1-.07l-.06-.08v-.08s.01-.1.01-.1v-.1s0-.11,0-.11v-.09s.05-.35.05-.35v-.16s.02-.11.02-.11v-.11s.01-.1.01-.1l.03-.09v-.11s0-.11,0-.11l.04-.21.02-.4.06-.42.02-.29.02-.09v-.12s.03-.09.03-.09v-.13s.05-.39.05-.39h-.02s-.05.09-.05.09l-.02.09-.03.12-.04.08-.03.11-.5,1.3-.05.09-.02.1-.05.08-.03.09-.26.67-.05.08-.03.11-.04.07-.1.1-.12.02h-.09s-.11-.06-.11-.06l-.07-.1-.04-.19v-.1s0-.12,0-.12l-.03-.1-.03-.19-.04-.09v-.15s-.04-.15-.04-.15v-.1s-.05-.2-.05-.2l-.02-.08v-.11s-.04-.09-.04-.09l-.02-.2-.07-.3-.13-1.1h-.03s-.03.21-.03.21v.19s-.03.11-.03.11v.1s0,.09,0,.09l-.03.42-.02.09-.02.21-.02.11v.1s-.01.07-.01.07l-.03.31-.02.09v.1s-.17,1.5-.17,1.5l-.05.1-.11.04h-.09s-.11-.07-.11-.07Z" style="fill: #4c3a25; stroke-width: 0px;"/>
            <path d="M36.33,11.48l-.19-.06-.09-.04h-.1s-.09-.05-.09-.05l-.2-.05-.09-.05h-.09s-.09-.05-.09-.05l-.2-.04-.18-.06-.08-.08-.02-.11.22-.68.07-.3.04-.1.04-.08.02-.11.04-.07.04-.09.02-.11.03-.11.06-.17.04-.09.03-.11.05-.1.02-.11.1-.27.03-.12.03-.08.05-.19.04-.11.03-.14.09-.23v-.08s.04-.1.04-.1l.03-.07.03-.11.03-.1v-.08s.09-.1.09-.1h.1s.09.04.09.04h.09s.09.06.09.06l.29.06.48.17.29.08.09.04.07.07.04.08-.02.09-.08.07h-.17s-.14-.05-.14-.05l-.09-.04-.11-.03-.09-.02-.1-.06-.2-.06-.2-.04-.12.02-.1.12-.11.34-.05.2-.04.08-.08.29-.04.1v.09s-.05.09-.05.09v.13s.09.07.09.07l.08.03.1.02.15.05.18.05.15.06.17.06.1.02.09.08v.11s-.07.11-.07.11l-.11.03-.19-.04-.08-.05-.21-.06-.08-.04-.11-.02-.19-.05-.1-.04-.11.04-.07.07-.02.09-.04.11-.02.11-.03.1-.04.07-.02.11-.21.61-.03.11v.15s.1.08.1.08l.19.05.1.05.11.02.2.06.1.05.09.02.09.04.1.02.09.07.03.11-.03.09-.07.08-.11.02-.09-.05Z" style="fill: #4c3a25; stroke-width: 0px;"/>
            <path d="M39.58,12.92l-.07-.12v-.14s0-.17,0-.17l.02-.1v-.1s.03-.1.03-.1v-.1s.02-.09.02-.09v-.2s.02-.08.02-.08v-.21s0-.09,0-.09l.04-.21v-.09s-.02-.11-.02-.11l-.04-.11-.1-.05-.18-.11-.09-.04-.11.03-.07.09-.03.1-.04.08-.04.1-.52,1.02-.07.06-.11.04-.1-.03-.08-.07-.04-.1.03-.1.03-.08.11-.2.07-.17.07-.16.12-.21.05-.11.06-.1.14-.32.07-.09.04-.09.04-.1.1-.16.22-.45.03-.1.09-.18.06-.08.05-.09.02-.1.04-.08.07-.09.07-.15.04-.13.06-.08.05-.08.07-.18.07-.09.14-.02.15.07.11.03.1.06.08.07.1.02.1.07.14.08.12.08.08.03.08.09.06.06.07.08.11.16.04.09.03.1.03.09v.08s.02.11.02.11l-.04.21-.07.19-.03.13-.08.13-.07.09-.05.08-.05.09-.07.09-.14.13-.09.06-.1.05-.08.05-.1.03h-.1s-.1.03-.1.03l-.1.03-.08.07-.03.11-.05.41v.09s-.02.1-.02.1v.09s-.01.1-.01.1v.08s-.03.12-.03.12v.26s-.04.13-.04.13v.19s-.02.11-.02.11l-.03.08-.1.05h-.08s-.12-.09-.12-.09ZM39.78,10.59l.09.02.08.03.1.02h.12s.1,0,.1,0l.09-.02.23-.16.08-.08.05-.09.06-.07.07-.13.17-.37v-.1s-.02-.3-.02-.3l-.04-.11-.05-.07-.06-.07-.2-.16-.23-.14-.1-.04h-.09s-.08.01-.08.01l-.09.09-.03.08-.09.19-.07.11-.07.13-.04.1-.12.22-.06.13-.06.1-.03.08-.05.09-.04.09-.02.1.03.11.1.07.26.13Z" style="fill: #4c3a25; stroke-width: 0px;"/>
            <path d="M42.59,14.96l-.05-.13.02-.14.04-.16.04-.1.02-.1.04-.1.02-.1.03-.08.04-.2.03-.08.05-.2v-.09s.09-.19.09-.19l.02-.09v-.12s-.02-.11-.02-.11l-.09-.07-.16-.14-.08-.05h-.11s-.08.09-.08.09l-.05.09-.06.08-.06.09-.69.92-.08.05-.11.02-.1-.05-.06-.08-.02-.1.04-.09.04-.07.15-.17.09-.16.1-.14.16-.18.07-.09.08-.09.19-.29.08-.08.06-.08.05-.09.13-.14.29-.4.05-.09.12-.16.07-.07.06-.09.04-.09.06-.07.08-.07.1-.13.07-.12.07-.07.06-.07.1-.17.08-.07h.14s.14.1.14.1l.11.05.09.08.07.08.09.04.09.09.12.1.1.1.07.04.06.1.05.07.06.1.08.18.02.09v.11s.02.1.02.1l-.02.07v.12s-.08.2-.08.2l-.1.17-.05.12-.1.11-.08.08-.07.07-.07.08-.08.08-.17.1-.1.05-.1.03-.08.04h-.1s-.1,0-.1,0h-.1s-.11,0-.11,0l-.09.05-.05.1-.12.39v.09s-.05.09-.05.09l-.02.08-.02.1-.03.08-.04.11-.06.25-.04.12-.04.19-.03.1-.05.07-.11.03-.08-.03-.1-.1ZM43.2,12.7l.09.04.07.05.1.04h.11s.1.03.1.03h.09s.26-.11.26-.11l.09-.06.06-.09.07-.05.1-.12.22-.33.03-.09v-.3s-.01-.11-.01-.11l-.03-.08-.05-.08-.17-.19-.2-.18-.09-.05-.09-.03h-.08s-.11.08-.11.08l-.04.07-.12.17-.08.09-.09.11-.05.09-.16.19-.08.12-.08.09-.04.07-.06.08-.05.08-.04.1v.11s.1.09.1.09l.24.18Z" style="fill: #4c3a25; stroke-width: 0px;"/>
            <path d="M44.43,16.65l-.04-.1.03-.1.28-.28.16-.13.07-.08.11-.09.1-.11.23-.2.3-.32.12-.21.04-.09.03-.1.05-.12.12-.21.05-.1.07-.19.05-.08.04-.1.11-.18.03-.08.04-.08.07-.18.15-.27.07-.18.05-.09.08-.05.11.03.07.09.07.11-.02.13-.09.18-.02.08-.09.12-.3.66-.13.22-.12.25-.05.08-.04.1v.04s.18-.08.18-.08l.08-.02.36-.16.19-.12.11-.03.18-.09.2-.08.07-.04.11-.03.18-.1.09-.03h.12s.14.03.14.03l.08.09v.11s-.04.07-.04.07l-.46.21-.09.03-.08.05-.37.14-.26.14-.1.02-.1.05-.08.05-.17.07-.19.09-.08.03-.2.08-.13.08-.55.5-.11.13-.08.07-.07.07-.16.14-.06.08-.07.07-.09.07-.06.06-.11.03-.11-.05-.06-.09Z" style="fill: #4c3a25; stroke-width: 0px;"/>
            <path d="M47.47,20.68v-.19s.02-.18.02-.18l.03-.11.04-.08.04-.09.05-.09.13-.15.09-.06.08-.07.05-.06.25-.22.1-.04.24-.17.11-.05.07-.06.08-.04.14-.09.15-.07.07-.05.15-.06.11-.07.29-.12.09-.05.08-.02.11-.04.1-.03h.09s.1-.04.1-.04l.11-.02.08-.02h.11s.21,0,.21,0l.08.02.21.06.08.05.07.06.09.06.05.08.06.08.15.26.07.21.03.2.03.1v.11s-.08.1-.08.1l-.1.04h-.1s-.06-.1-.06-.1l-.03-.09v-.1s-.02-.1-.02-.1v-.1s-.04-.09-.04-.09l-.06-.14-.11-.13-.04-.07-.07-.05-.07-.04-.1-.03-.08-.02-.1.02h-.19s-.09.03-.09.03l-.5.18-.83.44-.08.06-.08.04-.07.05-.1.06-.09.04-.07.06-.25.17-.16.13-.06.08-.09.07-.05.06-.07.1-.04.08-.02.1v.11s0,.09,0,.09l.02.09.08.13.08.11.09.13.09.1.14.12.1.04.05.1-.02.12-.11.07h-.15s-.36-.28-.36-.28l-.15-.18-.06-.14-.09-.13-.09-.29Z" style="fill: #4c3a25; stroke-width: 0px;"/>
            <path d="M48.82,23.22l.07-.08.37-.11.1-.06.11-.04.1-.02.37-.14.09-.02.34-.13.07-.04.35-.11.09-.04.19-.05.29-.11.24-.07.62-.23.18-.06.08-.03.09-.03.06-.03.1-.04h.11s.07.09.07.09l.05.09-.02.12-.04.07-.09.06-.1.03-.1.05-.16.05-.09.04-1.04.36-.07.07-.02.12v.1s.05.1.05.1l.04.09.04.14.06.13.03.09.04.09.02.08.04.08.04.11.08.07.09.02.2-.07.13-.06.25-.07.77-.29.21-.05h.09s.1.08.1.08l.02.1v.12s-.08.09-.08.09l-.09.03-.1.02-.39.14-.09.04-.3.11-.08.02-.15.07-.09.03-.16.07-.1.03-.09.02-.1.04-.1.03-.08.03-.18.08-.09.02-.1.04-.08.02-.1.05-.1.04-.12.03-.18.08-.23.07-.12.06-.19.05-.18.06-.07.04-.12.04-.08.04-.08-.02-.07-.05-.04-.11.02-.12.05-.08.06-.03.18-.1.21-.06.09-.04h.09s.15-.07.15-.07l.12-.06.78-.26.08-.09.03-.12-.03-.09-.07-.17-.03-.16-.19-.49-.04-.09-.09-.08h-.11s-.08.03-.08.03l-.19.05-.1.04-.09.02-.17.06-.11.05-.16.05-.1.05-.2.05-.09.05-.38.11-.1-.02-.09-.06-.03-.09.02-.14Z" style="fill: #4c3a25; stroke-width: 0px;"/>
            <path d="M50.18,28.76l.06-.12.11-.09.14-.09.1-.04.09-.06.1-.04.08-.06.08-.04.17-.11.08-.04.17-.11.07-.06.19-.09.08-.05.08-.08.07-.09-.02-.11-.02-.21-.02-.09-.09-.07h-.11s-.1.03-.1.03h-.09s-.1.04-.1.04l-1.13.17-.09-.02-.09-.06-.04-.1.02-.1.06-.08.09-.03.08-.02.22-.02.18-.05.17-.03.24-.02.12-.02h.12s.34-.08.34-.08h.21s.1-.04.1-.04h.19s.49-.09.49-.09l.1-.03.2-.03h.1s.1-.01.1-.01l.1-.04h.09s.11,0,.11,0l.16-.02.13-.04h.1s.09,0,.09,0l.19-.05h.11s.1.1.1.1l.03.17.04.11v.12s0,.11,0,.11l.04.09v.13s.02.16.02.16v.14s.03.08.03.08l-.03.12v.08s-.04.11-.04.11l-.07.18-.05.08-.07.08-.06.08-.06.04-.08.08-.2.09-.2.05-.12.05h-.15s-.11.01-.11.01h-.09s-.11.01-.11.01h-.11s-.19-.04-.19-.04l-.1-.04-.1-.05-.09-.03-.08-.06-.07-.07-.07-.08-.08-.07-.11-.03-.11.04-.36.2-.08.06-.09.04-.07.04-.09.06-.08.04-.11.05-.22.14-.12.06-.16.11-.09.05-.08.02-.1-.05-.04-.08v-.14ZM52.19,27.57l.04.09.02.09.04.1.07.09.06.08.07.07.26.1.11.02.11-.02h.09s.15,0,.15,0l.39-.08.09-.04.22-.21.06-.1.03-.08.02-.09v-.25s-.01-.27-.01-.27l-.03-.1-.05-.08-.06-.05-.12-.02-.08.02-.2.04h-.13s-.14.02-.14.02l-.1.03-.25.03-.14.03h-.12s-.08.04-.08.04h-.1s-.09.03-.09.03l-.09.05-.07.09v.13l.05.29Z" style="fill: #4c3a25; stroke-width: 0px;"/>
            <path d="M50.3,30.86l.03-.11.09-.07.17-.02h.1s.1,0,.1,0h.09s.12,0,.12,0h.08s.16,0,.16,0h.14s.1,0,.1,0l.7-.03h.09s.21,0,.21,0h.09s.11,0,.11,0h.6s.08,0,.08,0h.48s.11-.03.11-.03h.09s.11.02.11.02h.09s.09-.02.09-.02h.11s.08-.01.08-.01l.1.04.06.1v.09s-.05.11-.05.11l-.08.07h-.09s-.29.02-.29.02h-.11s-.11,0-.11,0h-.23s-.21-.01-.21-.01l-.63.03h-.11s-1.01.02-1.01.02l-.2-.02h-.09s-.11.03-.11.03l-.14-.02h-.13s-.11,0-.11,0l-.38.03h-.1s-.08,0-.08,0l-.11-.04-.04-.1v-.09Z" style="fill: #4c3a25; stroke-width: 0px;"/>
            <path d="M50.11,33.56v-.1s.05-.11.05-.11l.02-.09.04-.1.06-.11.11-.16.09-.08.11-.04.12.04.06.11-.04.09-.07.08-.15.26-.03.1-.02.09-.05.16v.15s.04.19.04.19l.09.18.07.08.07.07.08.05.1.05.09.04.08.03.14.02.15.03h.12s.07-.01.07-.01l.12-.02.08-.03.16-.1.23-.19.06-.08.07-.07.24-.32.14-.14.05-.09.1-.05.16-.13.24-.11.21-.05h.19s.14,0,.14,0l.24.06.28.14.07.06.04.08.07.09.03.09.06.07.03.1.03.16-.02.14v.15s-.02.16-.02.16l-.03.12-.08.19-.05.08-.14.18-.11.04-.12-.04-.07-.13.05-.13.07-.07.06-.1v-.11s.06-.1.06-.1l.03-.15v-.15s-.06-.18-.06-.18l-.05-.09-.05-.07-.09-.06-.06-.07-.11-.03-.39-.04-.09.04-.1.02-.08.05-.09.04-.23.23-.24.32-.27.3-.3.25-.11.04-.09.04-.09.04-.2.04h-.09s-.11,0-.11,0h-.16s-.15-.04-.15-.04l-.1-.03-.08-.03-.09-.03-.09-.04-.09-.05-.08-.04-.09-.08-.05-.09-.07-.07-.06-.08-.1-.18-.02-.1-.03-.21v-.26s.05-.14.05-.14Z" style="fill: #4c3a25; stroke-width: 0px;"/>
            <path d="M49.43,37.13l.06-.11.09-.03.17.03.11.04h.09s.19.08.19.08l.24.07.33.11h.09s.09.05.09.05l.1.02.1.04.08.03.11.04.11.02.17.05.11.05.09.03.11.02,1.33.4.12-.02.08-.08.05-.19.04-.09.02-.11.08-.17.07-.09h.13s.08.06.08.06l.03.12-.05.14-.02.14-.04.1-.05.21-.05.08-.02.09-.03.09v.1s-.05.09-.05.09v.1s-.05.08-.05.08l-.07.2-.04.21-.09.18-.07.09h-.14s-.1-.08-.1-.08v-.15s.09-.25.09-.25l.02-.09.04-.09.02-.11-.02-.1-.08-.08-.08-.03h-.1s-.1-.06-.1-.06l-.21-.05-.06-.03-.22-.06-.08-.05-.19-.03-.08-.04-.09-.04-.1-.02-.11-.03-.09-.04-.11-.02-.09-.04-.13-.03-.33-.1-.1-.02-.1-.05-.09-.02-.19-.06-.15-.03-.14-.05-.11-.03-.08-.03-.08-.02-.09-.03-.09-.04h-.11s-.09-.03-.09-.03l-.08-.06v-.11s.03-.09.03-.09Z" style="fill: #4c3a25; stroke-width: 0px;"/>
            <path d="M48.63,39.55h.12s.62.34.62.34l.09.03.26.15.09.04.35.19.1.04.08.05.09.03.71.4.1.04.09.05.26.13.09.05.09.04.09.06.17.08.1.06.21.11.12.12v.12l-.06.08-.05.1-.06.08-.09.09-.12.03-1.17-.25-.19-.06h-.12s-.09-.04-.09-.04l-.19-.02-.09-.04-.11-.02-.97-.25-.17-.06-.16-.04-.06.02.85.72.14.15.06.04.07.08.08.07.09.06.35.33.06.07.46.4.13.15.09.08.07.06.07.07.05.1-.02.18-.08.14-.06.07-.08.07-.12.02-.63-.35-.1-.03-.17-.1-.1-.05-.52-.29-.11-.04-.09-.05-.18-.07-.27-.16-.44-.21-.1-.07-.1-.04-.41-.24-.09-.04-.09-.05-.08-.03-.07-.05-.11-.04-.06-.07v-.1s.03-.09.03-.09l.1-.07.09-.03.07.04.09.04.1.03.09.05.08.03.3.18.15.06.09.06.09.05.09.04.07.06.1.03.09.05.18.11.36.17.36.21.26.13.08.05.12.05.07.05.12.05.34.19v-.02s-.05-.08-.05-.08l-.07-.05-.1-.07-.06-.07-.09-.07-1.02-.95-.07-.09-.08-.06-.05-.07-.07-.06-.52-.49-.06-.07-.09-.07-.05-.06-.05-.13.02-.12.04-.09.09-.08.12-.03.2.03.09.04.11.03h.1s.19.05.19.05h.09s.14.04.14.04l.16.03.1.03.2.04h.09s.1.04.1.04h.09s.2.06.2.06l.31.04,1.08.28v-.03s-.18-.1-.18-.1l-.17-.08-.09-.05-.09-.04-.08-.04-.38-.19-.07-.05-.19-.09-.09-.06-.1-.04-.06-.04-.28-.14-.08-.05-.09-.04-1.33-.71-.07-.09v-.12s.03-.08.03-.08l.1-.07Z" style="fill: #4c3a25; stroke-width: 0px;"/>
            <path d="M46.44,43.4l.09.04.3.39.04.08.07.07.05.08.39.48.16.25.06.07.26.33.06.06.1.17.06.07.3.42.06.06.05.1.13.15.12.17.04.07.07.08.07.07.12.18.03.11-.03.12-.05.09-.08.06-.1.05h-.11s-.11-.04-.11-.04l-.1-.06-.27-.12-.17-.1-.35-.14-.27-.15-.09-.03-.09-.06-.36-.16-.09-.05-.37-.17-.1-.06-.08-.03-.08-.06-.29-.11-.16-.1-.12-.05-.06-.04-.37-.16-.28-.15-.06-.09.02-.09.07-.09.12-.05h.11s.18.09.18.09l.09.04.09.03.19.11.1.04.09.05.17.08h.13s.1-.03.1-.03l.18-.22.11-.11.08-.1.05-.08.13-.17.03-.12-.05-.12-.58-.73-.04-.08-.03-.12v-.12s.09-.1.09-.1l.11-.03ZM46.79,45.51l-.12.15-.03.08.07.08.19.09.09.06.09.04.07.04.09.03.1.06.09.04.1.02.17.11.16.07.12.08.25.13.18.11.19.08h.03s-.13-.16-.13-.16l-.29-.32-.03-.07-.21-.25-.07-.06-.06-.09-.05-.07-.11-.16-.09-.08-.06-.08-.1-.16-.09-.08-.05-.07-.1-.06-.08.04-.07.08-.05.08-.14.15-.06.09Z" style="fill: #4c3a25; stroke-width: 0px;"/>
            <path d="M43.23,46.73l.07-.07.11-.05.07-.05.1-.05.12-.04.19-.04h.12l.1.04.06.11-.03.12-.09.04h-.1s-.28.11-.28.11l-.09.05-.07.06-.14.09-.09.11-.1.17-.06.2v.1s0,.1,0,.1l.02.09.04.11.04.09.04.08.09.11.09.12.08.09.07.03.1.06.08.03.19.04h.3s.1,0,.1,0h.1s.39-.08.39-.08h.2s.1-.04.1-.04l.11.03h.2s.25.09.25.09l.19.1.14.13.1.1.14.2.11.29v.09s-.01.09-.01.09v.11s-.05.09-.05.09v.09s-.05.09-.05.09l-.08.14-.1.09-.11.11-.11.11-.1.07-.18.09-.09.03-.22.04-.1-.04-.06-.11.03-.14.12-.06h.09s.11-.04.11-.04l.08-.07.1-.04.13-.09.09-.11.08-.17.02-.1v-.09s-.02-.1-.02-.1v-.09s-.06-.1-.06-.1l-.26-.29-.09-.03-.08-.05-.1-.02-.1-.03-.32.02-.39.08-.4.05h-.39s-.11-.05-.11-.05l-.1-.03-.09-.03-.18-.1-.06-.07-.09-.06-.11-.11-.09-.12-.05-.09-.04-.08-.05-.08-.04-.09-.03-.1-.03-.08-.02-.12.02-.1v-.09s0-.1,0-.1l.04-.2.05-.09.12-.17.18-.19.12-.08Z" style="fill: #4c3a25; stroke-width: 0px;"/>
          </g>
          <g>
            <circle cx="29.24" cy="31.32" r="26.86" transform="translate(-10.67 46.92) rotate(-68.32)" style="fill: none; stroke: #4c3a25; stroke-miterlimit: 10; stroke-width: .36px;"/>
            <circle cx="29.44" cy="31.14" r="19.12" transform="translate(-11.54 18.61) rotate(-29.6)" style="fill: none; stroke: #4c3a25; stroke-miterlimit: 10; stroke-width: .36px;"/>
          </g>
        </g>
        <g>
          <g>
            <path d="M24.13,17.87l.05-.02h.06s.04,0,.04,0h.05s.08-.07.08-.07l.03-.03.06-.08.02-.04.03-.1v-.08s.05-.13.05-.13v-.04s.03-.11.03-.11l.03-.13v-.06s.03-.05.03-.05l.03-.15.02-.06v-.05s.02-.04.02-.04l.18-.77v-.05s0-.05,0-.05l.04-.14.03-.04.05-.02h.05s.05.05.05.05l.02.04v.09s-.08.39-.08.39v.05s-.03.04-.03.04l-.02.12-.02.07-.26,1.16-.04.1-.05.09-.06.08-.03.04-.03.03-.09.05h-.05s-.05.04-.05.04h-.14s-.05-.05-.05-.05l-.04-.05.03-.06Z" style="fill: #4c3a25; stroke-width: 0px;"/>
            <path d="M26.2,18.12l-.05-.03-.04-.02-.03-.03-.06-.07-.05-.07-.02-.05v-.04s-.03-.1-.03-.1l-.02-.04v-.1s.03-.37.03-.37l.02-.06v-.05s.01-.04.01-.04l.02-.04.07-.31.02-.04v-.05s.02-.05.02-.05v-.05s.03-.05.03-.05l.05-.15.08-.14.03-.03.03-.05.04-.03.03-.05.04-.03.04-.02.04-.02.05-.02h.04s.05-.02.05-.02h.09s.07.01.07.01l.07.02.05.02.04.02.04.02.04.03.07.06.03.03.05.09.02.09v.09s.02.05.02.05v.05l-.03.37v.05s-.03.05-.03.05l-.06.3-.03.09-.02.1-.02.05-.04.15-.04.09-.05.09-.09.13-.07.07-.04.04-.04.03-.09.03h-.04s-.05,0-.05,0h-.05s-.05,0-.05,0l-.07-.02h-.07s-.05-.03-.05-.03ZM26.47,17.99h.05s.04-.03.04-.03l.04-.02.07-.06.05-.09.03-.04.02-.05.02-.06.04-.09.04-.14v-.06s.02-.04.02-.04l.06-.27.02-.04v-.1s.03-.05.03-.05l.03-.19v-.1s.01-.06.01-.06v-.04s-.02-.05-.02-.05v-.11s-.03-.04-.03-.04l-.06-.08-.04-.02-.05-.03h-.06s-.07-.03-.07-.03h-.05s-.04,0-.04,0l-.04.02-.08.06-.06.06-.08.15-.06.14-.03.11v.05s-.05.15-.05.15l-.02.14-.02.07v.05s-.01.05-.01.05l-.04.2v.04s-.02.1-.02.1v.26s.02.05.02.05l.05.09.03.03.03.04.04.03.14.03h.04Z" style="fill: #4c3a25; stroke-width: 0px;"/>
            <path d="M28.23,18.54l-.04-.03v-.05s.02-.19.02-.19l.03-.1v-.05s.03-.07.03-.07v-.07s.05-.15.05-.15l.04-.22v-.12s-.02-.05-.02-.05v-.05s-.03-.06-.03-.06v-.12s-.01-.05-.01-.05l-.02-.1v-.05s-.01-.05-.01-.05v-.1s-.01-.04-.01-.04v-.04s-.03-.1-.03-.1v-.15s-.04-.09-.04-.09v-.05s.01-.04.01-.04l.05-.02.06.02.06.03.03.06v.1s.03.04.03.04v.08s.05.36.05.36v.13s.03.14.03.14v.05s.01.05.01.05h.01s.05-.07.05-.07l.03-.03.11-.17.05-.1.04-.04.05-.09.06-.09.02-.04.04-.04.05-.09.03-.04.05-.04.07-.02h.06s.03.06.03.06v.05s-.13.21-.13.21l-.03.04-.02.04-.11.16-.07.13-.03.04-.03.05-.02.04-.05.08-.05.09-.03.03-.06.09-.03.07-.09.36v.08s-.03.05-.03.05v.05s-.04.1-.04.1v.05s-.01.05-.01.05l-.02.05v.04s-.04.04-.04.04h-.06s-.05-.01-.05-.01Z" style="fill: #4c3a25; stroke-width: 0px;"/>
            <path d="M29.77,18.86v-.05s.16-.73.16-.73v-.05s.04-.1.04-.1v-.06s.02-.04.02-.04v-.05s.02-.05.02-.05v-.05s.02-.05.02-.05v-.06s.02-.06.02-.06l.02-.05v-.05s.02-.05.02-.05v-.06s.02-.04.02-.04l.03-.14.02-.11.02-.04.02-.08v-.1s.04-.04.04-.04l.05-.02h.05s.23.07.23.07h.07s.22.06.22.06h.06s.05.03.05.03h.05l.04.04v.06s-.03.05-.03.05l-.05.02h-.08s-.07-.04-.07-.04h-.05s-.06-.02-.06-.02l-.05-.02h-.05l-.05-.02-.1-.02-.06.02-.03.04v.05s-.04.1-.04.1l-.02.09-.02.06v.04s-.03.1-.03.1v.05s-.02.05-.02.05v.05s-.03.1-.03.1l.02.06.04.03h.11s.19.07.19.07h.05s.1.03.1.03l.04.04v.06s-.03.06-.03.06h-.05s-.05,0-.05,0l-.05-.02h-.05s-.04-.02-.04-.02h-.06s-.09-.04-.09-.04h-.05s-.09,0-.09,0l-.04.05-.02.04v.05s-.07.25-.07.25v.04s-.02.04-.02.04v.06s-.03.11-.03.11l-.03.09v.05s-.02.04-.02.04v.04s-.04.04-.04.04h-.06s-.05,0-.05,0l-.05-.04Z" style="fill: #4c3a25; stroke-width: 0px;"/>
            <path d="M31.99,19.42h-.05s-.08-.06-.08-.06l-.04-.04-.02-.04-.02-.05-.02-.04v-.05s-.03-.05-.03-.05v-.14s0-.06,0-.06v-.04s.02-.11.02-.11v-.05s.02-.07.02-.07l.02-.07v-.05s.07-.25.07-.25l.02-.05.02-.11v-.04s.04-.16.04-.16l.05-.19.02-.14.02-.06.02-.13v-.05s.02-.05.02-.05v-.04s.04-.05.04-.05h.05s.05,0,.05,0l.05.03.02.05v.04s0,.04,0,.04l-.02.05-.02.1-.09.39v.05s-.07.29-.07.29l-.02.05v.04s-.02.06-.02.06l-.03.09v.05s0,.05,0,.05l-.04.15-.02.11v.04s0,.05,0,.05v.11s.02.1.02.1l.02.05.03.04.04.02.04.02.07.02.07.02h.05s.09-.02.09-.02l.04-.04.02-.03.05-.09.02-.05.02-.05v-.05s.02-.05.02-.05l.02-.04.06-.29.02-.05v-.05s.06-.2.06-.2v-.04s.04-.14.04-.14v-.05s.03-.1.03-.1v-.09s.04-.06.04-.06v-.04s.08-.29.08-.29v-.05s.04-.03.04-.03h.06s.05-.01.05-.01l.04.04.02.06v.05s-.03.04-.03.04l-.02.1v.04s-.08.32-.08.32v.07s-.03.04-.03.04l-.03.16-.02.04v.05s-.02.05-.02.05l-.02.09-.03.09v.05s-.02.05-.02.05v.06s-.02.07-.02.07l-.03.07v.05s-.03.05-.03.05v.05s-.07.14-.07.14l-.08.13-.03.03-.03.03-.05.02-.04.02h-.05s-.09.02-.09.02h-.1s-.14-.04-.14-.04l-.06-.02Z" style="fill: #4c3a25; stroke-width: 0px;"/>
            <path d="M33.96,19.83h-.05s-.05-.02-.05-.02h-.05s-.04-.04-.04-.04v-.05s0-.06,0-.06l.13-.55v-.04s.02-.05.02-.05l.05-.2.05-.24.03-.1v-.06s.02-.05.02-.05v-.08s.08-.3.08-.3l.02-.04.02-.15v-.04s.02-.05.02-.05l.03-.04h.04s.05,0,.05,0l.05.03.03.05v.04s-.02.05-.02.05v.04s-.02.1-.02.1l-.02.05v.05s-.02.07-.02.07v.08s-.02.04-.02.04l-.03.13-.02.07-.04.2-.02.04-.05.25-.03.09v.11s-.05.11-.05.11v.07s-.06.17-.06.17v.08s0,.05,0,.05l.04.04h.1s.04.03.04.03l.34.08.04.03.02.06v.04s-.05.03-.05.03h-.06s-.25-.03-.25-.03l-.09-.03h-.05s-.05,0-.05,0l-.09-.03Z" style="fill: #4c3a25; stroke-width: 0px;"/>
            <path d="M35.75,20.23h-.05s-.05-.02-.05-.02h-.05s-.04-.04-.04-.04v-.05s0-.06,0-.06l.13-.55v-.04s.02-.05.02-.05l.05-.2.05-.24.03-.1v-.06s.02-.05.02-.05v-.08s.08-.3.08-.3l.02-.04.02-.15v-.04s.02-.05.02-.05l.03-.04h.04s.05,0,.05,0l.04.03.03.05v.03s-.02.06-.02.06v.04s-.02.1-.02.1l-.02.05v.05s-.02.07-.02.07v.08s-.02.04-.02.04l-.03.13-.02.07-.04.2-.02.04-.05.25-.03.09v.11s-.05.11-.05.11v.07s-.06.17-.06.17v.08s0,.05,0,.05l.04.04h.1s.04.03.04.03l.34.08.04.03.02.06v.04s-.05.03-.05.03h-.06s-.25-.03-.25-.03l-.09-.03h-.05s-.05,0-.05,0l-.09-.03Z" style="fill: #4c3a25; stroke-width: 0px;"/>
            <path d="M38.86,20.96l-.04-.02-.05-.02-.04-.03-.04-.03-.04-.03-.03-.04-.03-.04-.03-.03-.02-.04-.03-.09v-.06s0-.1,0-.1v-.05s.02-.07.02-.07l.03-.11.02-.06.03-.04.02-.05.09-.11.04-.03.03-.04.06-.05.06-.04.04-.06.02-.06v-.16s.02-.05.02-.05l.05-.21.03-.05.02-.05.06-.07.04-.04.12-.08h.05s.1-.02.1-.02l.1.03.05.02h.04s.06.1.06.1v.05s.03.04.03.04v.06s0,.05,0,.05l-.05.13-.02.05-.03.04-.03.04-.04.03-.08.06-.08.05-.04.03-.09.05-.04.03-.04.05v.06s-.01.05-.01.05l.02.1.03.1.04.1.07.14.02.05.03.04.03.05.04.04.04.02.04-.03.02-.04.06-.14.03-.1v-.05s.05-.04.05-.04l.06-.02.06.04.02.06-.03.1v.05s-.04.05-.04.05v.04s-.03.05-.03.05l-.02.04-.06.09v.06s.01.05.01.05l.03.04.04.03.04.03.04.04.03.05v.05s-.04.03-.04.03l-.05.02-.06-.02-.08-.06-.07-.08-.07-.02h-.06s-.05.03-.05.03h-.05s-.1.04-.1.04h-.06s-.05,0-.05,0l-.2-.02-.05-.02ZM39.08,20.83h.05s.05,0,.05,0h.05s.04-.02.04-.02l.03-.04v-.06s-.04-.04-.04-.04l-.03-.05-.04-.04-.05-.08-.02-.04-.02-.04-.02-.05v-.05s-.04-.04-.04-.04l-.02-.05-.04-.14v-.05s-.03-.03-.03-.03h-.04s-.03.04-.03.04l-.03.04-.03.04-.06.08-.05.17-.02.07v.05s.02.1.02.1l.02.05.03.04.03.04.04.04.09.04.08.02.07.02ZM39.22,19.59l.09-.04.05-.04.03-.02.08-.07.03-.04.03-.06.02-.07v-.04s-.03-.04-.03-.04l-.03-.03-.04-.03h-.05s-.05.02-.05.02l-.04.03-.03.04-.03.04-.02.04-.04.15v.05s-.02.04-.02.04v.05s0,.03,0,.03h.05Z" style="fill: #4c3a25; stroke-width: 0px;"/>
            <path d="M18.08,20.53v-.05s.04-.19.04-.19v-.06s.02-.06.02-.06l.02-.05.04-.19.02-.04.04-.18v-.04s.05-.18.05-.18v-.05s.04-.09.04-.09l.03-.15.03-.12.07-.33.02-.09v-.04s.02-.05.02-.05v-.04s0-.05,0-.05l.04-.04h.05s.05,0,.05,0l.05.04.02.03v.05s-.01.05-.01.05v.06s-.03.08-.03.08v.05s-.13.54-.13.54v.05s.06.04.06.04l.05.02h.05s.05.02.05.02l.07.02h.07s.04.02.04.02h.05s.04.02.04.02h.05s.05.02.05.02l.05-.02.03-.03.03-.1v-.07s.05-.12.05-.12l.08-.4.03-.1.03-.04.06-.02.05.02.05.04.02.05v.05s-.03.05-.03.05l-.05.2v.05s-.04.16-.04.16l-.02.04v.08s-.03.04-.03.04v.08s-.03.05-.03.05l-.02.04v.06s-.02.05-.02.05v.04s-.02.1-.02.1l-.02.04v.06s-.02.04-.02.04v.06s-.02.05-.02.05l-.02.06v.1s-.04.12-.04.12v.07s-.04.09-.04.09l-.02.1v.04s-.02.06-.02.06v.05s-.03.03-.03.03l-.04.02h-.06s-.05-.05-.05-.05l-.02-.04v-.03s.01-.1.01-.1l.03-.1v-.05s.02-.04.02-.04l.02-.08v-.07s.1-.4.1-.4l-.02-.06-.04-.04h-.05s-.09-.03-.09-.03l-.08-.03-.26-.05h-.05s-.06.01-.06.01l-.03.04v.04s-.03.1-.03.1v.06s-.03.04-.03.04l-.02.09v.06s-.03.08-.03.08v.05s-.04.1-.04.1v.05s-.05.19-.05.19l-.04.04-.05.02h-.05s-.05-.06-.05-.06Z" style="fill: #4c3a25; stroke-width: 0px;"/>
            <path d="M20.11,20.99v-.05s.11-.22.11-.22l.03-.04.02-.05.02-.04.13-.28.07-.13.02-.04.09-.19.02-.04.05-.08.02-.04.12-.23v-.04s.04-.04.04-.04l.04-.09.05-.09.02-.03.02-.05.02-.05.05-.09.04-.04h.06s.05-.01.05-.01l.04.02.04.03.03.05v.06s0,.06,0,.06v.15s0,.1,0,.1v.19s0,.16,0,.16v.05s0,.06,0,.06v.2s0,.05,0,.05v.2s0,.06,0,.06v.04s0,.05,0,.05v.15s0,.09,0,.09v.06s0,.04,0,.04v.2s0,.16,0,.16l-.03.05h-.04s-.06,0-.06,0l-.05-.04-.03-.05v-.1s0-.05,0-.05v-.05s0-.11,0-.11v-.05s0-.05,0-.05v-.09s-.03-.06-.03-.06l-.04-.04-.14-.03-.07-.03h-.06s-.05-.02-.05-.02l-.1-.02h-.06s-.04.06-.04.06l-.2.43-.03.04-.05.04-.06.02h-.06s-.04-.06-.04-.06ZM20.98,20.36l.1.02h.04s.02-.05.02-.05v-.11s0-.05,0-.05v-.05s0-.04,0-.04v-.05s0-.06,0-.06v-.05s-.01-.05-.01-.05v-.1s0-.09,0-.09v-.07s0-.14,0-.14v-.1s0-.1,0-.1h0s-.04.08-.04.08l-.08.21-.02.03-.07.15v.04s-.04.05-.04.05l-.02.04-.05.08-.02.06-.02.04-.05.08-.02.06-.02.04v.06s.03.03.03.03h.05s.05.02.05.02l.1.03h.06Z" style="fill: #4c3a25; stroke-width: 0px;"/>
            <path d="M22.36,21.52l-.05-.03-.02-.06.07-.29v-.05s.02-.05.02-.05v-.06s.03-.04.03-.04v-.05s.03-.05.03-.05v-.05s.01-.05.01-.05l.02-.07.04-.19.02-.08v-.05s.04-.12.04-.12v-.07s.02-.05.02-.05l.02-.05v-.05s.02-.05.02-.05v-.05s.05-.18.05-.18v-.06s.02-.05.02-.05v-.04s.03-.05.03-.05l.02-.09.04-.05.06-.02.05.02h.04s.05.02.05.02l.1.02.06.02h.08s.07.03.07.03h.06s.04.04.04.04l.05.02.04.03.04.04.04.03.03.03.05.1.02.05v.05s.03.1.03.1v.06s-.03.23-.03.23l-.02.07-.03.05v.05s-.03.04-.03.04l-.08.12-.03.04-.08.07-.04.03-.05.02-.05.03-.09.03h-.15s-.29-.04-.29-.04h-.04s-.04.06-.04.06v.05s-.08.34-.08.34l-.02.04-.04.21-.04.06-.06.02-.05-.02ZM22.93,20.62h.1s.05,0,.05,0h.05s.05-.02.05-.02l.09-.06.03-.04.04-.03.05-.1v-.05s.03-.05.03-.05l.03-.15v-.09s.01-.04.01-.04v-.07s-.02-.08-.02-.08l-.02-.05-.06-.08-.04-.02-.05-.03-.11-.04h-.07s-.04-.02-.04-.02l-.05-.02-.05.02-.03.05v.04s-.07.23-.07.23v.07s-.03.05-.03.05v.05s-.02.05-.02.05l-.02.1-.02.06v.08s-.05.11-.05.11v.06s.06.04.06.04l.08.02h.07Z" style="fill: #4c3a25; stroke-width: 0px;"/>
            <path d="M24.35,21.96l-.05-.03-.02-.06.07-.29v-.05s.02-.05.02-.05v-.06s.03-.04.03-.04v-.05s.03-.05.03-.05v-.05s.01-.05.01-.05l.02-.07.04-.19.02-.08v-.05s.04-.12.04-.12v-.07s.02-.05.02-.05l.02-.05v-.05s.02-.05.02-.05v-.05s.05-.18.05-.18v-.06s.02-.05.02-.05v-.04s.03-.05.03-.05l.02-.09.04-.05.06-.02.05.02h.04s.05.02.05.02l.1.02.06.02h.08s.07.03.07.03h.06s.04.03.04.03l.05.02.04.03.04.04.04.03.02.03.05.1.02.05v.05s.03.1.03.1v.06l-.03.23-.02.07-.03.05v.05s-.03.04-.03.04l-.08.12-.03.04-.08.07-.04.03-.05.02-.05.03-.09.03h-.15s-.3-.04-.3-.04h-.04s-.04.06-.04.06v.05s-.08.34-.08.34l-.02.04-.04.21-.04.07-.05.02-.05-.02ZM24.91,21.07h.1s.05,0,.05,0h.05s.05-.02.05-.02l.09-.06.03-.04.04-.03.05-.1.02-.05.02-.05.03-.15v-.09s.01-.04.01-.04v-.07s-.02-.08-.02-.08l-.02-.05-.06-.07-.04-.02-.05-.03-.11-.04h-.07s-.04-.02-.04-.02l-.05-.02-.05.02-.03.05v.04s-.07.23-.07.23v.07s-.03.05-.03.05v.05s-.02.04-.02.04l-.02.1-.02.06v.08s-.05.11-.05.11v.06s.06.04.06.04l.08.02h.07Z" style="fill: #4c3a25; stroke-width: 0px;"/>
            <path d="M26.7,22.48l-.04-.03-.02-.05.04-.19.03-.1v-.05s.03-.07.03-.07v-.07s.05-.15.05-.15l.04-.22v-.12s-.02-.05-.02-.05l-.02-.05v-.06s-.02-.12-.02-.12v-.05s-.03-.1-.03-.1v-.05s-.01-.05-.01-.05v-.1s-.01-.04-.01-.04v-.04s-.03-.09-.03-.09v-.16s-.03-.09-.03-.09v-.05s.01-.04.01-.04l.05-.02.06.02.06.03.03.06v.1s.03.04.03.04v.08s.05.36.05.36v.13s.03.14.03.14v.05s.01.05.01.05h.01s.05-.07.05-.07l.03-.03.11-.17.05-.1.04-.04.05-.09.06-.09.02-.04.03-.04.05-.09.03-.04.05-.04.07-.02h.06s.03.06.03.06v.04s-.13.21-.13.21l-.03.04-.02.04-.11.16-.07.13-.03.04-.03.05-.02.04-.05.08-.05.09-.03.03-.06.09-.03.07-.09.36v.08s-.03.05-.03.05v.04s-.04.1-.04.1v.05s-.01.05-.01.05l-.02.05v.04s-.04.04-.04.04h-.06s-.05-.01-.05-.01Z" style="fill: #4c3a25; stroke-width: 0px;"/>
            <path d="M30.19,23.25l-.03-.06v-.05s-.03-.2-.03-.2v-.05s-.01-.05-.01-.05v-.04l-.02-.16v-.04s-.03-.2-.03-.2v-.11s-.01-.05-.01-.05v-.05s-.02-.04-.02-.04v-.11s-.02-.05-.02-.05v-.05s0-.05,0-.05l-.03-.4v-.04s0-.15,0-.15v-.04s-.02,0-.02,0v.05s-.02.05-.02.05v.05s-.02.05-.02.05v.05s-.02.04-.02.04v.05s-.03.08-.03.08l-.05.27-.02.04-.04.2v.05s-.02.06-.02.06v.04s-.03.04-.03.04l-.02.11v.08s-.03.07-.03.07v.06s-.02.04-.02.04v.05s-.02.06-.02.06l-.02.05-.04.19-.04.04h-.08s-.07-.04-.07-.04l-.02-.05.05-.25.02-.04v-.06s.05-.2.05-.2l.02-.12v-.04s.03-.07.03-.07l.02-.05.02-.12.03-.12v-.06s.02-.04.02-.04v-.06s.03-.04.03-.04v-.05s.03-.09.03-.09v-.06s.02-.04.02-.04l.04-.16v-.05s.07-.23.07-.23v-.06s.04-.05.04-.05h.08s.08.01.08.01h.05s.04.04.04.04l.04.06v.05s.01.05.01.05v.05s.02.09.02.09l.05.56v.04s0,.05,0,.05v.05s.03.15.03.15v.1s.04.32.04.32v.08s0,.05,0,.05v.06s.01.05.01.05v.05s0,.11,0,.11v.05h.02l.04-.15v-.09s.02-.05.02-.05v-.06s.02-.07.02-.07l.03-.07v-.07s.04-.12.04-.12v-.04s.15-.63.15-.63v-.08s.03-.07.03-.07v-.04s.02-.04.02-.04v-.05s.02-.04.02-.04l.02-.15.03-.04h.04s.05,0,.05,0l.04.03.02.05v.05s-.01.09-.01.09l-.02.05v.06s-.02.05-.02.05l-.04.25v.04s-.03.11-.03.11v.05s-.03.04-.03.04l-.05.26-.02.04v.05s-.05.21-.05.21v.05s-.02.04-.02.04v.05s-.01.05-.01.05l-.02.05-.04.2-.02.04v.05s-.02.06-.02.06l-.02.04v.04s-.04.06-.04.06h-.05s-.05,0-.05,0h-.05s-.04-.02-.04-.02l-.05-.04Z" style="fill: #4c3a25; stroke-width: 0px;"/>
            <path d="M32.31,23.75l-.09-.02h-.05s-.05-.02-.05-.02l-.04-.02-.1-.02-.05-.02h-.04s-.04-.02-.04-.02h-.1s-.1-.03-.1-.03l-.04-.04-.02-.06.08-.35.02-.15v-.05s.03-.04.03-.04v-.06s.02-.04.02-.04v-.05s.02-.06.02-.06v-.06s.03-.08.03-.08v-.05s.02-.06.02-.06l.02-.05v-.05s.04-.14.04-.14v-.06s.02-.04.02-.04l.02-.1.02-.05v-.07s.05-.12.05-.12v-.04s0-.05,0-.05v-.04s.02-.06.02-.06v-.05s.01-.04.01-.04l.03-.05h.05s.05.01.05.01h.05s.05.02.05.02l.15.02.25.06.15.03h.05s.04.05.04.05l.02.04v.05s-.05.04-.05.04h-.08s-.07-.01-.07-.01l-.05-.02h-.06s-.05-.01-.05-.01l-.05-.02-.11-.02h-.1s-.06,0-.06,0l-.04.06-.04.17-.02.1-.02.04-.03.15-.02.05v.04s-.02.05-.02.05v.07s.06.03.06.03h.04s.05.02.05.02l.08.02.09.02.08.02.09.02h.05s.05.04.05.04v.06s-.03.06-.03.06l-.05.02h-.09s-.04-.03-.04-.03l-.1-.02-.04-.02h-.05s-.09-.02-.09-.02l-.05-.02-.05.02-.03.04v.05s-.02.05-.02.05v.06s-.02.05-.02.05v.04s-.02.06-.02.06l-.08.31v.06s0,.08,0,.08l.05.04.1.02.05.02h.05s.1.03.1.03l.05.02h.05s.05.02.05.02h.05s.05.04.05.04l.02.05v.04s-.04.04-.04.04h-.05s-.05,0-.05,0Z" style="fill: #4c3a25; stroke-width: 0px;"/>
            <path d="M34.71,24.29l-.05-.04-.02-.05.03-.51v-.15s.02-.06.02-.06v-.05s0-.05,0-.05v-.06s0-.05,0-.05v-.1s0-.14,0-.14v-.06s0-.06,0-.06v-.04s0-.06,0-.06l.03-.3v-.05s.02-.16.02-.16h-.01s-.04.09-.04.09v.06s-.03.04-.03.04l-.03.05-.15.39-.03.07v.05s-.07.14-.07.14l-.03.05-.09.24-.02.04-.02.05-.02.04v.05s-.04.04-.04.04l-.02.05v.05s-.11.23-.11.23l-.04.04h-.06s-.05,0-.05,0l-.04-.02-.05-.04-.02-.05v-.19s.01-.06.01-.06v-.1s0-.05,0-.05v-.07s0-.08,0-.08v-.05s0-.05,0-.05v-.05s0-.1,0-.1v-.06s0-.29,0-.29l.02-.15v-.05s0-.05,0-.05v-.06s.01-.1.01-.1v-.04s0-.06,0-.06v-.05s.01-.3.01-.3v-.04s0-.06,0-.06l.02-.04.06-.02.06.02.05.03.02.06v.15s0,.05,0,.05v.04s0,.05,0,.05v.05s-.01.07-.01.07v.08s0,.16,0,.16v.09s0,.06,0,.06v.26s-.02.05-.02.05v.05s0,.04,0,.04v.11s-.01.05-.01.05v.24s-.02.05-.02.05v.05s0,.06,0,.06l-.02.14h0s.01-.05.01-.05l.04-.09v-.06s.03-.04.03-.04v-.04s.03-.08.03-.08l.03-.06v-.05s.05-.09.05-.09v-.05s.03-.04.03-.04l.03-.05v-.04s.07-.14.07-.14l.02-.05.05-.08.03-.1.03-.05.04-.09v-.04s.09-.19.09-.19v-.05s.03-.04.03-.04l.03-.05.02-.04v-.04s.03-.04.03-.04l.05-.05h.07s.06,0,.06,0l.05.04.02.05v.05s-.01.1-.01.1v.1s0,.11,0,.11v.1s0,.04,0,.04v.05s0,.05,0,.05v.06s0,.04,0,.04v.26s0,.05,0,.05v.1s-.01.2-.01.2v.05s-.04.43-.04.43l-.02.05v.05s0,0,0,0l.02-.05.02-.04v-.05s.03-.04.03-.04l.08-.23.08-.18v-.06s.08-.12.08-.12v-.04s.06-.1.06-.1l.02-.09.03-.05v-.05s.08-.14.08-.14v-.04s.04-.06.04-.06l.03-.07.02-.05.03-.1.05-.09.03-.09.05-.04.06-.02.05.02.04.04v.04s0,.05,0,.05l-.03.05-.02.05-.02.04v.04s-.06.1-.06.1v.05s-.05.09-.05.09l-.02.03-.04.1-.02.04-.02.06-.02.04-.02.04-.02.04-.02.05v.04s-.04.06-.04.06v.05s-.04.04-.04.04l-.14.32v.04s-.15.32-.15.32l-.03.09-.02.05-.02.04-.04.04-.06.02-.1-.03Z" style="fill: #4c3a25; stroke-width: 0px;"/>
            <path d="M37.79,24.97l-.04-.03v-.05s.02-.19.02-.19l.03-.1v-.05s.03-.07.03-.07v-.07s.05-.15.05-.15l.04-.22v-.12s-.02-.05-.02-.05v-.05s-.03-.06-.03-.06v-.12s-.01-.05-.01-.05l-.02-.1v-.05s-.01-.05-.01-.05v-.1s-.01-.04-.01-.04v-.04s-.03-.09-.03-.09v-.16s-.03-.09-.03-.09v-.05s.01-.04.01-.04l.05-.02.06.02.06.03.03.06v.1s.03.04.03.04v.08s.05.36.05.36v.13s.03.14.03.14v.05s.01.05.01.05h.01s.05-.07.05-.07l.03-.03.1-.17.05-.1.04-.04.05-.09.06-.09.02-.04.04-.04.05-.09.03-.04.05-.04.07-.02h.06s.03.06.03.06v.04l-.13.21-.03.04-.02.04-.11.16-.07.13-.03.04-.03.05-.02.04-.05.08-.05.09-.03.03-.06.09-.03.07-.09.36v.08s-.03.05-.03.05v.05s-.04.1-.04.1v.05s-.01.05-.01.05l-.02.05v.04s-.04.04-.04.04h-.06s-.05-.01-.05-.01Z" style="fill: #4c3a25; stroke-width: 0px;"/>
            <path d="M40.05,25.48l-.09-.02h-.05s-.05-.02-.05-.02l-.04-.02-.1-.02-.05-.02h-.04s-.04-.02-.04-.02h-.1s-.09-.03-.09-.03l-.04-.04-.02-.06.08-.35.02-.15v-.05s.03-.04.03-.04v-.06s.02-.04.02-.04v-.05s.02-.06.02-.06v-.06s.03-.08.03-.08v-.05s.02-.06.02-.06l.02-.05v-.05s.04-.14.04-.14v-.06s.02-.04.02-.04l.02-.1.02-.05v-.07s.05-.12.05-.12v-.04s0-.05,0-.05v-.04s.02-.06.02-.06v-.05s.01-.04.01-.04l.03-.05h.05s.05.01.05.01h.05s.05.02.05.02l.15.02.25.07.15.03h.05s.04.05.04.05l.02.04v.05s-.05.04-.05.04h-.08s-.07-.01-.07-.01l-.05-.02h-.06s-.05-.01-.05-.01l-.05-.02-.11-.02h-.1s-.06,0-.06,0l-.04.06-.04.17-.02.1-.02.04-.03.15-.02.05v.04s-.02.05-.02.05v.07s.06.03.06.03h.04s.05.02.05.02l.08.02.09.02.08.02.09.02h.05s.05.04.05.04v.06s-.03.06-.03.06l-.05.02h-.09s-.04-.04-.04-.04l-.1-.02-.04-.02h-.05s-.09-.02-.09-.02l-.05-.02-.05.02-.03.04v.05s-.02.05-.02.05v.06s-.02.05-.02.05v.04s-.02.06-.02.06l-.08.31v.06s0,.08,0,.08l.05.04.1.02.05.02h.05s.1.03.1.03l.05.02h.05s.05.02.05.02h.05s.05.04.05.04l.02.05v.05s-.05.04-.05.04h-.05s-.05,0-.05,0Z" style="fill: #4c3a25; stroke-width: 0px;"/>
            <path d="M41.02,25.67v-.05s.11-.22.11-.22l.03-.04.02-.05.02-.04.13-.28.07-.13.02-.04.09-.19.02-.04.05-.08.02-.04.12-.23v-.04s.04-.04.04-.04l.04-.09.05-.09.02-.03.02-.05.02-.05.05-.09.04-.04.06-.02h.05s.04.02.04.02l.04.03.03.05v.06s0,.06,0,.06v.15s0,.1,0,.1v.19s0,.16,0,.16v.05s0,.06,0,.06v.2s0,.05,0,.05v.21s0,.06,0,.06v.04s0,.05,0,.05v.15s0,.09,0,.09v.06s0,.04,0,.04v.2s0,.16,0,.16l-.03.05h-.04s-.06,0-.06,0l-.05-.04-.03-.05v-.1s0-.05,0-.05v-.05s0-.11,0-.11v-.05s0-.05,0-.05v-.09s-.03-.06-.03-.06l-.04-.04-.14-.03-.07-.03h-.06s-.05-.02-.05-.02l-.1-.02h-.06s-.04.06-.04.06l-.2.43-.03.04-.05.04-.06.02h-.06s-.04-.06-.04-.06ZM41.89,25.04l.09.02h.04s.02-.05.02-.05v-.11s0-.05,0-.05v-.05s0-.04,0-.04v-.05s0-.06,0-.06v-.05s-.01-.05-.01-.05v-.1s0-.09,0-.09v-.07s0-.14,0-.14v-.1s0-.1,0-.1h0s-.04.08-.04.08l-.08.2-.02.03-.07.15v.04s-.04.05-.04.05l-.02.04-.05.08-.02.06-.02.04-.05.08-.02.06-.02.04v.06s.03.03.03.03h.05s.05.02.05.02l.1.03h.06Z" style="fill: #4c3a25; stroke-width: 0px;"/>
            <path d="M44.07,26.38l-.05-.05-.02-.07v-.08s-.01-.05-.01-.05v-.05s-.01-.05-.01-.05v-.05s-.01-.05-.01-.05l-.02-.1v-.04s-.02-.1-.02-.1v-.04s-.02-.1-.02-.1v-.04s-.03-.05-.03-.05l-.03-.05h-.06s-.1-.04-.1-.04h-.05s-.05.02-.05.02l-.02.05v.05s-.02.04-.02.04v.05s-.14.56-.14.56l-.02.04-.05.03h-.05s-.05-.03-.05-.03l-.03-.04v-.05s0-.04,0-.04l.03-.11v-.09s.03-.09.03-.09l.04-.12v-.06s.03-.06.03-.06l.03-.17.02-.05v-.05s.02-.05.02-.05l.03-.09.05-.24v-.05s.02-.1.02-.1l.02-.05v-.05s0-.05,0-.05v-.04s.03-.05.03-.05l.02-.08v-.07s.03-.05.03-.05v-.05s.03-.1.03-.1l.02-.05.06-.03.08.02h.06l.06.02.05.02h.05s.06.02.06.02l.08.02.07.02h.04s.05.04.05.04l.04.02.04.03.07.06.03.04.02.05.03.04v.04s.03.05.03.05v.11s0,.1,0,.1v.06s-.02.07-.02.07l-.02.05-.02.04v.05s-.03.05-.03.05l-.05.08-.04.04-.04.04-.03.04-.04.03-.05.02-.05.02-.05.03-.03.04v.06s.02.21.02.21v.04s.01.05.01.05v.04s.02.05.02.05v.04s0,.06,0,.06l.03.13v.07s.03.09.03.09v.05s0,.04,0,.04l-.04.04h-.04s-.07-.02-.07-.02ZM43.89,25.22h.05s.04,0,.04,0h.05l.06-.02h.05s.04-.03.04-.03l.09-.1.03-.05v-.05s.03-.04.03-.04l.02-.07.04-.2v-.05s-.06-.14-.06-.14l-.04-.05-.03-.03-.04-.03-.11-.05-.13-.04h-.05s-.05,0-.05,0l-.04.02-.04.05v.04s-.03.1-.03.1l-.02.06-.02.07v.05s-.04.12-.04.12v.07s-.03.06-.03.06v.04s-.02.05-.02.05v.05s0,.05,0,.05l.03.05.06.02.15.03Z" style="fill: #4c3a25; stroke-width: 0px;"/>
          </g>
          <g>
            <g>
              <line x1="12.35" y1="22.31" x2="48.65" y2="30.44" style="fill: none; stroke: #4c3a25; stroke-miterlimit: 10; stroke-width: .36px;"/>
              <line x1="10.53" y1="32.85" x2="45.81" y2="40.75" style="fill: none; stroke: #4c3a25; stroke-miterlimit: 10; stroke-width: .36px;"/>
            </g>
            <g>
              <path d="M15.95,27.73c-.71,1.25-1.44,2.54-2.62,2.28-.58-.13-.95-.61-.83-1.18.14-.62.75-1.06,1.29-.94.07.02.13.03.2.08.06.04.09.1.08.17-.02.1-.13.16-.23.11-.03-.02-.07-.03-.11-.04-.38-.08-.83.27-.92.69-.1.44.18.74.58.83,1.01.23,1.71-1.09,2.3-2.13.29-.51.57-1,.85-1.35.21-.24.57-.44.8-.39.07.02.12.08.12.16-.02.11-.1.14-.16.14-.17,0-.4.13-.52.29-.28.33-.55.8-.83,1.29ZM17.52,28.39l.09.18c.17.36.2.78.11,1.17-.21.92-1,1.49-1.93,1.28-.71-.16-1.15-.62-1.02-1.2.1-.45.53-.69.9-.61.33.07.52.36.57.72.02.1-.07.19-.19.17-.06-.01-.11-.06-.12-.13-.03-.25-.16-.42-.32-.46-.24-.05-.49.13-.55.38-.1.44.31.73.79.83.79.18,1.39-.32,1.56-1.07.09-.41.03-.88-.23-1.19-.17.03-.48.02-.65-.02-.32-.07-.56-.19-.49-.49.05-.23.22-.32.45-.26.26.06.62.24.81.44.49-.14.88-.55.98-.98.18-.7-.3-1.3-1.02-1.46-1.36-.3-2.2.47-2.57,1.92-.02.1-.12.13-.19.11-.08-.02-.13-.1-.12-.18.35-1.55,1.41-2.49,2.95-2.14.89.2,1.47.95,1.24,1.84-.11.51-.55.96-1.06,1.16ZM16.88,28.18c-.06-.04-.35-.17-.41-.18-.06-.01-.1-.02-.11.03-.01.06.19.1.3.13.08.02.15.02.23.02Z" style="fill: #4c3a25; stroke-width: 0px;"/>
              <path d="M21.01,30.1s-.02.03-.03.05c-.69.92-1.34,1.27-2.05,1.11-.59-.13-.86-.6-.71-1.18.25-.9,1.32-2.21,2.15-2.02.36.08.56.32.49.66-.17.75-1.33.97-2.16.99-.09.17-.14.3-.18.45-.11.4.07.7.49.81.58.14,1.13-.17,1.73-.99.05-.06.14-.08.22-.03.05.04.07.11.06.16ZM20.56,28.65c.04-.19-.1-.26-.25-.3-.49-.11-1.07.54-1.42,1.03.63-.05,1.55-.21,1.67-.74Z" style="fill: #4c3a25; stroke-width: 0px;"/>
              <path d="M21.29,31.79c-.59-.13-.97-.7-.84-1.28.19-.63.64-.97,1.2-.84.37.08.59.48.52.87-.02.08-.1.13-.18.12-.09-.02-.13-.1-.12-.18.04-.25-.1-.46-.28-.5-.39-.09-.72.18-.84.61-.1.43.2.82.61.91.57.13,1.07-.16,1.22-.74.06-.31,0-.54-.23-1.29-.06.04-.12.08-.18.13-.04.03-.08.04-.13.03-.04,0-.08-.02-.1-.06-.03-.04-.03-.09-.02-.13,0-.03.03-.06.06-.08.11-.08.2-.14.3-.21-.03-.16-.04-.33,0-.49.08-.37.38-.63.67-.57.21.05.29.24.26.45-.06.29-.31.56-.59.76.22.76.35,1.06.25,1.54-.19.76-.87,1.13-1.58.97ZM22.9,28.46c.02-.1-.06-.1-.15-.04-.11.07-.16.19-.18.29-.02.08-.02.15-.02.23.15-.13.31-.33.34-.48Z" style="fill: #4c3a25; stroke-width: 0px;"/>
              <path d="M25.22,31.04s-.02.04-.03.06c-.61.79-1.14,1.31-1.8,1.16-.34-.08-.47-.37-.39-.71.06-.26.37-.84.73-1.37l.59-.93-.45-.1c-.08-.02-.13-.1-.12-.18.02-.08.1-.14.18-.12l.55.12s.59-.95.61-.98c.04-.06.1-.08.17-.07.11.02.15.15.1.23.03-.04-.47.76-.55.88l.48.11c.08.02.13.1.11.18-.02.08-.1.13-.18.12l-.58-.13c-.07.13-.27.43-.65,1.03-.47.76-.64,1.07-.69,1.27-.04.19.02.32.16.35.51.11.99-.4,1.48-1.06.04-.04.1-.07.16-.05.02,0,.04.02.06.03.04.04.07.1.06.16Z" style="fill: #4c3a25; stroke-width: 0px;"/>
              <path d="M31.61,28.3c.25.06.38.25.33.48-.07.33-.65.49-1.18.51-.63.93-1.83,3.09-1.92,3.5-.1.43.01.67.35.75.41.09,1-.48,1.55-1.21.31-.4,1.66-2.51,1.8-2.83.04-.07.11-.09.17-.08.11.02.15.15.1.23-.94,1.56-1.74,2.86-1.89,3.56-.09.4-.04.69.29.77.75.17,1.48-1.1,2.21-2.36.77-1.32,1.53-2.63,2.44-2.43.09.02.14.1.12.18-.02.08-.1.13-.18.12-.69-.16-1.39,1.05-2.12,2.29-.79,1.35-1.58,2.73-2.55,2.51-.5-.11-.65-.58-.52-1.14.02-.09.05-.19.08-.29-.54.64-1.11,1.09-1.58.98-.54-.13-.71-.54-.58-1.12.1-.45,1.07-2.24,1.85-3.44-.15,0-.29-.01-.45-.03-.93-.06-2.18-.16-2.37.69-.08.38.11.7.42.77.1.02.13.1.12.18-.02.08-.09.14-.19.12-.5-.11-.77-.61-.64-1.14.24-1.07,1.62-.99,2.68-.91.22.01.43.04.62.04.25-.38.66-.77,1.02-.69ZM31.62,28.71c.01-.06-.02-.11-.08-.12-.16-.04-.39.17-.56.38.31,0,.61-.15.64-.26Z" style="fill: #4c3a25; stroke-width: 0px;"/>
              <path d="M35.4,33.32s-.02.04-.03.06c-.51.69-1.04,1.33-1.64,1.2-.34-.08-.46-.39-.38-.71.15-.55.94-1.74,1.43-2.48.04-.06.1-.08.16-.07.09.02.17.11.1.22-1.12,1.78-1.32,2.08-1.39,2.39-.05.21,0,.31.14.35.44.1.93-.56,1.33-1.08.04-.05.11-.07.16-.06.02,0,.03.01.05.03.05.04.08.1.06.16ZM35.12,30.73c.03-.13.17-.22.3-.19s.22.16.19.3c-.03.14-.16.22-.3.19s-.22-.16-.19-.3Z" style="fill: #4c3a25; stroke-width: 0px;"/>
              <path d="M35.68,35.02c-.59-.13-.97-.7-.84-1.28.19-.63.64-.97,1.2-.84.37.08.59.48.52.87-.02.09-.1.13-.18.12-.09-.02-.13-.1-.12-.18.04-.25-.1-.46-.28-.5-.39-.09-.72.18-.84.61-.1.43.2.82.61.91.57.13,1.07-.16,1.22-.74.06-.31,0-.54-.23-1.29-.06.04-.12.08-.18.13-.04.03-.08.04-.13.03-.04,0-.08-.03-.1-.06-.03-.04-.03-.09-.02-.13,0-.03.03-.06.06-.08.11-.08.2-.14.3-.21-.03-.16-.04-.33,0-.49.08-.37.38-.63.67-.57.21.05.29.24.26.45-.06.28-.31.56-.59.76.22.76.35,1.06.25,1.54-.19.76-.86,1.13-1.58.97ZM37.29,31.68c.02-.1-.06-.1-.15-.04-.11.07-.15.19-.18.29-.02.08-.02.15-.02.24.15-.13.3-.33.34-.48Z" style="fill: #4c3a25; stroke-width: 0px;"/>
              <path d="M40.96,34.57s-.01.03-.03.05c-.72.96-1.15,1.31-1.63,1.2-.35-.08-.46-.36-.38-.71.15-.65.9-1.44,1.03-1.99.05-.21,0-.39-.29-.45-.18-.04-.41.08-.65.26-.58.47-.7.73-1.72,2.32-.05.08-.14.1-.21.06-.07-.05-.09-.14-.05-.21,1.09-1.72,2.08-3.28,2.47-3.91.03-.05.1-.08.16-.06.11.02.15.15.1.23-.11.17-.36.58-.75,1.2.25-.16.49-.24.72-.19.51.11.6.44.52.82-.12.54-.91,1.47-1.03,1.99-.05.21,0,.31.14.35.34.08.71-.26,1.32-1.08.04-.05.1-.08.16-.06.02,0,.04.02.06.03.05.04.08.1.06.16Z" style="fill: #4c3a25; stroke-width: 0px;"/>
              <path d="M43.21,35.08s-.02.03-.03.05c-.69.92-1.33,1.27-2.05,1.11-.59-.13-.86-.6-.71-1.18.25-.9,1.32-2.21,2.15-2.02.36.08.56.32.49.66-.17.75-1.33.97-2.16.99-.09.17-.14.3-.18.45-.11.4.07.7.49.81.58.14,1.12-.17,1.73-.99.05-.06.14-.08.22-.03.05.04.07.11.06.16ZM42.76,33.62c.04-.19-.1-.26-.26-.3-.49-.11-1.07.54-1.42,1.03.63-.05,1.56-.21,1.67-.74Z" style="fill: #4c3a25; stroke-width: 0px;"/>
              <path d="M43.49,36.76c-.59-.13-.97-.7-.84-1.28.19-.63.64-.97,1.2-.84.37.08.6.48.52.87-.02.09-.1.13-.18.12-.09-.02-.13-.1-.12-.18.04-.25-.1-.46-.28-.5-.39-.09-.72.18-.84.61-.1.43.2.82.61.91.57.13,1.07-.16,1.22-.74.06-.31,0-.54-.23-1.29-.06.04-.12.08-.18.13-.04.03-.08.04-.13.03-.04,0-.08-.02-.1-.06-.03-.04-.03-.09-.02-.13,0-.03.03-.06.06-.08.11-.08.2-.14.3-.21-.03-.16-.04-.33,0-.49.08-.37.38-.63.67-.57.21.05.29.24.26.45-.06.28-.31.56-.59.76.22.76.35,1.06.25,1.54-.19.76-.86,1.13-1.58.97ZM45.1,33.43c.02-.1-.06-.1-.15-.04-.11.07-.16.19-.18.29-.02.08-.02.15-.02.23.15-.13.31-.33.34-.48Z" style="fill: #4c3a25; stroke-width: 0px;"/>
            </g>
          </g>
        </g>
      </g>
      <g>
        <g>
          <polygon points="24.6 52.36 24.85 53.38 25.82 53.75 24.94 54.29 24.88 55.33 24.09 54.66 23.08 54.93 23.48 53.97 22.91 53.09 23.95 53.17 24.6 52.36" style="fill: #4c3a25; stroke-width: 0px;"/>
          <polygon points="30.12 53 30.65 53.89 31.69 53.96 31.01 54.74 31.27 55.75 30.31 55.35 29.44 55.91 29.53 54.87 28.72 54.21 29.74 53.97 30.12 53" style="fill: #4c3a25; stroke-width: 0px;"/>
          <polygon points="19.42 50.61 18.56 51.18 17.59 50.8 17.87 51.8 17.21 52.6 18.25 52.64 18.8 53.52 19.16 52.55 20.17 52.29 19.36 51.65 19.42 50.61" style="fill: #4c3a25; stroke-width: 0px;"/>
        </g>
        <g>
          <g>
            <g>
              <path d="M12.25,44.43c-.7-.19-1.41-.44-1.96-.92.32,1.53,1.38,2.88,2.79,3.55-1.09.34-2.26.4-3.38.17.77.69,1.77,1.07,2.77,1.33,2.2.56,4.55.56,6.75-.01.16-.04.32-.09.46-.17.13-.08.24-.19.36-.29,1.26-1.2,2.71-2.17,4.09-3.24.2-.16.42-.43.27-.63-.06-.09-.17-.12-.28-.15-.95-.25-1.95-.31-2.92-.18-1.28.17-2.49.66-3.75.89-1.72.31-3.51.11-5.19-.36Z" style="fill: #efd5b2; stroke: #4c3a25; stroke-linecap: round; stroke-linejoin: round; stroke-width: .29px;"/>
              <path d="M39.01,50.42c.72.12,1.47.2,2.17,0-.94,1.25-2.48,2.02-4.04,2.02.84.77,1.87,1.33,2.98,1.6-.99.29-2.06.22-3.08.02-2.23-.43-4.35-1.43-6.1-2.89-.13-.11-.25-.21-.34-.35-.09-.13-.14-.27-.2-.42-.62-1.62-1.53-3.12-2.32-4.67-.12-.23-.2-.57.03-.68.09-.05.21-.03.31-.01.97.18,1.9.55,2.72,1.09,1.08.7,1.97,1.66,3.02,2.4,1.43,1.01,3.12,1.59,4.85,1.89Z" style="fill: #efd5b2; stroke: #4c3a25; stroke-linecap: round; stroke-linejoin: round; stroke-width: .29px;"/>
            </g>
            <g>
              <g>
                <path d="M21.2,38.74c-.51.52-.9,1.16-1.14,1.85-.02.05-.04.11,0,.16.02.04.06.06.1.08.92.43,1.9.7,2.85,1.06.95.35,1.89.8,2.61,1.51.13-.13.26-.26.39-.39-.31-.63-.85-1.13-1.42-1.55-.57-.42-1.18-.79-1.71-1.26-.48-.42-.89-.92-1.22-1.46-.03-.05-.06-.1-.11-.13-.11-.06-.25.03-.34.13Z" style="fill: #efd5b2; stroke: #4c3a25; stroke-linecap: round; stroke-linejoin: round; stroke-width: .29px;"/>
                <path d="M25,46.35s.09-.04.13-.03c.03,0,.06.03.09.05.14.13.16.36.11.54-.06.19-.18.34-.31.49-1.19,1.39-2.92,2.39-4.75,2.39-.09,0-.18,0-.26-.05-.07-.05-.11-.12-.14-.19-.28-.6-.43-1.27-.44-1.93.68.11,1.38,0,2.07-.11.41-.07.81-.13,1.22-.2.43-.07.86-.14,1.25-.33.36-.17.67-.44,1.03-.62Z" style="fill: #efd5b2; stroke: #4c3a25; stroke-linecap: round; stroke-linejoin: round; stroke-width: .29px;"/>
                <path d="M33.34,41.46c.24.69.32,1.43.24,2.16,0,.06-.02.12-.06.15-.04.03-.08.03-.13.03-1.01,0-2.02-.17-3.03-.26-1.01-.09-2.05-.08-3,.26-.06-.17-.13-.34-.19-.51.55-.44,1.25-.66,1.94-.8s1.4-.22,2.08-.41c.61-.18,1.2-.45,1.73-.8.05-.03.1-.07.16-.07.13,0,.21.14.25.26Z" style="fill: #efd5b2; stroke: #4c3a25; stroke-linecap: round; stroke-linejoin: round; stroke-width: .29px;"/>
                <path d="M26.65,46.72s-.06-.07-.1-.09c-.03,0-.07,0-.1,0-.18.06-.3.25-.33.45-.03.19.02.39.07.58.48,1.76,1.62,3.41,3.28,4.19.08.04.17.07.26.06.08-.01.15-.06.21-.12.51-.43.93-.96,1.22-1.56-.67-.19-1.25-.59-1.82-.98-.34-.23-.68-.47-1.02-.7-.36-.25-.72-.5-.99-.83-.25-.31-.42-.68-.66-1Z" style="fill: #efd5b2; stroke: #4c3a25; stroke-linecap: round; stroke-linejoin: round; stroke-width: .29px;"/>
              </g>
              <g>
                <path d="M25.48,43.31s-.05-.08-.09-.12c-.6-.59-1.33-1.05-2.12-1.35-.7-.26-1.44-.4-2.14-.65-.61-.22-1.22-.56-1.61-1.08-.08-.1-.23-.09-.28.02-.41.86-.45,1.88-.7,2.81-.37,1.37-1.23,2.65-1.2,4.07,2.44,1.29,5.62,1.03,7.81-.65-.18-.94-.08-1.92.29-2.8.03-.08.07-.17.04-.26Z" style="fill: #efd5b2; stroke: #4c3a25; stroke-linecap: round; stroke-linejoin: round; stroke-width: .29px;"/>
                <path d="M27.51,43.77s.08-.05.13-.07c.8-.28,1.65-.39,2.49-.32.74.06,1.47.26,2.21.32.74.07,1.53,0,2.15-.43.1,1.06-.37,2.08-.55,3.12-.25,1.4-.02,2.92-.65,4.19-2.76.13-5.52-1.47-6.79-3.92.56-.77.89-1.71.94-2.66,0-.09,0-.19.07-.25Z" style="fill: #efd5b2; stroke: #4c3a25; stroke-linecap: round; stroke-linejoin: round; stroke-width: .29px;"/>
                <path d="M26.55,42.92c-.28-.11-.66-.16-.83.09-.04.06-.06.14-.08.22-.22.82-.44,1.65-.67,2.47-.05.19-.1.38-.06.57.05.27.27.47.51.6.14.08.29.14.45.14.38,0,.64-.36.82-.7.24-.46.44-.94.57-1.44.08-.29.15-.59.12-.89-.02-.3-.14-.61-.37-.8-.13-.12-.3-.19-.47-.25Z" style="fill: #efd5b2; stroke: #4c3a25; stroke-linecap: round; stroke-linejoin: round; stroke-width: .29px;"/>
              </g>
            </g>
          </g>
          <g>
            <path d="M25.89,42.86c.09.23.07.48.04.73-.07.59-.17,1.18-.29,1.77-.1.46-.22.94-.54,1.29" style="fill: none; stroke: #4c3a25; stroke-linecap: round; stroke-linejoin: round; stroke-width: .29px;"/>
            <g>
              <g>
                <g>
                  <path d="M27.48,44.53c.55.04,1.09.09,1.64.16.55.07,1.12.17,1.58.47.14.09.28.22.3.38.02.17-.17.34-.31.25" style="fill: none; stroke: #4c3a25; stroke-linecap: round; stroke-linejoin: round; stroke-width: .24px;"/>
                  <path d="M27.07,45.6c.49,1.03,1.53,1.67,2.54,2.19.55.28,1.2.55,1.76.31" style="fill: none; stroke: #4c3a25; stroke-linecap: round; stroke-linejoin: round; stroke-width: .24px;"/>
                </g>
                <g>
                  <path d="M25.07,45.13c-.86.32-1.8.41-2.7.24-.16-.03-.32-.07-.45-.16-.13-.09-.23-.25-.21-.41.02-.12.14-.23.24-.17" style="fill: none; stroke: #4c3a25; stroke-linecap: round; stroke-linejoin: round; stroke-width: .24px;"/>
                  <path d="M25.12,44.74c-.84-.2-1.68-.44-2.5-.7-.38-.12-.78-.26-1.07-.54" style="fill: none; stroke: #4c3a25; stroke-linecap: round; stroke-linejoin: round; stroke-width: .24px;"/>
                  <path d="M21.2,42.98c1.42.32,2.79.83,4.07,1.52" style="fill: none; stroke: #4c3a25; stroke-linecap: round; stroke-linejoin: round; stroke-width: .24px;"/>
                </g>
              </g>
              <g>
                <path d="M26.4,46.81c.2,1.09.72,2.15,1.6,2.82.1.08.24.16.36.1" style="fill: none; stroke: #4c3a25; stroke-linecap: round; stroke-linejoin: round; stroke-width: .24px;"/>
                <path d="M25.12,46.58c-.72.67-1.58,1.17-2.52,1.45" style="fill: #f9ecd2; stroke: #4c3a25; stroke-linecap: round; stroke-linejoin: round; stroke-width: .24px;"/>
              </g>
            </g>
          </g>
        </g>
      </g>
    </g>
  </g>
</svg>