<svg width="113" height="97" viewBox="0 0 113 97" fill="none" xmlns="http://www.w3.org/2000/svg">
<path d="M102.318 37.3955C99.9389 37.29 97.5421 36.6467 95.3843 35.5352C94.143 34.8954 93.2091 34.0437 92.8455 33.2297C92.8465 33.2148 92.8475 33.2018 92.8485 33.1969C93.4059 31.3983 92.8446 29.4411 91.4199 28.2127C89.9953 26.9848 87.9791 26.7206 86.2867 27.5405C86.0617 27.6495 85.7641 27.7495 85.4015 27.837C85.1944 27.8868 84.9907 27.951 84.792 28.0291C84.7607 28.041 84.5849 28.1027 84.2248 28.1027C83.9769 28.1027 83.7062 28.0739 83.4201 28.0176C83.2929 27.9923 83.1642 27.9724 83.0351 27.9579C81.906 27.8306 81.0442 27.1783 80.4734 26.0196C79.4835 24.0101 77.2199 22.9727 75.0546 23.5359C73.5853 23.9185 72.4353 24.9658 71.882 26.2987C71.8646 26.333 71.8482 26.3663 71.8333 26.3972C70.7271 28.6838 69.5831 31.0486 68.0402 32.3033C67.1158 33.0551 66.3752 33.4785 65.8253 33.5635C65.7339 33.578 65.653 33.5854 65.5899 33.5854C65.4438 33.5854 65.1781 33.5123 64.2343 32.9809C64.2199 32.973 64.2055 32.965 64.1906 32.9571C63.9248 32.8108 63.6462 32.6909 63.3596 32.5969C63.523 31.6346 63.3879 30.6296 62.9458 29.7241C62.2409 28.2833 60.8575 27.3037 59.2769 27.1111C59.2357 27.1017 59.1945 27.0922 59.1522 27.0838C58.7022 26.9509 58.2854 26.8654 57.9049 26.8042C57.8766 26.7972 57.8488 26.7902 57.8205 26.7833C57.813 26.7813 57.7862 26.7718 57.7599 26.7549C57.6695 26.6967 57.5776 26.6415 57.4832 26.5897C56.9179 26.2778 56.3258 25.7828 55.6468 25.0449C53.5536 22.7717 52.4528 20.1279 52.6823 17.9905C52.8691 16.2517 52.0823 14.5521 50.6363 13.5715C49.5916 12.8635 48.3275 12.6138 47.1244 12.8386C47.0926 12.8133 47.0633 12.7879 47.0364 12.7645C45.9968 11.8302 45.1285 9.9102 44.6551 7.49571C44.1902 5.127 42.021 3.49163 39.6168 3.6986C37.2156 3.90706 35.3573 5.89468 35.3071 8.30817C35.257 10.7043 34.6743 13.1247 33.6222 15.3059C33.0122 16.5711 32.1847 17.5293 31.3815 17.9109C29.5808 17.3905 27.6431 17.9865 26.4444 19.4303C25.2438 20.8762 25.0134 22.8971 25.8573 24.5767C25.9815 24.8235 26.0908 25.127 26.1916 25.5041C26.2472 25.7131 26.3173 25.9176 26.4012 26.1171C26.4514 26.236 26.5527 26.7171 26.4226 27.5012C26.4012 27.6246 26.3863 27.749 26.3754 27.8738C26.2775 29.0092 25.6556 29.8834 24.5266 30.4739C22.5774 31.4928 21.5889 33.7242 22.1427 35.8551C22.5371 37.3726 23.6394 38.5527 25.0357 39.0836C25.0566 39.0935 25.0774 39.1025 25.0988 39.1119C27.417 40.1543 29.8009 41.2508 31.1197 42.7936C31.8712 43.6728 32.3094 44.3942 32.4097 44.9474C32.4678 45.2673 32.4892 45.3877 31.8648 46.5723C31.834 46.6296 31.8052 46.6878 31.7769 46.747C31.753 46.7972 31.7302 46.8475 31.7083 46.8982C31.4401 46.65 31.1609 46.3977 30.8614 46.139C30.838 46.1186 30.8147 46.0987 30.7903 46.0793C29.9186 45.3629 28.8193 44.9648 27.6927 44.9648C25.1644 44.9648 23.0115 46.943 22.791 49.4684C22.7865 49.5187 22.783 49.5694 22.7805 49.6197C22.707 50.9535 22.6246 51.0451 22.407 51.2919C22.0494 51.6973 21.2978 52.0959 20.1633 52.4735C19.4281 52.7193 18.5335 52.8387 17.4278 52.8387C16.1099 52.8387 14.6476 52.6675 13.2339 52.5018L13.0978 52.4859C13.0645 52.4824 13.0322 52.4785 12.9989 52.4755C11.5763 52.2362 10.0776 52.6566 8.97389 53.7009C7.35603 55.2323 7.02571 57.6871 8.1821 59.5916C8.84921 60.6911 8.93564 61.7598 8.43792 62.7663C8.37632 62.8902 8.32069 63.0165 8.27052 63.1454C7.98937 63.8668 7.665 64.2151 7.56417 64.2882C7.37938 64.4221 7.20503 64.5688 7.0416 64.728C6.78728 64.9758 6.55083 65.1678 6.33873 65.2982C4.73379 66.2863 3.85557 68.1326 4.12579 70.0003C4.397 71.868 5.73719 73.3909 7.55671 73.881C7.56367 73.8835 7.57211 73.8875 7.58105 73.8919C8.0753 74.6497 8.29237 75.9049 8.16571 77.293C7.94168 79.6906 7.19112 82.0593 5.99598 84.1425C4.79538 86.2346 5.36116 88.8953 7.30736 90.3163C8.14286 90.9262 9.11695 91.2237 10.0851 91.2237C11.3736 91.2237 12.6517 90.6969 13.5776 89.6789C15.2203 87.8709 16.936 86.658 18.304 86.4057C18.3562 86.3958 18.4073 86.3893 18.4565 86.3823C19.369 87.1943 20.577 87.6346 21.8328 87.5699C23.5798 87.4799 25.1341 86.4296 25.8712 84.8405C26.5358 83.4066 27.956 82.12 29.8376 81.1961C31.8787 83.7867 35.0722 85.2131 38.4057 85.1072C39.5214 85.0718 40.6197 84.9017 41.6683 84.5519C44.4425 83.6305 46.6917 81.6812 48.0006 79.0637C48.2008 78.6627 48.3756 78.2538 48.5247 77.8383C51.3357 78.2438 54.2574 77.993 57.0059 77.0841C60.0856 76.0617 62.8012 74.2571 64.9243 71.9048C67.1918 73.5491 69.9651 74.4925 72.9092 74.4925C74.3691 74.4925 75.8156 74.2566 77.2045 73.7934C84.2839 71.4396 88.1604 63.7937 85.9007 56.691C88.0193 55.0915 90.3212 54.2919 92.2147 54.5457C93.9498 54.78 95.6734 54.0317 96.6888 52.6018C97.4184 51.5755 97.6971 50.3182 97.5034 49.1107C97.5153 49.0968 97.5282 49.0838 97.5402 49.0709C97.5526 49.0585 97.5645 49.0455 97.5769 49.0321C98.5376 48.0107 100.477 47.1888 102.898 46.7763C105.277 46.3718 106.967 44.235 106.818 41.8235C106.67 39.412 104.728 37.502 102.318 37.3955Z" fill="#8B8B8B"/>
<path d="M101.9 36.9761C99.5212 36.8706 97.1244 36.2278 94.9666 35.1158C93.7248 34.476 92.7914 33.6247 92.4278 32.8103C92.4288 32.7949 92.4293 32.7824 92.4303 32.777C92.9881 30.9794 92.4268 29.0211 91.0017 27.7933C89.5766 26.5659 87.5604 26.3012 85.868 27.1216C85.643 27.2306 85.3454 27.3301 84.9833 27.4176C84.7757 27.4679 84.572 27.5316 84.3733 27.6097C84.342 27.6221 84.1662 27.6833 83.8061 27.6833C83.5582 27.6833 83.2875 27.6549 83.0009 27.5982C82.8737 27.5733 82.745 27.5534 82.6159 27.5385C81.4868 27.4116 80.625 26.7594 80.0547 25.6002C79.0648 23.5907 76.8007 22.5533 74.6359 23.117C73.1666 23.4996 72.0166 24.5469 71.4638 25.8798C71.4459 25.9141 71.4295 25.9479 71.4146 25.9783C70.2945 28.2579 69.1644 30.6296 67.6215 31.8844C66.6971 32.6362 65.956 33.0581 65.4071 33.1441C65.3157 33.1586 65.2343 33.1665 65.1712 33.1665C65.0251 33.1665 64.7564 33.0999 63.8156 32.562C63.8017 32.5536 63.7868 32.5456 63.7719 32.5377C63.5071 32.3909 63.228 32.272 62.9403 32.1779C63.1043 31.2162 62.9692 30.2107 62.5266 29.3052C61.8222 27.8644 60.4383 26.8843 58.8582 26.6922C58.817 26.6828 58.7757 26.6733 58.734 26.6649C58.284 26.532 57.8672 26.4469 57.4867 26.3853C57.4584 26.3783 57.4306 26.3713 57.4023 26.3644C57.3953 26.3624 57.368 26.3529 57.3422 26.3365C57.2513 26.2783 57.1594 26.2231 57.065 26.1708C56.4997 25.8589 55.9076 25.3633 55.2286 24.626C53.1354 22.3533 52.0346 19.7095 52.2641 17.5721C52.4509 15.8332 51.6635 14.1332 50.2181 13.1531C49.1734 12.4446 47.9097 12.1953 46.7057 12.4202C46.6739 12.3943 46.6446 12.3695 46.6182 12.3461C45.5786 11.4117 44.7103 9.49179 44.2369 7.0773C43.772 4.70858 41.6027 3.07321 39.1981 3.28018C36.7969 3.48865 34.9386 5.47626 34.8884 7.88975C34.8382 10.2863 34.2556 12.7063 33.2035 14.8874C32.5935 16.1532 31.766 17.1109 30.9627 17.4925C29.1621 16.9716 27.2243 17.5676 26.0257 19.0114C24.8251 20.4572 24.5951 22.4782 25.4391 24.1583C25.5633 24.4056 25.6721 24.7086 25.7734 25.0852C25.829 25.2942 25.8991 25.4992 25.983 25.6987C26.0332 25.8176 26.1345 26.2982 26.0039 27.0828C25.983 27.2062 25.9671 27.3306 25.9572 27.4549C25.8588 28.5903 25.2374 29.4654 24.1083 30.0555C22.1592 31.0739 21.1707 33.3058 21.7245 35.4367C22.1189 36.9542 23.2212 38.1343 24.617 38.6657C24.6379 38.6751 24.6592 38.6846 24.6806 38.694C26.9954 39.7423 29.3826 40.8329 30.702 42.3757C31.4535 43.2543 31.8916 43.9768 31.992 44.529C32.0496 44.8499 32.072 44.9698 31.4471 46.1539C31.4168 46.2116 31.3875 46.2693 31.3591 46.3286C31.3358 46.3788 31.3124 46.4296 31.2906 46.4803C31.0229 46.232 30.7442 45.9788 30.4437 45.7206C30.4208 45.7012 30.397 45.6808 30.3731 45.6609C29.5063 44.937 28.4021 44.5464 27.275 44.5464C24.7466 44.5464 22.5988 46.5256 22.3738 49.05C22.3693 49.1008 22.3653 49.151 22.3628 49.2013C22.2898 50.5346 22.2074 50.6267 21.9898 50.8734C21.6326 51.2779 20.8806 51.677 19.746 52.0551C19.0109 52.3004 18.1163 52.4198 17.0101 52.4198C15.6922 52.4198 14.2298 52.2486 12.8161 52.0829L12.68 52.0665C12.6473 52.0625 12.6145 52.0595 12.5812 52.0561C11.1586 51.8163 9.65991 52.2367 8.55618 53.281C6.93882 54.8124 6.60899 57.2671 7.76488 59.1717C8.43199 60.2717 8.51842 61.3394 8.0207 62.3469C7.9591 62.4703 7.90347 62.5971 7.8533 62.726C7.57215 63.4474 7.24778 63.7957 7.14695 63.8693C6.96266 64.0026 6.78781 64.1499 6.62439 64.3086C6.36956 64.5564 6.13362 64.7489 5.92151 64.8793C4.31607 65.8674 3.43835 67.7132 3.70857 69.5814C3.97929 71.4486 5.32047 72.9715 7.13999 73.4621C7.14645 73.4646 7.15539 73.4686 7.16433 73.4735C7.65858 74.2313 7.87565 75.486 7.74948 76.8741C7.52496 79.2717 6.7744 81.6404 5.57926 83.7235C4.37916 85.8156 4.94444 88.4769 6.89113 89.8978C7.72663 90.5078 8.70073 90.8048 9.66886 90.8048C10.9574 90.8048 12.2355 90.2779 13.1609 89.2595C14.8041 87.452 16.5193 86.239 17.8878 85.9863C17.9394 85.9768 17.9906 85.9704 18.0403 85.9634C18.9528 86.7754 20.1608 87.2157 21.4171 87.1505C23.1641 87.061 24.7183 86.0107 25.455 84.4216C26.1196 82.9872 27.5398 81.7011 29.4214 80.7772C31.4625 83.3678 34.6559 84.7942 37.9895 84.6882C39.1052 84.6529 40.2034 84.4823 41.252 84.133C44.0268 83.2111 46.2755 81.2618 47.5844 78.6448C47.7846 78.2443 47.9594 77.8348 48.1084 77.4194C50.9189 77.8244 53.8412 77.5741 56.5896 76.6652C59.6694 75.6427 62.3855 73.8377 64.508 71.4859C66.7756 73.1302 69.5489 74.0731 72.4935 74.0731C73.9529 74.0731 75.3994 73.8372 76.7882 73.374C83.8677 71.0207 87.7441 63.3743 85.4845 56.2721C87.6031 54.6726 89.9049 53.873 91.799 54.1273C93.5341 54.3606 95.2577 53.6128 96.2735 52.1829C97.0032 51.1565 97.2819 49.8993 97.0882 48.6918C97.1001 48.6784 97.1125 48.6649 97.1249 48.6525C97.1368 48.6401 97.1493 48.6271 97.1612 48.6137C98.1129 47.5853 100.061 46.7704 102.483 46.3579C104.861 45.9529 106.551 43.8166 106.402 41.405C106.251 38.9935 104.31 37.083 101.9 36.9761Z" fill="#7D7D7D"/>
<path d="M101.481 36.5577C99.1023 36.4522 96.7051 35.8089 94.5483 34.6974C93.3065 34.0576 92.3731 33.2063 92.009 32.3924C92.01 32.377 92.011 32.3645 92.012 32.3595C92.5693 30.561 92.008 28.6037 90.5829 27.3758C89.1582 26.1479 87.142 25.8837 85.4497 26.7037C85.2246 26.8126 84.9266 26.9121 84.565 26.9997C84.3578 27.0499 84.1537 27.1141 83.955 27.1917C83.9237 27.2037 83.7478 27.2654 83.3872 27.2654C83.1394 27.2654 82.8691 27.237 82.583 27.1803C82.4554 27.1554 82.3267 27.1355 82.198 27.1206C81.069 26.9932 80.2066 26.341 79.6359 25.1827C78.6459 23.1727 76.3823 22.1354 74.2171 22.6991C72.7482 23.0817 71.5983 24.129 71.0449 25.4618C71.027 25.4962 71.0107 25.53 70.9958 25.5609C69.8895 27.8475 68.7456 30.2117 67.2027 31.4665C66.2783 32.2182 65.5372 32.6416 64.9883 32.7262C64.8969 32.7406 64.8154 32.7481 64.7523 32.7481C64.6063 32.7481 64.3405 32.675 63.3968 32.1436C63.3824 32.1357 63.3679 32.1272 63.3535 32.1192C63.0878 31.974 62.8091 31.8531 62.522 31.759C62.6854 30.7968 62.5508 29.7918 62.1082 28.8868C61.4039 27.446 60.02 26.4659 58.4394 26.2738C58.3981 26.2639 58.3569 26.2549 58.3147 26.2464C57.8647 26.1141 57.4479 26.0285 57.0674 25.9673C57.0396 25.9599 57.0113 25.9529 56.9835 25.9464C56.976 25.9444 56.9492 25.935 56.9229 25.9181C56.8324 25.8599 56.7401 25.8046 56.6462 25.7524C56.0809 25.441 55.4883 24.9454 54.8098 24.2081C52.7165 21.9349 51.6158 19.291 51.8453 17.1537C52.032 15.4148 51.2452 13.7153 49.7992 12.7347C48.7546 12.0262 47.4909 11.7769 46.2873 12.0018C46.2555 11.9764 46.2257 11.9511 46.1994 11.9277C45.1573 10.9963 44.2915 9.07287 43.8181 6.65888C43.3531 4.29016 41.1839 2.65479 38.7797 2.86176C36.378 3.07023 34.5198 5.05784 34.4696 7.47134C34.4194 9.86791 33.8372 12.2874 32.7852 14.469C32.1752 15.7342 31.3476 16.692 30.5439 17.0741C28.7433 16.5537 26.8055 17.1492 25.6069 18.593C24.4063 20.0393 24.1763 22.0603 25.0203 23.7394C25.1444 23.9872 25.2537 24.2897 25.3546 24.6673C25.4102 24.8758 25.4807 25.0812 25.5647 25.2803C25.6148 25.3992 25.7162 25.8803 25.5855 26.6644C25.5652 26.7878 25.5493 26.9121 25.5384 27.0365C25.441 28.1719 24.8186 29.047 23.6895 29.6366C21.7403 30.655 20.7518 32.8874 21.3062 35.0178C21.7001 36.5358 22.8029 37.7159 24.1987 38.2468C24.2195 38.2562 24.2404 38.2652 24.2618 38.2746C26.5815 39.312 28.9638 40.414 30.2831 41.9563C31.0347 42.8349 31.4728 43.5573 31.5731 44.1096C31.6308 44.4305 31.6531 44.5499 31.0282 45.7345C30.9979 45.7922 30.9686 45.8499 30.9408 45.9091C30.917 45.9594 30.8936 46.0101 30.8723 46.0604C30.604 45.8121 30.3259 45.5589 30.0253 45.3012C30.002 45.2813 29.9781 45.2614 29.9548 45.2415C29.0855 44.5201 27.9838 44.1265 26.8567 44.1265C24.3283 44.1265 22.1869 46.1062 21.9554 48.6301C21.951 48.6804 21.9475 48.7311 21.9445 48.7814C21.8715 50.1147 21.7885 50.2063 21.571 50.4535C21.2143 50.8585 20.4618 51.257 19.3272 51.6352C18.5921 51.8809 17.6974 52.0003 16.5917 52.0003C15.2744 52.0003 13.812 51.8287 12.3978 51.663L12.2617 51.6471C12.2289 51.6431 12.1961 51.6401 12.1634 51.6367C10.7407 51.3968 9.24257 51.8177 8.13834 52.8621C6.52048 54.3929 6.19115 56.8477 7.34704 58.7533C8.01415 59.8528 8.10059 60.921 7.60286 61.928C7.54176 62.0518 7.48613 62.1782 7.43596 62.3076C7.15531 63.0285 6.83094 63.3768 6.72961 63.4504C6.54482 63.5842 6.37047 63.731 6.20704 63.8902C5.95272 64.1385 5.71627 64.33 5.50417 64.4604C3.89873 65.4484 3.02051 67.2943 3.29123 69.1625C3.56195 71.0302 4.90213 72.5531 6.72166 73.0437C6.72861 73.0462 6.73706 73.0496 6.7465 73.0541C7.24025 73.8119 7.45831 75.0671 7.33165 76.4552C7.10712 78.8528 6.35656 81.2215 5.16142 83.3051C3.96132 85.3967 4.5266 88.058 6.47329 89.4794C7.3088 90.0889 8.28289 90.3864 9.25102 90.3864C10.5395 90.3864 11.8176 89.86 12.743 88.8416C14.3857 87.0341 16.1009 85.8176 17.4694 85.5684C17.5216 85.5589 17.5728 85.5525 17.6219 85.545C18.5344 86.3569 19.7425 86.7973 20.9982 86.7326C22.7452 86.6425 24.2995 85.5923 25.0362 84.0032C25.7008 82.5693 27.1214 81.2827 29.0031 80.3588C31.0436 82.9499 34.2376 84.3763 37.5707 84.2698C38.6863 84.2345 39.7851 84.0639 40.8332 83.7146C43.6075 82.7927 45.8567 80.8439 47.1651 78.2264C47.3657 77.8254 47.5401 77.4164 47.6896 77.001C50.5006 77.4065 53.4224 77.1557 56.1703 76.2467C59.2505 75.2243 61.9662 73.4198 64.0887 71.0675C66.3568 72.7118 69.1295 73.6551 72.0737 73.6551C73.5336 73.6551 74.98 73.4198 76.3684 72.9561C83.4483 70.6028 87.3248 62.9563 85.0647 55.8537C87.1832 54.2541 89.4851 53.4546 91.3791 53.7088C93.1142 53.9427 94.8379 53.1944 95.8532 51.765C96.5829 50.7381 96.8616 49.4809 96.6678 48.2734C96.6803 48.2599 96.6922 48.2465 96.7046 48.2336C96.7165 48.2211 96.7289 48.2082 96.7414 48.1953C97.7075 47.1793 99.6408 46.3519 102.062 45.939C104.441 45.5345 106.131 43.3976 105.982 40.9861C105.833 38.5741 103.891 36.6641 101.481 36.5577Z" fill="#6E6E6E"/>
<path d="M101.063 36.1382C98.6841 36.0328 96.2874 35.3895 94.1301 34.278C92.8882 33.6382 91.9549 32.7869 91.5908 31.973C91.5918 31.9575 91.5928 31.9451 91.5938 31.9401C92.1511 30.1421 91.5898 28.1843 90.1652 26.9559C88.74 25.728 86.7238 25.4638 85.0314 26.2838C84.8064 26.3927 84.5084 26.4922 84.1468 26.5798C83.9391 26.63 83.7355 26.6937 83.5368 26.7718C83.5055 26.7843 83.3301 26.8455 82.9695 26.8455C82.7216 26.8455 82.4514 26.8171 82.1648 26.7604C82.0371 26.735 81.9085 26.7156 81.7793 26.7007C80.6503 26.5733 79.7884 25.9211 79.2177 24.7623C78.2277 22.7523 75.9641 21.7155 73.7988 22.2787C72.3295 22.6608 71.1796 23.7081 70.6267 25.0414C70.6093 25.0763 70.5929 25.1096 70.5775 25.1404C69.4713 27.4271 68.3273 29.7913 66.7845 31.0461C65.8601 31.7978 65.119 32.2212 64.5701 32.3063C64.4787 32.3207 64.3972 32.3282 64.3341 32.3282C64.1881 32.3282 63.9223 32.2551 62.9785 31.7237C62.9641 31.7152 62.9497 31.7073 62.9348 31.6993C62.6696 31.5535 62.3909 31.4331 62.1038 31.3391C62.2672 30.3769 62.1326 29.3719 61.69 28.4664C60.9852 27.0251 59.6018 26.0454 58.0216 25.8534C57.9804 25.8435 57.9392 25.8345 57.8975 25.826C57.4469 25.6937 57.0307 25.6081 56.6497 25.5469C56.6214 25.5395 56.5935 25.533 56.5657 25.526C56.5583 25.524 56.5315 25.5151 56.5051 25.4977C56.4147 25.4395 56.3223 25.3842 56.2284 25.3325C55.6632 25.021 55.0731 24.523 54.392 23.7877C52.3063 21.5075 51.198 18.8706 51.4275 16.7338C51.6143 14.9949 50.8275 13.2949 49.3815 12.3147C48.3369 11.6063 47.0732 11.357 45.8696 11.5819C45.8378 11.5565 45.8085 11.5311 45.7817 11.5078C44.742 10.5739 43.8737 8.65346 43.4004 6.23947C42.9359 3.87075 40.7667 2.23538 38.3625 2.44235C35.9613 2.65082 34.103 4.63843 34.0524 7.05242C34.0022 9.449 33.4195 11.8685 32.3679 14.0501C31.758 15.3153 30.9299 16.2731 30.1267 16.6547C28.326 16.1342 26.3883 16.7303 25.1897 18.1741C23.9891 19.6199 23.7591 21.6409 24.603 23.3205C24.7272 23.5678 24.8365 23.8708 24.9373 24.2479C24.993 24.4569 25.0635 24.6618 25.147 24.8608C25.1971 24.9802 25.2985 25.4609 25.1678 26.245C25.147 26.3683 25.1316 26.4927 25.1206 26.6171C25.0228 27.7525 24.4009 28.6271 23.2718 29.2172C21.3226 30.2356 20.3341 32.4675 20.8885 34.5984C21.2829 36.1159 22.3851 37.296 23.7809 37.8268C23.8018 37.8363 23.8232 37.8457 23.844 37.8552C26.1593 38.904 28.5525 39.9886 29.8654 41.5369C30.6209 42.4125 31.0551 43.1379 31.1554 43.6907C31.2135 44.0111 31.2354 44.131 30.6105 45.3156C30.5797 45.3733 30.5509 45.4315 30.5231 45.4902C30.4992 45.5405 30.4764 45.5907 30.4545 45.6415C30.1868 45.3932 29.9081 45.14 29.6076 44.8822C29.5843 44.8623 29.5609 44.8424 29.5371 44.8225C28.6663 44.1036 27.566 43.7076 26.439 43.7076C23.9106 43.7076 21.7578 45.6863 21.5377 48.2112C21.5327 48.2619 21.5293 48.3122 21.5268 48.3624C21.4538 49.6963 21.3718 49.7883 21.1532 50.0346C20.7976 50.4411 20.044 50.8381 18.9095 51.2162C18.1738 51.4615 17.2792 51.5809 16.174 51.5809C14.8562 51.5809 13.3938 51.4098 11.9801 51.2441L11.844 51.2277C11.8112 51.2242 11.7784 51.2207 11.7456 51.2172C10.3225 50.9774 8.82435 51.3983 7.72061 52.4426C6.10276 53.9735 5.77293 56.4283 6.92932 58.3333C7.59643 59.4329 7.68286 60.5011 7.18514 61.508C7.12404 61.6319 7.0684 61.7583 7.01774 61.8872C6.73708 62.6081 6.41272 62.9568 6.31188 63.03C6.1271 63.1633 5.95274 63.3106 5.78932 63.4693C5.5345 63.7171 5.29855 63.9091 5.08644 64.0395C3.48101 65.028 2.60279 66.8739 2.87351 68.7416C3.14422 70.6093 4.4849 72.1322 6.30443 72.6223C6.31139 72.6247 6.31983 72.6287 6.32927 72.6332C6.82302 73.3909 7.04059 74.6462 6.91392 76.0343C6.6894 78.4319 5.93933 80.8006 4.7437 82.8837C3.5436 84.9758 4.10888 87.6371 6.05507 89.058C6.89057 89.668 7.86467 89.965 8.8328 89.965C10.1213 89.965 11.3994 89.4381 12.3248 88.4202C13.9675 86.6122 15.6877 85.4221 17.0512 85.147C17.1039 85.138 17.1545 85.1305 17.2037 85.1236C18.1162 85.9355 19.3243 86.3758 20.58 86.3112C22.327 86.2211 23.8813 85.1708 24.6184 83.5817C25.2831 82.1479 26.7032 80.8613 28.5848 79.9379C30.6254 82.5285 33.8214 84.0042 37.153 83.8484C38.2691 83.8295 39.3674 83.6424 40.4155 83.2932C43.1902 82.3713 45.4389 80.422 46.7478 77.805C46.9485 77.404 47.1229 76.995 47.2719 76.5791C50.0824 76.9846 53.0047 76.7343 55.7531 75.8253C58.8333 74.8029 61.5489 72.9979 63.6715 70.6461C65.9391 72.2904 68.7123 73.2337 71.6564 73.2337C73.1158 73.2337 74.5628 72.9979 75.9512 72.5347C83.0311 70.1814 86.9076 62.5354 84.6475 55.4328C86.766 53.8332 89.0679 53.0337 90.9619 53.2874C92.6965 53.5213 94.4202 52.773 95.436 51.3436C96.1657 50.3167 96.4443 49.0595 96.2501 47.8525C96.2625 47.839 96.275 47.8256 96.2869 47.8127C96.2993 47.7997 96.3112 47.7868 96.3236 47.7739C97.2843 46.7524 99.2236 45.9305 101.645 45.5181C104.023 45.1131 105.714 42.9767 105.564 40.5652C105.415 38.1552 103.473 36.2452 101.063 36.1382Z" fill="#606060"/>
<path d="M101.063 36.1382C98.6841 36.0328 96.2874 35.3895 94.1301 34.278C92.8882 33.6382 91.9549 32.7869 91.5908 31.973C91.5918 31.9575 91.5928 31.9451 91.5938 31.9401C92.1511 30.1421 91.5898 28.1843 90.1652 26.9559C88.74 25.728 86.7238 25.4638 85.0314 26.2838C84.8064 26.3927 84.5084 26.4922 84.1468 26.5798C83.9391 26.63 83.7355 26.6937 83.5368 26.7718C83.5055 26.7843 83.3301 26.8455 82.9695 26.8455C82.7216 26.8455 82.4514 26.8171 82.1648 26.7604C82.0371 26.735 81.9085 26.7156 81.7793 26.7007C80.6503 26.5733 79.7884 25.9211 79.2177 24.7623C78.2277 22.7523 75.9641 21.7155 73.7988 22.2787C72.3295 22.6608 71.1796 23.7081 70.6267 25.0414C70.6093 25.0763 70.5929 25.1096 70.5775 25.1404C69.4713 27.4271 68.3273 29.7913 66.7845 31.0461C65.8601 31.7978 65.119 32.2212 64.5701 32.3063C64.4787 32.3207 64.3972 32.3282 64.3341 32.3282C64.1881 32.3282 63.9223 32.2551 62.9785 31.7237C62.9641 31.7152 62.9497 31.7073 62.9348 31.6993C62.6696 31.5535 62.3909 31.4331 62.1038 31.3391C62.2672 30.3769 62.1326 29.3719 61.69 28.4664C60.9852 27.0251 59.6018 26.0454 58.0216 25.8534C57.9804 25.8435 57.9392 25.8345 57.8975 25.826C57.4469 25.6937 57.0307 25.6081 56.6497 25.5469C56.6214 25.5395 56.5935 25.533 56.5657 25.526C56.5583 25.524 56.5315 25.5151 56.5051 25.4977C56.4147 25.4395 56.3223 25.3842 56.2284 25.3325C55.6632 25.021 55.0731 24.523 54.392 23.7877C52.3063 21.5075 51.198 18.8706 51.4275 16.7338C51.6143 14.9949 50.8275 13.2949 49.3815 12.3147C48.3369 11.6063 47.0732 11.357 45.8696 11.5819C45.8378 11.5565 45.8085 11.5311 45.7817 11.5078C44.742 10.5739 43.8737 8.65346 43.4004 6.23947C42.9359 3.87075 40.7667 2.23538 38.3625 2.44235C35.9613 2.65082 34.103 4.63843 34.0524 7.05242C34.0022 9.449 33.4195 11.8685 32.3679 14.0501C31.758 15.3153 30.9299 16.2731 30.1267 16.6547C28.326 16.1342 26.3883 16.7303 25.1897 18.1741C23.9891 19.6199 23.7591 21.6409 24.603 23.3205C24.7272 23.5678 24.8365 23.8708 24.9373 24.2479C24.993 24.4569 25.0635 24.6618 25.147 24.8608C25.1971 24.9802 25.2985 25.4609 25.1678 26.245C25.147 26.3683 25.1316 26.4927 25.1206 26.6171C25.0228 27.7525 24.4009 28.6271 23.2718 29.2172C21.3226 30.2356 20.3341 32.4675 20.8885 34.5984C21.2829 36.1159 22.3851 37.296 23.7809 37.8268C23.8018 37.8363 23.8232 37.8457 23.844 37.8552C26.1593 38.904 28.5525 39.9886 29.8654 41.5369C30.6209 42.4125 31.0551 43.1379 31.1554 43.6907C31.2135 44.0111 31.2354 44.131 30.6105 45.3156C30.5797 45.3733 30.5509 45.4315 30.5231 45.4902C30.4992 45.5405 30.4764 45.5907 30.4545 45.6415C30.1868 45.3932 29.9081 45.14 29.6076 44.8822C29.5843 44.8623 29.5609 44.8424 29.5371 44.8225C28.6663 44.1036 27.566 43.7076 26.439 43.7076C23.9106 43.7076 21.7578 45.6863 21.5377 48.2112C21.5327 48.2619 21.5293 48.3122 21.5268 48.3624C21.4538 49.6963 21.3718 49.7883 21.1532 50.0346C20.7976 50.4411 20.044 50.8381 18.9095 51.2162C18.1738 51.4615 17.2792 51.5809 16.174 51.5809C14.8562 51.5809 13.3938 51.4098 11.9801 51.2441L11.844 51.2277C11.8112 51.2242 11.7784 51.2207 11.7456 51.2172C10.3225 50.9774 8.82435 51.3983 7.72061 52.4426C6.10276 53.9735 5.77293 56.4283 6.92932 58.3333C7.59643 59.4329 7.68286 60.5011 7.18514 61.508C7.12404 61.6319 7.0684 61.7583 7.01774 61.8872C6.73708 62.6081 6.41272 62.9568 6.31188 63.03C6.1271 63.1633 5.95274 63.3106 5.78932 63.4693C5.5345 63.7171 5.29855 63.9091 5.08644 64.0395C3.48101 65.028 2.60279 66.8739 2.87351 68.7416C3.14422 70.6093 4.4849 72.1322 6.30443 72.6223C6.31139 72.6247 6.31983 72.6287 6.32927 72.6332C6.82302 73.3909 7.04059 74.6462 6.91392 76.0343C6.6894 78.4319 5.93933 80.8006 4.7437 82.8837C3.5436 84.9758 4.10888 87.6371 6.05507 89.058C6.89057 89.668 7.86467 89.965 8.8328 89.965C10.1213 89.965 11.3994 89.4381 12.3248 88.4202C13.9675 86.6122 15.6877 85.4221 17.0512 85.147C17.1039 85.138 17.1545 85.1305 17.2037 85.1236C18.1162 85.9355 19.3243 86.3758 20.58 86.3112C22.327 86.2211 23.8813 85.1708 24.6184 83.5817C25.2831 82.1479 26.7032 80.8613 28.5848 79.9379C30.6254 82.5285 33.8214 84.0042 37.153 83.8484C38.2691 83.8295 39.3674 83.6424 40.4155 83.2932C43.1902 82.3713 45.4389 80.422 46.7478 77.805C46.9485 77.404 47.1229 76.995 47.2719 76.5791C50.0824 76.9846 53.0047 76.7343 55.7531 75.8253C58.8333 74.8029 61.5489 72.9979 63.6715 70.6461C65.9391 72.2904 68.7123 73.2337 71.6564 73.2337C73.1158 73.2337 74.5628 72.9979 75.9512 72.5347C83.0311 70.1814 86.9076 62.5354 84.6475 55.4328C86.766 53.8332 89.0679 53.0337 90.9619 53.2874C92.6965 53.5213 94.4202 52.773 95.436 51.3436C96.1657 50.3167 96.4443 49.0595 96.2501 47.8525C96.2625 47.839 96.275 47.8256 96.2869 47.8127C96.2993 47.7997 96.3112 47.7868 96.3236 47.7739C97.2843 46.7524 99.2236 45.9305 101.645 45.5181C104.023 45.1131 105.714 42.9767 105.564 40.5652C105.415 38.1552 103.473 36.2452 101.063 36.1382Z" fill="white"/>
<path d="M87.0868 30.5381C86.5086 30.8182 85.8847 31.0217 85.2534 31.1744C84.0742 31.6356 82.659 31.6754 81.2517 31.3973C78.3791 31.0734 76.2069 29.3321 74.986 26.8539C74.9894 26.9226 74.986 26.9947 74.9934 27.0654C74.9323 27.0783 74.8752 27.1087 74.8449 27.1604C73.5405 29.856 72.1293 32.7884 69.7593 34.7158C68.4659 35.7676 66.9781 36.7164 65.3042 36.9756C63.4553 37.2671 62.2344 36.7263 60.6672 35.8442C60.5529 35.7815 60.3552 35.8556 60.3701 36.0084C60.6364 37.9149 61.226 39.7483 60.8798 41.6991C60.5638 43.4101 59.8143 45.2385 58.6768 46.6828C58.6768 46.7534 58.6847 46.8485 58.6539 46.8962C58.3459 47.4584 58.0419 47.7838 57.4409 47.9992C57.4409 47.9992 57.4409 48.0167 57.4369 48.0167C57.429 48.0246 57.4369 48.0246 57.429 48.0361C57.418 48.0321 57.4066 48.0321 57.3947 48.0361V48.04C57.3793 48.04 57.3793 48.0361 57.3793 48.0361C56.0252 47.8987 54.4352 48.7445 53.5828 49.9391C52.3087 50.0321 50.9541 50.4555 50.2239 51.459C48.4242 53.9765 51.0683 57.7537 54.0696 56.6945C54.3473 56.6049 54.1873 56.2661 53.933 56.3099C50.6575 56.8129 47.8003 52.0864 51.7533 50.6535C52.2287 50.4839 52.784 50.3406 53.3776 50.259C52.9251 51.061 52.8029 51.976 53.2788 52.8272C54.3706 54.7611 57.6078 55.8681 58.3271 53.0427C58.7264 51.4844 56.212 50.0973 55.0173 49.954C54.8157 49.9296 54.614 49.9197 54.3934 49.9197C55.2573 48.8147 56.4628 48.4396 58.0494 48.4928C60.9443 50.2645 63.3753 52.0859 64.87 55.3323C66.1099 58.0204 65.931 60.4856 66.5515 63.2539C66.616 63.5952 67.0308 63.6504 67.2896 63.4996C68.442 61.5314 69.6635 59.8398 72.1054 58.8055C73.4521 58.2279 75.7082 58.0358 77.0206 58.9657C77.0474 58.794 77.0817 58.6209 77.112 58.4493L77.1348 58.4607C77.1348 58.4323 77.1239 58.396 77.1348 58.3711C77.3097 57.9219 77.3822 57.5159 77.4547 57.0338C77.4622 57.0049 77.485 57.0338 77.4885 57.0144C77.6216 56.5074 77.8501 55.9935 78.1849 55.494C78.8386 54.3696 79.7218 53.4173 80.756 52.5128C83.7046 49.9446 87.676 48.0774 91.5907 48.6052C91.393 48.2127 91.3165 47.8032 91.3702 47.3629C91.1953 46.7534 91.5793 46.045 92.2106 45.3703C92.4083 45.0788 92.6408 44.7927 92.8882 44.536C94.8319 42.4687 97.921 41.3603 100.854 40.8607C97.7651 40.7239 94.6953 39.8851 91.9717 38.4816C89.8561 37.392 87.8856 35.6636 87.0794 33.3949C86.8092 32.6322 86.7898 31.4968 87.0868 30.5381ZM55.984 50.6814C56.6461 51.1157 58.1756 52.2969 57.578 53.3506C56.2428 55.6885 52.8804 52.8645 53.778 50.9252C53.9037 50.6625 54.0328 50.4242 54.1774 50.2107C54.8276 50.2187 55.4664 50.3481 55.984 50.6814Z" fill="#43AA00"/>
<path d="M81.4563 51.2035C84.1993 49.1517 87.3754 47.8602 90.7651 47.7761C89.9629 46.2865 92.1539 44.0422 93.2338 43.162C94.3753 42.2361 95.7826 41.5048 97.2738 40.9675C94.7061 40.5346 92.1534 39.4396 90.3121 38.1365C88.1587 36.6146 86.4584 33.825 86.8275 31.1602C83.4418 33.6747 76.3469 31.6936 75.3351 27.5731C73.8971 32.6961 69.4538 38.3027 63.6102 37.5917C63.1845 37.5425 61.0655 36.7325 61.0352 36.3743C61.1415 37.8908 61.7271 39.3067 61.7122 40.8804C61.7048 43.1287 60.3542 46.4721 58.2922 47.7771C58.3454 47.7965 58.3836 47.8094 58.4368 47.8398C62.804 44.1969 67.3536 41.9053 72.9458 40.749C78.5077 39.5888 84.3662 39.1883 89.9316 40.5585C90.2013 40.6311 90.0076 40.9451 89.7721 40.9013C79.3293 38.7545 67.6735 42.1207 59.0185 48.0701C61.7237 49.2055 63.7891 50.9757 65.4402 53.5285C67.1102 56.1345 67.445 58.9311 67.6884 61.8859C69.123 60.2819 70.2977 58.8361 72.5504 57.9863C73.7679 57.5271 75.2934 57.3783 76.5635 57.8127C76.3897 55.2425 79.8514 52.4115 81.4563 51.2035Z" fill="#5CCC00"/>
<path d="M65.4413 53.5277C63.7901 50.9749 61.7247 49.2047 59.0195 48.0694C67.3244 42.3638 78.3946 39.0393 88.5021 40.6757C84.5118 40.4602 75.7509 40.308 65.1333 45.4116C61.2722 47.538 68.4083 49.2948 68.5036 57.9189C68.5036 57.9189 70.493 53.4934 74.3507 55.6422C72.4904 52.0491 80.8827 44.5544 88.7797 46.6539C87.212 43.0135 93.3526 40.8259 95.6426 40.9742C91.3856 40.5747 84.6564 36.7965 86.1242 32.5576C82.4687 35.9561 77.0936 33.4471 75.5984 29.7953C73.837 33.5655 70.3907 38.0826 66.1754 37.4975C70.733 36.5999 74.1112 31.9267 75.3362 27.5718C76.348 31.6924 83.4428 33.6735 86.8286 31.159C86.4595 33.8242 88.1603 36.6134 90.3131 38.1353C92.1545 39.4388 94.7072 40.5339 97.2748 40.9662C95.7836 41.5036 94.3764 42.2349 93.2349 43.1608C92.1545 44.0414 89.9639 46.2853 90.7662 47.7749C87.3765 47.8589 84.2003 49.1505 81.4574 51.2023C79.8525 52.4103 76.3902 55.2412 76.5651 57.8114C75.2949 57.3771 73.7695 57.5254 72.552 57.9851C70.2998 58.8348 69.1245 60.2807 67.69 61.8847C67.4461 58.9304 67.1113 56.1338 65.4413 53.5277Z" fill="#5DBA02"/>
<path d="M62.2189 43.0135C61.6904 45.2519 77.2535 34.5546 90.5902 40.4264C91.0204 40.7309 90.8073 40.7787 90.0538 40.7523C90.0841 40.6762 90.0538 40.5941 89.9321 40.5578C84.3667 39.1876 78.5082 39.5881 72.9463 40.7483C67.3541 41.9046 62.8045 44.1967 58.4373 47.839C58.3841 47.8087 58.3459 47.7953 58.2927 47.7763C60.3547 46.4713 61.7053 43.128 61.7127 40.8797C61.7276 39.306 61.1425 37.8905 61.0357 36.3736C61.0466 36.4422 61.1191 36.5223 61.2254 36.595C62.0743 38.3686 62.7554 40.6622 62.2189 43.0135Z" fill="#5CCC00"/>
<path d="M68.7012 40.8125C68.7012 40.8125 79.5657 37.7358 86.1548 39.2602C92.7663 40.7707 80.0371 34.0128 68.7012 40.8125Z" fill="#5DBA02"/>
<path d="M66.9513 41.9976C67.5106 41.8493 67.9174 41.5215 67.8454 41.2757C67.7808 41.0374 67.2752 40.9593 66.7044 41.1155C66.1486 41.2697 65.7378 41.5896 65.8103 41.8334C65.8709 42.0797 66.3845 42.1558 66.9513 41.9976Z" fill="#5DBA02"/>
<path d="M83.4954 34.0039C83.1035 34.0631 82.7006 34.1029 82.2968 34.1068C82.0877 34.1029 81.8979 34.0859 81.6809 34.0859C81.4906 34.0859 81.2855 34.0476 81.0878 34.0362C80.8821 34.0208 80.6844 33.9695 80.4902 33.9372C80.289 33.9009 80.0908 33.8402 79.8931 33.7924C79.6989 33.7506 79.5012 33.674 79.3109 33.6093C79.1167 33.5337 78.923 33.4725 78.7442 33.3735C78.5619 33.2814 78.3677 33.2004 78.1928 33.1033L77.6643 32.77C77.4969 32.6481 77.3523 32.5028 77.1849 32.3735C77.025 32.2536 76.8804 32.1048 76.7433 31.9431C76.6067 31.7869 76.4542 31.6406 76.336 31.4859L75.9823 30.9754C75.7389 30.6341 75.5904 30.2421 75.3892 29.8858L75.8189 29.8938C75.6212 30.2918 75.4156 30.654 75.2214 31.0426L74.5637 32.1555C74.3317 32.5212 74.0883 32.8794 73.8519 33.2377C73.601 33.5824 73.3273 33.9277 73.0606 34.2606C72.92 34.4302 72.7645 34.575 72.616 34.7273L72.159 35.1999C72.0105 35.3621 71.8317 35.48 71.6643 35.6263L71.166 36.0437C70.9986 36.1736 70.797 36.2626 70.6261 36.3865L70.0668 36.7179C69.6634 36.8915 69.2601 37.0432 68.8687 37.19L69.4389 36.891C69.6252 36.792 69.8234 36.7024 70.0022 36.6014L70.5113 36.2318C70.6827 36.1019 70.8576 35.984 71.0175 35.8467L71.4854 35.4198C71.6414 35.2671 71.8053 35.1437 71.9385 34.982L72.3532 34.5019C72.4898 34.3417 72.6384 34.1899 72.7645 34.0218L73.1405 33.5133C73.2662 33.3362 73.3919 33.1819 73.5171 33.0028C73.7376 32.6391 73.9696 32.2939 74.1906 31.9282L74.8066 30.8137C75.0083 30.4386 75.1871 30.054 75.3888 29.6804L75.6019 29.2978L75.8224 29.7013C76.0127 30.0401 76.1264 30.4097 76.3589 30.7301L76.6817 31.2142C76.7965 31.3724 76.9366 31.5058 77.0548 31.6545C77.18 31.8068 77.3131 31.9436 77.4696 32.07C77.6141 32.1839 77.7507 32.3197 77.9072 32.4411L78.394 32.771C78.5539 32.8775 78.7327 32.9561 78.9036 33.0625C79.071 33.1596 79.2424 33.2342 79.4326 33.3123C79.6075 33.3844 79.7903 33.4571 79.9805 33.5043C80.1628 33.575 80.3605 33.6362 80.5433 33.6755C80.7336 33.7178 80.9238 33.779 81.1181 33.8128C81.8979 33.9695 82.7006 34.0322 83.4954 34.0039Z" fill="white"/>
<path d="M88.9699 38.399C89.4229 38.6692 89.8983 38.9284 90.3776 39.1647C90.6175 39.2886 90.8495 39.403 91.0969 39.4965C91.3403 39.6184 91.5802 39.7363 91.8271 39.8354L92.5766 40.1155C92.8205 40.2075 93.0788 40.2886 93.3297 40.3672C93.5731 40.4568 93.8324 40.5344 94.0907 40.5941L94.8477 40.7886L95.4487 40.9274L94.8517 41.0971C94.4861 41.1996 94.1021 41.2951 93.733 41.4016C93.36 41.5389 92.98 41.6379 92.6263 41.7901L92.0819 42.0016L91.5608 42.2454C91.386 42.3275 91.2146 42.4304 91.0551 42.514C90.8838 42.6091 90.7203 42.7086 90.5644 42.8165C90.4084 42.925 90.2485 43.0319 90.1119 43.1613C89.9638 43.2792 89.8193 43.3976 89.6936 43.5499C89.5644 43.6832 89.4572 43.816 89.3474 43.9648C89.2257 44.1116 89.1611 44.2872 89.0657 44.4569C89.0051 44.6186 88.9177 44.7788 88.8949 44.9579C88.8452 45.137 88.8303 45.3161 88.8263 45.5012C88.8303 45.6843 88.8303 45.8634 88.868 46.044C88.8949 46.2156 88.9555 46.3927 89.0012 46.5639L89.108 46.9221L88.7463 46.8898L87.8333 46.7908C87.5174 46.7524 87.2055 46.7485 86.9089 46.7296C86.597 46.7107 86.2816 46.7186 85.9805 46.7201C85.6691 46.7106 85.3601 46.7296 85.0487 46.7524C84.7442 46.7679 84.4287 46.7962 84.1317 46.848C83.8237 46.8783 83.5118 46.9221 83.2187 46.9733C82.9073 47.0325 82.6062 47.0823 82.3057 47.1639C82.0052 47.234 81.7081 47.3067 81.4156 47.4077C81.1225 47.5027 80.822 47.5943 80.5443 47.7181C80.2552 47.8311 79.9552 47.945 79.6884 48.0858C79.4108 48.2177 79.1371 48.3604 78.8708 48.5127C78.5966 48.6629 78.3423 48.8366 78.0795 49.0097C77.8212 49.1644 77.5773 49.3719 77.3379 49.5605C77.0831 49.7475 76.8705 49.9625 76.6266 50.1684C76.3946 50.3704 76.2004 50.6142 75.9724 50.8466C75.7707 51.0675 75.573 51.3147 75.3713 51.5665C75.5581 51.2998 75.7404 51.0446 75.9272 50.7928C76.1249 50.555 76.3112 50.3053 76.5436 50.0784C76.7642 49.8595 76.9773 49.6212 77.2207 49.4247C77.4566 49.2152 77.6846 49.0097 77.9553 48.8226C78.2062 48.6211 78.461 48.4535 78.7273 48.2838C78.9895 48.1087 79.2747 47.9565 79.5642 47.8137C79.8379 47.6629 80.1236 47.5336 80.4201 47.4077C80.7052 47.2724 81.0018 47.1714 81.2988 47.0649C81.5959 46.939 81.9073 46.8609 82.2118 46.7848C82.5084 46.6878 82.8318 46.634 83.1362 46.5634C83.4442 46.5022 83.7641 46.4703 84.0795 46.4206C84.3915 46.3753 84.7149 46.3365 85.0194 46.3256C85.3348 46.2892 85.6582 46.2738 85.9741 46.2738C86.2865 46.2738 86.6099 46.2604 86.9253 46.2778C87.2293 46.2892 87.5527 46.2967 87.8686 46.3276L88.8164 46.4206L88.5576 46.7296C88.5039 46.5335 88.4279 46.337 88.4011 46.1256C88.3599 45.9141 88.3559 45.6952 88.3559 45.4778C88.3668 45.2743 88.3862 45.0663 88.4468 44.8564C88.4736 44.6434 88.5765 44.4564 88.6599 44.2598C88.7588 44.0772 88.8467 43.8758 88.9758 43.719C89.101 43.5454 89.2306 43.3817 89.3792 43.2389C89.5123 43.0842 89.6757 42.9533 89.8277 42.822C89.9877 42.6867 90.1665 42.5782 90.3225 42.4638C90.5013 42.3454 90.6573 42.2449 90.8401 42.1493C91.0224 42.0503 91.1898 41.9528 91.388 41.8653L91.9319 41.6254L92.4872 41.4065C92.8637 41.2692 93.2482 41.1802 93.6168 41.0637C94.0162 40.9588 94.4006 40.8712 94.7846 40.7876L94.7921 41.0921L94.0087 40.8712C93.7425 40.81 93.4911 40.7229 93.2437 40.6219C92.9815 40.5249 92.7376 40.4369 92.4867 40.3398L91.7565 39.997C91.5087 39.8965 91.2767 39.7592 91.0258 39.6508C90.7894 39.5234 90.5574 39.3921 90.3294 39.2657C89.856 38.999 89.4075 38.7134 88.9699 38.399Z" fill="white"/>
<path d="M28.8182 21.1961C29.1073 21.7717 29.3239 22.3847 29.4952 23.0245C29.982 24.1812 30.0585 25.6081 29.8226 27.0236C29.5752 29.8968 27.8898 32.1352 25.4553 33.4078C25.5199 33.4058 25.5924 33.3999 25.653 33.3964C25.6759 33.4611 25.7062 33.5128 25.7633 33.5377C28.4834 34.77 31.4578 36.1134 33.4358 38.4473C34.5237 39.7085 35.4943 41.1717 35.7983 42.8479C36.1326 44.6957 35.6269 45.9226 34.783 47.5231C34.7293 47.6356 34.8133 47.8316 34.9653 47.8087C36.8518 47.4908 38.6704 46.8559 40.6295 47.153C42.3372 47.4251 44.1866 48.1281 45.6549 49.2296C45.7269 49.2296 45.8188 49.2162 45.864 49.2465C46.4343 49.5401 46.7691 49.8356 47.005 50.4262C47.013 50.4301 47.013 50.4376 47.0204 50.4376C47.0239 50.4376 47.0314 50.4471 47.0393 50.4471C47.0393 50.4605 47.0433 50.468 47.0393 50.4829C47.0473 50.4928 47.0393 50.4849 47.0473 50.4928C46.9444 51.8571 47.8157 53.4267 49.0332 54.2402C49.1623 55.5278 49.6154 56.8711 50.6347 57.5632C53.1988 59.3065 56.9074 56.5626 55.7699 53.5874C55.6715 53.3088 55.3402 53.4825 55.3859 53.7432C55.98 56.997 51.3231 59.9787 49.7977 56.0597C49.6154 55.5989 49.4594 55.0367 49.364 54.4462C50.1707 54.8745 51.0797 54.9681 51.9242 54.4765C53.8301 53.3392 54.8574 50.0665 52.0116 49.4127C50.4479 49.0625 49.1281 51.6153 49.0173 52.8093C48.9989 53.0133 48.9949 53.2193 48.987 53.4417C47.8723 52.5939 47.4735 51.4108 47.4735 49.8107C49.1738 46.8614 50.9277 44.3807 54.1346 42.8091C56.7936 41.4911 59.2515 41.6165 62.0053 40.9195C62.3401 40.8468 62.3784 40.4374 62.2264 40.1747C60.229 39.0771 58.5173 37.89 57.4101 35.4706C56.8095 34.1412 56.5582 31.8889 57.4523 30.5461C57.2928 30.5346 57.114 30.5043 56.9392 30.464L56.9501 30.456C56.9198 30.4451 56.8776 30.462 56.8552 30.456C56.4022 30.2903 55.9914 30.2182 55.5086 30.159C55.4818 30.159 55.5086 30.1276 55.4892 30.1276C54.987 30.0102 54.455 29.7963 53.9523 29.4729C52.8228 28.85 51.8447 27.9868 50.9128 26.9808C48.2692 24.0907 46.3136 20.1587 46.7358 16.2283C46.3479 16.4343 45.9331 16.5124 45.5034 16.478C44.8949 16.6721 44.1831 16.3089 43.4912 15.6929C43.1941 15.4914 42.905 15.27 42.6313 15.0263C40.5281 13.1367 39.3444 10.0769 38.7702 7.15043C38.7056 10.248 37.9521 13.3367 36.6174 16.1044C35.5822 18.2517 33.9201 20.2672 31.66 21.1344C30.9184 21.4319 29.7809 21.4762 28.8182 21.1961ZM49.7222 51.8242C50.1369 51.1555 51.2705 49.5913 52.3394 50.1555C54.7054 51.4416 51.9778 54.8745 50.0187 54.0248C49.745 53.9108 49.5125 53.7865 49.2999 53.6437C49.2776 52.9864 49.3948 52.3576 49.7222 51.8242Z" fill="#43AA00"/>
<path d="M49.5857 26.2997C47.4667 23.615 46.1011 20.4682 45.9337 17.0785C44.4654 17.9283 42.1596 15.7716 41.2545 14.7178C40.3073 13.6033 39.5423 12.2033 38.9641 10.7306C38.603 13.3023 37.5757 15.8934 36.3165 17.7736C34.8596 19.9647 32.1092 21.7364 29.4428 21.4394C32.0446 24.7693 30.2489 31.9232 26.1633 33.0377C31.3065 34.3486 37.0124 38.6577 36.4606 44.5181C36.4193 44.9504 35.6618 47.1012 35.3042 47.1336C36.8227 46.9853 38.2185 46.3659 39.7857 46.337C42.0304 46.2952 45.4122 47.5619 46.7623 49.5913C46.7702 49.5321 46.7931 49.4918 46.812 49.4465C43.0765 45.1698 40.6644 40.6622 39.3635 35.0974C38.07 29.5575 37.5186 23.6931 38.747 18.0885C38.8081 17.8214 39.1315 18.0064 39.0893 18.2388C37.2141 28.7515 40.8696 40.3398 47.0246 48.8545C48.1015 46.1111 49.8172 44.0061 52.3163 42.2931C54.869 40.5384 57.669 40.1329 60.6057 39.8179C58.962 38.4139 57.4972 37.2786 56.5886 35.0417C56.1018 33.8476 55.9156 32.3177 56.3105 31.0406C53.7434 31.2774 50.841 27.8923 49.5857 26.2997Z" fill="#5CCC00"/>
<path d="M52.3165 42.2934C49.817 44.0064 48.1013 46.1114 47.0248 48.8547C41.1286 40.6854 37.5184 29.6891 38.8993 19.5306C38.7925 23.5217 38.8536 32.2951 44.2253 42.7944C46.4427 46.6124 48.0103 39.4261 56.6227 39.1057C56.6227 39.1057 52.1491 37.2316 54.1991 33.3111C50.6574 35.2673 42.9655 27.0467 44.8561 19.0893C41.2692 20.762 38.9251 14.6638 39.0205 12.3618C38.7274 16.6464 35.1251 23.4745 30.8647 22.1048C34.3448 25.6865 31.9754 31.1234 28.3691 32.7185C32.1765 34.3837 36.7763 37.7211 36.3044 41.9605C35.2886 37.4166 30.5299 34.1514 26.1626 33.0384C30.2482 31.924 32.0434 24.77 29.442 21.4401C32.1085 21.7376 34.8589 19.9659 36.3158 17.7743C37.575 15.8942 38.6023 13.3031 38.9634 10.7314C39.5416 12.204 40.3065 13.6041 41.2538 14.7185C42.1589 15.7723 44.4647 17.9291 45.933 17.0793C46.1004 20.4689 47.4659 23.6158 49.585 26.3004C50.8402 27.893 53.7426 31.2782 56.3102 31.0418C55.9148 32.3185 56.1011 33.8484 56.5884 35.0429C57.4974 37.2798 58.9618 38.4152 60.6055 39.8192C57.6693 40.1326 54.8692 40.5386 52.3165 42.2934Z" fill="#5DBA02"/>
<path d="M41.912 45.7778C44.1453 46.2485 33.0791 30.9461 38.5913 17.4427C38.8913 17.0004 38.9375 17.2104 38.9375 17.9706C38.865 17.9403 38.7776 17.9651 38.7473 18.089C37.5189 23.6936 38.0702 29.558 39.3637 35.0979C40.6647 40.6632 43.0768 45.1703 46.8122 49.447C46.7933 49.4928 46.7705 49.5326 46.7626 49.5918C45.4124 47.5624 42.0302 46.2957 39.786 46.3375C38.2188 46.3664 36.823 46.9858 35.3044 47.134C35.3621 47.1226 35.4455 47.047 35.5255 46.9345C37.271 46.029 39.5421 45.3071 41.912 45.7778Z" fill="#5CCC00"/>
<path d="M39.5421 39.3443C39.5421 39.3443 36.1947 28.54 37.5448 21.9085C38.8914 15.2536 32.4702 28.1664 39.5421 39.3443Z" fill="#5DBA02"/>
<path d="M40.7669 41.0737C40.6109 40.516 40.2721 40.1155 40.0287 40.1821C39.7779 40.2602 39.7243 40.7707 39.8956 41.3344C40.059 41.8946 40.3978 42.2872 40.6298 42.2125C40.8772 42.1464 40.9417 41.6344 40.7669 41.0737Z" fill="#5DBA02"/>
<path d="M32.3678 24.7046C32.4364 25.0892 32.4816 25.5066 32.4935 25.9051C32.5049 26.1071 32.4935 26.3052 32.4935 26.5091C32.5009 26.7166 32.4706 26.9131 32.4627 27.1191C32.4518 27.3166 32.41 27.5251 32.3792 27.7246C32.3489 27.9286 32.2878 28.1251 32.2501 28.3211C32.2079 28.5206 32.1512 28.7211 32.0787 28.9097C32.0141 29.1062 31.961 29.2968 31.8582 29.4759C31.7707 29.6659 31.7057 29.8625 31.5959 30.0391L31.2879 30.5744C31.1697 30.7366 31.0331 30.8983 30.9034 31.068C30.7852 31.2297 30.6407 31.3784 30.4922 31.5098C30.3327 31.6645 30.1956 31.8128 30.0362 31.9426L29.53 32.3063C29.2026 32.558 28.8187 32.7237 28.457 32.9257L28.4685 32.4993C28.8524 32.6804 29.2324 32.8785 29.6174 33.063L30.747 33.6994C31.1195 33.9148 31.4886 34.1546 31.8542 34.3775C32.2004 34.6248 32.5546 34.8914 32.8849 35.1452C33.0603 35.282 33.2123 35.4402 33.3717 35.5895L33.8585 36.0238C34.0145 36.1726 34.1327 36.3497 34.2807 36.5059L34.7109 36.994C34.8515 37.1557 34.9503 37.3636 35.0725 37.5293L35.4148 38.0875C35.605 38.4741 35.7535 38.8821 35.9209 39.2707L35.6164 38.709C35.5062 38.5259 35.4227 38.3298 35.3045 38.1487L34.9205 37.6512C34.7839 37.4875 34.6657 37.3024 34.5326 37.1507L34.084 36.6915C33.9315 36.5467 33.8063 36.3771 33.6389 36.2492L33.1521 35.8452C32.9882 35.7198 32.8367 35.5671 32.6539 35.4546L32.1438 35.0909C31.965 34.971 31.7976 34.8452 31.6187 34.7273C31.2536 34.5083 30.892 34.2924 30.5344 34.0755L29.4123 33.4884C29.0283 33.2904 28.6478 33.1208 28.2633 32.9247L27.8679 32.7287L28.2713 32.4983C28.6021 32.3073 28.9672 32.1705 29.2831 31.9396L29.755 31.5988C29.911 31.4884 30.0406 31.3396 30.1852 31.2142C30.3337 31.0849 30.4703 30.9471 30.5885 30.7913C30.7062 30.6426 30.8359 30.4938 30.9536 30.3381L31.2581 29.8505C31.3644 29.6809 31.4479 29.5018 31.5393 29.3341C31.6267 29.1609 31.7067 28.9833 31.7792 28.7987C31.8512 28.6256 31.9123 28.4311 31.9655 28.2445C32.0226 28.05 32.0906 27.8634 32.1249 27.6733C32.1557 27.4709 32.2084 27.2878 32.2431 27.0843C32.3753 26.3052 32.4135 25.5071 32.3678 24.7046Z" fill="white"/>
<path d="M36.6208 19.1189C36.8831 18.6537 37.1196 18.1721 37.3401 17.6806C37.4504 17.4482 37.5681 17.2099 37.6595 16.9532C37.7623 16.7114 37.8806 16.4651 37.9715 16.2158L38.2342 15.4536C38.3177 15.2064 38.3897 14.9551 38.4697 14.7009C38.5531 14.4476 38.6296 14.1929 38.6753 13.9337L38.8427 13.166L38.9684 12.562L39.1512 13.1531C39.2689 13.5168 39.3643 13.8979 39.49 14.2735C39.638 14.6412 39.7448 15.0203 39.9042 15.3651L40.1327 15.9024L40.3915 16.4243C40.4715 16.5979 40.5778 16.7596 40.6767 16.9178C40.7681 17.093 40.8634 17.2532 40.9851 17.4074C41.0989 17.5621 41.2022 17.7144 41.3423 17.8517C41.4605 17.9905 41.5936 18.1333 41.7342 18.2537C41.8713 18.3721 42.0159 18.4955 42.1718 18.591C42.3129 18.7134 42.4952 18.7761 42.6477 18.8577C42.8265 18.9184 42.9865 19.0084 43.1688 19.0234C43.3436 19.0711 43.5304 19.0786 43.7052 19.0786C43.8915 19.0731 44.0698 19.0731 44.2452 19.0199C44.424 18.9895 44.5989 18.9318 44.7777 18.8711L45.1234 18.7527L45.0896 19.1204L45.0171 20.0428C44.9943 20.3473 44.9943 20.6657 44.9903 20.9667C44.9714 21.2886 44.9903 21.5881 44.9938 21.9001C44.9938 22.207 45.0206 22.5155 45.0509 22.826C45.0772 23.129 45.1006 23.4454 45.1691 23.7499C45.2029 24.0529 45.256 24.3499 45.3176 24.6474C45.3857 24.9673 45.4503 25.2569 45.5382 25.5638C45.6067 25.8539 45.6862 26.1653 45.8044 26.444C45.9033 26.741 45.9986 27.0365 46.1313 27.3032C46.2455 27.6027 46.3712 27.8883 46.5157 28.1569C46.6523 28.4351 46.8048 28.7092 46.9722 28.9724C47.1203 29.2391 47.3031 29.4943 47.4819 29.7515C47.6493 29.9953 47.8544 30.2316 48.0487 30.4754C48.2389 30.7252 48.4744 30.9461 48.6765 31.1764C48.8891 31.3919 49.133 31.5899 49.3645 31.8108C49.597 32.0108 49.8404 32.1993 50.0992 32.3914C49.8329 32.2143 49.5667 32.0411 49.3193 31.8541C49.0759 31.6575 48.8211 31.4769 48.5961 31.262C48.3686 31.0426 48.1212 30.8431 47.915 30.5933C47.7024 30.365 47.4814 30.1321 47.2991 29.8809C47.0974 29.6311 46.9146 29.3814 46.7472 29.1092C46.5684 28.8585 46.405 28.5719 46.2569 28.2938C46.093 28.0256 45.9599 27.734 45.8308 27.4425C45.6862 27.1664 45.5799 26.8654 45.4617 26.5698C45.336 26.2708 45.2446 25.9663 45.1612 25.6648C45.0509 25.3713 44.9823 25.0514 44.9252 24.7524C44.8452 24.4399 44.7961 24.118 44.7464 23.819C44.6893 23.4971 44.6475 23.1882 44.6247 22.8628C44.5869 22.5429 44.5561 22.2339 44.5561 21.916C44.5407 21.6016 44.5179 21.2816 44.5293 20.9597C44.5373 20.6453 44.5373 20.3368 44.5561 20.0199L44.6247 19.0736L44.9406 19.3134C44.7389 19.3761 44.5487 19.4503 44.3396 19.4906C44.1334 19.5358 43.9134 19.5423 43.7042 19.5532C43.4911 19.5418 43.278 19.5318 43.0649 19.4826C42.8633 19.4503 42.673 19.3567 42.4639 19.2771C42.2851 19.1801 42.0834 19.102 41.92 18.9726C41.7486 18.8527 41.5852 18.7229 41.4441 18.5801C41.2767 18.4507 41.1436 18.2905 41.0144 18.1403C40.8619 17.986 40.7591 17.8184 40.6449 17.6562C40.5157 17.4905 40.4054 17.3228 40.3106 17.1412C40.2077 16.9741 40.1014 16.8004 40.0175 16.6213L39.7587 16.0706L39.5302 15.5183C39.3817 15.1467 39.2754 14.7621 39.1497 14.381C39.0434 13.9884 38.9441 13.6193 38.8452 13.2382L39.1611 13.2212L38.9555 14.0058C38.8984 14.2745 38.8144 14.5297 38.727 14.7775C38.6321 15.0407 38.5521 15.3014 38.4607 15.5417L38.1413 16.279C38.046 16.5343 37.9128 16.7671 37.8026 17.0218C37.7002 17.2601 37.5666 17.4985 37.4415 17.7343C37.1911 18.2049 36.9134 18.6676 36.6208 19.1189Z" fill="white"/>
<path d="M9.95733 69.5958C11.4411 71.5178 11.8285 74.0974 11.6119 76.4771C11.3268 79.5234 10.3716 82.5618 8.83521 85.24C10.836 83.038 13.427 81.0285 16.2037 80.4986C16.5653 80.4359 16.923 80.3921 17.2846 80.3732C18.1862 80.209 18.9849 80.2548 19.4072 80.7364C19.8065 80.9409 20.1145 81.2145 20.339 81.5921C22.0016 78.0065 25.6993 75.6517 29.458 74.5566C30.7818 74.1681 32.0525 73.9392 33.3415 73.9904C33.9465 73.9795 34.5063 74.0571 34.9966 74.2308C35.016 74.2342 35.012 74.1924 35.0348 74.2019C35.4799 74.4019 35.8678 74.5621 36.3397 74.6571C36.3661 74.6571 36.3894 74.688 36.4197 74.6994L36.4118 74.684C36.5792 74.7472 36.7466 74.7984 36.9025 74.8765C36.8226 73.27 38.1995 71.4585 39.3976 70.6431C41.5966 69.1441 43.67 69.0127 45.9445 69.1077C46.2108 68.9575 46.3976 68.5838 46.1422 68.3515C44.1449 66.338 41.9767 65.1644 40.3677 62.6708C38.4355 59.6543 38.2258 56.6218 38.283 53.2213C39.1006 51.8536 40.0712 51.0456 41.4596 50.9063C41.3413 51.0968 41.2465 51.2759 41.1595 51.4585C40.6305 52.5312 40.4403 55.4139 41.9771 55.9203C44.739 56.8159 45.5491 53.4949 44.5065 51.5366C44.0391 50.67 43.2135 50.2829 42.2891 50.2411C42.6731 49.7784 43.0993 49.3839 43.4991 49.0734C46.8238 46.5111 49.2741 51.47 47.0865 53.9581C46.9191 54.1546 47.1094 54.4705 47.3453 54.2875C49.8404 52.3272 48.0909 48.054 44.9943 48.2271C43.7654 48.2898 42.6736 49.2107 41.9126 50.2406C40.4447 50.3112 38.889 51.1953 38.2646 52.4163C38.2646 52.4163 38.2646 52.4163 38.2646 52.4337C38.2531 52.4352 38.2457 52.4451 38.2343 52.4451C38.2343 52.4526 38.2303 52.4451 38.2189 52.4526C38.2109 52.4526 38.2109 52.4526 38.2075 52.4526C37.7018 52.8451 37.2562 52.9272 36.6174 52.8815C36.5598 52.8735 36.4912 52.8257 36.4306 52.7859C34.6007 52.963 32.6604 52.6123 31.0595 51.959C29.2216 51.2023 27.9892 49.7167 26.5362 48.4684C26.4185 48.3714 26.2506 48.4913 26.2397 48.6211C26.1403 50.4252 25.9426 51.7511 24.7028 53.1496C23.5807 54.4317 21.9827 55.1731 20.4041 55.6989C17.5017 56.6686 14.2719 56.2701 11.297 55.9218C11.2478 55.9198 11.1902 55.9542 11.1371 55.9975C11.0839 55.9557 11.0223 55.9193 10.9622 55.8775C12.3923 58.2343 12.6933 61.0175 11.4147 63.6046C10.8976 64.933 10.0984 66.1196 9.07911 66.8589C8.60771 67.3181 8.10551 67.7296 7.55762 68.0669C8.51929 68.3266 9.47401 68.961 9.95733 69.5958ZM41.8207 50.8854C42.0755 50.8814 42.3492 50.8889 42.6308 50.9292C44.7534 51.2167 45.3241 55.5741 42.6308 55.4402C41.4178 55.3815 41.2614 53.4536 41.2539 52.6571C41.239 52.0471 41.4789 51.4416 41.8207 50.8854Z" fill="#43AA00"/>
<path d="M27.9738 74.4442C24.7669 75.6462 21.9823 77.6274 20.0877 80.4568C19.2661 78.9647 16.1844 79.6239 14.872 80.0528C13.4723 80.516 12.1067 81.314 10.8515 82.2852C11.8633 79.8906 12.3124 77.1512 12.213 74.8825C12.0918 72.2496 10.6573 69.3097 8.21484 68.1893C12.1639 66.6823 14.3092 59.6339 11.3835 56.5621C16.4775 58.0975 23.5758 57.3666 26.1205 52.0531C26.3182 51.6774 26.7712 49.4431 26.4822 49.2296C27.7031 50.1321 28.5784 51.3824 29.9096 52.2168C31.8081 53.4262 35.3573 54.0835 37.5598 53.0436C37.5444 53.0949 37.5409 53.1481 37.5295 53.2014C32.1201 54.9218 27.7414 57.5338 23.7506 61.6299C19.7867 65.7047 16.2947 70.4297 14.4493 75.8726C14.3733 76.1333 14.7459 76.1388 14.8298 75.9184C18.6412 65.9445 27.7528 57.9184 37.4147 53.8203C36.9165 56.7104 37.301 59.4045 38.5448 62.1668C39.8383 64.9862 42.0214 66.7709 44.3764 68.5719C42.2499 68.9167 40.409 69.1321 38.4837 70.5819C37.4415 71.3516 36.4828 72.5591 36.1749 73.8681C34.102 72.3367 29.8649 73.7312 27.9738 74.4442Z" fill="#5CCC00"/>
<path d="M38.5458 62.1678C37.3015 59.405 36.9175 56.7109 37.4157 53.8213C28.1447 57.7532 19.3839 65.2997 15.3216 74.7129C17.2956 71.2436 21.872 63.7603 31.8886 57.5497C35.7606 55.4333 33.3952 62.3946 40.5998 67.1171C40.5998 67.1171 35.7989 66.4176 35.5366 70.8342C33.5129 67.3246 22.6861 70.3769 20.2059 78.1741C17.9846 74.8895 12.8409 78.8946 11.7377 80.91C13.6893 77.088 14.1344 69.3953 9.77458 68.351C14.6098 67.0918 15.3936 61.2031 13.1032 57.9721C17.2345 58.5169 22.8913 58.0348 24.6755 54.1715C21.4647 57.5343 15.6976 57.8711 11.3835 56.5621C14.3092 59.6339 12.1634 66.6823 8.21484 68.1893C10.6573 69.3092 12.0918 72.2496 12.213 74.8825C12.3124 77.1512 11.8633 79.8911 10.8515 82.2852C12.1067 81.3135 13.4723 80.5155 14.872 80.0528C16.1844 79.6239 19.2661 78.9647 20.0877 80.4568C21.9823 77.6274 24.7669 75.6462 27.9738 74.4442C29.8649 73.7312 34.102 72.3372 36.1759 73.8686C36.4838 72.5596 37.4425 71.3521 38.4847 70.5824C40.41 69.1326 42.2509 68.9177 44.3774 68.5724C42.0224 66.7719 39.8393 64.9867 38.5458 62.1678Z" fill="#5DBA02"/>
<path d="M31.436 53.7984C33.6042 54.5546 16.234 61.9289 13.9897 76.3418C14.0081 76.8771 14.172 76.7229 14.564 76.0726C14.4765 76.0537 14.4194 75.9855 14.4502 75.8731C16.2951 70.4297 19.7876 65.7047 23.7515 61.6304C27.7423 57.5348 32.1209 54.9223 37.5304 53.2019C37.5418 53.1486 37.5458 53.0954 37.5607 53.0441C35.3581 54.0845 31.809 53.4272 29.9105 52.2173C28.5788 51.3829 27.704 50.1326 26.483 49.2301C26.5327 49.2739 26.563 49.3669 26.571 49.5043C27.6047 51.1789 29.1679 52.983 31.436 53.7984Z" fill="#5CCC00"/>
<path d="M26.0988 58.0751C26.0988 58.0751 17.6648 65.5987 15.3898 71.9809C13.1147 78.3647 14.2751 63.9942 26.0988 58.0751Z" fill="#5DBA02"/>
<path d="M28.0464 57.2308C27.6123 57.6348 27.1255 57.8084 26.9466 57.6124C26.7718 57.4199 26.9923 56.9547 27.4225 56.5621C27.8562 56.1716 28.343 56.0099 28.5104 56.1925C28.6812 56.3676 28.4761 56.8482 28.0464 57.2308Z" fill="#5DBA02"/>
<path d="M12.4033 66.9072C12.6621 66.6027 12.9174 66.2878 13.13 65.943C13.2478 65.7753 13.3352 65.5982 13.446 65.4305C13.5562 65.2554 13.6322 65.0683 13.7236 64.8952C13.8265 64.7126 13.8876 64.5086 13.9675 64.3315C14.047 64.1429 14.0967 63.9444 14.1727 63.7504C14.2412 63.5638 14.2869 63.3598 14.3287 63.1544C14.3629 62.9563 14.4201 62.7618 14.4315 62.5543C14.4508 62.3523 14.4926 62.1489 14.4961 61.9409L14.5075 61.324C14.4807 61.12 14.4504 60.912 14.435 60.6971C14.4047 60.5065 14.3744 60.2931 14.3098 60.0971C14.2412 59.8966 14.2109 59.6931 14.1344 59.506L13.8985 58.9249C13.7465 58.5383 13.4951 58.205 13.3054 57.8408L13.0848 58.2124C13.5071 58.2642 13.9372 58.2831 14.3634 58.3304L15.6529 58.3721C16.0906 58.3721 16.5242 58.3547 16.9544 58.3547C17.3806 58.3304 17.8137 58.2711 18.2364 58.2328C18.4535 58.208 18.6626 58.1453 18.8757 58.1035L19.518 57.9856C19.7311 57.9418 19.9363 57.8483 20.1345 57.793L20.7509 57.597C20.9595 57.5264 21.1463 57.4025 21.3286 57.3184L21.9113 57.0194C22.2724 56.7831 22.6186 56.5223 22.9609 56.2706L22.4055 56.593C22.2227 56.688 22.0364 56.8159 21.8502 56.9149L21.264 57.1413C21.0628 57.2154 20.8761 57.3104 20.6709 57.3597L20.0589 57.5259C19.8493 57.5756 19.6591 57.6512 19.4425 57.6806L18.8112 57.7721C18.6135 57.8005 18.4073 57.8408 18.1873 57.8542L17.5788 57.902C17.3508 57.908 17.1486 57.9308 16.9315 57.9308C16.5133 57.9308 16.0871 57.9423 15.6768 57.9423L14.3947 57.8637C13.9765 57.8298 13.5657 57.7726 13.1395 57.7463L12.6909 57.7119L12.9189 58.1159C13.1052 58.4493 13.3412 58.7657 13.4857 59.1179L13.7251 59.6548C13.7937 59.8289 13.8354 60.0264 13.9 60.2095C13.9536 60.3886 14.0028 60.5792 14.0102 60.7697C14.0376 60.9563 14.0793 61.1623 14.1021 61.3449L14.1136 61.9339C14.1136 62.1205 14.0907 62.3205 14.0872 62.513C14.0684 62.717 14.0376 62.9096 14.0107 63.1021C13.9775 63.2907 13.9427 63.4773 13.8856 63.6698C13.8359 63.8623 13.7942 64.0579 13.7256 64.2449C13.6531 64.428 13.6044 64.6146 13.5205 64.8032C13.2403 65.539 12.8558 66.242 12.4033 66.9072Z" fill="white"/>
<path d="M13.1639 73.8915C13.1415 74.4268 13.1033 74.9621 13.0422 75.4895C13.0119 75.7547 13.0004 76.0174 12.9433 76.2821C12.9021 76.5452 12.8748 76.8119 12.8176 77.0786L12.6617 77.8522C12.6045 78.1095 12.536 78.3761 12.464 78.6373C12.4143 78.8946 12.3462 79.1438 12.2509 79.3971L11.9995 80.1344L11.7983 80.723L12.2543 80.3075C12.5514 80.0424 12.8365 79.7722 13.1216 79.5224C13.4376 79.2841 13.7227 79.0234 14.0346 78.804L14.514 78.4597L14.9893 78.1547C15.1642 78.0373 15.3281 77.9493 15.4995 77.8592C15.6624 77.7702 15.8338 77.6861 16.0201 77.6139C16.1954 77.5413 16.3623 77.4597 16.5451 77.4119C16.7279 77.3587 16.9028 77.2995 17.1079 77.2692C17.2833 77.2348 17.4621 77.2159 17.6483 77.2025C17.8311 77.1736 18.0134 77.2214 18.1997 77.2249C18.3746 77.2632 18.5534 77.2821 18.7208 77.3622C18.8956 77.4119 19.0521 77.4881 19.2076 77.5891C19.3601 77.6841 19.5235 77.793 19.6452 77.9224C19.7704 78.0368 19.8886 78.1736 20.0257 78.3224L20.2502 78.5965L20.4251 78.2687L20.8284 77.4398C20.9655 77.1652 21.1329 76.895 21.2849 76.6358C21.43 76.3577 21.5969 76.102 21.7722 75.8472C21.9317 75.5786 22.1065 75.3308 22.3007 75.0756C22.4761 74.8298 22.6549 74.5745 22.868 74.3422C23.0583 74.1153 23.2634 73.8715 23.4651 73.6521C23.6782 73.4198 23.8947 73.1929 24.1272 72.9855C24.3363 72.774 24.5609 72.5551 24.8043 72.3631C25.0402 72.165 25.2836 71.9625 25.531 71.7914C25.7818 71.6063 26.0332 71.4272 26.3034 71.271C26.5657 71.0993 26.8284 70.9476 27.1096 70.8078C27.3719 70.659 27.6615 70.5336 27.9471 70.4058C28.2168 70.2779 28.5178 70.1754 28.8179 70.0739C29.107 69.9575 29.408 69.8928 29.704 69.8073C30.0011 69.7157 30.313 69.6814 30.625 69.6132C30.9334 69.5749 31.2374 69.5346 31.5529 69.4933C31.2374 69.5082 30.9215 69.5162 30.6101 69.5486C30.3021 69.5884 29.9896 69.6187 29.6782 69.6894C29.3737 69.76 29.0578 69.8018 28.7573 69.9083C28.4533 69.9864 28.1522 70.0819 27.8557 70.1943C27.5591 70.3088 27.2695 70.4282 26.9884 70.5749C26.6953 70.7008 26.4176 70.861 26.1474 71.0098C25.8698 71.1655 25.603 71.3431 25.3407 71.5222C25.0785 71.6839 24.8316 71.8919 24.5758 72.0879C24.3209 72.267 24.0815 72.4844 23.8456 72.6999C23.6061 72.9039 23.4005 73.1402 23.1765 73.3611C22.948 73.5934 22.7463 73.8317 22.5412 74.0755C22.3241 74.3193 22.1338 74.5671 21.951 74.8243C21.7533 75.0721 21.57 75.3313 21.3992 75.592C21.2203 75.8641 21.0455 76.1273 20.8895 76.4C20.7261 76.6741 20.5662 76.9473 20.4335 77.2209L19.9924 78.0707L20.3878 78.0289C20.2582 77.8632 20.129 77.703 19.9582 77.5657C19.8136 77.4189 19.6353 77.299 19.452 77.1806C19.2657 77.0776 19.0794 76.9826 18.8738 76.9179C18.6796 76.8363 18.459 76.8229 18.2573 76.7731C18.0447 76.7582 17.8351 76.7333 17.622 76.7527C17.4129 76.7731 17.2107 76.7885 17.0096 76.8398C16.8079 76.8686 16.6176 76.9373 16.4199 77C16.2143 77.0552 16.032 77.1373 15.8532 77.2209C15.655 77.2935 15.4836 77.3866 15.3053 77.4876C15.1264 77.5886 14.9476 77.6781 14.7802 77.7925L14.274 78.1144L13.7987 78.4746C13.4828 78.7199 13.1942 78.9891 12.8892 79.2503C12.6001 79.5244 12.3149 79.8085 12.0373 80.0747L12.3 80.2483L12.5206 79.4826C12.6155 79.208 12.6805 78.9528 12.7337 78.6861C12.7794 78.4289 12.8479 78.1677 12.8897 77.8935L13.0119 77.107C13.0576 76.8363 13.065 76.5696 13.1028 76.299C13.1296 76.0323 13.145 75.7696 13.1524 75.5024C13.1872 74.9621 13.1872 74.4308 13.1639 73.8915Z" fill="white"/>
<path d="M80.1212 56.7776C81.6656 61.4528 79.1362 66.4977 74.4644 68.0505C69.7932 69.6088 64.7523 67.0639 63.204 62.3867C61.6632 57.7229 64.1816 52.6685 68.8653 51.1162C73.5286 49.5689 78.5734 52.1078 80.1212 56.7776Z" fill="#930000"/>
<path d="M79.7373 56.1716C81.1291 60.3593 78.8511 64.8917 74.6582 66.2878C70.4663 67.6709 65.947 65.4057 64.5507 61.211C63.1619 57.0044 65.4289 52.4755 69.6293 51.0849C73.8217 49.6928 78.3489 51.9715 79.7373 56.1716Z" fill="#FE0000"/>
<path opacity="0.5" d="M73.9513 58.9249C75.8533 58.2945 76.8879 56.2293 76.2566 54.3203C75.6327 52.4113 73.5633 51.3749 71.6574 52.0078C69.744 52.6387 68.7127 54.7074 69.3401 56.6124C69.972 58.5269 72.0374 59.5652 73.9513 58.9249Z" fill="white"/>
<path opacity="0.5" d="M76.9754 59.8757C77.5039 59.702 77.793 59.1324 77.6216 58.597C77.4428 58.0577 76.8721 57.7721 76.3396 57.9492C75.7991 58.1284 75.518 58.7 75.6968 59.2353C75.8761 59.7727 76.4389 60.0657 76.9754 59.8757Z" fill="white"/>
<path d="M73.8943 51.1958C73.8943 51.1958 74.0468 51.2033 74.2902 51.27C74.4233 51.2963 74.5713 51.3481 74.7502 51.3993C74.9061 51.466 75.1192 51.5247 75.3169 51.6182C75.4158 51.664 75.5221 51.7153 75.6363 51.763C75.7387 51.8158 75.8489 51.8889 75.9672 51.9421C76.1917 52.068 76.4197 52.2257 76.6482 52.3919C76.8613 52.5615 77.1047 52.7367 77.3063 52.9576C77.4092 53.0645 77.5199 53.171 77.6218 53.276L77.8994 53.6302C78.1016 53.8646 78.2303 54.1312 78.3942 54.3924C78.4816 54.4989 78.5273 54.6477 78.5844 54.7845C78.6565 54.9273 78.7026 55.0571 78.7553 55.1845C78.8621 55.4437 78.9118 55.7178 78.9873 55.9636C79.0067 56.0233 79.0255 56.0875 79.033 56.1467C79.0409 56.2079 79.0484 56.2671 79.0633 56.3373C79.0712 56.4517 79.0901 56.5701 79.1055 56.6786C79.1363 56.902 79.1661 57.1054 79.1586 57.29C79.1586 57.4711 79.1661 57.6274 79.1586 57.7587C79.1432 58.0159 79.1433 58.1682 79.1433 58.1682C79.1433 58.1682 79.1358 58.0154 79.0901 57.7647C79.0821 57.6348 79.0673 57.4786 79.0404 57.3015C79.0404 57.1144 78.9758 56.9204 78.9371 56.7074C78.9148 56.5965 78.8919 56.4786 78.8611 56.3666C78.8502 56.3089 78.8422 56.2557 78.8268 56.1965C78.808 56.1393 78.7926 56.088 78.7662 56.0328C78.6748 55.789 78.6068 55.5338 78.5074 55.284C78.3818 55.0402 78.2864 54.779 78.1349 54.5352C77.9789 54.2994 77.8532 54.0367 77.663 53.8268L77.3967 53.476C77.2979 53.3675 77.199 53.2685 77.0927 53.1621C76.9099 52.9526 76.6814 52.779 76.4837 52.5944C76.2592 52.4362 76.0585 52.2645 75.845 52.1372C75.7382 52.0725 75.6433 52.0018 75.533 51.9352C75.4456 51.8894 75.3353 51.8247 75.2439 51.771C75.0497 51.6685 74.8634 51.5789 74.704 51.5028C74.5331 51.4381 74.3955 51.3635 74.2778 51.3157C74.0388 51.2297 73.8943 51.1958 73.8943 51.1958Z" fill="white"/>
<path d="M38.9298 78.8085C42.1859 77.7264 43.9512 74.2059 42.8669 70.9481C41.787 67.6823 38.2756 65.9126 35.0225 66.9967C31.7629 68.0868 29.9971 71.5998 31.07 74.8611C32.1544 78.1264 35.6697 79.8941 38.9298 78.8085Z" fill="#930000"/>
<path d="M38.4277 78.8562C41.3494 77.8891 42.9395 74.7243 41.9574 71.7924C40.9873 68.858 37.8376 67.2788 34.9202 68.247C31.991 69.2262 30.4045 72.379 31.3751 75.3069C32.3447 78.2368 35.4984 79.8279 38.4277 78.8562Z" fill="#FE0000"/>
<path opacity="0.5" d="M37.5602 74.4532C37.9974 75.789 37.2791 77.2288 35.9473 77.6751C34.6161 78.1189 33.1776 77.393 32.7325 76.0557C32.2874 74.7318 33.0221 73.278 34.3454 72.8437C35.6851 72.3964 37.1196 73.1238 37.5602 74.4532Z" fill="white"/>
<path opacity="0.5" d="M39.3559 75.7547C39.4741 76.1318 39.2685 76.5318 38.9034 76.6502C38.5338 76.7736 38.131 76.5741 38.0132 76.2044C37.8796 75.8293 38.0887 75.4308 38.4543 75.3069C38.8269 75.1761 39.2267 75.387 39.3559 75.7547Z" fill="white"/>
<path d="M33.2158 77.6562C33.2158 77.6562 33.2844 77.7323 33.4135 77.8443C33.4895 77.9075 33.5735 77.9726 33.6763 78.0423C33.7866 78.1149 33.9043 78.2045 34.0409 78.2692C34.1134 78.3075 34.1854 78.3513 34.2619 78.3931C34.3379 78.4294 34.4139 78.4692 34.4939 78.5015C34.6613 78.5702 34.8362 78.6383 35.0224 78.6961C35.2127 78.7438 35.4069 78.8085 35.616 78.8274C35.7149 78.8448 35.8251 78.8582 35.9394 78.8752H36.2439C36.4565 78.8946 36.6621 78.8563 36.8752 78.8448C36.9815 78.8368 37.0729 78.8045 37.1753 78.7801C37.2781 78.7572 37.3695 78.7344 37.4723 78.7155C37.6586 78.6562 37.83 78.5707 37.9969 78.5189C38.0391 78.5015 38.0808 78.4751 38.126 78.4692C38.1643 78.4483 38.1985 78.4234 38.2328 78.3985C38.3123 78.3642 38.3808 78.3224 38.4499 78.2846C38.5865 78.2085 38.7161 78.1378 38.8145 78.0597C38.9099 77.9836 39.0013 77.9144 39.0693 77.8632C39.2139 77.7508 39.2978 77.6861 39.2978 77.6861C39.2978 77.6861 39.2104 77.7373 39.0504 77.8328C38.97 77.8801 38.8751 77.9338 38.7688 77.9925C38.6699 78.0672 38.5294 78.1085 38.3962 78.1776C38.3237 78.2159 38.2557 78.2443 38.1752 78.2786C38.1374 78.2975 38.1071 78.3144 38.0689 78.3373C38.0272 78.3508 37.981 78.3562 37.9392 78.3642C37.7758 78.4159 37.6049 78.4886 37.4261 78.5304C37.2319 78.5702 37.0382 78.6159 36.8439 78.6388C36.6497 78.6523 36.4406 78.6846 36.2469 78.6617L35.9464 78.6562C35.8475 78.6488 35.7487 78.6433 35.6458 78.6294C35.4476 78.6065 35.2614 78.5533 35.0751 78.5229C34.8963 78.4697 34.7174 78.4239 34.5575 78.3513C34.4666 78.3264 34.398 78.2975 34.3106 78.2672C34.2381 78.2254 34.1621 78.197 34.101 78.1682C33.9564 78.1 33.8347 78.0314 33.721 77.9821C33.6107 77.9115 33.5158 77.8562 33.4428 77.8124C33.2998 77.7229 33.2158 77.6562 33.2158 77.6562Z" fill="white"/>
<path d="M63.0525 53.8208C65.4527 61.0777 61.5271 68.9306 54.2683 71.3401C47.0061 73.7427 39.1697 69.8028 36.769 62.5409C34.3608 55.2666 38.2904 47.4271 45.5527 45.0096C52.8074 42.6016 60.6478 46.5415 63.0525 53.8208Z" fill="#9E0000"/>
<path d="M62.4584 52.8566C64.6192 59.3761 61.0889 66.4196 54.5649 68.5799C48.0482 70.7516 41.0145 67.2117 38.8537 60.6906C36.6969 54.1651 40.2267 47.1221 46.7473 44.9524C53.2599 42.7941 60.2981 46.3281 62.4584 52.8566Z" fill="#FE0000"/>
<path opacity="0.5" d="M53.4655 57.1567C56.429 56.1716 58.0384 52.971 57.0569 49.9859C56.0753 47.0231 52.8724 45.4096 49.901 46.3927C46.926 47.3793 45.3206 50.5918 46.3022 53.5636C47.2877 56.5398 50.4946 58.1393 53.4655 57.1567Z" fill="white"/>
<path opacity="0.5" d="M58.1717 58.6353C58.9973 58.3552 59.4498 57.4676 59.1756 56.6348C58.894 55.8139 57.9999 55.3566 57.1748 55.6363C56.3378 55.9144 55.9002 56.8005 56.1744 57.6348C56.4481 58.4677 57.3342 58.9134 58.1717 58.6353Z" fill="white"/>
<path d="M53.3743 45.1146C53.3743 45.1146 53.6102 45.1375 53.9947 45.2444C54.1998 45.2803 54.4323 45.3624 54.6986 45.4479C54.9648 45.5474 55.2728 45.631 55.5847 45.7853C55.7447 45.8639 55.9155 45.94 56.0829 46.0156C56.2424 46.1111 56.4212 46.2007 56.5966 46.2977C56.9428 46.4808 57.293 46.7301 57.6581 46.9758C57.9964 47.2599 58.362 47.5231 58.6774 47.8619C58.8448 48.0311 59.0042 48.1992 59.1756 48.3649L59.6092 48.9197C59.9172 49.2739 60.1229 49.7063 60.3702 50.0968C60.5034 50.2894 60.5833 50.5063 60.6673 50.7162C60.7622 50.9202 60.8501 51.1337 60.937 51.3337C61.1009 51.7451 61.1769 52.1625 61.2907 52.5491C61.322 52.6392 61.3404 52.7456 61.3672 52.8387C61.3781 52.9322 61.3935 53.0252 61.4015 53.1242C61.4318 53.3088 61.4541 53.4879 61.4735 53.6616C61.5266 54.0004 61.5803 54.3203 61.5574 54.6069C61.5574 54.885 61.5614 55.1362 61.5574 55.3343C61.542 55.7477 61.5341 55.98 61.5341 55.98C61.5341 55.98 61.5157 55.7477 61.4581 55.3437C61.4432 55.1382 61.4089 54.8979 61.3861 54.6258C61.3741 54.3437 61.2793 54.0467 61.2187 53.7093C61.1764 53.5362 61.1387 53.3591 61.1198 53.1835C61.089 53.0919 61.0667 53.0009 61.0473 52.9068C61.021 52.8098 60.9862 52.7222 60.9524 52.6387C60.8158 52.269 60.709 51.8725 60.553 51.4839C60.3633 51.1048 60.2073 50.6988 59.9788 50.3217C59.728 49.954 59.5258 49.5446 59.2292 49.2117L58.8219 48.6704C58.6699 48.5107 58.5179 48.356 58.3545 48.1888C58.0654 47.8609 57.7152 47.5962 57.4107 47.3082C57.061 47.0584 56.7491 46.8012 56.4148 46.5937C56.2434 46.4947 56.0954 46.3763 55.9389 46.2853C55.7789 46.1977 55.6195 46.1077 55.471 46.0246C55.1704 45.8624 54.8893 45.735 54.6345 45.6071C54.3792 45.5027 54.17 45.3997 53.9763 45.335C53.5953 45.1778 53.3743 45.1146 53.3743 45.1146Z" fill="white"/>
</svg>
